<svg width="800" height="600" xmlns="http://www.w3.org/2000/svg">

 <g>
  <title>Layer 1</title>
  <path 
  d="m67,135c1,0 1.90029,0.20831 8,3c23.64156,10.82019 63.94348,24.15736 125,46c61.94305,22.15979 104.86505,34.58482 121,38c22.83923,4.83423 33.21771,5.60161 39,4c5.61938,-1.55647 7.54535,-5.58469 12,-12c4.59839,-6.6223 10.55807,-21.95639 12,-44c1.63312,-24.96663 0.7706,-36.26259 -4,-49c-3.45441,-9.22319 -9.8139,-16.49487 -28,-18c-28.90118,-2.39194 -55.79727,4.57253 -71,14c-56.43083,34.99373 -70.48767,61.75848 -80,94c-8.04863,27.2804 -8.50552,70.04636 16,108c22.02687,34.11478 53.94049,67.32358 104,81c70.74225,19.327 163,-4 227,-34l29,-22" id="svg_1" stroke="#000" fill="none"
  />
 </g>
</svg>