<svg width="2000" height="500" xmlns="http://www.w3.org/2000/svg">
 <g>
  <title>Layer 1</title>
  <text xml:space="preserve" text-anchor="start" font-family="Noto Sans JP" font-size="24" stroke-width="0" id="svg_6" y="223" x="132" stroke="#000" fill="#000000"/>
  <polyline fill="none" stroke="#000" opacity="NaN" points="362,291 " id="svg_1" stroke-linecap="round"/>
  <polyline fill="none" stroke="#000" opacity="NaN" points="443,239 " id="svg_7" stroke-linecap="round"/>
  <polyline stroke-linecap="round" id="svg_3" points="228,380 " opacity="NaN" stroke="#000" fill="none"/>
  <polyline stroke-linecap="round" id="svg_4" points="161,334 " opacity="NaN" stroke="#000" fill="none"/>
  <polyline stroke-linecap="round" id="svg_5" points="184,396 " opacity="NaN" stroke="#000" fill="none"/>
  <path id="sdandasi" d="m648,366c0,0 0,-1 0,-6c0,-11 -1.02789,-27.1116 1,-41c1.33203,-9.1228 5.64752,-13.9725 10,-15c3.89301,-0.91901 8.74109,2.72696 11,10c3.02484,9.73911 3.49939,22.96262 4,33c0.29889,5.99255 1,9 1,10c0,0 -0.22583,-2.06332 1,-6c2.54022,-8.15765 8.448,-18.44547 15,-26c5.55957,-6.41025 11.92578,-10.49756 17,-11c4.97565,-0.49268 11.56982,4.62344 20,18c8.59717,13.64145 15.45563,30.84555 20,45c2.22546,6.93161 4,12 4,14c0,0 0,0 -2,0c-9,0 -30.92224,-2.91965 -61,-5c-25.95721,-1.79535 -44,-2 -56,-2c-6,0 -8,-1 -8,-1c3,-1 23.53241,-9.43921 80,-19c95.38947,-16.15085 194.99469,-17.5 266,-18c39.99902,-0.28168 62,1 79,1c5,0 6,0 6,0c0,0 -1.02869,0.04276 -7,-4c-16.07813,-10.88544 -39.94873,-27.07303 -67,-46c-22.95667,-16.0621 -36.70154,-25.4201 -45,-31c-4.83881,-3.2536 -7.08246,-3.99658 -7,-3c0.50171,6.06204 7.81451,30.07251 29,84c24.78326,63.08557 41.02576,99.58072 50,123c6.78925,17.71738 9,26 10,29c0,0 0.14728,-1.1731 -1,-2c-1.81396,-1.30746 -2.29291,-3.29291 -3,-4c-0.70709,-0.70709 -1,0 -1,0c0,0 0.06836,-0.07339 -1,-1c-11.33179,-9.82803 -49.06482,-39.92877 -115,-100c-69.06799,-62.92545 -119.35077,-106.58966 -151,-134c-18.20477,-15.76659 -29,-26 -35,-31l-1,-2l-1,0l0,-1" id="svg_14" stroke="#000" fill="none"/>
 </g>

</svg>