<svg xmlns="http://www.w3.org/2000/svg" viewBox="0 0 960.25 939.69"><defs><style>.cls-1{fill:#220f14;}.cls-2{fill:#130d15;}.cls-3{fill:#411314;}.cls-4{fill:#381214;}.cls-5{fill:#5e1713;}.cls-6{fill:#771a13;}.cls-7{fill:#8a1d12;}.cls-8{fill:#4e1513;}.cls-9{fill:#1d0f14;}.cls-10{fill:#a32012;}.cls-11{fill:#cf2611;}.cls-12{fill:#491414;}.cls-13{fill:#ae2112;}.cls-14{fill:#341214;}.cls-15{fill:#281014;}.cls-16{fill:#ff553f;}.cls-17{fill:#ff3f26;}.cls-18{fill:#ff3116;}.cls-19{fill:#981f12;}.cls-20{fill:#ac2112;}.cls-21{fill:#d22611;}.cls-22{fill:#af2212;}.cls-23{fill:#241014;}.cls-24{fill:#5d1713;}.cls-25{fill:#ff4c34;}.cls-26{fill:#ffccc5;}.cls-27{fill:#ffb1a7;}.cls-28{fill:#ff442b;}.cls-29{fill:#ff6955;}.cls-30{fill:#ff361b;}.cls-31{fill:#821c12;}.cls-32{fill:#ff6e5b;}.cls-33{fill:#a12012;}.cls-34{fill:#ff4229;}.cls-35{fill:#791b13;}.cls-36{fill:#ff351a;}.cls-37{fill:#2d1114;}.cls-38{fill:#e12811;}.cls-39{fill:#2f1114;}.cls-40{fill:#6f1913;}.cls-41{fill:#b42211;}.cls-42{fill:#ffb0a5;}.cls-43{fill:#ff4e36;}.cls-44{fill:#ff7968;}.cls-45{fill:#ff5039;}.cls-46{fill:#010b15;}.cls-47{fill:#ce2611;}.cls-48{fill:#951e12;}</style></defs><g id="Layer_2" data-name="Layer 2"><g id="Layer_340" data-name="Layer 340"><polygon class="cls-1" points="78.55 206.68 217.64 250.68 246.09 95.19 246.09 95.19 78.55 206.68 78.55 206.68"/><polygon class="cls-2" points="217.64 250.68 363.19 12.2 246.09 95.19 217.64 250.68 217.64 250.68"/><polygon class="cls-3" points="217.64 250.71 78.55 206.71 218.09 437.19 217.64 250.71"/><polygon class="cls-4" points="0.01 454.19 97.55 576.68 218.09 437.19 0.01 454.19"/><polygon class="cls-5" points="0 454.18 0.01 454.19 218.09 437.19 218.09 437.19 78.55 206.71 78.54 206.71 0 454.18"/><polygon class="cls-6" points="282.64 638.68 282.64 638.68 418.19 434.19 218.09 437.19 282.64 638.68"/><polygon class="cls-7" points="218.09 437.19 418.19 434.19 418.19 434.18 217.65 250.7 217.65 250.71 217.64 250.71 218.09 437.19 218.09 437.19"/><polygon class="cls-8" points="218.09 437.19 97.55 576.68 97.55 576.68 282.64 638.68 218.09 437.19 218.09 437.19"/><polygon class="cls-2" points="254.09 721.2 282.64 638.71 97.55 576.71 254.09 721.2"/><polygon class="cls-9" points="282.65 638.71 282.64 638.71 254.09 721.2 254.09 721.2 429.19 735.2 429.19 735.18 282.65 638.7 282.65 638.71"/><polygon class="cls-10" points="418.21 434.17 552.3 338.17 484.76 224.68 484.76 224.68 418.21 434.17"/><polygon class="cls-11" points="552.32 338.17 552.32 338.18 627.87 255.68 627.87 255.68 484.76 224.68 552.3 338.17 552.32 338.17"/><polygon class="cls-12" points="567.3 130.19 484.76 224.68 484.76 224.68 627.87 255.68 567.33 130.19 567.33 130.19 567.32 130.18 567.32 130.19 567.3 130.19"/><polygon class="cls-13" points="418.2 434.18 418.2 434.17 418.21 434.17 484.76 224.68 217.66 250.68 217.66 250.69 418.2 434.18"/><polygon class="cls-14" points="484.76 224.68 567.3 130.19 363.21 12.2 484.76 224.68"/><polygon class="cls-15" points="363.21 12.2 363.21 12.2 217.66 250.68 484.76 224.68 484.76 224.68 363.21 12.2 363.21 12.2"/><polygon class="cls-16" points="552.3 338.19 542.76 536.68 542.76 536.68 675.87 536.68 552.33 338.19 552.33 338.19 552.32 338.18 552.32 338.19 552.3 338.19"/><polygon class="cls-17" points="675.87 536.68 542.76 536.68 532.3 788.17 532.32 788.17 532.32 788.18 675.87 536.68 675.87 536.68"/><polygon class="cls-18" points="552.3 338.19 418.21 434.19 542.76 536.68 552.3 338.19"/><polygon class="cls-19" points="282.66 638.68 282.66 638.7 429.2 735.18 429.2 735.17 429.21 735.17 542.76 536.68 282.66 638.68"/><polygon class="cls-20" points="429.21 735.17 532.3 788.17 542.76 536.68 542.76 536.68 429.21 735.17"/><polygon class="cls-21" points="418.21 434.19 282.66 638.68 542.76 536.68 542.76 536.68 418.21 434.19 418.21 434.19 418.21 434.19"/><polygon class="cls-22" points="791.99 263.68 776.45 118.19 776.45 118.19 627.9 255.68 791.99 263.68"/><polygon class="cls-23" points="954.54 6.2 776.45 118.19 791.99 263.68 792 263.68 954.54 6.2"/><polygon class="cls-24" points="627.87 255.68 627.88 255.69 627.89 255.68 627.9 255.68 776.45 118.19 567.33 130.19 627.88 255.68 627.87 255.68"/><polygon class="cls-25" points="627.9 255.71 742.45 463.19 791.99 263.71 627.9 255.71"/><polygon class="cls-26" points="742.45 463.19 675.9 536.68 882.99 607.68 742.45 463.19 742.45 463.19"/><polygon class="cls-27" points="882.99 607.68 883 607.68 905.54 452.19 742.45 463.19 882.99 607.68"/><polygon class="cls-28" points="792 263.71 791.99 263.71 742.45 463.19 742.45 463.19 905.54 452.19 905.55 452.18 792.01 263.7 792 263.71"/><polygon class="cls-29" points="675.9 536.68 742.45 463.19 552.33 338.19 675.88 536.68 675.87 536.68 675.88 536.7 675.89 536.68 675.9 536.68"/><polygon class="cls-30" points="552.33 338.19 742.45 463.19 742.45 463.19 627.9 255.71 627.89 255.71 627.88 255.69 552.33 338.19 552.33 338.19"/><polygon class="cls-31" points="683.9 939.68 717.45 707.2 532.33 788.2 683.88 939.68 683.87 939.68 683.88 939.7 683.89 939.68 683.9 939.68"/><polygon class="cls-32" points="675.9 536.71 717.45 707.2 882.99 607.71 675.9 536.71"/><polygon class="cls-33" points="849.54 747.2 717.45 707.2 830.99 891.68 831 891.68 849.54 747.2"/><polygon class="cls-34" points="849.55 747.18 883.01 607.7 883 607.71 882.99 607.71 717.45 707.2 717.45 707.2 849.54 747.2 849.55 747.18"/><polygon class="cls-35" points="717.45 707.2 717.45 707.2 683.9 939.68 830.99 891.68 717.45 707.2"/><polygon class="cls-36" points="675.9 536.71 675.89 536.71 675.88 536.7 532.33 788.19 532.33 788.2 717.45 707.2 717.45 707.2 675.9 536.71"/><polygon class="cls-37" points="960.25 0 960.25 16.47 954.57 6.17 960.25 0"/><polygon class="cls-38" points="792.01 263.69 905.55 452.18 905.55 452.17 905.57 452.17 944.11 250.68 792.02 263.68 792.01 263.69"/><polygon class="cls-39" points="954.56 6.2 954.56 6.2 792.02 263.68 944.11 250.68 944.11 250.68 954.57 6.2 954.56 6.2"/><polygon class="cls-7" points="960.25 249.31 960.25 261.42 944.12 250.68 960.25 249.31"/><polygon class="cls-40" points="960.25 208.56 960.25 249.31 944.12 250.68 960.25 208.56"/><polygon class="cls-37" points="960.25 16.49 960.25 208.56 944.12 250.68 954.57 6.19 960.25 16.49"/><polygon class="cls-41" points="960.25 261.42 960.25 438.5 905.57 452.17 944.12 250.68 960.25 261.42"/><polygon class="cls-42" points="960.25 537.76 960.25 584.23 883.02 607.68 905.56 452.19 905.57 452.19 960.25 537.76"/><polygon class="cls-43" points="960.25 607.96 960.25 737.71 849.57 747.17 960.25 607.96"/><polygon class="cls-44" points="960.25 584.23 960.25 607.96 849.57 747.17 849.56 747.17 849.55 747.18 883.01 607.71 883.01 607.69 883.02 607.68 960.25 584.23"/><polygon class="cls-45" points="960.25 438.52 960.25 537.76 905.57 452.19 960.25 438.52"/><polygon class="cls-46" points="960.25 924.57 960.25 936.34 944.12 926.68 960.25 924.57"/><polygon class="cls-46" points="960.25 910.86 960.25 924.57 944.12 926.68 960.25 910.86"/><polygon class="cls-47" points="960.25 737.73 960.25 910.86 944.12 926.68 849.57 747.19 960.25 737.73"/><polygon class="cls-48" points="849.56 747.2 849.56 747.2 831.02 891.68 944.11 926.68 944.11 926.68 849.57 747.2 849.56 747.2"/></g></g></svg>