<svg xmlns="http://www.w3.org/2000/svg" viewBox="0 0 1920 1079.28"><defs><style>.cls-1{fill:#9f2012;}.cls-2{fill:#541613;}.cls-3{fill:#3a1314;}.cls-4{fill:#8a1d12;}.cls-5{fill:#7e1b12;}.cls-6{fill:#c72511;}.cls-7{fill:#110d15;}.cls-8{fill:#0f0d15;}.cls-9{fill:#120d15;}.cls-10{fill:#231014;}.cls-11{fill:#200f14;}.cls-12{fill:#0b0c15;}.cls-13{fill:#0d0d15;}.cls-14{fill:#150e15;}.cls-15{fill:#4c1513;}.cls-16{fill:#321214;}.cls-17{fill:#170e15;}.cls-18{fill:#671813;}.cls-19{fill:#281014;}.cls-20{fill:#3d1314;}.cls-21{fill:#421414;}.cls-22{fill:#911e12;}.cls-23{fill:#130d15;}.cls-24{fill:#210f14;}.cls-25{fill:#180e15;}.cls-26{fill:#100d15;}.cls-27{fill:#1e0f14;}.cls-28{fill:#941e12;}.cls-29{fill:#ae2211;}.cls-30{fill:#ec2a10;}.cls-31{fill:#301114;}.cls-32{fill:#3c1314;}.cls-33{fill:#140d15;}.cls-34{fill:#2e1114;}.cls-35{fill:#461414;}.cls-36{fill:#220f14;}.cls-37{fill:#1d0f14;}.cls-38{fill:#291014;}</style></defs><g id="Layer_2" data-name="Layer 2"><g id="Layer_344" data-name="Layer 344"><g id="Layer_344-2" data-name="Layer 344"><path id="Path_881" data-name="Path 881" class="cls-1" d="M1848.38,0l-64.91,129.59L1743.47,0Z"/><path id="Path_882" data-name="Path 882" class="cls-2" d="M1783.47,129.59l-188.33,35.26L1689.81,0h53.66Z"/><path id="Path_883" data-name="Path 883" class="cls-3" d="M1689.81,0l-94.67,164.85L1462.8,0Z"/><path id="Path_884" data-name="Path 884" class="cls-4" d="M1920,122.56V235.12L1876.22,209Z"/><path id="Path_885" data-name="Path 885" class="cls-5" d="M1920,98.48v24.08L1876.22,209l-92.75-79.37Z"/><path id="Path_886" data-name="Path 886" class="cls-6" d="M1920,0V98.48l-136.53,31.11L1848.38,0Z"/><path id="Path_887" data-name="Path 887" class="cls-7" d="M1175.18,0l-30.7,52.37L1093.89,0Z"/><path id="Path_888" data-name="Path 888" class="cls-8" d="M1144.48,52.37,910.15,19.63,915.81,0h178.08Z"/><path id="Path_889" data-name="Path 889" class="cls-7" d="M915.81,0l-5.66,19.63L866.24,0Z"/><path id="Path_890" data-name="Path 890" class="cls-9" d="M1469.57,322.48l125.57-157.63L1387.81,31.11Z"/><path id="Path_891" data-name="Path 891" class="cls-10" d="M1595.14,164.85,1387.81,31.11,1393.14,0h69.66Z"/><path id="Path_892" data-name="Path 892" class="cls-11" d="M1393.14,0l-5.33,31.11L1266.2,0Z"/><path id="Path_893" data-name="Path 893" class="cls-12" d="M1387.81,31.11,1245.24,191.74l224.33,130.74Z"/><path id="Path_894" data-name="Path 894" class="cls-13" d="M1144.48,52.37l100.76,139.37L1387.81,31.11Z"/><path id="Path_895" data-name="Path 895" class="cls-14" d="M1387.81,31.11,1144.48,52.37,1175.18,0h91Z"/><path id="Path_896" data-name="Path 896" class="cls-3" d="M1824.65,419.4l51.57-210.61L1753.89,316Z"/><path id="Path_897" data-name="Path 897" class="cls-15" d="M1876.22,209l-92.75-79.37-29.58,186.63Z"/><path id="Path_898" data-name="Path 898" class="cls-16" d="M1783.47,129.59l-188.33,35.26,158.75,151.37Z"/><path id="Path_899" data-name="Path 899" class="cls-17" d="M1753.89,316,1677.32,455.6l147.33-36.27Z"/><path id="Path_900" data-name="Path 900" class="cls-7" d="M1595.14,164.72,1469.57,322.35l284.32-6.26Z"/><path id="Path_901" data-name="Path 901" class="cls-18" d="M1920,235V400.42l-43.78-191.63Z"/><path id="Path_902" data-name="Path 902" class="cls-11" d="M1920,596.47v83.72l-43.59-22.68Z"/><path id="Path_903" data-name="Path 903" class="cls-19" d="M1920,514.87v81.68l-43.59,61-51.76-238.37Z"/><path id="Path_904" data-name="Path 904" class="cls-20" d="M1920,400.39V515l-95.35-95.65,51.57-210.62Z"/><path id="Path_905" data-name="Path 905" class="cls-21" d="M488.15,0,373.49,91.16,251.73,0Z"/><path id="Path_906" data-name="Path 906" class="cls-2" d="M373.49,91.16,212.16,157.42,223.3,0h28.43Z"/><path id="Path_907" data-name="Path 907" class="cls-22" d="M223.3,0,212.16,157.42,73.92,0Z"/><path id="Path_908" data-name="Path 908" class="cls-23" d="M910.15,19.63,584.82,120.9,681.72,0H866.24Z"/><path id="Path_909" data-name="Path 909" class="cls-24" d="M681.72,0l-96.9,120.9L506.22,0Z"/><path id="Path_910" data-name="Path 910" class="cls-25" d="M373.49,91.16l42.76,139.37L584.82,120.9Z"/><path id="Path_911" data-name="Path 911" class="cls-11" d="M584.82,120.9,373.49,91.16,488.15,0h18.07Z"/><path id="Path_912" data-name="Path 912" class="cls-8" d="M1798.84,831.06l77.57-173.63L1704.08,604.7Z"/><path id="Path_913" data-name="Path 913" class="cls-14" d="M1876.41,657.59l-51.76-238.37L1704.08,604.85Z"/><path id="Path_914" data-name="Path 914" class="cls-26" d="M1824.65,419.24l-147.33,36.27,26.76,149.36Z"/><path id="Path_915" data-name="Path 915" class="cls-27" d="M1920,680.12V793.31l-43.59-135.87Z"/><path id="Path_916" data-name="Path 916" class="cls-17" d="M1920,884.47v131.19L1798.84,830.85Z"/><path id="Path_917" data-name="Path 917" class="cls-14" d="M1920,793.26v91.38L1798.84,831l77.57-173.63Z"/><path id="Path_918" data-name="Path 918" class="cls-28" d="M212.16,157.42,0,277.42V111.94Z"/><path id="Path_919" data-name="Path 919" class="cls-29" d="M73.92,0,212.16,157.42,0,111.94V20.16L28.35,0Z"/><path id="Path_920" data-name="Path 920" class="cls-30" d="M28.35,0,0,20.16V0Z"/><path id="Path_921" data-name="Path 921" class="cls-25" d="M416.25,230.53,373.49,91.16,268.92,307.79Z"/><path id="Path_922" data-name="Path 922" class="cls-31" d="M373.49,91.16,212.16,157.42l56.76,150.37Z"/><path id="Path_923" data-name="Path 923" class="cls-32" d="M268.92,307.58,163.35,391.21,0,285v-3.55Z"/><path id="Path_924" data-name="Path 924" class="cls-20" d="M268.92,307.79,0,281.67v-4.25l212.16-120Z"/><path id="Path_925" data-name="Path 925" class="cls-33" d="M1920,1015.66v63.62h-96.73l-24.43-248.43Z"/><path id="Path_926" data-name="Path 926" class="cls-34" d="M163.35,391.07,63.78,649.69,0,544.84V470.35Z"/><path id="Path_927" data-name="Path 927" class="cls-35" d="M163.35,391.19,0,470.47V285Z"/><path id="Path_928" data-name="Path 928" class="cls-31" d="M63.78,649.63,0,659.82v-115Z"/><path id="Path_929" data-name="Path 929" class="cls-14" d="M163.35,391.07,63.78,649.69,187.1,612.43Z"/><path id="Path_930" data-name="Path 930" class="cls-36" d="M82.53,807.68,41.48,1079.27H34.74L0,1012.47v-89.1Z"/><path id="Path_931" data-name="Path 931" class="cls-37" d="M82.53,807.68,0,923.37V868.74L63.78,649.31Z"/><path id="Path_932" data-name="Path 932" class="cls-38" d="M63.78,649.49,0,868.92V659.68Z"/><path id="Path_933" data-name="Path 933" class="cls-31" d="M34.74,1079.27H0v-66.8Z"/></g></g></g></svg>