<svg xmlns="http://www.w3.org/2000/svg" viewBox="0 0 1920 1074.57"><defs><style>.cls-1{fill:#c0c3c5;}.cls-2{fill:#777d82;}.cls-3{fill:#4c535a;}.cls-4{fill:#b5b8bb;}.cls-5{fill:#fff;}.cls-6{fill:#19222b;}.cls-7{fill:#141e27;}.cls-8{fill:#172029;}.cls-9{fill:#162029;}.cls-10{fill:#2e373f;}.cls-11{fill:#2c343d;}.cls-12{fill:#0b141e;}.cls-13{fill:#111b24;}.cls-14{fill:#1d262e;}.cls-15{fill:#484f57;}.cls-16{fill:#656c72;}.cls-17{fill:#434a52;}.cls-18{fill:#202932;}.cls-19{fill:#151e28;}.cls-20{fill:#868a8f;}.cls-21{fill:#323a42;}.cls-22{fill:#5a6167;}.cls-23{fill:#686e74;}.cls-24{fill:#b1b4b7;}.cls-25{fill:#242d35;}.cls-26{fill:#1c252e;}.cls-27{fill:#273038;}.cls-28{fill:#111a24;}.cls-29{fill:#1b242d;}.cls-30{fill:#2a323a;}.cls-31{fill:#1d262f;}.cls-32{fill:#aaadb0;}.cls-33{fill:#d5d7d8;}.cls-34{fill:#353d45;}.cls-35{fill:#3c444c;}.cls-36{fill:#50575e;}.cls-37{fill:#394149;}.cls-38{fill:#585f65;}.cls-39{fill:#3b434a;}.cls-40{fill:#222b33;}.cls-41{fill:#363e46;}</style></defs><g id="Layer_2" data-name="Layer 2"><g id="Layer_344" data-name="Layer 344"><g id="Layer_344-2" data-name="Layer 344"><path id="Path_987" data-name="Path 987" class="cls-1" d="M1848.38,0l-64.91,129.59L1743.47,0Z"/><path id="Path_988" data-name="Path 988" class="cls-2" d="M1783.47,129.59l-188.33,35.26L1689.81,0h53.66Z"/><path id="Path_989" data-name="Path 989" class="cls-3" d="M1689.81,0l-94.67,164.85L1462.8,0Z"/><path id="Path_990" data-name="Path 990" class="cls-4" d="M1920,122.56V235.12L1876.22,209Z"/><path id="Path_991" data-name="Path 991" class="cls-4" d="M1920,98.48v24.08L1876.22,209l-92.75-79.37Z"/><path id="Path_992" data-name="Path 992" class="cls-5" d="M1920,0V98.48l-136.53,31.11L1848.38,0Z"/><path id="Path_993" data-name="Path 993" class="cls-6" d="M1175.18,0l-30.7,52.37L1093.89,0Z"/><path id="Path_994" data-name="Path 994" class="cls-7" d="M1144.48,52.37,910.15,19.63,915.81,0h178.08Z"/><path id="Path_995" data-name="Path 995" class="cls-8" d="M915.81,0l-5.66,19.63L866.24,0Z"/><path id="Path_996" data-name="Path 996" class="cls-9" d="M1469.57,322.48l125.57-157.63L1387.81,31.11Z"/><path id="Path_997" data-name="Path 997" class="cls-10" d="M1595.14,164.85,1387.81,31.11,1393.14,0h69.66Z"/><path id="Path_998" data-name="Path 998" class="cls-11" d="M1393.14,0l-5.33,31.11L1266.2,0Z"/><path id="Path_999" data-name="Path 999" class="cls-12" d="M1387.81,31.11,1245.24,191.74l224.33,130.74Z"/><path id="Path_1000" data-name="Path 1000" class="cls-13" d="M1144.48,52.37l100.76,139.37L1387.81,31.11Z"/><path id="Path_1001" data-name="Path 1001" class="cls-14" d="M1387.81,31.11,1144.48,52.37,1175.18,0h91Z"/><path id="Path_1002" data-name="Path 1002" class="cls-15" d="M1824.65,418.27l51.57-210.62L1753.89,314.91Z"/><path id="Path_1003" data-name="Path 1003" class="cls-16" d="M1876.22,209l-92.75-79.37-29.58,186.63Z"/><path id="Path_1004" data-name="Path 1004" class="cls-17" d="M1783.47,129.59l-188.33,35.26,158.75,151.37Z"/><path id="Path_1005" data-name="Path 1005" class="cls-18" d="M1753.89,314.39,1677.32,454l147.33-36.27Z"/><path id="Path_1006" data-name="Path 1006" class="cls-19" d="M1595.14,163.88,1469.57,321.51l284.32-6.26Z"/><path id="Path_1007" data-name="Path 1007" class="cls-20" d="M1920,233.84V399.31l-43.78-191.63Z"/><path id="Path_1008" data-name="Path 1008" class="cls-11" d="M1920,593.66v83.72l-43.59-22.68Z"/><path id="Path_1009" data-name="Path 1009" class="cls-21" d="M1920,512.52V594.2l-43.59,61-51.76-238.37Z"/><path id="Path_1010" data-name="Path 1010" class="cls-3" d="M1920,399.12V513.76l-95.35-95.65,51.57-210.62Z"/><path id="Path_1011" data-name="Path 1011" class="cls-22" d="M488.15,0,373.49,91.16,251.73,0Z"/><path id="Path_1012" data-name="Path 1012" class="cls-23" d="M373.49,91.16,212.16,157.42,223.3,0h28.43Z"/><path id="Path_1013" data-name="Path 1013" class="cls-24" d="M223.3,0,212.16,157.42,73.92,0Z"/><path id="Path_1014" data-name="Path 1014" class="cls-8" d="M910.15,19.63,584.82,120.9,681.72,0H866.24Z"/><path id="Path_1015" data-name="Path 1015" class="cls-25" d="M681.72,0l-96.9,120.9L506.22,0Z"/><path id="Path_1016" data-name="Path 1016" class="cls-26" d="M373.49,91.16l42.76,139.37L584.82,120.9Z"/><path id="Path_1017" data-name="Path 1017" class="cls-27" d="M584.82,120.9,373.49,91.16,488.15,0h18.07Z"/><path id="Path_1018" data-name="Path 1018" class="cls-28" d="M1798.84,827.73l77.57-173.63-172.33-52.74Z"/><path id="Path_1019" data-name="Path 1019" class="cls-29" d="M1876.41,655.24l-51.76-238.37L1704.08,602.5Z"/><path id="Path_1020" data-name="Path 1020" class="cls-28" d="M1824.65,417,1677.32,453.3l26.76,149.36Z"/><path id="Path_1021" data-name="Path 1021" class="cls-30" d="M1920,676.84V790l-43.59-135.87Z"/><path id="Path_1022" data-name="Path 1022" class="cls-26" d="M1920,879.77V1011L1798.84,826.15Z"/><path id="Path_1023" data-name="Path 1023" class="cls-31" d="M1920,789.63V881l-121.16-53.62,77.57-173.63Z"/><path id="Path_1024" data-name="Path 1024" class="cls-32" d="M212.16,157.42,0,277.42V111.94Z"/><path id="Path_1025" data-name="Path 1025" class="cls-33" d="M73.92,0,212.16,157.42,0,111.94V20.16L28.35,0Z"/><path id="Path_1026" data-name="Path 1026" class="cls-5" d="M28.35,0,0,20.16V0Z"/><path id="Path_1027" data-name="Path 1027" class="cls-18" d="M416.25,230.53,373.49,91.16,268.92,307.79Z"/><path id="Path_1028" data-name="Path 1028" class="cls-34" d="M373.49,91.16,212.16,157.42l56.76,150.37Z"/><path id="Path_1029" data-name="Path 1029" class="cls-35" d="M268.92,306.21,163.35,389.84,0,283.64v-3.55Z"/><path id="Path_1030" data-name="Path 1030" class="cls-36" d="M268.92,307.79,0,281.67v-4.25l212.16-120Z"/><path id="Path_1031" data-name="Path 1031" class="cls-6" d="M1920,1011v63.61h-96.73l-24.43-248.42Z"/><path id="Path_1032" data-name="Path 1032" class="cls-37" d="M163.35,388.83,63.78,647.45,0,542.6V468.12Z"/><path id="Path_1033" data-name="Path 1033" class="cls-38" d="M163.35,389.69,0,469V283.49Z"/><path id="Path_1034" data-name="Path 1034" class="cls-39" d="M63.78,647,0,657.16v-115Z"/><path id="Path_1035" data-name="Path 1035" class="cls-31" d="M163.35,388.83,63.78,647.45,187.1,610.19Z"/><path id="Path_1036" data-name="Path 1036" class="cls-27" d="M82.53,803,41.48,1074.57H34.74L0,1007.77V918.66Z"/><path id="Path_1037" data-name="Path 1037" class="cls-40" d="M82.53,803,0,918.67V864L63.78,644.61Z"/><path id="Path_1038" data-name="Path 1038" class="cls-21" d="M63.78,645.94,0,865.37V656.13Z"/><path id="Path_1039" data-name="Path 1039" class="cls-41" d="M34.74,1074.57H0v-66.8Z"/></g></g></g></svg>