<svg xmlns="http://www.w3.org/2000/svg" viewBox="0 0 1920 1080"><defs><style>.cls-1{fill:#1fd1b9;}.cls-2{fill:#127970;}.cls-3{fill:#0c5350;}.cls-4{fill:#1bb5a2;}.cls-5{fill:#1bb9a5;}.cls-6{fill:#24f0d3;}.cls-7{fill:#042026;}.cls-8{fill:#041e24;}.cls-9{fill:#042027;}.cls-10{fill:#08393b;}.cls-11{fill:#073235;}.cls-12{fill:#03151d;}.cls-13{fill:#031921;}.cls-14{fill:#052329;}.cls-15{fill:#0b4f4d;}.cls-16{fill:#0f6862;}.cls-17{fill:#0b4d4c;}.cls-18{fill:#062b30;}.cls-19{fill:#14877b;}.cls-20{fill:#073336;}.cls-21{fill:#0d5955;}.cls-22{fill:#10716a;}.cls-23{fill:#1ab19f;}.cls-24{fill:#041e25;}.cls-25{fill:#073033;}.cls-26{fill:#042228;}.cls-27{fill:#073437;}.cls-28{fill:#031b22;}.cls-29{fill:#041c23;}.cls-30{fill:#073134;}.cls-31{fill:#05282d;}.cls-32{fill:#05252b;}.cls-33{fill:#26ffdf;}.cls-34{fill:#05292d;}.cls-35{fill:#083c3e;}.cls-36{fill:#0a4545;}.cls-37{fill:#093f40;}.cls-38{fill:#0e615c;}.cls-39{fill:#094041;}.cls-40{fill:#062f32;}.cls-41{fill:#08383a;}</style></defs><g id="Layer_2" data-name="Layer 2"><g id="Layer_344" data-name="Layer 344"><polygon class="cls-1" points="1848.38 0 1783.47 129.59 1743.47 0 1848.38 0"/><polygon class="cls-2" points="1783.47 129.59 1595.14 164.85 1689.81 0 1743.47 0 1783.47 129.59"/><polygon class="cls-3" points="1689.81 0 1595.14 164.85 1462.8 0 1689.81 0"/><polygon class="cls-4" points="1920 122.56 1920 235.12 1876.22 208.96 1920 122.56"/><polygon class="cls-5" points="1920 98.48 1920 122.56 1876.22 208.96 1783.47 129.59 1920 98.48"/><polygon class="cls-6" points="1920 0 1920 98.48 1783.47 129.59 1848.38 0 1920 0"/><polygon class="cls-7" points="1175.18 0 1144.48 52.37 1093.89 0 1175.18 0"/><polygon class="cls-8" points="1144.48 52.37 910.15 19.63 915.81 0 1093.89 0 1144.48 52.37"/><polygon class="cls-9" points="915.81 0 910.15 19.63 866.24 0 915.81 0"/><polygon class="cls-9" points="1469.57 322.48 1595.14 164.85 1387.81 31.11 1469.57 322.48"/><polygon class="cls-10" points="1595.14 164.85 1387.81 31.11 1393.14 0 1462.8 0 1595.14 164.85"/><polygon class="cls-11" points="1393.14 0 1387.81 31.11 1266.2 0 1393.14 0"/><polygon class="cls-12" points="1387.81 31.11 1245.24 191.74 1469.57 322.48 1387.81 31.11"/><polygon class="cls-13" points="1144.48 52.37 1245.24 191.74 1387.81 31.11 1144.48 52.37"/><polygon class="cls-14" points="1387.81 31.11 1144.48 52.37 1175.18 0 1266.2 0 1387.81 31.11"/><polygon class="cls-15" points="1824.65 419.58 1876.22 208.96 1753.89 316.22 1824.65 419.58"/><polygon class="cls-16" points="1876.22 208.96 1783.47 129.59 1753.89 316.22 1876.22 208.96"/><polygon class="cls-17" points="1783.47 129.59 1595.14 164.85 1753.89 316.22 1783.47 129.59"/><polygon class="cls-18" points="1753.89 316.22 1677.32 455.85 1824.65 419.58 1753.89 316.22"/><polygon class="cls-7" points="1595.14 164.85 1469.57 322.48 1753.89 316.22 1595.14 164.85"/><polygon class="cls-19" points="1920 235.12 1920 400.59 1876.22 208.96 1920 235.12"/><polygon class="cls-20" points="1920 596.91 1920 680.63 1876.41 657.95 1920 596.91"/><polygon class="cls-10" points="1920 515.23 1920 596.91 1876.41 657.95 1824.65 419.58 1920 515.23"/><polygon class="cls-3" points="1920 400.59 1920 515.23 1824.65 419.58 1876.22 208.96 1920 400.59"/><polygon class="cls-21" points="488.15 0 373.49 91.16 251.73 0 488.15 0"/><polygon class="cls-22" points="373.49 91.16 212.16 157.42 223.3 0 251.73 0 373.49 91.16"/><polygon class="cls-23" points="223.3 0 212.16 157.42 73.92 0 223.3 0"/><polygon class="cls-24" points="910.15 19.63 584.82 120.9 681.72 0 866.24 0 910.15 19.63"/><polygon class="cls-25" points="681.72 0 584.82 120.9 506.22 0 681.72 0"/><polygon class="cls-26" points="373.49 91.16 416.25 230.53 584.82 120.9 373.49 91.16"/><polygon class="cls-27" points="584.82 120.9 373.49 91.16 488.15 0 506.22 0 584.82 120.9"/><polygon class="cls-28" points="1798.84 831.58 1876.41 657.95 1704.08 605.21 1798.84 831.58"/><polygon class="cls-7" points="1876.41 657.95 1824.65 419.58 1704.08 605.21 1876.41 657.95"/><polygon class="cls-29" points="1824.65 419.58 1677.32 455.85 1704.08 605.21 1824.65 419.58"/><polygon class="cls-30" points="1920 680.63 1920 793.82 1876.41 657.95 1920 680.63"/><polygon class="cls-31" points="1920 885.2 1920 1016.39 1798.84 831.58 1920 885.2"/><polygon class="cls-32" points="1920 793.82 1920 885.2 1798.84 831.58 1876.41 657.95 1920 793.82"/><polygon class="cls-23" points="212.16 157.42 0 277.42 0 111.94 212.16 157.42"/><polygon class="cls-33" points="73.92 0 212.16 157.42 0 111.94 0 20.16 28.35 0 73.92 0"/><polygon class="cls-33" points="28.35 0 0 20.16 0 0 28.35 0"/><polygon class="cls-34" points="416.25 230.53 373.49 91.16 268.92 307.79 416.25 230.53"/><polygon class="cls-35" points="373.49 91.16 212.16 157.42 268.92 307.79 373.49 91.16"/><polygon class="cls-36" points="268.92 307.79 163.35 391.42 0 285.22 0 281.67 268.92 307.79"/><polygon class="cls-21" points="268.92 307.79 0 281.67 0 277.42 212.16 157.42 268.92 307.79"/><polygon class="cls-26" points="1920 1016.39 1920 1080 1823.27 1080 1798.84 831.58 1920 1016.39"/><polygon class="cls-37" points="163.35 391.42 63.78 650.04 0 545.19 0 470.7 163.35 391.42"/><polygon class="cls-38" points="163.35 391.42 0 470.7 0 285.22 163.35 391.42"/><polygon class="cls-39" points="63.78 650.04 0 660.23 0 545.19 63.78 650.04"/><polygon class="cls-26" points="163.35 391.42 63.78 650.04 187.1 612.78 163.35 391.42"/><polygon class="cls-40" points="82.53 808.41 41.48 1080 34.74 1080 0 1013.2 0 924.1 82.53 808.41"/><polygon class="cls-40" points="82.53 808.41 0 924.1 0 869.47 63.78 650.04 82.53 808.41"/><polygon class="cls-41" points="63.78 650.04 0 869.47 0 660.23 63.78 650.04"/><polygon class="cls-37" points="34.74 1080 0 1080 0 1013.2 34.74 1080"/></g></g></svg>