<svg xmlns="http://www.w3.org/2000/svg" viewBox="0 0 464.99 1534"><defs><style>.cls-1{fill:#02111a;}.cls-2{fill:#010e17;}.cls-3{fill:#021019;}.cls-4{fill:#0b4d4c;}.cls-5{fill:#083c3e;}.cls-6{fill:#010c16;}.cls-7{fill:#05262b;}.cls-8{fill:#138278;}.cls-9{fill:#062f33;}.cls-10{fill:#08383a;}.cls-11{fill:#06292e;}.cls-12{fill:#093f40;}.cls-13{fill:#094142;}.cls-14{fill:#158e81;}.cls-15{fill:#0f6661;}.cls-16{fill:#1aaf9c;}.cls-17{fill:#0f645f;}.cls-18{fill:#18a191;}.cls-19{fill:#127b72;}.cls-20{fill:#041d24;}.cls-21{fill:#093d3f;}.cls-22{fill:#062a2f;}.cls-23{fill:#062e32;}.cls-24{fill:#0c5351;}.cls-25{fill:#0a4646;}.cls-26{fill:#179e8e;}.cls-27{fill:#1bb7a3;}.cls-28{fill:#19a796;}.cls-29{fill:#25fbdc;}.cls-30{fill:#169486;}.cls-31{fill:#179f8f;}.cls-32{fill:#0b4b4a;}.cls-33{fill:#05252b;}.cls-34{fill:#03151d;}.cls-35{fill:#0a4444;}.cls-36{fill:#148c7f;}.cls-37{fill:#0f6862;}.cls-38{fill:#03171f;}</style></defs><g id="Layer_2" data-name="Layer 2"><g id="Layer_344" data-name="Layer 344"><polygon class="cls-1" points="328.14 223.54 328.26 223.75 390.09 137.97 390.09 137.97 278.8 119.97 328.32 223.22 328.14 223.54"/><polygon class="cls-2" points="328.26 223.75 328.33 223.64 464.86 290.64 390.09 137.97 328.26 223.75 328.26 223.75"/><polygon class="cls-3" points="390.09 137.97 359.74 0 278.61 119.65 278.8 119.97 390.09 137.97"/><polygon class="cls-4" points="256.68 488.11 256.86 488.43 429.16 443.43 429.16 443.43 328.39 223.75 328.26 223.75 256.68 488.11"/><polygon class="cls-5" points="337.33 546.21 464.98 611.21 429.16 443.43 429.16 443.43 337.33 546.21"/><polygon class="cls-6" points="328.39 223.75 429.16 443.43 464.99 290.64 464.99 290.64 464.92 290.75 328.39 223.75"/><polygon class="cls-7" points="337.2 546 337.32 546.22 337.33 546.21 337.33 546.21 429.16 443.43 256.86 488.43 337.39 545.68 337.2 546"/><polygon class="cls-8" points="167.66 344.22 142.9 466.9 256.43 487.9 167.66 344.22"/><polygon class="cls-9" points="92.83 119.44 0 280.22 167.66 344.22 92.83 119.44"/><polygon class="cls-10" points="142.9 466.9 167.66 344.22 167.66 344.22 0 280.22 142.83 467.01 142.9 466.9 142.9 466.9"/><polygon class="cls-11" points="167.66 344.22 327.95 223.22 278.43 119.97 278.61 119.65 278.49 119.44 167.66 344.22"/><polygon class="cls-12" points="256.43 487.9 256.56 487.9 256.56 487.9 328.14 223.54 327.95 223.22 167.66 344.22 167.66 344.22 256.43 487.9"/><polygon class="cls-13" points="167.66 344.22 278.49 119.44 92.83 119.44 167.66 344.22 167.66 344.22"/><polygon class="cls-14" points="142.96 467.01 142.83 467.01 142.83 467.01 0.07 601.68 176.73 564.68 142.96 467.01"/><polygon class="cls-15" points="256.49 488.01 176.73 564.68 337.02 545.68 256.5 488.43 256.68 488.11 256.56 487.9 256.49 488.01 256.49 488.01"/><polygon class="cls-16" points="176.73 564.68 142.9 723.46 273.55 676.46 176.73 564.68"/><polygon class="cls-17" points="273.56 676.46 273.56 676.46 337.2 546 337.02 545.68 176.73 564.68 176.73 564.68 273.55 676.46 273.56 676.46"/><polygon class="cls-18" points="256.49 488.01 142.96 467.01 176.73 564.68 176.73 564.68 256.49 488.01"/><polygon class="cls-19" points="142.9 723.46 176.73 564.68 176.73 564.68 0.07 601.68 142.9 723.47 142.9 723.46 142.9 723.46"/><polygon class="cls-20" points="337.33 546.22 337.32 546.22 273.69 676.67 273.87 676.99 429.16 736.99 429.16 736.99 337.34 546.22 337.33 546.22"/><polygon class="cls-21" points="328.21 936.57 328.33 936.78 429.16 736.99 273.87 676.99 328.39 936.25 328.21 936.57"/><polygon class="cls-22" points="429.16 736.99 464.99 611.22 337.34 546.22 429.16 736.99"/><polygon class="cls-11" points="328.33 936.78 328.33 936.78 328.4 936.67 442.93 885.67 429.16 736.99 429.16 736.99 328.33 936.78"/><polygon class="cls-23" points="328.46 936.78 376.23 1065.45 443.06 885.67 443.06 885.67 442.99 885.78 328.46 936.78"/><polygon class="cls-24" points="221.75 1125.13 221.93 1125.45 376.23 1065.45 328.46 936.78 328.33 936.78 221.75 1125.13"/><polygon class="cls-25" points="221.93 1125.45 406.46 1163.71 406.27 1164.03 406.4 1164.24 376.23 1065.45 221.93 1125.45"/><polygon class="cls-26" points="132.97 1089.92 116.73 951.25 15.07 951.25 132.9 1090.03 132.97 1089.92 132.97 1089.92"/><polygon class="cls-27" points="116.73 951.25 142.91 723.47 142.9 723.47 142.9 723.47 15.07 951.25 116.73 951.25 116.73 951.25"/><polygon class="cls-28" points="328.02 936.25 273.5 676.99 273.69 676.67 273.56 676.46 273.56 676.47 273.56 676.47 116.73 951.25 116.73 951.25 328.02 936.25"/><polygon class="cls-29" points="142.91 723.47 116.73 951.25 273.56 676.47 142.91 723.47"/><polygon class="cls-30" points="116.73 951.25 116.73 951.25 132.97 1089.92 221.5 1124.92 116.73 951.25"/><polygon class="cls-31" points="328.02 936.25 116.73 951.25 221.5 1124.92 221.63 1124.92 221.63 1124.92 328.21 936.57 328.02 936.25"/><polygon class="cls-32" points="185.8 1244.71 92.97 1405.49 278.63 1405.49 185.8 1244.71 185.8 1244.71"/><polygon class="cls-33" points="185.8 1244.71 278.63 1405.49 406.27 1164.03 406.09 1163.71 185.8 1244.71"/><polygon class="cls-34" points="277.8 1406 351.74 1534 429.27 1333.32 429.09 1333 277.8 1406"/><polygon class="cls-15" points="185.8 1244.71 133.03 1090.03 132.9 1090.03 132.9 1090.03 0.14 1244.71 185.8 1244.71 185.8 1244.71"/><polygon class="cls-35" points="0.14 1244.71 92.97 1405.49 185.8 1244.71 0.14 1244.71"/><polygon class="cls-36" points="133.03 1090.03 185.8 1244.71 221.56 1125.03 133.03 1090.03"/><polygon class="cls-37" points="221.75 1125.13 221.63 1124.92 221.56 1125.03 221.56 1125.03 185.8 1244.71 185.8 1244.71 406.09 1163.71 221.57 1125.45 221.75 1125.13"/><polygon class="cls-38" points="406.75 1164.43 406.63 1164.21 406.56 1164.33 406.56 1164.33 278.8 1406 278.8 1406 430.09 1333 406.57 1164.74 406.75 1164.43"/></g></g></svg>