<svg xmlns="http://www.w3.org/2000/svg" viewBox="0 0 648.33 442.92"><defs><style>.cls-1{fill:#062e32;}.cls-2{fill:#0c5351;}.cls-3{fill:#0a4646;}.cls-4{fill:#179e8e;}.cls-5{fill:#169486;}.cls-6{fill:#179f8f;}.cls-7{fill:#0b4b4a;}.cls-8{fill:#05252b;}.cls-9{fill:#03151d;}.cls-10{fill:#0f6661;}.cls-11{fill:#0a4444;}.cls-12{fill:#148c7f;}.cls-13{fill:#0f6862;}.cls-14{fill:#03171f;}</style></defs><g id="Layer_2" data-name="Layer 2"><g id="Layer_344" data-name="Layer 344"><polygon class="cls-1" points="51.11 328.32 179.79 376.09 0 442.92 0 442.92 0.11 442.86 51.11 328.32"/><polygon class="cls-2" points="239.47 221.61 239.79 221.8 179.79 376.09 51.11 328.32 51.11 328.19 239.47 221.61"/><polygon class="cls-3" points="239.79 221.8 278.04 406.32 278.36 406.14 278.57 406.26 179.79 376.09 239.79 221.8"/><polygon class="cls-4" points="204.25 132.83 65.58 116.59 65.58 14.94 204.37 132.76 204.25 132.83 204.25 132.83"/><polygon class="cls-5" points="65.58 116.59 65.58 116.59 204.25 132.83 239.25 221.36 65.58 116.59"/><polygon class="cls-6" points="50.58 327.89 65.58 116.59 239.25 221.36 239.25 221.49 239.25 221.49 50.9 328.07 50.58 327.89"/><polygon class="cls-7" points="359.04 185.66 519.83 92.83 519.83 278.49 359.04 185.66 359.04 185.66"/><polygon class="cls-8" points="359.04 185.66 519.83 278.49 278.36 406.14 278.04 405.95 359.04 185.66"/><polygon class="cls-9" points="520.33 277.66 648.33 351.6 447.65 429.14 447.33 428.95 520.33 277.66"/><polygon class="cls-10" points="359.04 185.66 204.37 132.9 204.37 132.76 204.37 132.76 359.04 0 359.04 185.66 359.04 185.66"/><polygon class="cls-11" points="359.04 0 519.83 92.83 359.04 185.66 359.04 0"/><polygon class="cls-12" points="204.37 132.9 359.04 185.66 239.37 221.43 204.37 132.9"/><polygon class="cls-13" points="239.47 221.61 239.25 221.49 239.37 221.43 239.37 221.43 359.04 185.66 359.04 185.66 278.04 405.95 239.79 221.43 239.47 221.61"/><polygon class="cls-14" points="278.76 406.61 278.55 406.49 278.66 406.43 278.66 406.43 520.33 278.66 520.33 278.66 447.33 429.95 279.08 406.43 278.76 406.61"/></g></g></svg>