<svg xmlns="http://www.w3.org/2000/svg" viewBox="0 0 405.56 464.92"><defs><style>.cls-1{fill:#1aaf9c;}.cls-2{fill:#0f645f;}.cls-3{fill:#127b72;}.cls-4{fill:#041d24;}.cls-5{fill:#093d3f;}.cls-6{fill:#062a2f;}.cls-7{fill:#06292e;}.cls-8{fill:#1bb7a3;}.cls-9{fill:#19a796;}.cls-10{fill:#25fbdc;}</style></defs><g id="Layer_2" data-name="Layer 2"><g id="Layer_344" data-name="Layer 344"><polygon class="cls-1" points="19 176.66 177.78 142.84 130.78 273.49 19 176.66"/><polygon class="cls-2" points="130.78 273.5 130.78 273.5 0.32 337.14 0 336.95 19 176.66 19 176.66 130.78 273.49 130.78 273.5"/><polygon class="cls-3" points="177.78 142.84 19 176.66 19 176.66 56 0 177.79 142.83 177.78 142.84 177.78 142.84"/><polygon class="cls-4" points="0.53 337.26 0.53 337.26 130.99 273.62 131.31 273.8 191.31 429.1 191.31 429.1 0.53 337.27 0.53 337.26"/><polygon class="cls-5" points="390.88 328.14 391.1 328.27 191.31 429.1 131.31 273.8 390.56 328.33 390.88 328.14"/><polygon class="cls-6" points="191.31 429.1 65.53 464.92 0.53 337.27 191.31 429.1"/><polygon class="cls-7" points="391.1 328.27 391.1 328.27 390.98 328.33 339.98 442.86 191.31 429.1 191.31 429.1 391.1 328.27"/><polygon class="cls-8" points="405.56 116.67 177.79 142.84 177.79 142.83 177.79 142.83 405.56 15.01 405.56 116.67 405.56 116.67"/><polygon class="cls-9" points="390.56 327.96 131.31 273.44 130.99 273.62 130.78 273.5 130.79 273.49 130.79 273.49 405.56 116.67 405.56 116.67 390.56 327.96"/><polygon class="cls-10" points="177.79 142.84 405.56 116.67 130.79 273.49 177.79 142.84"/></g></g></svg>