<svg xmlns="http://www.w3.org/2000/svg" viewBox="0 0 491.77 464.99"><defs><style>.cls-1{fill:#02111a;}.cls-2{fill:#010e17;}.cls-3{fill:#0b4d4c;}.cls-4{fill:#083c3e;}.cls-5{fill:#010c16;}.cls-6{fill:#05262b;}.cls-7{fill:#138278;}.cls-8{fill:#062f33;}.cls-9{fill:#08383a;}.cls-10{fill:#06292e;}.cls-11{fill:#093f40;}.cls-12{fill:#094142;}.cls-13{fill:#158e81;}.cls-14{fill:#0f6661;}.cls-15{fill:#18a191;}</style></defs><g id="Layer_2" data-name="Layer 2"><g id="Layer_344" data-name="Layer 344"><polygon class="cls-1" points="104.11 328.14 104.32 328.26 18.53 390.09 18.53 390.09 0.53 278.8 103.79 328.32 104.11 328.14"/><polygon class="cls-2" points="104.32 328.26 104.21 328.33 171.21 464.86 18.53 390.09 104.32 328.26 104.32 328.26"/><polygon class="cls-3" points="368.67 256.68 368.99 256.86 323.99 429.16 323.99 429.16 104.32 328.39 104.32 328.26 368.67 256.68"/><polygon class="cls-4" points="426.77 337.33 491.77 464.98 323.99 429.16 323.99 429.16 426.77 337.33"/><polygon class="cls-5" points="104.32 328.39 323.99 429.16 171.21 464.99 171.21 464.99 171.32 464.92 104.32 328.39"/><polygon class="cls-6" points="426.57 337.2 426.78 337.32 426.77 337.33 426.77 337.33 323.99 429.16 368.99 256.86 426.25 337.39 426.57 337.2"/><polygon class="cls-7" points="224.79 167.66 347.46 142.9 368.46 256.43 224.79 167.66"/><polygon class="cls-8" points="0 92.83 160.79 0 224.79 167.66 0 92.83"/><polygon class="cls-9" points="347.46 142.9 224.79 167.66 224.79 167.66 160.79 0 347.57 142.83 347.46 142.9 347.46 142.9"/><polygon class="cls-10" points="224.79 167.66 103.79 327.95 0.53 278.43 0.21 278.61 0 278.49 224.79 167.66"/><polygon class="cls-11" points="368.46 256.43 368.46 256.56 368.46 256.56 104.11 328.14 103.79 327.95 224.79 167.66 224.79 167.66 368.46 256.43"/><polygon class="cls-12" points="224.79 167.66 0 278.49 0 92.83 224.79 167.66 224.79 167.66"/><polygon class="cls-13" points="347.57 142.96 347.57 142.83 347.57 142.83 482.25 0.07 445.25 176.73 347.57 142.96"/><polygon class="cls-14" points="368.57 256.49 445.25 176.73 426.25 337.02 368.99 256.5 368.67 256.68 368.46 256.56 368.57 256.49 368.57 256.49"/><polygon class="cls-15" points="368.57 256.49 347.57 142.96 445.25 176.73 445.25 176.73 368.57 256.49"/></g></g></svg>