<svg xmlns="http://www.w3.org/2000/svg" viewBox="0 0 1920 683.15"><defs><style>.cls-1{fill:#0b4f4d;}.cls-2{fill:#073336;}.cls-3{fill:#083638;}.cls-4{fill:#083a3c;}.cls-5{fill:#073437;}.cls-6{fill:#083c3d;}.cls-7{fill:#02121b;}.cls-8{fill:#041e25;}.cls-9{fill:#11746b;}.cls-10{fill:#0c5250;}.cls-11{fill:#0d5956;}.cls-12{fill:#0c5452;}.cls-13{fill:#0e635e;}.cls-14{fill:#062b2f;}.cls-15{fill:#0f6661;}.cls-16{fill:#0a4948;}.cls-17{fill:#08393b;}.cls-18{fill:#14857a;}.cls-19{fill:#158e81;}.cls-20{fill:#18a393;}.cls-21{fill:#127e74;}.cls-22{fill:#179e8f;}.cls-23{fill:#14897d;}.cls-24{fill:#041c23;}.cls-25{fill:#0d5855;}.cls-26{fill:#0c5351;}.cls-27{fill:#1ab19e;}.cls-28{fill:#1dc0ab;}.cls-29{fill:#1aad9b;}.cls-30{fill:#19a998;}.cls-31{fill:#1fd0b8;}.cls-32{fill:#c62511;}.cls-33{fill:#0e5e5a;}.cls-34{fill:#127a70;}.cls-35{fill:#18a493;}.cls-36{fill:#ff351a;}.cls-37{fill:#158d80;}.cls-38{fill:#083739;}.cls-39{fill:#073538;}.cls-40{fill:#031921;}.cls-41{fill:#1bb4a1;}.cls-42{fill:#20d8be;}.cls-43{fill:#ff4229;}.cls-44{fill:#21dbc1;}.cls-45{fill:#24f2d4;}.cls-46{fill:#23ebce;}.cls-47{fill:#127b71;}.cls-48{fill:#05242a;}.cls-49{fill:#14887c;}.cls-50{fill:#0c514f;}.cls-51{fill:#1bb8a4;}.cls-52{fill:#1dc1ac;}.cls-53{fill:#1fd1b9;}.cls-54{fill:#1bb7a3;}.cls-55{fill:#1aae9c;}.cls-56{fill:#17998a;}.cls-57{fill:#1dc4ae;}.cls-58{fill:#1ec7b0;}.cls-59{fill:#158c80;}.cls-60{fill:#159184;}.cls-61{fill:#1aac9a;}.cls-62{fill:#179a8b;}.cls-63{fill:#0f645f;}.cls-64{fill:#073235;}.cls-65{fill:#0a4847;}.cls-66{fill:#127c72;}.cls-67{fill:#137f75;}.cls-68{fill:#0f6560;}.cls-69{fill:#107169;}.cls-70{fill:#0d5b57;}.cls-71{fill:#0e5f5b;}.cls-72{fill:#0f6963;}.cls-73{fill:#0c5552;}</style></defs><g id="Layer_2" data-name="Layer 2"><g id="Layer_342" data-name="Layer 342"><g id="Layer_343" data-name="Layer 343"><path id="Path_429" data-name="Path 429" class="cls-1" d="M1680.73,431.5h0l153.09,55-17.76,196.66h-17.26Z"/><path id="Path_430" data-name="Path 430" class="cls-2" d="M1813.29,383H1920v51.2l-86.17,52.29Z"/><path id="Path_431" data-name="Path 431" class="cls-3" d="M1833.83,486.49,1920,434.2v72.37Z"/><path id="Path_432" data-name="Path 432" class="cls-4" d="M1680.74,431.49l153.09,55L1813.29,383h0Z"/><path id="Path_433" data-name="Path 433" class="cls-5" d="M1833.83,486.49,1920,506.57v94.86Z"/><path id="Path_434" data-name="Path 434" class="cls-6" d="M1816.07,683.15l17.76-196.66L1920,601.43v81.72Z"/><path id="Path_435" data-name="Path 435" class="cls-7" d="M1813.29,383l20.54-118.48L1920,324.35V383Z"/><path id="Path_436" data-name="Path 436" class="cls-8" d="M1585.74,286.49h0L1813.27,383h0l20.54-118.49h0Z"/><path id="Path_437" data-name="Path 437" class="cls-9" d="M1448.86,683.15,1526.6,548.5h0L1681.16,630l-158.25,53.15Z"/><path id="Path_438" data-name="Path 438" class="cls-10" d="M1680.71,431.51h0L1798.8,683.15h-34L1681.16,630Z"/><path id="Path_439" data-name="Path 439" class="cls-11" d="M1522.91,683.15,1681.16,630l-32.92,53.15Z"/><path id="Path_440" data-name="Path 440" class="cls-12" d="M1648.24,683.15,1681.16,630l7.79,53.15Z"/><path id="Path_441" data-name="Path 441" class="cls-13" d="M1526.62,548.51,1681.16,630h0l-.45-198.49Z"/><path id="Path_442" data-name="Path 442" class="cls-1" d="M1681.16,630l83.59,53.15H1689Z"/><path id="Path_443" data-name="Path 443" class="cls-11" d="M1480.16,383l46.46,165.49,154.09-117Z"/><path id="Path_444" data-name="Path 444" class="cls-14" d="M1585.71,286.51l-53.09-157L1480.16,383h0Z"/><path id="Path_445" data-name="Path 445" class="cls-15" d="M1526.62,548.49,1480.16,383h0l-80.11-97,126.54,262.49h0Z"/><path id="Path_446" data-name="Path 446" class="cls-1" d="M1680.71,431.49h0L1813.26,383h-333.1l200.55,48.49Z"/><path id="Path_447" data-name="Path 447" class="cls-16" d="M1585.73,286.51h0L1480.16,383h333.11Z"/><path id="Path_448" data-name="Path 448" class="cls-17" d="M1532.61,129.51h0L1400.05,286h0l80.11,97,52.46-253.49Z"/><path id="Path_449" data-name="Path 449" class="cls-18" d="M1371.48,507.49l155.11,41-77.74,134.66h-26.71Z"/><path id="Path_450" data-name="Path 450" class="cls-19" d="M1303.93,683.15l67.55-175.66,50.66,175.66Z"/><path id="Path_451" data-name="Path 451" class="cls-20" d="M1131.38,512.5h0l240.1-5-67.55,175.66h-10.46Z"/><path id="Path_452" data-name="Path 452" class="cls-21" d="M1400.05,286h0l-28.54,221.49,155.11,41Z"/><path id="Path_453" data-name="Path 453" class="cls-22" d="M1131.38,512.49l240.1-5L1247.93,445h0Z"/><path id="Path_454" data-name="Path 454" class="cls-23" d="M1247.93,445l123.55,62.49h0L1400,286Z"/><path id="Path_455" data-name="Path 455" class="cls-24" d="M1212.38,269.49l116.1-115L1230.93,0h0Z"/><path id="Path_456" data-name="Path 456" class="cls-25" d="M1212.38,269.49h0L1247.92,445h0l80.55-290.49h0Z"/><path id="Path_457" data-name="Path 457" class="cls-26" d="M1400,286l-71.54-131.49L1247.93,445Z"/><path id="Path_458" data-name="Path 458" class="cls-27" d="M1104.81,652l26.55-139.49h0l162.09,170.64h-32Z"/><path id="Path_459" data-name="Path 459" class="cls-28" d="M953.27,548.51,1104.81,652h0l26.55-139.49Z"/><path id="Path_460" data-name="Path 460" class="cls-29" d="M1084.06,683.15,1104.81,652l5.42,31.15Z"/><path id="Path_461" data-name="Path 461" class="cls-27" d="M980.66,683.15,1104.81,652l-20.75,31.15Z"/><path id="Path_462" data-name="Path 462" class="cls-30" d="M1104.81,652l156.64,31.15H1110.23Z"/><path id="Path_463" data-name="Path 463" class="cls-31" d="M875.52,683.15l77.74-134.64h0L1104.81,652,980.66,683.15Z"/><path id="Path_464" data-name="Path 464" class="cls-32" d="M1064.81,315,881.73,401l71.54,147.49Z"/><path id="Path_465" data-name="Path 465" class="cls-33" d="M1064.81,315h0l147.55-45.49-252.09-116Z"/><path id="Path_466" data-name="Path 466" class="cls-34" d="M1212.37,269.51h0L1064.81,315l183.1,130h0Z"/><path id="Path_467" data-name="Path 467" class="cls-35" d="M1064.81,315l66.55,197.49h0L1247.91,445Z"/><path id="Path_468" data-name="Path 468" class="cls-36" d="M953.27,548.49h0l178.09-36L1064.81,315Z"/><path id="Path_469" data-name="Path 469" class="cls-37" d="M960.27,153.51h0L881.72,401h0l183.08-86Z"/><path id="Path_470" data-name="Path 470" class="cls-38" d="M960.27,153.49l252.09,116L1064.81,113Z"/><path id="Path_471" data-name="Path 471" class="cls-39" d="M1212.36,269.49h0L1230.91,0l-166.1,113h0Z"/><path id="Path_472" data-name="Path 472" class="cls-40" d="M1064.81,113h0L862.73,31l97.54,122.49Z"/><path id="Path_473" data-name="Path 473" class="cls-41" d="M881.7,401,742.61,357,714.15,512.49h0Z"/><path id="Path_474" data-name="Path 474" class="cls-42" d="M742.6,357,597.06,595.49l117.09-83L742.61,357Z"/><path id="Path_475" data-name="Path 475" class="cls-43" d="M714.15,512.49l239.09,36L881.7,401Z"/><path id="Path_476" data-name="Path 476" class="cls-44" d="M673.88,683.15l40.27-170.66L835.74,683.15Z"/><path id="Path_477" data-name="Path 477" class="cls-45" d="M597.05,595.51h0l117.09-83L673.88,683.15H648.49Z"/><path id="Path_478" data-name="Path 478" class="cls-46" d="M714.15,512.49l239.09,36h0L875.5,683.15H835.74Z"/><path id="Path_479" data-name="Path 479" class="cls-47" d="M742.61,357,881.7,401,742.15,170.49Z"/><path id="Path_480" data-name="Path 480" class="cls-48" d="M960.24,153.49,862.7,31,742.15,170.49Z"/><path id="Path_481" data-name="Path 481" class="cls-49" d="M960.25,153.5h0l-218.09,17h0L881.7,401h0Z"/><path id="Path_482" data-name="Path 482" class="cls-50" d="M742.15,170.49l-200.09,3h0L742.59,357h0Z"/><path id="Path_483" data-name="Path 483" class="cls-51" d="M259.18,683.15,392.92,477.5h0L397.49,652l-84.77,31.15Z"/><path id="Path_484" data-name="Path 484" class="cls-52" d="M392.94,477.51,397.49,652h0L597,595.51Z"/><path id="Path_485" data-name="Path 485" class="cls-53" d="M397.49,652,597,595.51h0l51.44,87.64H532.7Z"/><path id="Path_486" data-name="Path 486" class="cls-54" d="M397.49,652,532.7,683.15H421.25Z"/><path id="Path_487" data-name="Path 487" class="cls-55" d="M312.72,683.15,397.49,652l-2.4,31.15Z"/><path id="Path_488" data-name="Path 488" class="cls-27" d="M395.09,683.15l2.4-31.15,23.76,31.15Z"/><path id="Path_489" data-name="Path 489" class="cls-18" d="M542,173.51l-134.09,96L475.49,383h0Z"/><path id="Path_490" data-name="Path 490" class="cls-21" d="M407.93,269.51h0L332.37,352h0l143.12,31L407.94,269.51Z"/><path id="Path_491" data-name="Path 491" class="cls-56" d="M392.94,477.49,475.49,383h0L332.37,352l60.55,125.49h0Z"/><path id="Path_492" data-name="Path 492" class="cls-11" d="M542.05,173.51h0L475.49,383l267.09-26h0Z"/><path id="Path_493" data-name="Path 493" class="cls-57" d="M475.49,383l-82.55,94.49L597,595.49Z"/><path id="Path_494" data-name="Path 494" class="cls-58" d="M597,595.49h0L742.58,357,475.49,383h0L597,595.49Z"/><path id="Path_495" data-name="Path 495" class="cls-59" d="M5.7,601.5h0l178.09-112L105.69,683.15H69.25Z"/><path id="Path_496" data-name="Path 496" class="cls-18" d="M168.26,344,183.8,489.49h0L332.35,352Z"/><path id="Path_497" data-name="Path 497" class="cls-60" d="M5.71,601.49l178.09-112L168.26,344h0Z"/><path id="Path_498" data-name="Path 498" class="cls-61" d="M183.8,489.49l209.12-12h0L259.17,683.15H235.46Z"/><path id="Path_499" data-name="Path 499" class="cls-62" d="M105.69,683.15,183.8,489.49l51.66,193.66Z"/><path id="Path_500" data-name="Path 500" class="cls-56" d="M332.37,352h0L183.8,489.49l209.12-12Z"/><path id="Path_501" data-name="Path 501" class="cls-63" d="M332.35,352,217.8,144.49,168.26,344Z"/><path id="Path_502" data-name="Path 502" class="cls-64" d="M168.24,344h0L217.8,144.49h0l-163.09,11h0Z"/><path id="Path_503" data-name="Path 503" class="cls-16" d="M284.35,71,217.8,144.49l190.12,125L284.37,71h0Z"/><path id="Path_504" data-name="Path 504" class="cls-65" d="M407.92,269.49l-190.12-125h0L332.35,352h0l75.55-82.5Z"/><path id="Path_505" data-name="Path 505" class="cls-66" d="M0,683.15V607.68l5.68-6.17h0l63.53,81.65Z"/><path id="Path_506" data-name="Path 506" class="cls-67" d="M0,607.68V591.21l5.68,10.3Z"/><path id="Path_507" data-name="Path 507" class="cls-68" d="M168.24,344,54.7,155.51h0L16.14,357l152.09-13Z"/><path id="Path_508" data-name="Path 508" class="cls-69" d="M5.68,601.49h0L168.23,344,16.14,357h0Z"/><path id="Path_509" data-name="Path 509" class="cls-70" d="M0,358.37V346.26L16.13,357Z"/><path id="Path_510" data-name="Path 510" class="cls-71" d="M0,399.12V358.37L16.13,357Z"/><path id="Path_511" data-name="Path 511" class="cls-72" d="M0,591.19V399.12L16.13,357,5.68,601.49Z"/><path id="Path_512" data-name="Path 512" class="cls-73" d="M0,346.26V169.18l54.68-13.67L16.13,357Z"/></g></g></g></svg>