<svg xmlns="http://www.w3.org/2000/svg" viewBox="0 0 1205.85 1002.15"><defs><style>.cls-1{fill:#eeefef;}.cls-2{fill:#abafb2;}.cls-3{fill:#b8bbbe;}.cls-4{fill:#d0d2d3;}.cls-5{fill:#c2c5c7;}.cls-6{fill:#d3d5d7;}.cls-7{fill:#868b90;}.cls-8{fill:#6a7076;}.cls-9{fill:#5e646b;}.cls-10{fill:#6b7177;}.cls-11{fill:#484f56;}.cls-12{fill:#909499;}.cls-13{fill:#40474f;}.cls-14{fill:#131c25;}.cls-15{fill:#06101a;}.cls-16{fill:#050f19;}.cls-17{fill:#061019;}.cls-18{fill:#293139;}.cls-19{fill:#888c91;}.cls-20{fill:#92969a;}.cls-21{fill:#a1a4a8;}.cls-22{fill:#ced0d2;}.cls-23{fill:#a8acaf;}.cls-24{fill:#b3b6b9;}.cls-25{fill:#666c72;}.cls-26{fill:#8a8f94;}.cls-27{fill:#c0c3c5;}.cls-28{fill:#4b5259;}.cls-29{fill:#4a5158;}.cls-30{fill:#2a333b;}.cls-31{fill:#161f28;}.cls-32{fill:#242d35;}.cls-33{fill:#172029;}.cls-34{fill:#0a141d;}.cls-35{fill:#030c16;}.cls-36{fill:#040e18;}.cls-37{fill:#787e83;}.cls-38{fill:#585f65;}.cls-39{fill:#464d54;}.cls-40{fill:#858a8e;}.cls-41{fill:#565d63;}.cls-42{fill:#656b71;}.cls-43{fill:#4d545b;}.cls-44{fill:#363e46;}.cls-45{fill:#303840;}.cls-46{fill:#434a51;}.cls-47{fill:#545a61;}.cls-48{fill:#131c26;}.cls-49{fill:#0f1822;}.cls-50{fill:#09121c;}.cls-51{fill:#07111a;}.cls-52{fill:#121b24;}.cls-53{fill:#252d36;}.cls-54{fill:#1c252d;}.cls-55{fill:#18212b;}.cls-56{fill:#1e262f;}.cls-57{fill:#0d1620;}.cls-58{fill:#141d26;}.cls-59{fill:#333b44;}.cls-60{fill:#373f47;}.cls-61{fill:#353d45;}.cls-62{fill:#202831;}.cls-63{fill:#111a23;}.cls-64{fill:#18212a;}.cls-65{fill:#0c151f;}.cls-66{fill:#09131d;}.cls-67{fill:#101923;}.cls-68{fill:#0a131d;}.cls-69{fill:#020c16;}.cls-70{fill:#0b151e;}</style></defs><g id="Layer_2" data-name="Layer 2"><g id="Layer_342" data-name="Layer 342"><g id="Layer_342-2" data-name="Layer 342"><path id="Path_242" data-name="Path 242" class="cls-1" d="M239.27,750.5h0l-153.09,55,17.75,196.65h17.26Z"/><path id="Path_243" data-name="Path 243" class="cls-2" d="M106.71,702H0v51.2l86.17,52.29Z"/><path id="Path_244" data-name="Path 244" class="cls-3" d="M86.17,805.49,0,753.2v72.37Z"/><path id="Path_245" data-name="Path 245" class="cls-4" d="M239.26,750.49l-153.09,55L106.71,702h0Z"/><path id="Path_246" data-name="Path 246" class="cls-5" d="M86.17,805.49,0,825.57v94.86Z"/><path id="Path_247" data-name="Path 247" class="cls-6" d="M103.93,1002.15,86.17,805.49,0,920.43v81.72Z"/><path id="Path_248" data-name="Path 248" class="cls-7" d="M106.71,702,86.17,583.49,0,643.35V702Z"/><path id="Path_249" data-name="Path 249" class="cls-8" d="M86.17,583.49,0,557.93v85.42Z"/><path id="Path_250" data-name="Path 250" class="cls-9" d="M86.17,583.49,0,404.94v153Z"/><path id="Path_251" data-name="Path 251" class="cls-10" d="M334.26,605.48l-248.09-22L217.71,464h0Z"/><path id="Path_252" data-name="Path 252" class="cls-11" d="M217.71,464,0,377.51v27.43L86.17,583.49Z"/><path id="Path_253" data-name="Path 253" class="cls-12" d="M334.26,605.48h0L106.72,702h0L86.18,583.47h0Z"/><path id="Path_254" data-name="Path 254" class="cls-13" d="M242.26,259.49h0L217.72,464h0L73.18,229.49h0Z"/><path id="Path_255" data-name="Path 255" class="cls-14" d="M73.17,229.49,0,222.55V345.09Z"/><path id="Path_256" data-name="Path 256" class="cls-15" d="M73.17,229.49,0,141.49v81.06Z"/><path id="Path_257" data-name="Path 257" class="cls-16" d="M174.71,64,0,47.82v93.67l73.17,88Z"/><path id="Path_258" data-name="Path 258" class="cls-17" d="M242.26,259.49l-169.09-30L174.71,64h0Z"/><path id="Path_259" data-name="Path 259" class="cls-18" d="M217.71,464,73.17,229.49,0,345.09v32.39Z"/><path id="Path_266" data-name="Path 266" class="cls-19" d="M471.14,1002.15,393.4,867.5h0L238.86,949l158.23,53.16Z"/><path id="Path_267" data-name="Path 267" class="cls-6" d="M239.29,750.51h0L121.2,1002.15h34.05L238.84,949Z"/><path id="Path_268" data-name="Path 268" class="cls-20" d="M397.09,1002.15,238.84,949l32.92,53.15Z"/><path id="Path_269" data-name="Path 269" class="cls-21" d="M271.76,1002.15,238.84,949l-7.79,53.15Z"/><path id="Path_270" data-name="Path 270" class="cls-22" d="M393.38,867.51,238.84,949h0l.45-198.49Z"/><path id="Path_271" data-name="Path 271" class="cls-23" d="M238.84,949l-83.59,53.15h75.8Z"/><path id="Path_272" data-name="Path 272" class="cls-24" d="M439.83,702,393.38,867.49l-154.09-117Z"/><path id="Path_273" data-name="Path 273" class="cls-25" d="M334.29,605.51l53.09-157L439.83,702h0Z"/><path id="Path_274" data-name="Path 274" class="cls-26" d="M393.38,867.49,439.83,702h0L520,605,393.41,867.49h0Z"/><path id="Path_275" data-name="Path 275" class="cls-27" d="M239.28,750.49h0L106.74,702H439.83L239.29,750.49Z"/><path id="Path_276" data-name="Path 276" class="cls-21" d="M334.27,605.5h0L439.81,702H106.72Z"/><path id="Path_277" data-name="Path 277" class="cls-8" d="M387.39,448.51h0L519.94,605h0l-80.12,97L387.37,448.52Z"/><path id="Path_278" data-name="Path 278" class="cls-28" d="M387.38,448.49l-53.09,157L331.83,319Z"/><path id="Path_279" data-name="Path 279" class="cls-29" d="M331.83,319l2.46,286.48h0L217.74,464,331.83,319Z"/><path id="Path_280" data-name="Path 280" class="cls-30" d="M387.38,448.49,331.83,319h0L554,344,387.41,448.49h0Z"/><path id="Path_281" data-name="Path 281" class="cls-31" d="M242.29,259.51l89.09-84L331.83,319h0Z"/><path id="Path_282" data-name="Path 282" class="cls-32" d="M217.74,464h0l24.54-204.49h0L331.82,319Z"/><path id="Path_283" data-name="Path 283" class="cls-33" d="M554,344,331.83,319l-.45-143.49h0Z"/><path id="Path_284" data-name="Path 284" class="cls-34" d="M242.29,259.49h0L174.75,64,322.84,0h0Z"/><path id="Path_287" data-name="Path 287" class="cls-35" d="M331.41,175.49h0L322.86,0h0L549,53Z"/><path id="Path_289" data-name="Path 289" class="cls-36" d="M322.83,0l8.55,175.49-89.09,84Z"/><path id="Path_290" data-name="Path 290" class="cls-37" d="M548.52,826.49l-155.11,41,77.74,134.66h26.71Z"/><path id="Path_291" data-name="Path 291" class="cls-38" d="M616.07,1002.15,548.52,826.49l-50.66,175.66Z"/><path id="Path_292" data-name="Path 292" class="cls-39" d="M788.62,831.5h0l-240.1-5,67.55,175.65h10.46Z"/><path id="Path_293" data-name="Path 293" class="cls-40" d="M520,605h0l28.57,221.49-155.11,41Z"/><path id="Path_294" data-name="Path 294" class="cls-41" d="M788.62,831.49l-240.1-5L672.07,764h0Z"/><path id="Path_295" data-name="Path 295" class="cls-42" d="M672.07,764,548.52,826.49h0L520,605Z"/><path id="Path_296" data-name="Path 296" class="cls-18" d="M591.52,473.49,554,344l135.09-25L591.52,473.49Z"/><path id="Path_297" data-name="Path 297" class="cls-43" d="M387.41,448.49l204.11,25h0L520,605h0Z"/><path id="Path_298" data-name="Path 298" class="cls-44" d="M707.62,588.48l-116.1-115L689.07,319h0Z"/><path id="Path_299" data-name="Path 299" class="cls-45" d="M554,344l37.54,129.49-204.11-25L554,344h0Z"/><path id="Path_300" data-name="Path 300" class="cls-46" d="M707.62,588.48h0L672.08,764h0L591.53,473.48h0Z"/><path id="Path_301" data-name="Path 301" class="cls-47" d="M520,605l71.54-131.48L672.07,764Z"/><path id="Path_302" data-name="Path 302" class="cls-48" d="M554,344,519.52,229.49,689.07,319Z"/><path id="Path_303" data-name="Path 303" class="cls-16" d="M519.52,229.49h0L549,53l148.09,97Z"/><path id="Path_304" data-name="Path 304" class="cls-49" d="M815.62,241.5,689.08,319h0L519.53,229.5h0l296.1,12Z"/><path id="Path_305" data-name="Path 305" class="cls-50" d="M815.62,241.49l-296.1-12L697.07,150h0Z"/><path id="Path_306" data-name="Path 306" class="cls-51" d="M549,53,519.52,229.49l-188.11-54L549,53h0Z"/><path id="Path_307" data-name="Path 307" class="cls-52" d="M554,344h0L331.43,175.47h0l188.11,54h0Z"/><path id="Path_314" data-name="Path 314" class="cls-53" d="M815.19,971,788.62,831.51h0L626.54,1002.15h32Z"/><path id="Path_315" data-name="Path 315" class="cls-54" d="M966.73,867.51,815.19,971h0L788.62,831.51Z"/><path id="Path_316" data-name="Path 316" class="cls-55" d="M835.94,1002.15,815.19,971l-5.42,31.15Z"/><path id="Path_317" data-name="Path 317" class="cls-31" d="M939.34,1002.15,815.19,971l20.75,31.15Z"/><path id="Path_318" data-name="Path 318" class="cls-56" d="M815.19,971l-156.64,31.15H809.77Z"/><path id="Path_319" data-name="Path 319" class="cls-57" d="M1044.48,1002.15,966.74,867.51h0L815.19,971l124.15,31.15Z"/><path id="Path_320" data-name="Path 320" class="cls-58" d="M855.19,634l183.08,86L966.73,867.48Z"/><path id="Path_321" data-name="Path 321" class="cls-59" d="M855.19,634h0L707.62,588.51l252.09-116Z"/><path id="Path_322" data-name="Path 322" class="cls-60" d="M707.62,588.5h0L855.17,634,672.07,764h0Z"/><path id="Path_323" data-name="Path 323" class="cls-61" d="M855.19,634,788.62,831.49h0L672.07,764l183.1-130Z"/><path id="Path_324" data-name="Path 324" class="cls-62" d="M966.73,867.48h0l-178.09-36L855.19,634Z"/><path id="Path_325" data-name="Path 325" class="cls-63" d="M959.73,472.51h0L1038.28,720h0L855.2,634Z"/><path id="Path_326" data-name="Path 326" class="cls-64" d="M959.73,472.49l-252.09,116L855.19,432l104.54,40.48Z"/><path id="Path_327" data-name="Path 327" class="cls-56" d="M707.62,588.48h0L689.07,319l166.1,113h0Z"/><path id="Path_328" data-name="Path 328" class="cls-65" d="M855.19,432h0l202.08-82L959.73,472.48Z"/><path id="Path_329" data-name="Path 329" class="cls-66" d="M1057.28,350h0L855.2,432,989.73,148.51h0Z"/><path id="Path_330" data-name="Path 330" class="cls-67" d="M689.09,319h0l126.53-77.5h0L855.17,432Z"/><path id="Path_331" data-name="Path 331" class="cls-68" d="M855.19,432,815.62,241.51l174.09-93Z"/><path id="Path_338" data-name="Path 338" class="cls-36" d="M1038.31,720l139.08-44,28.46,155.49h0L1038.3,720Z"/><path id="Path_340" data-name="Path 340" class="cls-51" d="M1205.85,831.49l-239.09,36L1038.3,720Z"/><path id="Path_343" data-name="Path 343" class="cls-69" d="M1205.85,831.49l-239.09,36h0l77.74,134.66h39.76Z"/><path id="Path_344" data-name="Path 344" class="cls-36" d="M1177.39,676,1038.3,720l139.55-230.48Z"/><path id="Path_345" data-name="Path 345" class="cls-15" d="M959.76,472.49,1057.3,350l120.55,139.49Z"/><path id="Path_346" data-name="Path 346" class="cls-70" d="M959.75,472.5h0l218.09,17h0L1038.3,720h0Z"/></g></g></g></svg>