<svg xmlns="http://www.w3.org/2000/svg" xmlns:xlink="http://www.w3.org/1999/xlink" viewBox="0 0 1928 1086.98"><defs><style>.cls-1{fill:none;}.cls-2{clip-path:url(#clip-path);}.cls-3{fill:#010b15;}.cls-4{fill:#020c16;}.cls-5{fill:#030c16;}.cls-6{fill:#030d17;}.cls-7{fill:#040e17;}.cls-8{fill:#040e18;}.cls-9{fill:#050e18;}.cls-10{fill:#050f19;}.cls-11{fill:#061019;}.cls-12{fill:#06101a;}.cls-13{fill:#07101a;}.cls-14{fill:#07111a;}.cls-15{fill:#07111b;}.cls-16{fill:#08111b;}.cls-17{fill:#08121b;}.cls-18{fill:#08121c;}.cls-19{fill:#09121c;}.cls-20{fill:#09131c;}.cls-21{fill:#09131d;}.cls-22{fill:#0a131d;}.cls-23{fill:#0a141d;}.cls-24{fill:#0b141e;}.cls-25{fill:#0b151e;}.cls-26{fill:#0b151f;}.cls-27{fill:#0c151f;}.cls-28{fill:#0c161f;}.cls-29{fill:#0d1620;}.cls-30{fill:#0d1720;}.cls-31{fill:#0e1721;}.cls-32{fill:#0e1821;}.cls-33{fill:#0f1821;}.cls-34{fill:#0f1822;}.cls-35{fill:#101922;}.cls-36{fill:#101923;}.cls-37{fill:#111a23;}.cls-38{fill:#111a24;}.cls-39{fill:#121b24;}.cls-40{fill:#121b25;}.cls-41{fill:#131c25;}.cls-42{fill:#131c26;}.cls-43{fill:#141d26;}.cls-44{fill:#141d27;}.cls-45{fill:#151e27;}.cls-46{fill:#151f28;}.cls-47{fill:#161f28;}.cls-48{fill:#172029;}.cls-49{fill:#18212a;}.cls-50{fill:#18212b;}.cls-51{fill:#19222b;}.cls-52{fill:#1a232c;}.cls-53{fill:#1b242d;}.cls-54{fill:#1c252d;}.cls-55{fill:#1c252e;}.cls-56{fill:#1d262f;}.cls-57{fill:#1e262f;}.cls-58{fill:#1e2730;}.cls-59{fill:#1f2831;}.cls-60{fill:#202831;}.cls-61{fill:#202932;}.cls-62{fill:#212a33;}.cls-63{fill:#222a33;}.cls-64{fill:#222b34;}.cls-65{fill:#232c35;}.cls-66{fill:#242d35;}.cls-67{fill:#252d36;}.cls-68{fill:#252e37;}.cls-69{fill:#262f37;}.cls-70{fill:#273038;}.cls-71{fill:#283039;}.cls-72{fill:#293139;}.cls-73{fill:#29323a;}.cls-74{fill:#2a333b;}.cls-75{fill:#2b333c;}.cls-76{fill:#2c343c;}.cls-77{fill:#2d353d;}.cls-78{fill:#2d363e;}.cls-79{fill:#2e373f;}.cls-80{fill:#2f3740;}.cls-81{fill:#303840;}.cls-82{fill:#313941;}.cls-83{fill:#323a42;}.cls-84{fill:#333b43;}.cls-85{fill:#333b44;}.cls-86{fill:#343c44;}.cls-87{fill:#353d45;}.cls-88{fill:#363e46;}.cls-89{fill:#373f47;}.cls-90{fill:#384048;}.cls-91{fill:#394149;}.cls-92{fill:#3a4249;}.cls-93{fill:#3b434a;}.cls-94{fill:#3c434b;}.cls-95{fill:#3d444c;}.cls-96{fill:#3e454d;}.cls-97{fill:#3f464e;}.cls-98{fill:#40474f;}.cls-99{fill:#414850;}.cls-100{fill:#424951;}.cls-101{fill:#434a51;}.cls-102{fill:#444b52;}.cls-103{fill:#454c53;}.cls-104{fill:#464d54;}.cls-105{fill:#474e55;}.cls-106{fill:#484f56;}.cls-107{fill:#495057;}.cls-108{fill:#4a5158;}.cls-109{fill:#4b5259;}.cls-110{fill:#4c535a;}.cls-111{fill:#4d545b;}.cls-112{fill:#4e555c;}.cls-113{fill:#4f565d;}.cls-114{fill:#50575e;}.cls-115{fill:#51585f;}.cls-116{fill:#525960;}.cls-117{fill:#545a61;}.cls-118{fill:#555b62;}.cls-119{fill:#565d63;}.cls-120{fill:#575e64;}.cls-121{fill:#585f65;}.cls-122{fill:#596066;}.cls-123{fill:#5a6167;}.cls-124{fill:#5c6268;}.cls-125{fill:#5d636a;}.cls-126{fill:#5e646b;}.cls-127{fill:#5f656c;}.cls-128{fill:#60676d;}.cls-129{fill:#62686e;}.cls-130{fill:#63696f;}.cls-131{fill:#646a70;}.cls-132{fill:#656b71;}.cls-133{fill:#666c72;}.cls-134{fill:#686e74;}.cls-135{fill:#696f75;}.cls-136{fill:#6a7076;}.cls-137{fill:#6b7177;}.cls-138{fill:#6d7278;}.cls-139{fill:#6e7479;}.cls-140{fill:#6f757b;}.cls-141{fill:#71767c;}.cls-142{fill:#72777d;}.cls-143{fill:#73797e;}.cls-144{fill:#747a7f;}.cls-145{fill:#767b81;}.cls-146{fill:#777c82;}.cls-147{fill:#787e83;}.cls-148{fill:#7a7f84;}.cls-149{fill:#7b8085;}.cls-150{fill:#7c8287;}.cls-151{fill:#7e8388;}.cls-152{fill:#7f8489;}.cls-153{fill:#81868b;}.cls-154{fill:#82878c;}.cls-155{fill:#83888d;}.cls-156{fill:#858a8e;}.cls-157{fill:#868b90;}.cls-158{fill:#888c91;}.cls-159{fill:#898e92;}.cls-160{fill:#8a8f94;}.cls-161{fill:#8c9095;}.cls-162{fill:#8d9296;}.cls-163{fill:#8f9398;}.cls-164{fill:#909499;}.cls-165{fill:#92969a;}.cls-166{fill:#93979c;}.cls-167{fill:#94999d;}.cls-168{fill:#969a9e;}.cls-169{fill:#979ca0;}.cls-170{fill:#999da1;}.cls-171{fill:#9a9ea2;}.cls-172{fill:#9ca0a4;}.cls-173{fill:#9da1a5;}.cls-174{fill:#9fa3a7;}.cls-175{fill:#a1a4a8;}.cls-176{fill:#a2a6a9;}.cls-177{fill:#a4a7ab;}.cls-178{fill:#a5a9ac;}.cls-179{fill:#a7aaae;}.cls-180{fill:#a8acaf;}.cls-181{fill:#aaadb1;}.cls-182{fill:#abafb2;}.cls-183{fill:#adb0b3;}.cls-184{fill:#afb2b5;}.cls-185{fill:#b0b3b6;}.cls-186{fill:#b2b5b8;}.cls-187{fill:#b3b6b9;}.cls-188{fill:#b5b8bb;}.cls-189{fill:#b7b9bc;}.cls-190{fill:#b8bbbe;}.cls-191{fill:#babdbf;}.cls-192{fill:#bbbec1;}.cls-193{fill:#bdc0c2;}.cls-194{fill:#bfc1c4;}.cls-195{fill:#c0c3c5;}.cls-196{fill:#c2c5c7;}.cls-197{fill:#c4c6c8;}.cls-198{fill:#c5c8ca;}.cls-199{fill:#c7c9cc;}.cls-200{fill:#c9cbcd;}.cls-201{fill:#cbcdcf;}.cls-202{fill:#ccced0;}.cls-203{fill:#ced0d2;}.cls-204{fill:#d0d2d3;}.cls-205{fill:#d1d3d5;}.cls-206{fill:#d3d5d7;}.cls-207{fill:#d5d7d8;}.cls-208{fill:#d7d8da;}.cls-209{fill:#d8dadc;}.cls-210{fill:#dadcdd;}.cls-211{fill:#dcdddf;}.cls-212{fill:#dedfe0;}.cls-213{fill:#e0e1e2;}.cls-214{fill:#e1e3e4;}.cls-215{fill:#e3e4e5;}.cls-216{fill:#e5e6e7;}.cls-217{fill:#e7e8e9;}.cls-218{fill:#e9eaea;}.cls-219{fill:#eaebec;}.cls-220{fill:#ecedee;}.cls-221{fill:#eeefef;}.cls-222{fill:#f0f1f1;}.cls-223{fill:#f2f2f3;}.cls-224{fill:#f4f4f5;}.cls-225{fill:#f6f6f6;}.cls-226{fill:#f7f8f8;}.cls-227{fill:#f9fafa;}.cls-228{fill:#fbfbfc;}.cls-229{fill:#fdfdfd;}.cls-230{fill:#fff;}</style><clipPath id="clip-path" transform="translate(8)"><rect class="cls-1" width="1920" height="1079"/></clipPath></defs><g id="Layer_2" data-name="Layer 2"><g id="Layer_342" data-name="Layer 342"><g id="Layer_2-2" data-name="Layer 2"><g id="Layer_342-2" data-name="Layer 342"><g class="cls-2"><g id="Group_15" data-name="Group 15"><rect id="Rectangle_47" data-name="Rectangle 47" class="cls-3" x="8" width="1920" height="1079"/><path id="Path_625" data-name="Path 625" class="cls-3" d="M-1,1080V227.93h-.87l6.51-1.86q6.5-1.83,13-3.62,26-7.12,51.92-13.29,51.82-12.34,103.11-20.87a1450.53,1450.53,0,0,1,201.12-19.51c131-3.36,254.78,12.24,364.79,44.86,220,65.25,385,198.59,442.87,384.58,28.92,93,28.31,190.34,2.44,286.75-12.94,48.21-32.19,96.18-57.22,143.26q-9.39,17.65-19.85,35.13-5.22,8.75-10.72,17.42V1080Z" transform="translate(8)"/><path id="Path_626" data-name="Path 626" class="cls-3" d="M-1,1080V232.47H-7.66q13-3.79,25.91-7.35Q44.16,218,70,211.88q51.63-12.28,102.71-20.79A1442.2,1442.2,0,0,1,373,171.67c130.5-3.35,253.79,12.18,363.37,44.68,219.18,65,383.55,197.82,441.16,383.08,28.82,92.63,28.21,189.57,2.47,285.64-12.89,48-32.06,95.81-57,142.71q-9.36,17.58-19.78,35-5.22,8.68-10.7,17.34V1080Z" transform="translate(8)"/><path id="Path_627" data-name="Path 627" class="cls-3" d="M-1,1080V235.11H-7q12.92-3.78,25.81-7.31,25.82-7.08,51.52-13.19,51.42-12.24,102.3-20.71A1439.06,1439.06,0,0,1,372.2,174.55c130-3.34,252.79,12.14,362,44.51,218.32,64.74,382,197.05,439.43,381.59,28.69,92.27,28.08,188.86,2.41,284.52-12.82,47.83-31.92,95.44-56.76,142.15q-9.29,17.52-19.69,34.86-5.19,8.67-10.64,17.29c-.91,1.43-1.82,2.87-2.74,4.3V1080Z" transform="translate(8)"/><path id="Path_628" data-name="Path 628" class="cls-3" d="M-1,1080V237.76H-6.24Q6.63,234,19.48,230.47q25.69-7,51.31-13.14,51.22-12.18,101.9-20.62a1430.76,1430.76,0,0,1,198.78-19.28C501,174.11,623.28,189.52,732,221.77,949.49,286.25,1112.57,418,1169.73,601.86c28.58,91.91,28,188.12,2.41,283.42-12.79,47.64-31.81,95.06-56.55,141.59q-9.28,17.45-19.59,34.72-5.18,8.64-10.6,17.22-1.39,2.19-2.76,4.29V1080Z" transform="translate(8)"/><path id="Path_629" data-name="Path 629" class="cls-3" d="M-1,1080V240.4H-5.53q12.83-3.75,25.62-7.26,25.59-7,51.11-13.08,51-12.15,101.5-20.55a1427.18,1427.18,0,0,1,198-19.2c129-3.31,250.82,12.05,359.13,44.16,216.61,64.23,379.06,195.53,436,378.61,28.47,91.54,27.86,187.38,2.39,282.3-12.73,47.46-31.68,94.69-56.33,141q-9.24,17.41-19.54,34.62-5.14,8.6-10.55,17.15-2.7,4.27-5.47,8.54V1080Z" transform="translate(8)"/><path id="Path_630" data-name="Path 630" class="cls-3" d="M-1,1080V243H-4.82q12.77-3.74,25.52-7.23,25.5-7,50.91-13,50.82-12.09,101.1-20.46a1420.55,1420.55,0,0,1,197.22-19.13c128.46-3.29,249.83,12,357.71,44,215.76,64,377.57,194.74,434.28,377.11,28.36,91.19,27.75,186.65,2.39,281.19-12.69,47.27-31.57,94.31-56.11,140.52q-9.2,17.26-19.46,34.41-5.13,8.6-10.52,17.08-2.68,4.26-5.45,8.5v-6Z" transform="translate(8)"/><path id="Path_631" data-name="Path 631" class="cls-3" d="M-1,1080V245.69H-4.1q12.7-3.72,25.41-7.2,25.4-7,50.71-13,50.61-12,100.7-20.39a1415.67,1415.67,0,0,1,196.44-19c128-3.31,248.84,11.9,356.29,43.79,214.91,63.72,376.08,194,432.55,375.62,28.25,90.82,27.65,185.9,2.38,280.07-12.64,47.09-31.44,93.94-55.89,139.92q-9.16,17.25-19.38,34.32-5.11,8.54-10.47,17-2.64,4.26-5.42,8.48V1080Z" transform="translate(8)"/><path id="Path_632" data-name="Path 632" class="cls-3" d="M-1,1080V248.34H-3.39q12.66-3.71,25.31-7.18,25.29-6.93,50.51-12.93,50.41-12,100.3-20.3a1409.14,1409.14,0,0,1,195.66-19c127.44-3.27,247.85,11.9,354.88,43.64,214.05,63.5,374.57,193.22,430.84,374.15,28.13,90.47,27.53,185.17,2.36,279-12.58,46.9-31.31,93.57-55.66,139.37q-9.13,17.17-19.31,34.18-5.09,8.49-10.43,16.94-2.67,4.23-5.41,8.44V1080Z" transform="translate(8)"/><path id="Path_633" data-name="Path 633" class="cls-3" d="M-1,1080V251H-2.68q12.62-3.69,25.21-7.14,25.2-6.92,50.31-12.88,50.21-12,99.9-20.22a1404,1404,0,0,1,194.88-18.9c126.93-3.26,246.86,11.85,353.46,43.46,213.2,63.2,373.08,192.41,429.12,372.62,28,90.1,27.42,184.42,2.36,277.84-12.56,46.71-31.19,93.22-55.44,138.82q-9.11,17.1-19.24,34-5.06,8.46-10.38,16.88-2.67,4.2-5.39,8.4V1080Z" transform="translate(8)"/><path id="Path_634" data-name="Path 634" class="cls-3" d="M-1,1080V253.63H-2q12.57-3.67,25.11-7.12,25.1-6.87,50.11-12.83,50-11.9,99.5-20.14a1398.74,1398.74,0,0,1,194.09-18.82c126.43-3.24,245.88,11.81,352.05,43.29,212.34,63,371.59,191.65,427.4,371.14,27.91,89.74,27.32,183.69,2.35,276.74-12.48,46.52-31.06,92.82-55.22,138.25q-9.06,17-19.15,33.91-5.06,8.43-10.35,16.81-2.66,4.19-5.36,8.37V1080Z" transform="translate(8)"/><path id="Path_635" data-name="Path 635" class="cls-4" d="M-1,1080V256.27h-.26q12.51-3.66,25-7.08,25-6.85,49.91-12.78,49.8-11.85,99.1-20.06A1392.26,1392.26,0,0,1,366.06,197.6C492,194.37,611,209.36,716.7,240.72c211.49,62.71,370.1,190.88,425.69,369.65,27.79,89.38,27.2,183,2.33,275.62-12.43,46.33-30.93,92.45-55,137.7q-9,17-19.08,33.76-5,8.4-10.31,16.75c-1.74,2.8-3.53,5.56-5.33,8.33V1080Z" transform="translate(8)"/><path id="Path_636" data-name="Path 636" class="cls-4" d="M-1,1080V260.75H-6.78l6.24-1.83q12.45-3.65,24.9-7.06,24.9-6.83,49.71-12.73,49.61-11.81,98.7-20A1385.62,1385.62,0,0,1,365.3,200.46c125.41-3.22,243.9,11.71,349.22,42.94,210.63,62.46,368.59,190.11,424,368.15,27.68,89,27.09,182.21,2.33,274.51-12.43,46.18-30.85,92.1-54.85,137.17q-9,16.9-19,33.63-5,8.37-10.26,16.68-2.62,4.15-5.32,8.3V1080Z" transform="translate(8)"/><path id="Path_637" data-name="Path 637" class="cls-4" d="M-1,1080V263.39H-6l6.21-1.83q12.41-3.63,24.8-7,24.79-6.8,49.51-12.67,49.4-11.76,98.3-19.9A1380.66,1380.66,0,0,1,364.57,203.4c124.9-3.21,242.91,11.66,347.8,42.77,209.78,62.2,367.1,189.34,422.24,366.66,27.57,88.66,27,181.47,2.32,273.39-12.33,46-30.69,91.7-54.55,136.59q-9,16.83-18.92,33.49-5,8.34-10.23,16.61l-5.33,8.24V1080Z" transform="translate(8)"/><path id="Path_638" data-name="Path 638" class="cls-4" d="M-1,1080V266H-5.3c2.06-.62,4.12-1.22,6.18-1.82q12.36-3.62,24.7-7,24.69-6.78,49.3-12.63,49.22-11.7,97.91-19.81a1376,1376,0,0,1,191-18.52c124.39-3.19,241.92,11.62,346.38,42.59,208.9,62,365.58,188.6,420.5,365.19,27.45,88.3,26.87,180.73,2.3,272.28-12.28,45.78-30.56,91.33-54.32,136q-8.93,16.77-18.85,33.36-5,8.29-10.18,16.54-2.61,4.13-5.28,8.24V1080Z" transform="translate(8)"/><path id="Path_639" data-name="Path 639" class="cls-4" d="M-1,1080V268.66H-4.56l6.15-1.81q12.32-3.6,24.61-7,24.59-6.74,49.09-12.57,49-11.67,97.5-19.74A1369.31,1369.31,0,0,1,363,209.13C486.88,206,603.93,220.7,708,251.55c208,61.7,364.07,187.8,418.76,363.68,27.34,87.93,26.76,180,2.3,271.17-12.23,45.58-30.44,91-54.11,135.47q-8.88,16.7-18.77,33.22-5,8.27-10.18,16.48-2.6,4.1-5.25,8.2l-2.68,4.09V1080Z" transform="translate(8)"/><path id="Path_640" data-name="Path 640" class="cls-4" d="M-1,1080V271.3H-3.83l6.13-1.8q12.27-3.6,24.51-7Q51.29,255.79,75.7,250q48.81-11.61,97.1-19.65A1365.29,1365.29,0,0,1,362.21,212c123.38-3.16,240,11.53,343.56,42.25,207.23,61.45,362.61,187,417.08,362.19,27.24,87.56,26.66,179.26,2.29,270.06-12.18,45.4-30.31,90.58-53.88,134.92q-8.85,16.58-18.7,33.08-4.92,8.24-10.09,16.41c-1.73,2.72-3.47,5.45-5.24,8.16q-1.32,2-2.66,4.08V1080Z" transform="translate(8)"/><path id="Path_641" data-name="Path 641" class="cls-4" d="M-1,1080V273.94H-3.09l6.1-1.8q12.21-3.57,24.41-6.91,24.39-6.69,48.69-12.47,48.61-11.56,96.7-19.57A1355.65,1355.65,0,0,1,361.44,214.9c122.87-3.16,239,11.47,342.14,42.07,206.36,61.19,361.12,186.25,415.36,360.69,27.13,87.21,26.55,178.51,2.29,268.94-12.14,45.21-30.23,90.21-53.67,134.4q-17.61,33.12-39.21,65.53V1080Z" transform="translate(8)"/><path id="Path_642" data-name="Path 642" class="cls-5" d="M-1,1080V276.58H-2.35l6.08-1.79q12.15-3.57,24.3-6.89,24.28-6.66,48.49-12.42Q124.93,244,172.82,236a1352.36,1352.36,0,0,1,187.85-18.21c122.36-3.14,238,11.42,340.72,41.89C906.9,320.61,1061,445.16,1115,618.87c27,86.86,26.43,177.78,2.27,267.83-12.08,45-30.06,89.83-53.44,133.81a759.63,759.63,0,0,1-39.06,65.25V1080Z" transform="translate(8)"/><path id="Path_643" data-name="Path 643" class="cls-6" d="M-1,1080V281H-7.67q6.06-1.83,12.11-3.6,12.11-3.54,24.2-6.86,24.18-6.63,48.29-12.36,48.21-11.48,95.9-19.41A1345.74,1345.74,0,0,1,359.9,220.63c121.85-3.13,237,11.38,339.3,41.72,204.66,60.72,358.14,184.75,411.93,357.74,26.9,86.49,26.33,177,2.26,266.71-12,44.84-29.93,89.46-53.22,133.25a755.66,755.66,0,0,1-38.89,65v-5Z" transform="translate(8)"/><path id="Path_644" data-name="Path 644" class="cls-6" d="M-1,1080V283.66H-6.91q6-1.83,12.06-3.58,12.06-3.54,24.1-6.83,24.09-6.6,48.09-12.31,48-11.43,95.5-19.33a1342.16,1342.16,0,0,1,186.29-18.07c121.34-3.11,236,11.33,337.88,41.55C900.82,325.52,1053.65,449,1107.22,621.3c26.79,86.13,26.22,176.3,2.26,265.6-12,44.66-29.82,89.09-53,132.7q-17.38,32.7-38.73,64.71V1080Z" transform="translate(8)"/><path id="Path_645" data-name="Path 645" class="cls-6" d="M-1,1080V286.29H-6.15q6-1.82,12-3.57,12-3.51,24-6.8,24-6.57,47.89-12.26,47.81-11.37,95.1-19.25a1337.07,1337.07,0,0,1,185.51-18c120.83-3.1,235,11.29,336.47,41.38C897.77,328,1050,451,1103.32,622.51c26.68,85.78,26.1,175.57,2.24,264.49-11.93,44.46-29.69,88.71-52.77,132.13q-17.32,32.58-38.57,64.44V1080Z" transform="translate(8)"/><path id="Path_646" data-name="Path 646" class="cls-6" d="M-1,1080V288.92H-5.38q6-1.82,12-3.56,12-3.5,23.9-6.77,23.88-6.54,47.69-12.2,47.6-11.34,94.7-19.17A1332,1332,0,0,1,357.64,229.3c120.32-3.08,234,11.24,335.05,41.21,202.09,59.92,353.65,182.4,406.77,353.22,26.56,85.41,26,174.82,2.23,263.38-11.88,44.27-29.56,88.34-52.55,131.58q-17.23,32.43-38.4,64.17V1080Z" transform="translate(8)"/><path id="Path_647" data-name="Path 647" class="cls-6" d="M-1,1080V291.55H-4.62q6-1.8,11.91-3.54,11.9-3.48,23.79-6.74,23.79-6.52,47.49-12.16Q126,257.83,172.87,250a1323.78,1323.78,0,0,1,183.94-17.83c119.82-3.08,233,11.19,333.64,41,201.24,59.68,352.16,181.63,405,351.73C1122,710,1121.39,799,1097.73,887.21c-11.83,44.09-29.44,88-52.33,131q-17.18,32.3-38.25,63.9V1080Z" transform="translate(8)"/><path id="Path_648" data-name="Path 648" class="cls-7" d="M-1,1080V294.18H-3.86q5.93-1.8,11.86-3.53,11.85-3.47,23.69-6.71,23.69-6.49,47.29-12.1,47.19-11.23,93.9-19A1319.65,1319.65,0,0,1,356,235.07c119.31-3.06,232,11.14,332.22,40.85,200.43,59.42,350.71,180.86,403.38,350.24,26.33,84.69,25.77,173.34,2.21,261.15-11.81,43.9-29.31,87.59-52.11,130.47q-17.09,32.16-38.08,63.63V1080Z" transform="translate(8)"/><path id="Path_649" data-name="Path 649" class="cls-8" d="M-1,1080V296.81H-3.1Q2.81,295,8.71,293.3q11.8-3.45,23.59-6.68,23.58-6.47,47.09-12.06,47-11.18,93.5-18.92A1312.2,1312.2,0,0,1,355.27,238c118.8-3,231,11.1,330.81,40.68,199.53,59.16,349.16,180.09,401.61,348.74,26.22,84.33,25.67,172.61,2.2,260-11.73,43.72-29.18,87.22-51.88,129.92a735.73,735.73,0,0,1-37.92,63.35V1080Z" transform="translate(8)"/><path id="Path_650" data-name="Path 650" class="cls-8" d="M-1,1080V299.44H-2.33q5.88-1.79,11.75-3.5,11.76-3.44,23.5-6.65,23.47-6.44,46.88-12,46.79-11.15,93.09-18.85A1308.76,1308.76,0,0,1,354.5,240.83c118.29-3,230,11,329.39,40.51,198.68,58.91,347.67,179.31,399.89,347.25,26.11,84,25.56,171.87,2.2,258.92-11.68,43.49-29.06,86.85-51.67,129.36q-16.95,31.89-37.75,63.13l-2.61,3.89V1080Z" transform="translate(8)"/><path id="Path_651" data-name="Path 651" class="cls-8" d="M-1,1080V302.07h-.57q5.85-1.77,11.7-3.48,11.71-3.42,23.4-6.63,23.37-6.4,46.68-12,46.59-11.08,92.69-18.76a1305.34,1305.34,0,0,1,180.83-17.54c117.78-3,229.06,11,328,40.33,197.79,58.71,346.15,178.6,398.15,345.81,26,83.61,25.44,171.13,2.18,257.82-11.63,43.34-28.94,86.47-51.44,128.8A731.31,731.31,0,0,1,993,1079.23q-2.6,3.88-5.23,7.75v-7Z" transform="translate(8)"/><path id="Path_652" data-name="Path 652" class="cls-9" d="M-1,1080V306.47H-6.64c1.94-.6,3.89-1.19,5.83-1.77q5.84-1.76,11.66-3.47,11.64-3.41,23.29-6.59,23.28-6.39,46.48-11.9,46.38-11,92.29-18.68a1294.93,1294.93,0,0,1,180-17.46c117.27-3,228.07,11,326.55,40.15C876.48,345.16,1024.2,464.53,1076,631c25.89,83.24,25.34,170.39,2.18,256.7-11.58,43.15-28.82,86.1-51.22,128.24q-16.85,31.63-37.47,62.57-2.57,3.85-5.2,7.71V1080Z" transform="translate(8)"/><path id="Path_653" data-name="Path 653" class="cls-10" d="M-1,1080V309.09H-5.85L0,307.33q5.81-1.75,11.61-3.45,11.6-3.39,23.19-6.57Q57.93,291,81,285.46q46.18-11,91.89-18.6a1292.06,1292.06,0,0,1,179.26-17.38c116.77-3,227.09,10.9,325.15,40,196.11,58.15,343.18,177,394.73,342.77,25.78,82.89,25.23,169.66,2.17,255.59-11.53,43-28.69,85.73-51,127.69Q1006.51,1047,986,1077.78q-2.57,3.84-5.18,7.68V1080Z" transform="translate(8)"/><path id="Path_654" data-name="Path 654" class="cls-10" d="M-1,1080V311.71H-5.06L.72,310q5.78-1.74,11.55-3.44,11.55-3.37,23.09-6.54,23.07-6.32,46.07-11.79,46-11,91.5-18.52a1285.43,1285.43,0,0,1,178.48-17.31c116.26-3,226.1,10.86,323.73,39.81,195.26,57.9,341.69,176.23,393,341.28,25.66,82.52,25.11,168.91,2.15,254.47-11.46,42.78-28.54,85.35-50.75,127.08q-16.66,31.34-37.11,62-2.55,3.84-5.16,7.65V1080Z" transform="translate(8)"/><path id="Path_655" data-name="Path 655" class="cls-10" d="M-1,1080V314.34H-4.28l5.76-1.75q5.74-1.74,11.5-3.42,11.51-3.36,23-6.51,23-6.3,45.87-11.75Q127.65,280,173,272.47a1280.32,1280.32,0,0,1,177.7-17.23c115.75-3,225.11,10.81,322.31,39.64,194.41,57.64,340.2,175.46,391.3,339.78,25.55,82.17,25,168.18,2.15,253.36-11.41,42.6-28.41,85-50.57,126.58q-16.58,31.2-36.94,61.73-2.55,3.81-5.14,7.61V1080Z" transform="translate(8)"/><path id="Path_656" data-name="Path 656" class="cls-11" d="M-1,1080V317H-3.49l5.73-1.74q5.73-1.72,11.45-3.41,11.46-3.35,22.89-6.48,22.88-6.27,45.67-11.69,45.59-10.85,90.7-18.36a1275.22,1275.22,0,0,1,176.92-17.16c115.24-3,224.12,10.77,320.89,39.46,193.55,57.4,338.71,174.7,389.58,338.3,25.44,81.8,24.9,167.43,2.14,252.25-11.38,42.4-28.31,84.6-50.33,126q-16.51,31-36.78,61.45-2.54,3.8-5.12,7.58V1080Z" transform="translate(8)"/><path id="Path_657" data-name="Path 657" class="cls-12" d="M-1,1080V319.58H-2.7L3,317.85q5.7-1.73,11.41-3.39,11.4-3.33,22.78-6.46Q60,301.76,82.66,296.36q45.39-10.8,90.3-18.27A1268.59,1268.59,0,0,1,349.1,261c114.73-3,223.13,10.71,319.47,39.28,192.7,57.14,337.21,173.92,387.86,336.8,25.33,81.44,24.79,166.7,2.13,251.14-11.32,42.22-28.18,84.23-50.1,125.46q-16.46,30.95-36.63,61.2-2.51,3.78-5.09,7.54V1080Z" transform="translate(8)"/><path id="Path_658" data-name="Path 658" class="cls-12" d="M-1,1080V324H-7.59C477,173.25,951.68,314,1052.53,638.31c25.21,81.08,24.68,166,2.12,250-11.28,42-28.07,83.86-49.89,124.91Q988.4,1044,968.3,1074.15q-2.5,3.76-5.07,7.51V1080Z" transform="translate(8)"/><path id="Path_659" data-name="Path 659" class="cls-13" d="M-1,1080V326.57H-6.78c482.48-150,955-9.92,1055.4,313,25.1,80.72,24.57,165.22,2.11,248.91-11.23,41.84-27.94,83.49-49.66,124.35q-16.3,30.66-36.3,60.65l-5,7.47v-.9Z" transform="translate(8)"/><path id="Path_660" data-name="Path 660" class="cls-14" d="M-1,1080V329.19H-6c480.33-149.37,950.73-9.88,1050.68,311.55,25,80.36,24.46,164.48,2.11,247.79-11.18,41.66-27.82,83.12-49.45,123.8q-16.53,31.06-36.1,60.37-2.49,3.73-5,7.45V1080Z" transform="translate(8)"/><path id="Path_661" data-name="Path 661" class="cls-15" d="M-1,1080V331.8H-5.15C473,183.11,941.3,322,1040.81,642c24.87,80,24.35,163.74,2.09,246.68-11.13,41.47-27.69,82.74-49.22,123.24q-16.15,30.37-36,60.11-5,7.41-10.12,14.79V1080Z" transform="translate(8)"/><path id="Path_662" data-name="Path 662" class="cls-16" d="M-1,1080V334.41H-4.34c476-148,942.18-9.78,1041.24,308.76,24.76,79.63,24.24,163,2.08,245.57-11.08,41.26-27.56,82.36-49,122.68q-16.07,30.24-35.8,59.83-5,7.39-10.1,14.75v-6Z" transform="translate(8)"/><path id="Path_663" data-name="Path 663" class="cls-17" d="M-1,1080V337H-3.53C470.32,189.68,934.39,327.29,1033,644.38c24.65,79.28,24.13,162.27,2.08,244.46-11,41.09-27.44,82-48.78,122.13q-16,30.09-35.65,59.55-4.9,7.37-10,14.67V1080Z" transform="translate(8)"/><path id="Path_664" data-name="Path 664" class="cls-18" d="M-1,1080V339.64H-2.71C469,193,930.93,329.94,1029.09,645.6c24.54,78.91,24,161.52,2.06,243.34-11,40.91-27.31,81.62-48.55,121.57q-15.95,30-35.49,59.29-4.87,7.32-10,14.59V1080Z" transform="translate(8)"/><path id="Path_665" data-name="Path 665" class="cls-19" d="M-1,1080V342.26h-.9c469.53-146,929.37-9.66,1027.08,304.55,24.43,78.56,23.91,160.79,2,242.19-10.92,40.72-27.18,81.25-48.33,121q-15.85,29.82-35.32,59-4.86,7.29-9.94,14.53V1080Z" transform="translate(8)"/><path id="Path_666" data-name="Path 666" class="cls-20" d="M-1,1080V344.87h-.09C466.29,199.53,924,335.26,1021.27,648c24.32,78.19,23.8,160,2.05,241.11-10.88,40.57-27.07,80.89-48.11,120.49A684,684,0,0,1,940,1068.35q-4.85,7.25-9.89,14.46V1080Z" transform="translate(8)"/><path id="Path_667" data-name="Path 667" class="cls-21" d="M-1,1080V349.19H-5.72l5.45-1.7c465.21-144.67,920.82-9.57,1017.64,301.75,24.2,77.83,23.68,159.31,2,240-10.83,40.35-26.94,80.5-47.89,119.91q-15.71,29.55-35,58.47-4.79,7.23-9.81,14.38v-2Z" transform="translate(8)"/><path id="Path_668" data-name="Path 668" class="cls-22" d="M-1,1080V351.8H-4.88l5.42-1.7c463.06-144,916.56-9.52,1012.92,300.36,24.09,77.47,23.58,158.57,2,238.89-10.77,40.16-26.81,80.12-47.66,119.34q-15.63,29.41-34.8,58.21-4.79,7.18-9.79,14.32V1080Z" transform="translate(8)"/><path id="Path_669" data-name="Path 669" class="cls-23" d="M-1,1080V354.41H-4l5.39-1.69c460.9-143.33,912.29-9.48,1008.2,298.95,24,77.11,23.47,157.83,2,237.78-10.73,40-26.69,79.75-47.45,118.79a672.57,672.57,0,0,1-34.67,57.93q-4.77,7.15-9.75,14.26V1080Z" transform="translate(8)"/><path id="Path_670" data-name="Path 670" class="cls-24" d="M-1,1080V357H-3.2l5.37-1.68c458.74-142.65,908-9.43,1003.48,297.56,23.86,76.75,23.35,157.09,2,236.66-10.67,39.79-26.56,79.38-47.22,118.23q-15.49,29.14-34.51,57.67-4.74,7.11-9.71,14.19-2.48,3.54-5,7.06V1080Z" transform="translate(8)"/><path id="Path_671" data-name="Path 671" class="cls-25" d="M-1,1080V361.31H-7.69q5.31-1.69,10.67-3.37c456.58-142,903.74-9.38,998.76,296.16,23.75,76.39,23.25,156.35,2,235.55-10.63,39.6-26.44,79-47,117.68q-15.42,29-34.35,57.39-4.73,7.1-9.66,14.13c-1.65,2.34-3.31,4.69-5,7V1080Z" transform="translate(8)"/><path id="Path_672" data-name="Path 672" class="cls-26" d="M-1,1080V363.91H-6.83q5.3-1.7,10.62-3.35c454.43-141.31,899.48-9.34,994,294.76,23.64,76,23.14,155.61,2,234.43-10.58,39.42-26.31,78.64-46.78,117.13q-15.32,28.86-34.15,57.12-4.71,7.07-9.62,14.07-2.46,3.5-5,7V1080Z" transform="translate(8)"/><path id="Path_673" data-name="Path 673" class="cls-27" d="M-1,1080V366.51H-6q5.28-1.69,10.57-3.34c452.27-140.64,895.21-9.3,989.32,293.36,23.53,75.67,23,154.88,2,233.33-10.52,39.22-26.19,78.25-46.55,116.56q-15.29,28.73-34,56.85-4.68,7-9.57,14c-1.63,2.33-3.27,4.65-4.94,7V1080Z" transform="translate(8)"/><path id="Path_674" data-name="Path 674" class="cls-28" d="M-1,1080V369.11H-5.1q5.24-1.68,10.52-3.32c450.11-140,890.93-9.26,984.6,292,23.41,75.21,22.92,154.09,2,232.21-10.48,39-26.07,77.88-46.34,116q-15.2,28.59-33.86,56.57-4.65,7-9.52,13.93-2.43,3.46-4.92,6.93V1080Z" transform="translate(8)"/><path id="Path_675" data-name="Path 675" class="cls-29" d="M-1,1080V371.71H-4.24Q1,370,6.23,368.4c448-139.3,886.66-9.21,979.88,290.6,23.31,74.94,22.81,153.4,2,231.1C977.69,929,962.17,967.61,942,1005.55q-15.13,28.46-33.7,56.31-4.63,6.95-9.48,13.86-2.42,3.45-4.89,6.89V1080Z" transform="translate(8)"/><path id="Path_676" data-name="Path 676" class="cls-30" d="M-1,1080V374.31H-3.38Q1.83,372.65,7,371c445.8-138.63,882.39-9.17,975.16,289.16,23.2,74.58,22.7,152.65,1.95,230-10.37,38.66-25.81,77.14-45.89,114.9a634.94,634.94,0,0,1-33.53,56q-4.62,6.93-9.43,13.8c-1.61,2.29-3.23,4.57-4.87,6.86V1080Z" transform="translate(8)"/><path id="Path_677" data-name="Path 677" class="cls-31" d="M-1,1080V376.9H-2.51q5.16-1.65,10.37-3.27C451.5,235.63,886,364.51,978.3,661.39c23.08,74.22,22.59,151.92,1.94,228.87-10.33,38.48-25.69,76.74-45.67,114.34q-15,28.18-33.37,55.77-4.59,6.89-9.39,13.72c-1.6,2.28-3.21,4.56-4.85,6.83V1080Z" transform="translate(8)"/><path id="Path_678" data-name="Path 678" class="cls-32" d="M-1,1080V379.5h-.65q5.15-1.65,10.32-3.25C450.15,239,882.52,367.17,974.39,662.61c23,73.86,22.48,151.18,1.93,227.75-10.27,38.29-25.56,76.4-45.44,113.79q-14.91,28-33.22,55.49-9.13,13.71-19.08,27.22V1080Z" transform="translate(8)"/><path id="Path_679" data-name="Path 679" class="cls-33" d="M-1,1080V383.75H-5.9l5.11-1.65q5.13-1.64,10.27-3.24c439.33-136.61,869.58-9,961,285,22.86,73.5,22.37,150.44,1.93,226.65-10.23,38.1-25.44,76-45.23,113.23q-14.83,27.9-33,55.22-9.18,13.59-19,27v-6Z" transform="translate(8)"/><path id="Path_680" data-name="Path 680" class="cls-34" d="M-1,1080V386.34H-5L.09,384.7q5.09-1.63,10.22-3.23c437.16-135.94,865.3-9,956.28,283.57,22.74,73.13,22.26,149.7,1.91,225.53-10.18,37.91-25.32,75.64-45,112.67q-14.79,27.77-32.9,55-9,13.57-18.9,27V1080Z" transform="translate(8)"/><path id="Path_681" data-name="Path 681" class="cls-35" d="M-1,1080V388.93H-4.12L.94,387.3q5.07-1.62,10.17-3.21c435-135.27,861-9,951.56,282.16,22.63,72.78,22.15,149,1.9,224.42-10.12,37.73-25.19,75.27-44.78,112.12q-14.68,27.63-32.72,54.67-9,13.51-18.81,26.83V1080Z" transform="translate(8)"/><path id="Path_682" data-name="Path 682" class="cls-36" d="M-1,1080V391.52H-3.23l5-1.62q5.06-1.62,10.12-3.2c432.85-134.6,856.77-8.9,946.84,280.77,22.52,72.41,22,148.22,1.9,223.3-10.08,37.54-25.07,74.9-44.56,111.56q-14.62,27.49-32.56,54.41-9,13.44-18.72,26.69V1080Z" transform="translate(8)"/><path id="Path_683" data-name="Path 683" class="cls-37" d="M-1,1080V395.75H-7.34q10-3.3,20.07-6.43c430.7-133.93,852.5-8.86,942.13,279.36,22.4,72.06,21.93,147.49,1.88,222.19-10,37.36-24.94,74.53-44.33,111A630.14,630.14,0,0,1,880,1056q-8.93,13.38-18.63,26.56V1080Z" transform="translate(8)"/><path id="Path_684" data-name="Path 684" class="cls-38" d="M-1,1080V398.33H-6.43q9.93-3.27,20-6.4c428.53-133.26,848.22-8.81,937.4,278,22.29,71.69,21.82,146.74,1.87,221.07a527.48,527.48,0,0,1-44.11,110.45q-14.47,27.22-32.24,53.87-8.87,13.31-18.53,26.42V1080Z" transform="translate(8)"/><path id="Path_685" data-name="Path 685" class="cls-39" d="M-1,1080V400.91H-5.51q9.87-3.26,19.87-6.36C440.74,262,858.31,385.78,947,671.11c22.18,71.33,21.71,146,1.87,220C939,928.06,924.22,964.86,905,1001q-14.4,27.09-32.08,53.59-8.82,13.25-18.43,26.29V1080Z" transform="translate(8)"/><path id="Path_686" data-name="Path 686" class="cls-40" d="M-1,1080V403.49H-4.6q9.82-3.24,19.77-6.33c424.22-131.92,839.69-8.72,928,275.17,22.07,71,21.61,145.26,1.86,218.85-9.87,36.79-24.56,73.4-43.67,109.33a615.22,615.22,0,0,1-31.91,53.33Q860.63,1067,851.07,1080q-2.4,3.24-4.83,6.47V1080Z" transform="translate(8)"/><path id="Path_687" data-name="Path 687" class="cls-41" d="M-1,1080V406.08H-3.69q9.78-3.22,19.68-6.3C438,268.53,851.4,391.1,939.23,673.54c22,70.61,21.49,144.53,1.84,217.74-9.82,36.6-24.44,73-43.44,108.78a617.1,617.1,0,0,1-31.75,53q-8.75,13.11-18.25,26c-1.59,2.15-3.19,4.29-4.8,6.44V1080Z" transform="translate(8)"/><path id="Path_688" data-name="Path 688" class="cls-42" d="M-1,1080V408.66H-2.77Q7,405.45,16.8,402.39c419.9-130.58,831.14-8.63,918.52,272.37,21.85,70.24,21.38,143.79,1.84,216.62-9.77,36.42-24.32,72.66-43.23,108.23q-14.17,26.67-31.58,52.78-8.7,13-18.16,25.89-2.37,3.21-4.78,6.41V1080Z" transform="translate(8)"/><path id="Path_689" data-name="Path 689" class="cls-43" d="M-1,1080V411.24h-.86Q7.82,408,17.61,405c417.75-129.91,826.87-8.59,913.8,271,21.74,69.89,21.28,143,1.83,215.51-9.72,36.23-24.19,72.29-43,107.67q-14.12,26.53-31.43,52.51-8.64,13-18.06,25.76c-1.57,2.13-3.16,4.25-4.75,6.38V1080Z" transform="translate(8)"/><path id="Path_690" data-name="Path 690" class="cls-44" d="M-1,1080V415.42H-5.75l4.8-1.6q9.63-3.17,19.38-6.2C434,278.39,841,399.07,927.51,677.19c21.62,69.52,21.16,142.31,1.82,214.39A512.06,512.06,0,0,1,886.55,998.7a599.12,599.12,0,0,1-31.27,52.23q-8.6,12.91-18,25.63c-1.56,2.12-3.13,4.24-4.73,6.35V1080Z" transform="translate(8)"/><path id="Path_691" data-name="Path 691" class="cls-45" d="M-1,1080V418H-4.82L0,416.42q9.57-3.17,19.27-6.18c413.43-128.56,818.33-8.5,904.36,268.17,21.51,69.17,21,141.57,1.81,213.29-9.62,35.85-23.94,71.54-42.56,106.55q-14,26.26-31.1,52-8.55,12.75-17.88,25.45c-1.55,2.11-3.11,4.21-4.7,6.32v-2Z" transform="translate(8)"/><path id="Path_692" data-name="Path 692" class="cls-46" d="M-1,1080V420.57H-3.88L.88,419q9.54-3.15,19.17-6.14C431.32,285,834.11,404.39,919.69,679.62c21.4,68.8,20.95,140.83,1.8,212.17-9.57,35.67-23.81,71.16-42.33,106q-13.89,26.13-30.94,51.69-8.52,12.78-17.78,25.36c-1.55,2.1-3.11,4.2-4.68,6.28V1080Z" transform="translate(8)"/><path id="Path_693" data-name="Path 693" class="cls-47" d="M-1,1080V424.73H-7.66q4.71-1.59,9.46-3.16,9.48-3.12,19.06-6.11C430,288.24,830.65,407,915.79,680.83c21.28,68.45,20.83,140.1,1.79,211.06-9.52,35.48-23.69,70.79-42.12,105.44q-13.82,26-30.77,51.43Q836.21,1061.47,827,1074q-4.62,6.27-9.41,12.48V1080Z" transform="translate(8)"/><path id="Path_694" data-name="Path 694" class="cls-48" d="M-1,1080V427.3H-6.69q4.68-1.59,9.4-3.15,9.43-3.11,19-6.07c407-126.55,805.51-8.37,890.2,264C933,750.13,932.6,821.4,913.66,892c-9.47,35.3-23.56,70.42-41.89,104.89Q858,1022.72,841.15,1048q-8.42,12.64-17.59,25.1-4.59,6.23-9.36,12.4V1080Z" transform="translate(8)"/><path id="Path_695" data-name="Path 695" class="cls-48" d="M-1,1080V429.86H-5.73q4.67-1.58,9.35-3.12,9.39-3.11,18.87-6C427.29,294.86,823.73,412.42,908,683.31c21,67.69,20.62,138.57,1.77,208.78-9.42,35.11-23.44,70-41.67,104.34q-13.67,25.71-30.45,50.88-8.37,12.56-17.5,25-4.56,6.2-9.3,12.34V1080Z" transform="translate(8)"/><path id="Path_696" data-name="Path 696" class="cls-49" d="M-1,1080V432.43H-4.77q4.64-1.57,9.31-3.11,9.33-3.07,18.76-6C426,298.11,820.3,415,904.07,684.49c20.94,67.36,20.5,137.87,1.76,207.72-9.37,34.92-23.32,69.67-41.45,103.77q-13.61,25.57-30.29,50.61-8.33,12.5-17.41,24.83-4.53,6.16-9.25,12.27V1080Z" transform="translate(8)"/><path id="Path_697" data-name="Path 697" class="cls-50" d="M-1,1080V435H-3.8q4.6-1.56,9.25-3.09,9.29-3.06,18.67-6c400.48-124.54,792.7-8.23,876,259.77,20.83,67,20.39,137.14,1.75,206.61a492.5,492.5,0,0,1-41.22,103.22q-13.53,25.44-30.13,50.34-8.29,12.42-17.32,24.69-4.51,6.14-9.2,12.21V1080Z" transform="translate(8)"/><path id="Path_698" data-name="Path 698" class="cls-51" d="M-1,1080V437.56H-2.84q4.59-1.56,9.2-3.08,9.24-3,18.57-5.94c398.33-123.87,788.43-8.19,871.32,258.37C917,753.55,916.54,823.31,898,892.4a489,489,0,0,1-41,102.66q-13.74,25.77-30,50.07-8.25,12.36-17.23,24.56-4.49,6.11-9.15,12.15V1080Z" transform="translate(8)"/><path id="Path_699" data-name="Path 699" class="cls-52" d="M-1,1080V440.12h-.88q4.57-1.55,9.16-3.06,9.18-3,18.46-5.91C421.91,308,809.9,423,892.35,688.15c20.61,66.28,20.17,135.66,1.73,204.38A487.23,487.23,0,0,1,853.3,994.61q-13.38,25.17-29.8,49.79-8.21,12.3-17.13,24.43-4.47,6.06-9.11,12.08V1080Z" transform="translate(8)"/><path id="Path_700" data-name="Path 700" class="cls-52" d="M-1,1080V444.24H-5.45l4.54-1.55q4.53-1.54,9.1-3,9.14-3,18.37-5.89c394-122.52,779.89-8.1,861.88,255.57,20.5,65.92,20.06,134.93,1.72,203.27A483.89,483.89,0,0,1,849.6,994.15q-13.3,25-29.64,49.53-8.15,12.22-17,24.29-4.44,6-9.06,12-2.31,3-4.66,6v-6Z" transform="translate(8)"/><path id="Path_701" data-name="Path 701" class="cls-53" d="M-1,1080V446.79H-4.46l4.51-1.53q4.52-1.53,9-3,9.09-3,18.27-5.85c391.85-121.85,775.62-8.06,857.16,254.17,20.39,65.56,20,134.18,1.72,202.15a481.37,481.37,0,0,1-40.34,101q-13.23,24.88-29.48,49.25-8.11,12.16-16.94,24.17-4.41,6-9,11.94c-1.53,2-3.07,4-4.63,5.94v-5Z" transform="translate(8)"/><path id="Path_702" data-name="Path 702" class="cls-54" d="M-1,1080V450.9H-7.94Q9.91,444.68,28.18,439c389.7-121.18,771.35-8,852.44,252.77,20.28,65.2,19.85,133.45,1.71,201A479.16,479.16,0,0,1,842.22,993.2q-13.17,24.75-29.32,49-8.07,12.09-16.85,24-4.39,6-9,11.88-2.28,3-4.61,5.9v-4Z" transform="translate(8)"/><path id="Path_703" data-name="Path 703" class="cls-55" d="M-1,1080V453.45H-6.92Q10.83,447.26,29,441.61c387.54-120.51,767.08-8,847.73,251.37,20.16,64.83,19.73,132.71,1.69,199.93a475.91,475.91,0,0,1-39.89,99.88q-13.08,24.62-29.15,48.71-8,12-16.76,23.9-4.36,5.92-8.91,11.81-2.26,2.94-4.58,5.87V1080Z" transform="translate(8)"/><path id="Path_704" data-name="Path 704" class="cls-56" d="M-1,1080V456H-5.91q17.66-6.17,35.72-11.78c385.38-119.84,762.8-7.92,843,250,20,64.48,19.62,132,1.69,198.82a473.82,473.82,0,0,1-39.67,99.33,563,563,0,0,1-29,48.44q-8,12-16.67,23.76-4.33,5.9-8.86,11.75c-1.5,2-3,3.89-4.55,5.84V1080Z" transform="translate(8)"/><path id="Path_705" data-name="Path 705" class="cls-57" d="M-1,1080V458.54H-4.9q17.55-6.1,35.52-11.7C413.84,327.67,789.16,439,868.9,695.41c39.88,128.23-1.69,268.46-101.13,391.54v-7Z" transform="translate(8)"/><path id="Path_706" data-name="Path 706" class="cls-58" d="M-1,1080V461.09H-3.89Q13.57,455,31.43,449.45C412.5,331,785.7,441.62,865,696.62c39.65,127.51-1.69,267-100.56,389.34v-6Z" transform="translate(8)"/><path id="Path_707" data-name="Path 707" class="cls-59" d="M-1,1080V463.64H-2.87q17.36-6,35.12-11.57c378.9-117.83,750-7.8,828.84,245.77,39.43,126.78-1.67,265.44-100,387.13v-5Z" transform="translate(8)"/><path id="Path_708" data-name="Path 708" class="cls-60" d="M-1,1080V466.19h-.86q17.25-6,34.92-11.51c376.75-117.16,745.72-7.75,824.12,244.37,39.2,126.06-1.66,264-99.42,385v-4Z" transform="translate(8)"/><path id="Path_709" data-name="Path 709" class="cls-61" d="M-1,1080V470.24H-5.13l4.28-1.5q17.16-6,34.72-11.45c374.59-116.48,741.45-7.7,819.41,243,39,125.34-1.66,262.42-98.86,382.72v-3Z" transform="translate(8)"/><path id="Path_710" data-name="Path 710" class="cls-62" d="M-1,1080V472.78H-4.09c1.42-.5,2.83-1,4.26-1.49q17.06-6,34.52-11.38c372.43-115.82,737.18-7.66,814.68,241.57,38.75,124.62-1.65,260.91-98.28,380.52v-2Z" transform="translate(8)"/><path id="Path_711" data-name="Path 711" class="cls-63" d="M-1,1080V476.82H-7.28l8.46-3q17-5.91,34.32-11.32c370.28-115.14,732.91-7.61,810,240.18C884,826.59,843.83,962.09,747.75,1081v-1Z" transform="translate(8)"/><path id="Path_712" data-name="Path 712" class="cls-64" d="M-1,1080V479.35H-6.21l8.4-3q16.86-5.87,34.12-11.24C404.43,350.64,765,457.54,841.56,703.88c38.3,123.18-1.63,257.89-97.15,376.11H-1Z" transform="translate(8)"/><path id="Path_713" data-name="Path 713" class="cls-65" d="M-1,1080V481.89H-5.15l8.36-3Q20,473.06,37.12,467.71c366-113.8,724.37-7.52,800.53,237.38C875.73,827.58,836,961.5,741.07,1079q-2.22,2.74-4.49,5.49V1080Z" transform="translate(8)"/><path id="Path_714" data-name="Path 714" class="cls-66" d="M-1,1080V484.42H-4.09q4.14-1.49,8.31-2.94,16.67-5.81,33.72-11.11c363.8-113.13,720.1-7.48,795.8,236,37.86,121.73-1.6,254.86-96,371.71q-2.22,2.73-4.47,5.46V1080Z" transform="translate(8)"/><path id="Path_715" data-name="Path 715" class="cls-67" d="M-1,1080V487H-3c2.75-1,5.5-2,8.26-2.92q16.56-5.77,33.52-11c361.65-112.46,715.83-7.43,791.09,234.58,37.62,121-1.6,253.35-95.44,369.5q-2.2,2.72-4.44,5.43V1080Z" transform="translate(8)"/><path id="Path_716" data-name="Path 716" class="cls-68" d="M-1,1080V489.48H-2c2.72-1,5.46-1.94,8.2-2.9q16.47-5.74,33.32-11C399,363.79,751.08,468.18,825.89,708.75,863.29,829,824.3,960.59,731,1076.05q-4.37,5.4-8.9,10.77V1080Z" transform="translate(8)"/><path id="Path_717" data-name="Path 717" class="cls-69" d="M-1,1080V493.47H-5L-.9,492q4.06-1.46,8.16-2.88,16.37-5.72,33.12-10.92C397.71,367.09,747.66,470.86,822,710c37.18,119.56-1.58,250.32-94.3,365.09q-4.34,5.37-8.85,10.71V1080Z" transform="translate(8)"/><path id="Path_718" data-name="Path 718" class="cls-70" d="M-1,1080V497.47H-7.9q8-3,16.17-5.79Q24.55,486,41.19,480.83c355.17-110.45,703-7.31,776.92,230.37,37,118.84-1.56,248.82-93.72,362.89q-4.32,5.34-8.8,10.64V1080Z" transform="translate(8)"/><path id="Path_719" data-name="Path 719" class="cls-71" d="M-1,1080V500H-6.79q8-2.94,16.07-5.76Q25.45,488.62,42,483.46c353-109.78,698.75-7.26,772.21,229,36.73,118.12-1.56,247.3-93.16,360.68q-4.29,5.31-8.74,10.58V1080Z" transform="translate(8)"/><path id="Path_720" data-name="Path 720" class="cls-72" d="M-1,1080V502.49H-5.68q7.94-2.91,16-5.72,16.07-5.59,32.52-10.72C393.69,377,737.31,478.84,810.32,713.63c36.51,117.4-1.55,245.79-92.59,358.48q-4.26,5.28-8.69,10.51V1080Z" transform="translate(8)"/><path id="Path_721" data-name="Path 721" class="cls-73" d="M-1,1080V505H-4.57q7.89-2.91,15.88-5.69,16-5.56,32.32-10.65c348.7-108.44,690.2-7.17,762.76,226.18,36.29,116.67-1.54,244.28-92,356.27q-4.23,5.25-8.63,10.45V1080Z" transform="translate(8)"/><path id="Path_722" data-name="Path 722" class="cls-74" d="M-1,1080V507.52H-3.46q7.85-2.88,15.78-5.65,15.87-5.53,32.12-10.59c346.54-107.76,685.93-7.12,758,224.78,36,116-1.53,242.77-91.45,354.07q-4.22,5.22-8.59,10.39V1080Z" transform="translate(8)"/><path id="Path_723" data-name="Path 723" class="cls-75" d="M-1,1080V510H-2.34q7.78-2.87,15.68-5.61,15.77-5.5,31.91-10.52c344.39-107.09,681.66-7.08,753.33,223.38,35.83,115.23-1.52,241.25-90.88,351.86q-4.19,5.19-8.53,10.32l-4.38,5.16V1080Z" transform="translate(8)"/><path id="Path_724" data-name="Path 724" class="cls-76" d="M-1,1080V512.55h-.23Q6.51,509.7,14.35,507,30,501.5,46.07,496.51c342.22-106.42,677.39-7,748.6,222,35.61,114.51-1.51,239.75-90.31,349.66q-4.15,5.14-8.47,10.26-2.16,2.55-4.35,5.09V1080Z" transform="translate(8)"/><path id="Path_725" data-name="Path 725" class="cls-77" d="M-1,1080V517.92H-7.79c2.55-1,5.1-1.92,7.67-2.86q7.7-2.84,15.48-5.54,15.59-5.43,31.52-10.39C387,393.38,720,492.13,790.77,719.71c35.38,113.78-1.51,238.23-89.75,347.45q-4.12,5.11-8.42,10.19-2.15,2.54-4.32,5.07V1080Z" transform="translate(8)"/><path id="Path_726" data-name="Path 726" class="cls-78" d="M-1,1080V520.41H-6.63L1,517.57q7.65-2.8,15.38-5.51,15.48-5.38,31.32-10.32c337.92-105.08,668.85-7,739.17,219.18C822,834,785.37,957.64,697.69,1066.17q-8.22,10.17-17,20.16V1080Z" transform="translate(8)"/><path id="Path_727" data-name="Path 727" class="cls-79" d="M-1,1080V522.91H-5.47C-3,522-.47,521,2.1,520.09q7.61-2.8,15.29-5.48,15.38-5.36,31.12-10.25C384.26,400,713.08,497.45,783,722.14c34.94,112.34-1.48,235.21-88.6,343q-8.18,10.11-16.93,20V1080Z" transform="translate(8)"/><path id="Path_728" data-name="Path 728" class="cls-80" d="M-1,1080V525.4H-4.31l7.52-2.8q7.54-2.77,15.19-5.44Q33.69,511.84,49.32,507c333.6-103.74,660.3-6.86,729.73,216.38C813.76,835,777.57,957,691,1064.19q-8.12,10-16.81,19.91V1080Z" transform="translate(8)"/><path id="Path_729" data-name="Path 729" class="cls-81" d="M-1,1080V527.9H-3.15q3.72-1.41,7.47-2.79,7.5-2.75,15.09-5.4,15.18-5.3,30.72-10.13c331.44-103.06,656-6.81,725,215,34.48,110.9-1.47,232.18-87.47,338.63q-8.05,10-16.7,19.78v-3Z" transform="translate(8)"/><path id="Path_730" data-name="Path 730" class="cls-82" d="M-1,1080V530.39H-2c2.47-.93,5-1.85,7.42-2.76q7.46-2.75,15-5.37Q35.49,517,50.94,512.2c329.28-102.4,651.76-6.77,720.28,213.58,34.26,110.18-1.45,230.68-86.89,336.43q-8,9.91-16.6,19.65V1080Z" transform="translate(8)"/><path id="Path_731" data-name="Path 731" class="cls-83" d="M-1,1080V534.28H-4.5l3.67-1.39c2.45-.93,4.91-1.84,7.38-2.75q7.4-2.71,14.89-5.33,15-5.22,30.32-10C378.88,413.09,699.25,508.09,767.33,727c34,109.45-1.45,229.16-86.33,334.22q-8,9.85-16.49,19.52V1080Z" transform="translate(8)"/><path id="Path_732" data-name="Path 732" class="cls-84" d="M-1,1080V538.17H-7q29.05-11.25,59.53-20.74c325-101.06,643.22-6.68,710.85,210.78,33.81,108.74-1.44,227.65-85.76,332q-7.9,9.78-16.38,19.39c-1.41,1.61-2.83,3.2-4.27,4.79V1080Z" transform="translate(8)"/><path id="Path_733" data-name="Path 733" class="cls-85" d="M-1,1080V540.65H-5.75Q23.11,529.48,53.39,520c322.8-100.38,639-6.64,706.12,209.39,33.59,108-1.42,226.14-85.19,329.81q-7.85,9.77-16.32,19.27c-1.4,1.59-2.81,3.18-4.24,4.75V1080Z" transform="translate(8)"/><path id="Path_734" data-name="Path 734" class="cls-86" d="M-1,1080V543.12H-4.54Q24.13,532,54.2,522.66c320.65-99.71,634.68-6.6,701.4,208,33.4,107.27-1.41,224.61-84.6,327.59q-7.8,9.66-16.17,19.14c-2.78,3.16-5.62,6.3-8.49,9.43V1080Z" transform="translate(8)"/><path id="Path_735" data-name="Path 735" class="cls-87" d="M-1,1080V545.6H-3.33q28.47-11,58.34-20.33c318.49-99,630.41-6.55,696.69,206.59,33.14,106.56-1.41,223.11-84,325.4q-7.76,9.6-16.06,19-4.14,4.71-8.44,9.37V1080Z" transform="translate(8)"/><path id="Path_736" data-name="Path 736" class="cls-88" d="M-1,1080V548.08H-2.12q28.26-11,57.94-20.19c316.34-98.37,626.14-6.51,692,205.18,32.91,105.85-1.4,221.61-83.48,323.2q-7.7,9.52-15.94,18.88-4.12,4.68-8.39,9.3V1080Z" transform="translate(8)"/><path id="Path_737" data-name="Path 737" class="cls-89" d="M-1,1080V553.3H-7.91c2.32-.93,4.66-1.84,7-2.75q28.07-10.86,57.55-20c314.17-97.7,621.86-6.46,687.24,203.79,32.69,105.12-1.38,220.09-82.91,321q-7.63,9.47-15.83,18.75-4.1,4.65-8.33,9.24V1080Z" transform="translate(8)"/><path id="Path_738" data-name="Path 738" class="cls-90" d="M-1,1080V555.75H-6.66l7-2.72q27.89-10.8,57.16-19.92c312-97,617.6-6.41,682.53,202.39,32.46,104.4-1.38,218.58-82.34,318.79q-7.59,9.4-15.73,18.62-4.07,4.62-8.27,9.18V1080Z" transform="translate(8)"/><path id="Path_739" data-name="Path 739" class="cls-91" d="M-1,1080V558.21H-5.4q3.44-1.37,6.9-2.7,27.69-10.72,56.76-19.78c309.86-96.36,613.33-6.37,677.81,201,32.24,103.68-1.37,217.07-81.77,316.58q-7.54,9.33-15.62,18.5-4,4.57-8.21,9.11V1080Z" transform="translate(8)"/><path id="Path_740" data-name="Path 740" class="cls-92" d="M-1,1080V560.67H-4.14L2.71,558q27.49-10.63,56.37-19.64c307.7-95.68,609.05-6.32,673.08,199.59,32,103-1.36,215.56-81.2,314.38q-7.49,9.27-15.51,18.37-4,4.54-8.15,9c-1.38,1.5-2.78,3-4.18,4.49V1080Z" transform="translate(8)"/><path id="Path_741" data-name="Path 741" class="cls-93" d="M-1,1080V563.13H-2.89q3.39-1.35,6.81-2.67,27.3-10.58,56-19.5c305.54-95,604.78-6.28,668.37,198.19,31.79,102.23-1.35,214-80.64,312.18q-7.42,9.2-15.4,18.23-4,4.51-8.1,9c-1.39,1.47-2.78,3-4.15,4.44v-3Z" transform="translate(8)"/><path id="Path_742" data-name="Path 742" class="cls-94" d="M-1,1080V565.59h-.63c2.24-.9,4.5-1.78,6.76-2.65q27.11-10.5,55.57-19.37c303.39-94.34,600.51-6.24,663.65,196.79,31.57,101.51-1.34,212.54-80.06,310q-14.76,18.27-31.64,35.85V1080Z" transform="translate(8)"/><path id="Path_743" data-name="Path 743" class="cls-95" d="M-1,1080V570.72H-7q6.65-2.7,13.37-5.31Q33.29,555,61.56,546.19C362.79,452.51,657.8,540,720.48,741.58c31.35,100.79-1.33,211-79.49,307.77q-14.65,18.14-31.41,35.6v-5Z" transform="translate(8)"/><path id="Path_744" data-name="Path 744" class="cls-96" d="M-1,1079.58V573.16H-5.74q6.6-2.68,13.28-5.27,26.73-10.35,54.79-19.09c299.07-93,592-6.15,654.21,194,31.11,100.07-1.33,209.51-78.93,305.57q-14.55,18-31.18,35.34V1080H-1Z" transform="translate(8)"/><path id="Path_745" data-name="Path 745" class="cls-97" d="M-1,1078.36V575.6H-4.43q6.54-2.67,13.18-5.23,26.54-10.27,54.39-19C360.06,459,650.84,545.26,712.63,744c30.89,99.34-1.31,208-78.36,303.36q-14.44,17.88-31,35.09V1080H-1Z" transform="translate(8)"/><path id="Path_746" data-name="Path 746" class="cls-98" d="M-1,1077.15V578H-3.13q6.51-2.65,13.09-5.2Q36.3,562.6,64,554c294.76-91.66,583.43-6.06,644.77,191.19,30.67,98.63-1.3,206.49-77.78,301.16q-14.34,17.75-30.74,34.83V1080H-1Z" transform="translate(8)"/><path id="Path_747" data-name="Path 747" class="cls-99" d="M-1,1075.93V580.48h-.82q6.45-2.62,13-5.16,26.15-10.12,53.6-18.67c292.6-91,579.16-6,640,189.79,30.45,97.9-1.29,205-77.21,299Q613.37,1063,597.09,1080c-1.35,1.41-2.72,2.82-4.09,4.22V1080H-1Z" transform="translate(8)"/><path id="Path_748" data-name="Path 748" class="cls-100" d="M-1,1074.72V585.54H-6.9c2.12-.88,4.25-1.76,6.38-2.62q6.4-2.61,12.9-5.12,25.95-10,53.2-18.54c290.44-90.32,574.89-6,635.33,188.39,30.22,97.18-1.28,203.47-76.65,296.75q-14.13,17.49-30.26,34.32c-1.34,1.41-2.7,2.8-4.06,4.2V1080H-1Z" transform="translate(8)"/><path id="Path_749" data-name="Path 749" class="cls-101" d="M-1,1073.5V588H-5.55l6.33-2.61q6.36-2.58,12.8-5.08,25.77-10,52.81-18.4C354.68,472.27,637,556,697,748.91c30,96.46-1.27,202-76.08,294.54q-14,17.35-30,34.07-4,4.17-8.13,8.3V1080H-1Z" transform="translate(8)"/><path id="Path_750" data-name="Path 750" class="cls-102" d="M-1,1072.29V590.38H-4.2l6.29-2.59q6.32-2.56,12.7-5,25.58-9.9,52.42-18.26c286.12-89,566.34-5.88,625.88,185.59,29.78,95.74-1.26,200.44-75.5,292.34q-13.92,17.22-29.84,33.82-4,4.14-8.06,8.23V1080H-1Z" transform="translate(8)"/><path id="Path_751" data-name="Path 751" class="cls-103" d="M-1,1071.07V592.8H-2.85q3.11-1.29,6.24-2.57,6.27-2.55,12.61-5,25.38-9.83,52-18.13c284-88.3,562.07-5.84,621.17,184.2,29.54,95-1.26,198.93-74.94,290.13q-13.82,17.1-29.61,33.56-3.95,4.11-8,8.18V1080H-1Z" transform="translate(8)"/><path id="Path_752" data-name="Path 752" class="cls-104" d="M-1,1069.86v-472H-7.65q12.27-5.24,24.86-10.12,25.18-9.75,51.62-18c281.81-87.64,557.81-5.8,616.45,182.79C714.6,846.82,684,950,610.91,1040.46q-13.71,17-29.38,33.31-3.91,4.08-8,8.11V1080H-1Z" transform="translate(8)"/><path id="Path_753" data-name="Path 753" class="cls-105" d="M-1,1068.64V600.22H-6.25q12.17-5.21,24.67-10,25-9.68,51.23-17.85c279.65-87,553.53-5.75,611.72,181.4,29.1,93.57-1.23,195.9-73.8,285.72q-13.61,16.85-29.15,33-3.88,4-7.89,8V1080H-1Z" transform="translate(8)"/><path id="Path_754" data-name="Path 754" class="cls-106" d="M-1,1067.43V602.62H-4.85q12.08-5.16,24.48-10,24.8-9.6,50.83-17.71c277.49-86.3,549.26-5.71,607,180,28.87,92.85-1.23,194.4-73.23,283.52q-13.5,16.71-28.94,32.8-3.84,4-7.82,8l-4,4V1080H-1Z" transform="translate(8)"/><path id="Path_755" data-name="Path 755" class="cls-107" d="M-1,1066.21V605H-3.46q12-5.12,24.29-9.88,24.62-9.52,50.44-17.57c275.34-85.62,545-5.66,602.29,178.59,28.65,92.13-1.22,192.89-72.66,281.32Q587.51,1054,572.19,1070q-7.65,8-15.75,15.76V1080H-1Z" transform="translate(8)"/><path id="Path_756" data-name="Path 756" class="cls-108" d="M-1,1065V607.41H-2.06q11.9-5.07,24.1-9.8,24.42-9.45,50-17.43c273.18-84.95,540.72-5.62,597.57,177.19,28.43,91.41-1.2,191.37-72.09,279.11q-13.29,16.45-28.48,32.29-7.59,7.9-15.63,15.63V1080H-1Z" transform="translate(8)"/><path id="Path_757" data-name="Path 757" class="cls-109" d="M-1,1063.79V612.35H-6.54l5.88-2.54q11.81-5,23.91-9.72,24.22-9.37,49.65-17.3c271-84.28,536.45-5.57,592.85,175.79,28.2,90.69-1.2,189.87-71.53,276.91q-13.19,16.32-28.25,32-7.53,7.85-15.51,15.52v-3H-1Z" transform="translate(8)"/><path id="Path_758" data-name="Path 758" class="cls-110" d="M-1,1062.57V614.73H-5.09c1.94-.85,3.88-1.68,5.83-2.52q11.7-5,23.72-9.65,24-9.3,49.25-17.16c268.86-83.6,532.18-5.52,588.13,174.4,28,90-1.19,188.35-71,274.7q-13.08,16.18-28,31.78-7.46,7.79-15.38,15.39V1080H-1Z" transform="translate(8)"/><path id="Path_759" data-name="Path 759" class="cls-111" d="M-1,1061.36V617.11H-3.65l5.79-2.5q11.61-5,23.53-9.57,23.84-9.22,48.85-17c266.71-82.94,527.91-5.49,583.41,173,27.75,89.24-1.18,186.84-70.38,272.5q-13,16.07-27.81,31.52-7.41,7.73-15.26,15.27V1080H-1Z" transform="translate(8)"/><path id="Path_760" data-name="Path 760" class="cls-112" d="M-1,1060.14V622H-7.9q5.69-2.54,11.44-5,11.51-4.9,23.34-9.49,23.64-9.15,48.46-16.89C339.89,508.37,599,585.19,654,762.23c27.52,88.52-1.17,185.33-69.82,270.29q-12.87,15.93-27.58,31.27-7.35,7.65-15.14,15.14c-2.59,2.5-5.22,5-7.89,7.44V1080H-1Z" transform="translate(8)"/><path id="Path_761" data-name="Path 761" class="cls-113" d="M-1,1058.93V624.37H-6.41q5.64-2.52,11.35-5Q16.36,614.5,28.08,610q23.46-9.08,48.07-16.74c262.39-81.6,519.37-5.4,574,170.19,27.3,87.8-1.16,183.82-69.25,268.09q-12.76,15.81-27.35,31-7.29,7.6-15,15-3.85,3.72-7.83,7.38V1080H-1Z" transform="translate(8)"/><path id="Path_762" data-name="Path 762" class="cls-114" d="M-1,1057.71v-431H-4.92q5.6-2.49,11.25-4.91,11.34-4.83,23-9.34,23.27-9,47.67-16.61c260.24-80.92,515.1-5.35,569.25,168.8,27.08,87.07-1.15,182.3-68.67,265.88q-12.66,15.67-27.14,30.76-7.22,7.53-14.88,14.9-3.84,3.68-7.77,7.31V1080H-1Z" transform="translate(8)"/><path id="Path_763" data-name="Path 763" class="cls-115" d="M-1,1056.5V629.08H-3.42q5.54-2.48,11.15-4.87Q19,619.41,30.5,615,53.57,606,77.78,598.48c258.07-80.26,510.82-5.31,564.52,167.39,26.86,86.36-1.14,180.8-68.1,263.68q-12.56,15.54-26.91,30.5-7.17,7.48-14.76,14.78-3.81,3.64-7.7,7.25V1080H-1Z" transform="translate(8)"/><path id="Path_764" data-name="Path 764" class="cls-116" d="M-1,1055.28V631.44h-.93Q3.56,629,9.13,626.61q11.14-4.75,22.58-9.18,22.88-8.86,46.88-16.34c255.92-79.58,506.55-5.26,559.81,166,26.63,85.63-1.13,179.28-67.54,261.47q-12.45,15.42-26.68,30.25-7.11,7.41-14.64,14.65-3.76,3.61-7.64,7.19V1080H-1Z" transform="translate(8)"/><path id="Path_765" data-name="Path 765" class="cls-117" d="M-1,1054.07V636.26H-5.87l5.43-2.46q5.45-2.43,11-4.79,11-4.71,22.39-9.11,22.68-8.77,46.48-16.19c253.76-78.92,502.28-5.22,555.09,164.59,26.4,84.91-1.12,177.77-67,259.27a493.56,493.56,0,0,1-56.32,58.7V1080H-1Z" transform="translate(8)"/><path id="Path_766" data-name="Path 766" class="cls-118" d="M-1,1052.85V638.59H-4.33c1.79-.81,3.58-1.63,5.38-2.43q5.4-2.42,10.88-4.75,11-4.68,22.2-9,22.48-8.7,46.08-16.06c251.61-78.24,498-5.17,550.37,163.2,26.18,84.19-1.11,176.26-66.39,257.06a489.12,489.12,0,0,1-55.85,58.2V1080H-1Z" transform="translate(8)"/><path id="Path_767" data-name="Path 767" class="cls-119" d="M-1,1051.64V640.93H-2.79l5.33-2.41q5.36-2.4,10.79-4.71,10.86-4.63,22-8.95,22.31-8.64,45.7-15.93c249.44-77.56,493.74-5.12,545.65,161.8,26,83.47-1.1,174.75-65.83,254.86a486.17,486.17,0,0,1-55.37,57.7V1080H-1Z" transform="translate(8)"/><path id="Path_768" data-name="Path 768" class="cls-120" d="M-1,1050.42V645.7H-6.5a694.8,694.8,0,0,1,88.34-34.15c247.29-76.9,489.47-5.09,540.93,160.4,25.73,82.74-1.09,173.23-65.26,252.65a480.12,480.12,0,0,1-54.89,57.2V1080H-1Z" transform="translate(8)"/><path id="Path_769" data-name="Path 769" class="cls-121" d="M-1,1049.21V648H-4.92a692.88,692.88,0,0,1,87.57-33.85c245.13-76.22,485.2-5,536.21,159,25.51,82-1.08,171.73-64.69,250.45a477.06,477.06,0,0,1-54.4,56.7v-.3H-1Z" transform="translate(8)"/><path id="Path_770" data-name="Path 770" class="cls-122" d="M-1,1048V650.33H-3.34a684.47,684.47,0,0,1,86.81-33.55c243-75.56,480.92-5,531.49,157.6,25.28,81.3-1.08,170.21-64.12,248.25a473.33,473.33,0,0,1-53.93,56.19q-3.78,3.35-7.64,6.65V1080H-1Z" transform="translate(8)"/><path id="Path_771" data-name="Path 771" class="cls-123" d="M-1,1046.78V652.65h-.75a676.94,676.94,0,0,1,86-33.26c240.81-74.88,476.66-4.95,526.77,156.2,25.06,80.58-1.06,168.7-63.55,246A469.43,469.43,0,0,1,494,1077.33c-2.49,2.22-5,4.41-7.57,6.6V1080H-1Z" transform="translate(8)"/><path id="Path_772" data-name="Path 772" class="cls-124" d="M-1,1045.56V657.34H-5.2l5-2.38a672.24,672.24,0,0,1,85.29-33c238.66-74.22,472.39-4.91,522.05,154.8,24.83,79.85-1,167.19-63,243.84a464.55,464.55,0,0,1-53,55.19q-3.7,3.3-7.5,6.54V1080H-1Z" transform="translate(8)"/><path id="Path_773" data-name="Path 773" class="cls-125" d="M-1,1044.35V659.64H-3.57l5-2.36a663.88,663.88,0,0,1,84.49-32.66C322.4,551.08,554,619.76,603.24,778c24.6,79.14-1,165.68-62.42,241.64a459.89,459.89,0,0,1-52.49,54.7q-3.68,3.26-7.43,6.47V1080H-1Z" transform="translate(8)"/><path id="Path_774" data-name="Path 774" class="cls-126" d="M-1,1043.13V664.31H-6.85Q-2,661.91,3,659.6a658.35,658.35,0,0,1,83.72-32.36c234.34-72.88,463.84-4.82,512.61,152,24.38,78.41-1,164.16-61.84,239.43a457.63,457.63,0,0,1-52,54.2q-7.28,6.45-14.92,12.74V1080H-1Z" transform="translate(8)"/><path id="Path_775" data-name="Path 775" class="cls-127" d="M-1,1041.92V666.58H-5.17q4.85-2.37,9.75-4.67a657.12,657.12,0,0,1,83-32.06c232.18-72.2,459.58-4.77,507.89,150.6,24.16,77.69-1,162.66-61.27,237.23a451,451,0,0,1-51.54,53.7q-7.2,6.4-14.78,12.62v-4H-1Z" transform="translate(8)"/><path id="Path_776" data-name="Path 776" class="cls-128" d="M-1,1040.7V668.85H-3.5q4.8-2.34,9.67-4.62a647.74,647.74,0,0,1,82.17-31.76c230-71.54,455.31-4.73,503.18,149.2,23.93,77-1,161.14-60.71,235a448.27,448.27,0,0,1-51,53.2q-7.15,6.35-14.65,12.5V1080H-1Z" transform="translate(8)"/><path id="Path_777" data-name="Path 777" class="cls-129" d="M-1,1039.49V671.13h-.82q4.76-2.32,9.57-4.58a642.41,642.41,0,0,1,81.41-31.47c227.87-70.86,451-4.69,498.45,147.8,23.71,76.25-1,159.63-60.13,232.82a445,445,0,0,1-50.58,52.7q-7.08,6.28-14.51,12.39V1080H-1Z" transform="translate(8)"/><path id="Path_778" data-name="Path 778" class="cls-130" d="M-1,1038.27V675.72H-4.84l4.69-2.32q4.71-2.31,9.48-4.54A639.4,639.4,0,0,1,90,637.69C315.68,567.51,536.73,633,583.7,784.1c23.49,75.52-1,158.12-59.56,230.61a439,439,0,0,1-50.1,52.2q-7,6.22-14.37,12.27-3.68,3-7.45,6V1080H-1Z" transform="translate(8)"/><path id="Path_779" data-name="Path 779" class="cls-131" d="M-1,1037.06V680.29H-7.72q9.18-4.68,18.64-9.11a630.29,630.29,0,0,1,79.86-30.87c223.56-69.52,442.49-4.6,489,145,23.26,74.8-1,156.61-59,228.41a434.45,434.45,0,0,1-49.62,51.7q-6.95,6.16-14.23,12.16-3.65,3-7.38,5.94V1080H-1Z" transform="translate(8)"/><path id="Path_780" data-name="Path 780" class="cls-132" d="M-1,1035.84V682.52H-6q9.09-4.63,18.46-9a625,625,0,0,1,79.1-30.58C313,574.1,529.78,638.39,575.85,786.55c23,74.08-1,155.09-58.43,226.2a430.72,430.72,0,0,1-49.14,51.2q-6.87,6.1-14.09,12-3.62,3-7.31,5.89V1080H-1Z" transform="translate(8)"/><path id="Path_781" data-name="Path 781" class="cls-133" d="M-1,1034.63V684.75H-4.2q9-4.59,18.29-8.94a618.32,618.32,0,0,1,78.32-30.27c219.24-68.18,434-4.54,479.59,142.2,22.81,73.36-1,153.59-57.85,224a428,428,0,0,1-48.67,50.71q-13.61,12.08-28.59,23.48V1080H-1Z" transform="translate(8)"/><path id="Path_782" data-name="Path 782" class="cls-134" d="M-1,1033.41V687H-2.43q8.91-4.54,18.1-8.85a613,613,0,0,1,77.55-30C310.3,580.65,522.9,643.69,568.07,789c22.59,72.63-1,152.07-57.28,221.79A421.45,421.45,0,0,1,462.6,1061q-13.47,12-28.31,23.25V1080H-1Z" transform="translate(8)"/><path id="Path_783" data-name="Path 783" class="cls-135" d="M-1,1032.2V691.48H-5.06c1.45-.76,2.92-1.52,4.39-2.27q8.83-4.51,17.92-8.76A605.4,605.4,0,0,1,94,650.77c214.92-66.84,425.4-4.42,470.13,139.4,22.36,71.92-1,150.56-56.72,219.59a418.84,418.84,0,0,1-47.7,49.71q-13.35,11.85-28,23V1080H-1Z" transform="translate(8)"/><path id="Path_784" data-name="Path 784" class="cls-136" d="M-1,1031V696H-7.57q4.29-2.29,8.66-4.52Q9.84,687,18.84,682.8a600.74,600.74,0,0,1,76-29.38c212.76-66.16,421.13-4.37,465.41,138,22.14,71.19-.94,149-56.15,217.38a414.93,414.93,0,0,1-47.21,49.2q-13.22,11.73-27.75,22.79V1080H-1Z" transform="translate(8)"/><path id="Path_785" data-name="Path 785" class="cls-137" d="M-1,1029.77V698.14H-5.72c2.83-1.51,5.7-3,8.58-4.47q8.64-4.42,17.56-8.59A592.33,592.33,0,0,1,95.66,656c210.61-65.5,416.87-4.33,460.69,136.6,21.92,70.47-.93,147.54-55.57,215.18A411.71,411.71,0,0,1,454,1056.49q-13,11.61-27.44,22.51c-2.39,1.82-4.82,3.63-7.26,5.42V1080H-1Z" transform="translate(8)"/><path id="Path_786" data-name="Path 786" class="cls-138" d="M-1,1028.55V700.32H-3.87q4.22-2.24,8.49-4.43,8.56-4.36,17.39-8.49a585.35,585.35,0,0,1,74.47-28.79c208.44-64.82,412.59-4.29,456,135.21,21.69,69.74-.92,146-55,213A404.68,404.68,0,0,1,451.17,1055q-12.94,11.49-27.17,22.33c-2.38,1.8-4.77,3.59-7.2,5.37V1080H-1Z" transform="translate(8)"/><path id="Path_787" data-name="Path 787" class="cls-139" d="M-1,1027.34V702.51H-2q4.17-2.24,8.41-4.39,8.46-4.32,17.2-8.41a580.41,580.41,0,0,1,73.7-28.49C303.58,597.07,505.61,657,548.54,795c21.46,69-.91,144.52-54.44,210.77a400.87,400.87,0,0,1-45.79,47.71q-12.81,11.38-26.9,22.1-7,5.36-14.39,10.53V1080H-1Z" transform="translate(8)"/><path id="Path_788" data-name="Path 788" class="cls-140" d="M-1,1026.12V706.9H-4.28l4.11-2.21q4.13-2.21,8.32-4.34,8.39-4.27,17-8.32a574.88,574.88,0,0,1,72.93-28.19c204.13-63.48,404.05-4.2,446.53,132.41,21.24,68.3-.9,143-53.87,208.56A396.79,396.79,0,0,1,445.45,1052q-12.68,11.25-26.62,21.86-7,5.3-14.24,10.42V1080H-1Z" transform="translate(8)"/><path id="Path_789" data-name="Path 789" class="cls-141" d="M-1,1024.91V711.27H-6.41q16.07-8.91,33.17-16.93a569.8,569.8,0,0,1,72.15-27.89c202-62.8,399.78-4.15,441.82,131,21,67.58-.9,141.49-53.3,206.36a394.37,394.37,0,0,1-44.84,46.72q-12.54,11.13-26.34,21.63-6.88,5.25-14.08,10.31V1080H-1Z" transform="translate(8)"/><path id="Path_790" data-name="Path 790" class="cls-142" d="M-1,1023.69V713.41H-4.48q15.9-8.82,32.82-16.75a560.82,560.82,0,0,1,71.39-27.59C299.54,606.93,495.24,665,536.82,798.68c20.79,66.86-.88,140-52.73,204.15A388.55,388.55,0,0,1,439.74,1049q-12.42,11-26.06,21.4-6.82,5.19-13.94,10.2v-.6H-1Z" transform="translate(8)"/><path id="Path_791" data-name="Path 791" class="cls-143" d="M-1,1022.48V715.55H-2.54Q13.18,706.82,29.93,699a557.3,557.3,0,0,1,70.61-27.3c197.66-61.46,391.24-4.06,432.37,128.21,20.57,66.14-.87,138.47-52.16,202a385.26,385.26,0,0,1-43.87,45.72q-12.27,10.89-25.78,21.17-6.75,5.13-13.79,10.09-3.51,2.48-7.11,4.91V1080H-1Z" transform="translate(8)"/><path id="Path_792" data-name="Path 792" class="cls-144" d="M-1,1021.26V719.85H-4.47c1.28-.73,2.57-1.46,3.87-2.17Q15,709.06,31.51,701.29a552.36,552.36,0,0,1,69.84-27c195.51-60.8,387-4,427.66,126.81,20.34,65.41-.87,136.95-51.6,199.74-25.36,31.4-58.11,60.6-96.73,85.76V1080H-1Z" transform="translate(8)"/><path id="Path_793" data-name="Path 793" class="cls-145" d="M-1,1020V724.14H-6.29q3.78-2.19,7.63-4.32,15.38-8.54,31.75-16.21a543.37,543.37,0,0,1,69.08-26.7c193.34-60.12,382.69-4,422.93,125.41,20.12,64.69-.86,135.45-51,197.54-25.09,31-57.47,59.93-95.67,84.81V1080H-1Z" transform="translate(8)"/><path id="Path_794" data-name="Path 794" class="cls-146" d="M-1,1018.83V726.22H-4.26q3.73-2.16,7.54-4.27,15.2-8.43,31.4-16a538.29,538.29,0,0,1,68.3-26.4c191.19-59.46,378.43-3.94,418.21,124,19.89,64-.84,133.93-50.45,195.33-24.81,30.71-56.83,59.27-94.6,83.87V1080H-1Z" transform="translate(8)"/><path id="Path_795" data-name="Path 795" class="cls-147" d="M-1,1017.62V728.31H-2.24c2.46-1.42,5-2.83,7.45-4.22q15-8.36,31-15.85a532.76,532.76,0,0,1,67.53-26.1c189-58.78,374.16-3.89,413.49,122.61,19.67,63.25-.83,132.42-49.88,193.13-24.52,30.36-56.18,58.6-93.53,82.92v-.8H-1Z" transform="translate(8)"/><path id="Path_796" data-name="Path 796" class="cls-148" d="M-1,1016.4V734.67H-7.46q7.19-4.32,14.61-8.45Q22,718,37.84,710.56a526.5,526.5,0,0,1,66.77-25.81C291.48,626.64,474.49,680.91,513.38,806c19.44,62.52-.83,130.91-49.32,190.92-24.24,30-55.54,57.93-92.46,82q-3.47,2.25-7,4.46V1080H-1Z" transform="translate(8)"/><path id="Path_797" data-name="Path 797" class="cls-149" d="M-1,1015.19V736.71H-5.35q7.09-4.28,14.44-8.35,14.7-8.16,30.34-15.48a519.47,519.47,0,0,1,66-25.51c184.71-57.44,365.61-3.8,404,119.81,19.22,61.81-.82,129.4-48.74,188.72-24,29.67-54.91,57.26-91.4,81q-6.84,4.45-13.94,8.73V1080H-1Z" transform="translate(8)"/><path id="Path_798" data-name="Path 798" class="cls-150" d="M-1,1014V738.75H-3.25q7-4.23,14.28-8.26,14.52-8.06,30-15.3A515.52,515.52,0,0,1,106.23,690c182.56-56.76,361.34-3.75,399.33,118.42,19,61.08-.8,127.88-48.17,186.52-23.69,29.29-54.26,56.56-90.33,80.06q-6.76,4.41-13.78,8.63V1080H-1Z" transform="translate(8)"/><path id="Path_799" data-name="Path 799" class="cls-151" d="M-1,1012.76v-272h-.14Q5.79,736.58,13,732.6q14.34-8,29.63-15.12A508,508,0,0,1,107,692.6c180.4-56.1,357.08-3.71,394.62,117C520.43,870,500.86,936,454,993.93c-23.4,29-53.62,55.91-89.26,79.13q-6.67,4.35-13.61,8.52V1080H-1Z" transform="translate(8)"/><path id="Path_800" data-name="Path 800" class="cls-152" d="M-1,1011.54V747H-5.82q3.36-2.1,6.79-4.17,6.84-4.11,13.94-8.05,14.18-7.87,29.27-14.94a501.89,501.89,0,0,1,63.68-24.62c178.24-55.42,352.8-3.66,389.89,115.62,18.55,59.64-.79,124.86-47,182.11-23.12,28.62-53,55.25-88.19,78.18q-6.6,4.3-13.45,8.43c-2.28,1.37-4.59,2.73-6.91,4.07V1080H-1Z" transform="translate(8)"/><path id="Path_801" data-name="Path 801" class="cls-153" d="M-1,1010.33V749H-3.63c2.21-1.39,4.45-2.76,6.7-4.12q6.76-4.07,13.77-8,14-7.77,28.92-14.76a496.31,496.31,0,0,1,62.91-24.31C284.75,643.05,457.2,694.19,493.84,812c18.32,58.92-.77,123.35-46.46,179.91-22.85,28.27-52.34,54.58-87.13,77.23q-13,8.5-27.06,16.29V1080H-1Z" transform="translate(8)"/><path id="Path_802" data-name="Path 802" class="cls-154" d="M-1,1009.11v-254H-8a472.58,472.58,0,0,1,117.43-54.68c173.93-54.08,344.26-3.57,380.46,112.82C508,871.45,489.17,935.1,444,991c-22.57,27.93-51.7,53.91-86.06,76.29q-12.88,8.39-26.73,16.08V1080H-1Z" transform="translate(8)"/><path id="Path_803" data-name="Path 803" class="cls-155" d="M-1,1007.9V757.06H-5.68a466.72,466.72,0,0,1,116-54c171.76-53.42,340-3.54,375.73,111.41,17.87,57.47-.76,120.33-45.33,175.5-22.28,27.58-51,53.24-85,75.34q-12.72,8.3-26.41,15.89V1080H-1Z" transform="translate(8)"/><path id="Path_804" data-name="Path 804" class="cls-156" d="M-1,1006.68V759H-3.41a461.41,461.41,0,0,1,114.52-53.32c169.61-52.74,335.72-3.49,371,110,17.65,56.75-.75,118.81-44.76,173.29-22,27.23-50.41,52.57-83.92,74.4q-12.56,8.18-26.06,15.68-6.75,3.75-13.72,7.3V1080H-1Z" transform="translate(8)"/><path id="Path_805" data-name="Path 805" class="cls-157" d="M-1,1005.47V760.93h-.14a454.47,454.47,0,0,1,113.06-52.64c167.45-52.08,331.45-3.45,366.3,108.61,17.42,56-.74,117.31-44.19,171.09-21.73,26.89-49.78,51.9-82.86,73.45q-12.41,8.08-25.73,15.49-6.66,3.69-13.54,7.2V1080H-1Z" transform="translate(8)"/><path id="Path_806" data-name="Path 806" class="cls-158" d="M-1,1004.25V766.89H-4.93c2-1.33,4-2.67,6.06-4a449.48,449.48,0,0,1,111.61-52c165.29-51.4,327.17-3.4,361.57,107.22,17.2,55.3-.73,115.79-43.62,168.88-21.45,26.54-49.13,51.23-81.79,72.5q-12.24,8-25.4,15.29-6.57,3.65-13.36,7.12V1080H-1Z" transform="translate(8)"/><path id="Path_807" data-name="Path 807" class="cls-159" d="M-1,1003V768.78H-2.58l6-4a443.33,443.33,0,0,1,110.15-51.29c163.13-50.73,322.9-3.35,356.85,105.82,17,54.59-.72,114.28-43.05,166.68-21.16,26.2-48.49,50.57-80.72,71.56a426.36,426.36,0,0,1-51.86,28.76V1080H-1Z" transform="translate(8)"/><path id="Path_808" data-name="Path 808" class="cls-160" d="M-1,1001.82V774.66H-6q5.73-4,11.69-7.92a437.27,437.27,0,0,1,108.69-50.61c161-50.06,318.64-3.31,352.13,104.42C483.26,874.41,465.8,933.32,424,985c-20.88,25.85-47.84,49.9-79.65,70.61a418.08,418.08,0,0,1-51.2,28.37v-4H-1Z" transform="translate(8)"/><path id="Path_809" data-name="Path 809" class="cls-161" d="M-1,1000.61V776.49H-3.6q5.66-4,11.54-7.82a432.25,432.25,0,0,1,107.23-49.93c158.83-49.38,314.37-3.26,347.42,103,16.52,53.14-.7,111.26-41.91,162.27-20.61,25.5-47.21,49.23-78.59,69.67a414.22,414.22,0,0,1-50.49,28V1080H-1Z" transform="translate(8)"/><path id="Path_810" data-name="Path 810" class="cls-162" d="M-1,999.39V778.32h-.17q5.58-3.93,11.38-7.71A425.8,425.8,0,0,1,116,721.36C272.66,672.64,426.09,718.14,458.69,823,475,875.39,458,932.72,417.34,983c-20.33,25.16-46.57,48.56-77.52,68.72A408.24,408.24,0,0,1,290,1079.38q-6.63,3.11-13.45,6V1080H-1Z" transform="translate(8)"/><path id="Path_811" data-name="Path 811" class="cls-163" d="M-1,998.18V784.06H-4.19c1.8-1.32,3.61-2.62,5.45-3.91q5.49-3.87,11.22-7.6A420,420,0,0,1,116.8,724c154.51-48,305.82-3.17,338,100.22,16.08,51.7-.68,108.24-40.77,157.86-20,24.81-45.92,47.89-76.45,67.77a403.42,403.42,0,0,1-49.12,27.24q-6.54,3.06-13.26,5.93v-3H-1Z" transform="translate(8)"/><path id="Path_812" data-name="Path 812" class="cls-164" d="M-1,997V789.75H-6.94q10.4-7.9,21.69-15.27a414.14,414.14,0,0,1,102.86-47.89C270,679.21,419.16,723.45,450.87,825.4c15.85,51-.68,106.73-40.21,155.66-19.76,24.46-45.28,47.22-75.38,66.83a397.66,397.66,0,0,1-48.43,26.86q-12.9,6-26.52,11.31V1080H-1Z" transform="translate(8)"/><path id="Path_813" data-name="Path 813" class="cls-165" d="M-1,995.75V791.47H-4.37Q5.89,783.69,17,776.42A408.18,408.18,0,0,1,118.43,729.2c150.19-46.7,297.28-3.09,328.53,97.42,15.63,50.25-.66,105.21-39.63,153.45-19.49,24.12-44.65,46.56-74.32,65.88a390.69,390.69,0,0,1-47.75,26.48q-12.7,5.94-26.14,11.15V1080H-1Z" transform="translate(8)"/><path id="Path_814" data-name="Path 814" class="cls-166" d="M-1,994.54V793.19h-.79q10.11-7.68,21.08-14.84a402.41,402.41,0,0,1,100-46.53c148-46,293-3.05,323.81,96,15.41,49.54-.65,103.71-39.06,151.25-19.26,23.78-44,45.93-73.3,64.93a385.45,385.45,0,0,1-47.06,26.09q-12.53,5.87-25.77,11V1080H-1Z" transform="translate(8)"/><path id="Path_815" data-name="Path 815" class="cls-167" d="M-1,993.32V798.73H-4.14c1.63-1.28,3.28-2.55,4.93-3.82q10-7.56,20.77-14.62A396.44,396.44,0,0,1,120,734.43c145.88-45.36,288.74-3,319.1,94.62,15.17,48.81-.65,102.19-38.5,149-18.92,23.43-43.36,45.22-72.18,64a382.8,382.8,0,0,1-46.32,25.75q-12.35,5.78-25.4,10.83-6.51,2.52-13.2,4.85V1080H-1Z" transform="translate(8)"/><path id="Path_816" data-name="Path 816" class="cls-168" d="M-1,992.11V804.22H-6.23q4.7-3.86,9.59-7.59,9.81-7.46,20.47-14.4a390.71,390.71,0,0,1,97-45.19c143.71-44.69,284.46-3,314.37,93.22s-62.31,210.37-206,255.07V1080H-1Z" transform="translate(8)"/><path id="Path_817" data-name="Path 817" class="cls-169" d="M-1,990.89V805.82H-3.51q4.62-3.8,9.45-7.47Q15.6,791,26.1,784.16a384.88,384.88,0,0,1,95.58-44.5c141.56-44,280.19-2.91,309.65,91.82s-61.41,207.21-203,251.23V1080H11.13v1.8q-9.81-3.93-18.86-8.62H-1Z" transform="translate(8)"/><path id="Path_818" data-name="Path 818" class="cls-170" d="M-1,989.68V811.19H-5.28c1.48-1.26,3-2.52,4.49-3.76q4.55-3.73,9.31-7.36,9.51-7.23,19.85-14a378.69,378.69,0,0,1,94.12-43.83c139.4-43.35,275.93-2.86,304.94,90.42s-60.49,204.09-199.89,247.44v-.1H33.68v6.12a218.71,218.71,0,0,1-38.6-15.41H-1Z" transform="translate(8)"/><path id="Path_819" data-name="Path 819" class="cls-171" d="M-1,988.46v-172H-6.8A317.38,317.38,0,0,1,30.64,788a372.79,372.79,0,0,1,92.66-43.15c137.25-42.68,271.66-2.82,300.22,89S364,1034.8,226.73,1077.48q-12.87,4-25.67,7V1080H35.87v3.42a214.57,214.57,0,0,1-38-15.18H-1Z" transform="translate(8)"/><path id="Path_820" data-name="Path 820" class="cls-172" d="M-1,987.25V818H-3.94a312.2,312.2,0,0,1,36.85-28,367.51,367.51,0,0,1,91.21-42.47c135.08-42,267.38-2.78,295.49,87.62S361,1032.86,225.92,1074.87a379.72,379.72,0,0,1-50.33,12V1080H38v.71A211.46,211.46,0,0,1,.6,1065.77q-4.3-2.24-8.42-4.66H-1Z" transform="translate(8)"/><path id="Path_821" data-name="Path 821" class="cls-173" d="M-1,986V819.47h-.09a307.28,307.28,0,0,1,36.27-27.56,360.9,360.9,0,0,1,89.75-41.79c132.93-41.34,263.11-2.74,290.78,86.22S358,1030.92,225.1,1072.25a372.23,372.23,0,0,1-49.52,11.81V1080H82v6.59A258.54,258.54,0,0,1,40.24,1078a208,208,0,0,1-36.8-14.7q-4.24-2.21-8.29-4.59H-1Z" transform="translate(8)"/><path id="Path_822" data-name="Path 822" class="cls-174" d="M-1,984.82V828.27H-6.14q3.85-3.71,7.91-7.31a303.08,303.08,0,0,1,35.68-27.12,355.56,355.56,0,0,1,88.29-41.11C256.51,712.07,384.59,750,411.8,837.55S355.06,1029,224.29,1069.64a355.74,355.74,0,0,1-96,16.21c-30.82.79-59.94-2.88-85.82-10.56a204.27,204.27,0,0,1-36.21-14.46q-4.17-2.16-8.15-4.51H-1Z" transform="translate(8)"/><path id="Path_823" data-name="Path 823" class="cls-175" d="M-1,983.6v-154H-3.15q3.8-3.63,7.78-7.18a296.89,296.89,0,0,1,35.09-26.67,349,349,0,0,1,86.84-40.43c128.61-40,254.57-2.65,281.33,83.42S352.09,1027,223.48,1067A349.72,349.72,0,0,1,129,1083c-30.31.77-59-2.84-84.4-10.38A202,202,0,0,1,9,1058.36a169.48,169.48,0,0,1-15.66-9.22H-1Z" transform="translate(8)"/><path id="Path_824" data-name="Path 824" class="cls-176" d="M-1,982.39V838.24H-7.39q7-7.32,14.88-14.3A289.9,289.9,0,0,1,42,797.72,343.41,343.41,0,0,1,127.37,758c126.45-39.32,250.3-2.6,276.61,82s-54.86,185.11-181.31,224.43c-63.23,19.66-125.81,20.31-175.86,5.47a198,198,0,0,1-35-14,166,166,0,0,1-15.39-9.07H-1Z" transform="translate(8)"/><path id="Path_825" data-name="Path 825" class="cls-177" d="M-1,981.17V839.48H-4.28c4.6-4.79,9.48-9.49,14.63-14A286.77,286.77,0,0,1,44.26,799.7a338.36,338.36,0,0,1,83.92-39.08c124.3-38.65,246-2.55,271.9,80.63s-53.93,181.94-178.23,220.6c-62.15,19.32-123.65,20-172.86,5.37a195.4,195.4,0,0,1-34.41-13.74,164.1,164.1,0,0,1-15.14-8.92c-2.39-1.59-4.73-3.23-7-4.94H-1Z" transform="translate(8)"/><path id="Path_826" data-name="Path 826" class="cls-178" d="M-1,980V840.73h-.17q6.78-7.08,14.38-13.81a280.59,280.59,0,0,1,33.32-25.33A331.65,331.65,0,0,1,129,763.19c122.14-38,241.75-2.51,267.17,79.22s-53,178.79-175.17,216.77c-61,19-121.47,19.62-169.82,5.28A191.16,191.16,0,0,1,17.36,1051a161.82,161.82,0,0,1-14.87-8.76q-3.53-2.35-6.87-4.86H-1Z" transform="translate(8)"/><path id="Path_827" data-name="Path 827" class="cls-179" d="M-1,978.74V849H-4.52q3.13-3.54,6.46-7,6.67-6.94,14.13-13.57A277.38,277.38,0,0,1,48.8,803.55a326.23,326.23,0,0,1,81-37.72c120-37.31,237.49-2.46,262.45,77.83s-52,175.63-172,212.94c-60,18.65-119.37,19.27-166.86,5.18-23.75-7-44.53-17.75-60.93-31.73H-1Z" transform="translate(8)"/><path id="Path_828" data-name="Path 828" class="cls-180" d="M-1,977.53V857.14H-7.23c30.57-37.84,78.94-70.4,137.85-88.72,117.83-36.64,233.22-2.42,257.74,76.42s-51.12,172.47-169,209.11c-58.91,18.32-117.21,18.93-163.85,5-23.32-6.92-43.73-17.44-59.84-31.17H-1Z" transform="translate(8)"/><path id="Path_829" data-name="Path 829" class="cls-181" d="M-1,976.31V858.13H-3.89C26.11,821,73.6,789,131.43,771c115.67-36,229-2.38,253,75s-50.16,169.34-165.83,205.31c-57.83,18-115.07,18.58-160.86,5-22.89-6.79-42.92-17.12-58.73-30.59q-3-2.54-5.73-5.2H-1Z" transform="translate(8)"/><path id="Path_830" data-name="Path 830" class="cls-182" d="M-1,975.1V866H-5.87q2.55-3.48,5.32-6.9c29.45-36.45,76-67.82,132.8-85.47,113.51-35.3,224.67-2.34,248.29,73.62s-49.24,166.18-162.75,201.47C161,1066.37,104.86,1067,59.93,1053.63c-22.47-6.66-42.12-16.8-57.64-30q-2.91-2.48-5.62-5.1H-1Z" transform="translate(8)"/><path id="Path_831" data-name="Path 831" class="cls-183" d="M-1,973.88V873.74H-7.25q4.61-6.91,10-13.63c28.9-35.76,74.61-66.54,130.28-83.85,111.35-34.62,220.4-2.29,243.58,72.23s-48.31,163-159.67,197.62c-55.64,17.31-110.74,17.89-154.82,4.81-22-6.53-41.32-16.48-56.55-29.45a115.94,115.94,0,0,1-10.63-10.28H-1Z" transform="translate(8)"/><path id="Path_832" data-name="Path 832" class="cls-184" d="M-1,972.67v-98.2H-3.72q4.53-6.78,9.84-13.37C34.45,826,79.28,795.85,133.87,778.88c109.2-34,216.14-2.25,238.86,70.82s-47.38,159.84-156.57,193.79c-54.6,17-108.63,17.54-151.85,4.73-21.62-6.41-40.53-16.17-55.45-28.88a114.22,114.22,0,0,1-10.43-10.09H-1Z" transform="translate(8)"/><path id="Path_833" data-name="Path 833" class="cls-185" d="M-1,971.45V881.88H-4.42q2-3.36,4.23-6.69,4.44-6.65,9.65-13.1c27.77-34.37,71.71-64,125.23-80.6,107-33.28,211.86-2.2,234.13,69.43s-46.44,156.67-153.47,190c-53.52,16.64-106.49,17.19-148.86,4.63-21.18-6.28-39.72-15.84-54.35-28.31A104.89,104.89,0,0,1-6.72,996.41H-1Z" transform="translate(8)"/><path id="Path_834" data-name="Path 834" class="cls-186" d="M-1,970.24V889.1H-4.54a163.4,163.4,0,0,1,17.34-26c27.21-33.68,70.26-62.67,122.7-79,104.88-32.62,207.59-2.16,229.42,68s-45.51,153.52-150.39,186.13c-52.43,16.31-104.33,16.85-145.85,4.54-20.76-6.16-38.92-15.52-53.26-27.74A103.92,103.92,0,0,1-3.06,994.62H-1Z" transform="translate(8)"/><path id="Path_835" data-name="Path 835" class="cls-187" d="M-1,969V902.69H-7A133.08,133.08,0,0,1-.88,889.53a162.14,162.14,0,0,1,17-25.48c26.66-33,68.82-61.38,120.18-77.35C239,754.76,339.62,784.59,361,853.33s-44.57,150.36-147.29,182.3c-51.36,16-102.19,16.5-142.85,4.44-20.33-6-38.12-15.2-52.16-27.17a101.55,101.55,0,0,1-18.11-20,92.39,92.39,0,0,1-6.66-11.48H-1Z" transform="translate(8)"/><path id="Path_836" data-name="Path 836" class="cls-188" d="M-1,967.81V915.93H-7.51c4.68-17.45,13.93-34.72,27-50.87,26.09-32.3,67.37-60.09,117.66-75.73,100.56-31.27,199-2.06,220,65.23S313.47,1001.76,212.91,1033s-199,2.06-220-65.23Z" transform="translate(8)"/><path id="Path_837" data-name="Path 837" class="cls-189" d="M-1,966.59V915.83H-3.59c4.58-17.07,13.63-34,26.4-49.78,25.53-31.6,65.93-58.8,115.13-74.1,98.4-30.6,194.78-2,215.26,63.83s-42.7,144-141.1,174.64-194.78,2-215.26-63.83Z" transform="translate(8)"/><path id="Path_838" data-name="Path 838" class="cls-190" d="M.75,965.38c-5-16.1-4.9-33-.42-49.66S13.66,882.5,26.15,867c25-30.91,64.48-57.51,112.6-72.48,96.25-29.93,190.51-2,210.54,62.43s-41.76,140.89-138,170.82S20.78,1029.79.75,965.38Z" transform="translate(8)"/><path id="Path_839" data-name="Path 839" class="cls-191" d="M4.65,964.16c-9.79-31.48.42-65.91,24.83-96.13s63-56.22,110.08-70.85c94.09-29.26,186.24-1.94,205.82,61s-40.82,137.72-134.91,167S24.23,1027.13,4.65,964.16Z" transform="translate(8)"/><path id="Path_840" data-name="Path 840" class="cls-192" d="M8.56,963C-1,932.19,9,898.55,32.82,869s61.59-54.93,107.56-69.23c91.93-28.59,182-1.89,201.09,59.63S301.59,994,209.66,1022.58,27.69,1024.47,8.56,963Z" transform="translate(8)"/><ellipse id="Ellipse_8" data-name="Ellipse 8" class="cls-193" cx="174.99" cy="911.06" rx="170.23" ry="113.92" transform="translate(-254.58 93.02) rotate(-17.27)"/><ellipse id="Ellipse_9" data-name="Ellipse 9" class="cls-194" cx="174.99" cy="911.06" rx="166.14" ry="111.18" transform="translate(-254.58 93.02) rotate(-17.27)"/><ellipse id="Ellipse_10" data-name="Ellipse 10" class="cls-195" cx="174.99" cy="911.06" rx="162.05" ry="108.44" transform="translate(-254.58 93.02) rotate(-17.27)"/><ellipse id="Ellipse_11" data-name="Ellipse 11" class="cls-196" cx="174.99" cy="911.06" rx="157.95" ry="105.7" transform="translate(-254.58 93.02) rotate(-17.27)"/><ellipse id="Ellipse_12" data-name="Ellipse 12" class="cls-197" cx="183.05" cy="917.35" rx="153.28" ry="102.57" transform="translate(-259.75 97.71) rotate(-17.53)"/><ellipse id="Ellipse_13" data-name="Ellipse 13" class="cls-198" cx="174.99" cy="911.06" rx="149.77" ry="100.23" transform="translate(-254.58 93.02) rotate(-17.27)"/><ellipse id="Ellipse_14" data-name="Ellipse 14" class="cls-199" cx="174.99" cy="911.06" rx="145.68" ry="97.49" transform="translate(-254.58 93.02) rotate(-17.27)"/><ellipse id="Ellipse_15" data-name="Ellipse 15" class="cls-200" cx="174.99" cy="911.06" rx="141.59" ry="94.75" transform="translate(-254.58 93.02) rotate(-17.27)"/><ellipse id="Ellipse_16" data-name="Ellipse 16" class="cls-201" cx="174.99" cy="911.06" rx="137.5" ry="92.01" transform="translate(-254.58 93.02) rotate(-17.27)"/><ellipse id="Ellipse_17" data-name="Ellipse 17" class="cls-202" cx="174.99" cy="911.06" rx="133.41" ry="89.27" transform="translate(-254.58 93.03) rotate(-17.27)"/><ellipse id="Ellipse_18" data-name="Ellipse 18" class="cls-203" cx="174.99" cy="911.06" rx="129.31" ry="86.54" transform="translate(-254.58 93.02) rotate(-17.27)"/><ellipse id="Ellipse_19" data-name="Ellipse 19" class="cls-204" cx="174.99" cy="911.06" rx="125.22" ry="83.8" transform="matrix(0.95, -0.3, 0.3, 0.95, -254.58, 93.02)"/><ellipse id="Ellipse_20" data-name="Ellipse 20" class="cls-205" cx="174.99" cy="911.06" rx="121.13" ry="81.06" transform="translate(-254.58 93.02) rotate(-17.27)"/><ellipse id="Ellipse_21" data-name="Ellipse 21" class="cls-206" cx="174.99" cy="911.06" rx="117.04" ry="78.32" transform="translate(-254.58 93.02) rotate(-17.27)"/><ellipse id="Ellipse_22" data-name="Ellipse 22" class="cls-207" cx="174.99" cy="911.06" rx="112.95" ry="75.58" transform="matrix(0.95, -0.3, 0.3, 0.95, -254.58, 93.02)"/><ellipse id="Ellipse_23" data-name="Ellipse 23" class="cls-208" cx="174.99" cy="911.06" rx="108.86" ry="72.85" transform="translate(-254.58 93.02) rotate(-17.27)"/><ellipse id="Ellipse_24" data-name="Ellipse 24" class="cls-209" cx="183.05" cy="917.34" rx="104.38" ry="69.85" transform="translate(-259.75 97.71) rotate(-17.53)"/><ellipse id="Ellipse_25" data-name="Ellipse 25" class="cls-210" cx="174.99" cy="911.06" rx="100.67" ry="67.37" transform="translate(-254.58 93.02) rotate(-17.27)"/><ellipse id="Ellipse_26" data-name="Ellipse 26" class="cls-211" cx="174.99" cy="911.06" rx="96.58" ry="64.63" transform="translate(-254.58 93.02) rotate(-17.27)"/><ellipse id="Ellipse_27" data-name="Ellipse 27" class="cls-212" cx="174.99" cy="911.06" rx="92.49" ry="61.89" transform="translate(-254.58 93.02) rotate(-17.27)"/><ellipse id="Ellipse_28" data-name="Ellipse 28" class="cls-213" cx="174.99" cy="911.06" rx="88.4" ry="59.16" transform="translate(-254.58 93.02) rotate(-17.27)"/><ellipse id="Ellipse_29" data-name="Ellipse 29" class="cls-214" cx="174.99" cy="911.06" rx="84.31" ry="56.42" transform="translate(-254.58 93.02) rotate(-17.27)"/><ellipse id="Ellipse_30" data-name="Ellipse 30" class="cls-215" cx="174.99" cy="911.06" rx="80.22" ry="53.68" transform="translate(-254.58 93.02) rotate(-17.27)"/><ellipse id="Ellipse_31" data-name="Ellipse 31" class="cls-216" cx="174.99" cy="911.06" rx="76.13" ry="50.94" transform="translate(-254.58 93.02) rotate(-17.27)"/><ellipse id="Ellipse_32" data-name="Ellipse 32" class="cls-217" cx="174.99" cy="911.06" rx="72.03" ry="48.21" transform="translate(-254.58 93.02) rotate(-17.27)"/><ellipse id="Ellipse_33" data-name="Ellipse 33" class="cls-218" cx="174.99" cy="911.06" rx="67.94" ry="45.47" transform="translate(-254.58 93.02) rotate(-17.27)"/><ellipse id="Ellipse_34" data-name="Ellipse 34" class="cls-219" cx="174.99" cy="911.06" rx="63.85" ry="42.73" transform="translate(-254.58 93.02) rotate(-17.27)"/><ellipse id="Ellipse_35" data-name="Ellipse 35" class="cls-220" cx="174.99" cy="911.06" rx="59.76" ry="39.99" transform="translate(-254.58 93.02) rotate(-17.27)"/><ellipse id="Ellipse_36" data-name="Ellipse 36" class="cls-221" cx="183.05" cy="917.35" rx="55.46" ry="37.11" transform="translate(-259.75 97.71) rotate(-17.53)"/><ellipse id="Ellipse_37" data-name="Ellipse 37" class="cls-222" cx="174.99" cy="911.06" rx="51.58" ry="34.52" transform="translate(-254.58 93.02) rotate(-17.27)"/><ellipse id="Ellipse_38" data-name="Ellipse 38" class="cls-223" cx="174.99" cy="911.06" rx="47.49" ry="31.78" transform="translate(-254.58 93.02) rotate(-17.27)"/><ellipse id="Ellipse_39" data-name="Ellipse 39" class="cls-224" cx="174.99" cy="911.06" rx="43.39" ry="29.04" transform="translate(-254.58 93.02) rotate(-17.27)"/><ellipse id="Ellipse_40" data-name="Ellipse 40" class="cls-225" cx="174.99" cy="911.06" rx="39.3" ry="26.3" transform="translate(-254.58 93.02) rotate(-17.27)"/><ellipse id="Ellipse_41" data-name="Ellipse 41" class="cls-226" cx="174.99" cy="911.06" rx="35.21" ry="23.56" transform="translate(-254.58 93.02) rotate(-17.27)"/><ellipse id="Ellipse_42" data-name="Ellipse 42" class="cls-227" cx="174.99" cy="911.06" rx="31.12" ry="20.83" transform="translate(-254.58 93.02) rotate(-17.27)"/><ellipse id="Ellipse_43" data-name="Ellipse 43" class="cls-228" cx="174.99" cy="911.06" rx="27.03" ry="18.09" transform="translate(-254.58 93.02) rotate(-17.27)"/><ellipse id="Ellipse_44" data-name="Ellipse 44" class="cls-229" cx="174.99" cy="911.06" rx="22.94" ry="15.35" transform="matrix(0.95, -0.3, 0.3, 0.95, -254.58, 93.02)"/><ellipse id="Ellipse_45" data-name="Ellipse 45" class="cls-230" cx="174.99" cy="911.06" rx="18.85" ry="12.61" transform="translate(-254.58 93.02) rotate(-17.27)"/></g></g><path id="Path_242" data-name="Path 242" class="cls-221" d="M239.65,825.84h0l-153.09,55,17.75,196.65h17.26Z" transform="translate(8)"/><path id="Path_243" data-name="Path 243" class="cls-182" d="M107.09,777.34H.38v51.2l86.17,52.29Z" transform="translate(8)"/><path id="Path_244" data-name="Path 244" class="cls-190" d="M86.55,880.83.38,828.54v72.37Z" transform="translate(8)"/><path id="Path_245" data-name="Path 245" class="cls-204" d="M239.64,825.83l-153.09,55,20.54-103.49h0Z" transform="translate(8)"/><path id="Path_246" data-name="Path 246" class="cls-196" d="M86.55,880.83.38,900.91v94.86Z" transform="translate(8)"/><path id="Path_247" data-name="Path 247" class="cls-206" d="M104.31,1077.49,86.55,880.83.38,995.77v81.72Z" transform="translate(8)"/><path id="Path_248" data-name="Path 248" class="cls-157" d="M107.09,777.31,86.55,658.83.38,718.69v58.62Z" transform="translate(8)"/><path id="Path_249" data-name="Path 249" class="cls-136" d="M86.55,658.83.38,633.27v85.42Z" transform="translate(8)"/><path id="Path_250" data-name="Path 250" class="cls-126" d="M86.55,658.83.38,480.28v153Z" transform="translate(8)"/><path id="Path_251" data-name="Path 251" class="cls-137" d="M334.64,680.82l-248.09-22L218.09,539.34h0Z" transform="translate(8)"/><path id="Path_252" data-name="Path 252" class="cls-106" d="M218.09,539.34.38,452.85v27.43L86.55,658.83Z" transform="translate(8)"/><path id="Path_253" data-name="Path 253" class="cls-164" d="M334.64,680.82h0L107.1,777.3h0L86.56,658.81h0Z" transform="translate(8)"/><path id="Path_254" data-name="Path 254" class="cls-98" d="M242.64,334.83h0L218.1,539.31h0L73.56,304.83h0Z" transform="translate(8)"/><path id="Path_255" data-name="Path 255" class="cls-41" d="M73.55,304.83.38,297.89V420.43Z" transform="translate(8)"/><path id="Path_256" data-name="Path 256" class="cls-12" d="M73.55,304.83l-73.17-88v81.06Z" transform="translate(8)"/><path id="Path_257" data-name="Path 257" class="cls-10" d="M175.09,139.34.38,123.16v93.67l73.17,88Z" transform="translate(8)"/><path id="Path_258" data-name="Path 258" class="cls-11" d="M242.64,334.83l-169.09-30L175.09,139.34h0Z" transform="translate(8)"/><path id="Path_259" data-name="Path 259" class="cls-72" d="M218.09,539.31,73.55,304.83.38,420.43v32.39Z" transform="translate(8)"/><path id="Path_266" data-name="Path 266" class="cls-158" d="M471.52,1077.49,393.78,942.84h0l-154.54,81.49,158.23,53.16Z" transform="translate(8)"/><path id="Path_267" data-name="Path 267" class="cls-206" d="M239.67,825.85h0L121.58,1077.49h34.05l83.59-53.15Z" transform="translate(8)"/><path id="Path_268" data-name="Path 268" class="cls-165" d="M397.47,1077.49l-158.25-53.15,32.92,53.15Z" transform="translate(8)"/><path id="Path_269" data-name="Path 269" class="cls-175" d="M272.14,1077.49l-32.92-53.15-7.79,53.15Z" transform="translate(8)"/><path id="Path_270" data-name="Path 270" class="cls-203" d="M393.76,942.85l-154.54,81.49h0l.45-198.49Z" transform="translate(8)"/><path id="Path_271" data-name="Path 271" class="cls-180" d="M239.22,1024.34l-83.59,53.15h75.8Z" transform="translate(8)"/><path id="Path_272" data-name="Path 272" class="cls-187" d="M440.21,777.34,393.76,942.83l-154.09-117Z" transform="translate(8)"/><path id="Path_273" data-name="Path 273" class="cls-133" d="M334.67,680.85l53.09-157,52.45,253.49h0Z" transform="translate(8)"/><path id="Path_274" data-name="Path 274" class="cls-160" d="M393.76,942.83l46.45-165.49h0l80.12-97L393.79,942.83h0Z" transform="translate(8)"/><path id="Path_275" data-name="Path 275" class="cls-195" d="M239.66,825.83h0L107.12,777.34H440.21L239.67,825.83Z" transform="translate(8)"/><path id="Path_276" data-name="Path 276" class="cls-175" d="M334.65,680.84h0l105.54,96.49H107.1Z" transform="translate(8)"/><path id="Path_277" data-name="Path 277" class="cls-136" d="M387.77,523.85h0l132.55,156.5h0l-80.12,97L387.75,523.86Z" transform="translate(8)"/><path id="Path_278" data-name="Path 278" class="cls-109" d="M387.76,523.83l-53.09,157-2.46-286.48Z" transform="translate(8)"/><path id="Path_279" data-name="Path 279" class="cls-108" d="M332.21,394.34l2.46,286.48h0L218.12,539.34l114.09-145Z" transform="translate(8)"/><path id="Path_280" data-name="Path 280" class="cls-74" d="M387.76,523.83,332.21,394.34h0l222.12,25L387.79,523.83h0Z" transform="translate(8)"/><path id="Path_281" data-name="Path 281" class="cls-47" d="M242.67,334.85l89.09-84,.45,143.49h0Z" transform="translate(8)"/><path id="Path_282" data-name="Path 282" class="cls-66" d="M218.12,539.34h0l24.54-204.49h0l89.54,59.49Z" transform="translate(8)"/><path id="Path_283" data-name="Path 283" class="cls-48" d="M554.33,419.34l-222.12-25-.45-143.49h0Z" transform="translate(8)"/><path id="Path_284" data-name="Path 284" class="cls-23" d="M242.67,334.83h0L175.13,139.34l148.09-64h0Z" transform="translate(8)"/><path id="Path_287" data-name="Path 287" class="cls-5" d="M331.79,250.83h0L323.24,75.34h0l226.12,53Z" transform="translate(8)"/><path id="Path_289" data-name="Path 289" class="cls-8" d="M323.21,75.34l8.55,175.49-89.09,84Z" transform="translate(8)"/><path id="Path_290" data-name="Path 290" class="cls-147" d="M548.9,901.83l-155.11,41,77.74,134.66h26.71Z" transform="translate(8)"/><path id="Path_291" data-name="Path 291" class="cls-121" d="M616.45,1077.49,548.9,901.83l-50.66,175.66Z" transform="translate(8)"/><path id="Path_292" data-name="Path 292" class="cls-104" d="M789,906.84h0l-240.1-5,67.55,175.65h10.46Z" transform="translate(8)"/><path id="Path_293" data-name="Path 293" class="cls-156" d="M520.33,680.34h0L548.9,901.83l-155.11,41Z" transform="translate(8)"/><path id="Path_294" data-name="Path 294" class="cls-119" d="M789,906.83l-240.1-5,123.55-62.49h0Z" transform="translate(8)"/><path id="Path_295" data-name="Path 295" class="cls-132" d="M672.45,839.34,548.9,901.83h0L520.36,680.34Z" transform="translate(8)"/><path id="Path_296" data-name="Path 296" class="cls-72" d="M591.9,548.83,554.36,419.34l135.09-25L591.9,548.83Z" transform="translate(8)"/><path id="Path_297" data-name="Path 297" class="cls-111" d="M387.79,523.83l204.11,25h0L520.36,680.31h0Z" transform="translate(8)"/><path id="Path_298" data-name="Path 298" class="cls-88" d="M708,663.82l-116.1-115,97.55-154.49h0Z" transform="translate(8)"/><path id="Path_299" data-name="Path 299" class="cls-81" d="M554.36,419.34,591.9,548.83l-204.11-25L554.33,419.34h0Z" transform="translate(8)"/><path id="Path_300" data-name="Path 300" class="cls-101" d="M708,663.82h0L672.46,839.3h0L591.91,548.82h0Z" transform="translate(8)"/><path id="Path_301" data-name="Path 301" class="cls-117" d="M520.36,680.31,591.9,548.83l80.55,290.48Z" transform="translate(8)"/><path id="Path_302" data-name="Path 302" class="cls-42" d="M554.36,419.31,519.9,304.83l169.55,89.48Z" transform="translate(8)"/><path id="Path_303" data-name="Path 303" class="cls-10" d="M519.9,304.83h0l29.46-176.49,148.09,97Z" transform="translate(8)"/><path id="Path_304" data-name="Path 304" class="cls-34" d="M816,316.84,689.46,394.32h0L519.91,304.84h0l296.1,12Z" transform="translate(8)"/><path id="Path_305" data-name="Path 305" class="cls-19" d="M816,316.83l-296.1-12,177.55-79.49h0Z" transform="translate(8)"/><path id="Path_306" data-name="Path 306" class="cls-14" d="M549.36,128.34,519.9,304.83l-188.11-54L549.33,128.34h0Z" transform="translate(8)"/><path id="Path_307" data-name="Path 307" class="cls-39" d="M554.36,419.31h0L331.81,250.81h0l188.11,54h0Z" transform="translate(8)"/><path id="Path_314" data-name="Path 314" class="cls-67" d="M815.57,1046.34,789,906.85h0L626.92,1077.49h32Z" transform="translate(8)"/><path id="Path_315" data-name="Path 315" class="cls-54" d="M967.11,942.85,815.57,1046.34h0L789,906.85Z" transform="translate(8)"/><path id="Path_316" data-name="Path 316" class="cls-50" d="M836.32,1077.49l-20.75-31.15-5.42,31.15Z" transform="translate(8)"/><path id="Path_317" data-name="Path 317" class="cls-47" d="M939.72,1077.49l-124.15-31.15,20.75,31.15Z" transform="translate(8)"/><path id="Path_318" data-name="Path 318" class="cls-57" d="M815.57,1046.34l-156.64,31.15H810.15Z" transform="translate(8)"/><path id="Path_319" data-name="Path 319" class="cls-29" d="M1044.86,1077.49,967.12,942.85h0L815.57,1046.34l124.15,31.15Z" transform="translate(8)"/><path id="Path_320" data-name="Path 320" class="cls-43" d="M855.57,709.34l183.08,86L967.11,942.82Z" transform="translate(8)"/><path id="Path_321" data-name="Path 321" class="cls-85" d="M855.57,709.34h0L708,663.85l252.09-116Z" transform="translate(8)"/><path id="Path_322" data-name="Path 322" class="cls-89" d="M708,663.84h0l147.55,45.49-183.1,130h0Z" transform="translate(8)"/><path id="Path_323" data-name="Path 323" class="cls-87" d="M855.57,709.34,789,906.83h0L672.45,839.34l183.1-130Z" transform="translate(8)"/><path id="Path_324" data-name="Path 324" class="cls-60" d="M967.11,942.82h0L789,906.82l66.55-197.49Z" transform="translate(8)"/><path id="Path_325" data-name="Path 325" class="cls-37" d="M960.11,547.85h0l78.55,247.47h0l-183.08-86Z" transform="translate(8)"/><path id="Path_326" data-name="Path 326" class="cls-49" d="M960.11,547.83,708,663.83,855.57,507.34l104.54,40.48Z" transform="translate(8)"/><path id="Path_327" data-name="Path 327" class="cls-57" d="M708,663.82h0L689.45,394.34l166.1,113h0Z" transform="translate(8)"/><path id="Path_328" data-name="Path 328" class="cls-27" d="M855.57,507.34h0l202.08-82L960.11,547.82Z" transform="translate(8)"/><path id="Path_329" data-name="Path 329" class="cls-21" d="M1057.66,425.33h0l-202.08,82L990.11,223.85h0Z" transform="translate(8)"/><path id="Path_330" data-name="Path 330" class="cls-36" d="M689.47,394.34h0L816,316.84h0l39.55,190.49Z" transform="translate(8)"/><path id="Path_331" data-name="Path 331" class="cls-22" d="M855.57,507.34,816,316.85l174.09-93Z" transform="translate(8)"/><path id="Path_338" data-name="Path 338" class="cls-8" d="M1038.69,795.34l139.08-44,28.46,155.49h0L1038.68,795.34Z" transform="translate(8)"/><path id="Path_340" data-name="Path 340" class="cls-14" d="M1206.23,906.83l-239.09,36,71.54-147.49Z" transform="translate(8)"/><path id="Path_343" data-name="Path 343" class="cls-4" d="M1206.23,906.83l-239.09,36h0l77.74,134.66h39.76Z" transform="translate(8)"/><path id="Path_344" data-name="Path 344" class="cls-8" d="M1177.77,751.31l-139.09,44,139.55-230.48Z" transform="translate(8)"/><path id="Path_345" data-name="Path 345" class="cls-12" d="M960.14,547.83l97.54-122.49,120.55,139.49Z" transform="translate(8)"/><path id="Path_346" data-name="Path 346" class="cls-25" d="M960.13,547.84h0l218.09,17h0L1038.68,795.31h0Z" transform="translate(8)"/></g></g></g></g></svg>