<svg xmlns="http://www.w3.org/2000/svg" viewBox="0 0 1205.85 1002.15"><defs><style>.cls-1{fill:#eeefef;}.cls-2{fill:#abafb2;}.cls-3{fill:#b8bbbe;}.cls-4{fill:#d0d2d3;}.cls-5{fill:#c2c5c7;}.cls-6{fill:#d3d5d7;}.cls-7{fill:#868b90;}.cls-8{fill:#6a7076;}.cls-9{fill:#5e646b;}.cls-10{fill:#6b7177;}.cls-11{fill:#484f56;}.cls-12{fill:#909499;}.cls-13{fill:#40474f;}.cls-14{fill:#131c25;}.cls-15{fill:#06101a;}.cls-16{fill:#050f19;}.cls-17{fill:#061019;}.cls-18{fill:#293139;}.cls-19{fill:#888c91;}.cls-20{fill:#92969a;}.cls-21{fill:#a1a4a8;}.cls-22{fill:#ced0d2;}.cls-23{fill:#a8acaf;}.cls-24{fill:#b3b6b9;}.cls-25{fill:#666c72;}.cls-26{fill:#8a8f94;}.cls-27{fill:#c0c3c5;}.cls-28{fill:#4b5259;}.cls-29{fill:#4a5158;}.cls-30{fill:#2a333b;}.cls-31{fill:#161f28;}.cls-32{fill:#242d35;}.cls-33{fill:#172029;}.cls-34{fill:#0a141d;}.cls-35{fill:#030c16;}.cls-36{fill:#040e18;}.cls-37{fill:#787e83;}.cls-38{fill:#585f65;}.cls-39{fill:#464d54;}.cls-40{fill:#858a8e;}.cls-41{fill:#565d63;}.cls-42{fill:#656b71;}.cls-43{fill:#4d545b;}.cls-44{fill:#363e46;}.cls-45{fill:#303840;}.cls-46{fill:#434a51;}.cls-47{fill:#545a61;}.cls-48{fill:#131c26;}.cls-49{fill:#0f1822;}.cls-50{fill:#09121c;}.cls-51{fill:#07111a;}.cls-52{fill:#121b24;}.cls-53{fill:#252d36;}.cls-54{fill:#1c252d;}.cls-55{fill:#18212b;}.cls-56{fill:#1e262f;}.cls-57{fill:#0d1620;}.cls-58{fill:#141d26;}.cls-59{fill:#333b44;}.cls-60{fill:#373f47;}.cls-61{fill:#353d45;}.cls-62{fill:#202831;}.cls-63{fill:#111a23;}.cls-64{fill:#18212a;}.cls-65{fill:#0c151f;}.cls-66{fill:#09131d;}.cls-67{fill:#101923;}.cls-68{fill:#0a131d;}.cls-69{fill:#020c16;}.cls-70{fill:#0b151e;}</style></defs><g id="Layer_2" data-name="Layer 2"><g id="Layer_342" data-name="Layer 342"><g id="Layer_342-2" data-name="Layer 342"><path id="Path_242" data-name="Path 242" class="cls-1" d="M966.58,251.65h0l153.09-55L1101.92,0h-17.26Z"/><path id="Path_243" data-name="Path 243" class="cls-2" d="M1099.14,300.15h106.71V249l-86.17-52.29Z"/><path id="Path_244" data-name="Path 244" class="cls-3" d="M1119.68,196.66,1205.85,249V176.58Z"/><path id="Path_245" data-name="Path 245" class="cls-4" d="M966.59,251.66l153.09-55-20.54,103.49h0Z"/><path id="Path_246" data-name="Path 246" class="cls-5" d="M1119.68,196.66l86.17-20.08V81.72Z"/><path id="Path_247" data-name="Path 247" class="cls-6" d="M1101.92,0l17.76,196.66,86.17-114.94V0Z"/><path id="Path_248" data-name="Path 248" class="cls-7" d="M1099.14,300.18l20.54,118.48,86.17-59.86V300.18Z"/><path id="Path_249" data-name="Path 249" class="cls-8" d="M1119.68,418.66l86.17,25.56V358.8Z"/><path id="Path_250" data-name="Path 250" class="cls-9" d="M1119.68,418.66l86.17,178.55v-153Z"/><path id="Path_251" data-name="Path 251" class="cls-10" d="M871.59,396.67l248.09,22L988.14,538.15h0Z"/><path id="Path_252" data-name="Path 252" class="cls-11" d="M988.14,538.15l217.71,86.49V597.21l-86.17-178.55Z"/><path id="Path_253" data-name="Path 253" class="cls-12" d="M871.59,396.67h0l227.54-96.48h0l20.54,118.49h0Z"/><path id="Path_254" data-name="Path 254" class="cls-13" d="M963.59,742.66h0l24.54-204.48h0l144.54,234.48h0Z"/><path id="Path_255" data-name="Path 255" class="cls-14" d="M1132.68,772.66l73.17,6.94V657.06Z"/><path id="Path_256" data-name="Path 256" class="cls-15" d="M1132.68,772.66l73.17,88V779.6Z"/><path id="Path_257" data-name="Path 257" class="cls-16" d="M1031.14,938.15l174.71,16.18V860.66l-73.17-88Z"/><path id="Path_258" data-name="Path 258" class="cls-17" d="M963.59,742.66l169.09,30L1031.14,938.15h0Z"/><path id="Path_259" data-name="Path 259" class="cls-18" d="M988.14,538.18l144.54,234.48,73.17-115.6V624.67Z"/><path id="Path_266" data-name="Path 266" class="cls-19" d="M734.71,0l77.74,134.65h0L967,53.16,808.76,0Z"/><path id="Path_267" data-name="Path 267" class="cls-6" d="M966.56,251.64h0L1084.65,0H1050.6L967,53.15Z"/><path id="Path_268" data-name="Path 268" class="cls-20" d="M808.76,0,967,53.15,934.09,0Z"/><path id="Path_269" data-name="Path 269" class="cls-21" d="M934.09,0,967,53.15,974.8,0Z"/><path id="Path_270" data-name="Path 270" class="cls-22" d="M812.47,134.64,967,53.15h0l-.45,198.49Z"/><path id="Path_271" data-name="Path 271" class="cls-23" d="M967,53.15,1050.6,0H974.8Z"/><path id="Path_272" data-name="Path 272" class="cls-24" d="M766,300.15l46.45-165.49,154.09,117Z"/><path id="Path_273" data-name="Path 273" class="cls-25" d="M871.56,396.64l-53.09,157L766,300.15h0Z"/><path id="Path_274" data-name="Path 274" class="cls-26" d="M812.47,134.66,766,300.15h0l-80.12,97L812.44,134.66h0Z"/><path id="Path_275" data-name="Path 275" class="cls-27" d="M966.57,251.66h0l132.54,48.49H766l200.54-48.49Z"/><path id="Path_276" data-name="Path 276" class="cls-21" d="M871.58,396.65h0L766,300.16h333.09Z"/><path id="Path_277" data-name="Path 277" class="cls-8" d="M818.46,553.64h0L685.91,397.14h0l80.12-97,52.45,253.49Z"/><path id="Path_278" data-name="Path 278" class="cls-28" d="M818.47,553.66l53.09-157L874,683.14Z"/><path id="Path_279" data-name="Path 279" class="cls-29" d="M874,683.15l-2.46-286.48h0L988.11,538.15,874,683.15Z"/><path id="Path_280" data-name="Path 280" class="cls-30" d="M818.47,553.66,874,683.15h0l-222.12-25L818.44,553.66h0Z"/><path id="Path_281" data-name="Path 281" class="cls-31" d="M963.56,742.64l-89.09,84L874,683.15h0Z"/><path id="Path_282" data-name="Path 282" class="cls-32" d="M988.11,538.15h0L963.57,742.64h0L874,683.15Z"/><path id="Path_283" data-name="Path 283" class="cls-33" d="M651.9,658.15l222.12,25,.45,143.49h0Z"/><path id="Path_284" data-name="Path 284" class="cls-34" d="M963.56,742.66h0l67.54,195.49-148.09,64h0Z"/><path id="Path_287" data-name="Path 287" class="cls-35" d="M874.44,826.66h0L883,1002.15h0l-226.12-53Z"/><path id="Path_289" data-name="Path 289" class="cls-36" d="M883,1002.15l-8.55-175.49,89.09-84Z"/><path id="Path_290" data-name="Path 290" class="cls-37" d="M657.33,175.66l155.11-41L734.7,0H708Z"/><path id="Path_291" data-name="Path 291" class="cls-38" d="M589.78,0l67.55,175.66L708,0Z"/><path id="Path_292" data-name="Path 292" class="cls-39" d="M417.23,170.65h0l240.1,5L589.78,0H579.32Z"/><path id="Path_293" data-name="Path 293" class="cls-40" d="M685.9,397.15h0L657.33,175.66l155.11-41Z"/><path id="Path_294" data-name="Path 294" class="cls-41" d="M417.23,170.66l240.1,5L533.78,238.15h0Z"/><path id="Path_295" data-name="Path 295" class="cls-42" d="M533.78,238.15l123.55-62.49h0l28.54,221.49Z"/><path id="Path_296" data-name="Path 296" class="cls-18" d="M614.33,528.66l37.54,129.49-135.09,25,97.55-154.49Z"/><path id="Path_297" data-name="Path 297" class="cls-43" d="M818.44,553.66l-204.11-25h0l71.54-131.48h0Z"/><path id="Path_298" data-name="Path 298" class="cls-44" d="M498.23,413.67l116.1,115L516.78,683.16h0Z"/><path id="Path_299" data-name="Path 299" class="cls-45" d="M651.87,658.15,614.33,528.66l204.11,25L651.9,658.15h0Z"/><path id="Path_300" data-name="Path 300" class="cls-46" d="M498.23,413.67h0l35.54-175.48h0l80.55,290.48h0Z"/><path id="Path_301" data-name="Path 301" class="cls-47" d="M685.87,397.18,614.33,528.66,533.78,238.18Z"/><path id="Path_302" data-name="Path 302" class="cls-48" d="M651.87,658.18l34.46,114.48L516.78,683.18Z"/><path id="Path_303" data-name="Path 303" class="cls-16" d="M686.33,772.66h0L656.87,949.15l-148.09-97Z"/><path id="Path_304" data-name="Path 304" class="cls-49" d="M390.23,760.65l126.54-77.48h0l169.55,89.48h0l-296.1-12Z"/><path id="Path_305" data-name="Path 305" class="cls-50" d="M390.23,760.66l296.1,12L508.78,852.15h0Z"/><path id="Path_306" data-name="Path 306" class="cls-51" d="M656.87,949.15l29.46-176.49,188.11,54L656.9,949.15h0Z"/><path id="Path_307" data-name="Path 307" class="cls-52" d="M651.87,658.18h0l222.55,168.5h0l-188.11-54h0Z"/><path id="Path_314" data-name="Path 314" class="cls-53" d="M390.66,31.15l26.57,139.49h0L579.31,0h-32Z"/><path id="Path_315" data-name="Path 315" class="cls-54" d="M239.12,134.64,390.66,31.15h0l26.57,139.49Z"/><path id="Path_316" data-name="Path 316" class="cls-55" d="M369.91,0l20.75,31.15L396.08,0Z"/><path id="Path_317" data-name="Path 317" class="cls-31" d="M266.51,0,390.66,31.15,369.91,0Z"/><path id="Path_318" data-name="Path 318" class="cls-56" d="M390.66,31.15,547.3,0H396.08Z"/><path id="Path_319" data-name="Path 319" class="cls-57" d="M161.37,0l77.74,134.64h0L390.66,31.15,266.51,0Z"/><path id="Path_320" data-name="Path 320" class="cls-58" d="M350.66,368.15l-183.08-86,71.54-147.48Z"/><path id="Path_321" data-name="Path 321" class="cls-59" d="M350.66,368.15h0l147.57,45.49-252.09,116Z"/><path id="Path_322" data-name="Path 322" class="cls-60" d="M498.23,413.65h0L350.68,368.16l183.1-130h0Z"/><path id="Path_323" data-name="Path 323" class="cls-61" d="M350.66,368.15l66.57-197.49h0l116.55,67.49-183.1,130Z"/><path id="Path_324" data-name="Path 324" class="cls-62" d="M239.12,134.67h0l178.09,36L350.66,368.16Z"/><path id="Path_325" data-name="Path 325" class="cls-63" d="M246.12,529.64h0L167.57,282.17h0l183.08,86Z"/><path id="Path_326" data-name="Path 326" class="cls-64" d="M246.12,529.66l252.09-116L350.66,570.15,246.12,529.67Z"/><path id="Path_327" data-name="Path 327" class="cls-56" d="M498.23,413.67h0l18.55,269.48-166.1-113h0Z"/><path id="Path_328" data-name="Path 328" class="cls-65" d="M350.66,570.15h0l-202.08,82,97.54-122.48Z"/><path id="Path_329" data-name="Path 329" class="cls-66" d="M148.57,652.16h0l202.08-82L216.12,853.64h0Z"/><path id="Path_330" data-name="Path 330" class="cls-67" d="M516.76,683.15h0l-126.53,77.5h0L350.68,570.16Z"/><path id="Path_331" data-name="Path 331" class="cls-68" d="M350.66,570.15l39.57,190.49-174.09,93Z"/><path id="Path_338" data-name="Path 338" class="cls-36" d="M167.54,282.15l-139.08,44L0,170.66H0L167.55,282.15Z"/><path id="Path_340" data-name="Path 340" class="cls-51" d="M0,170.66l239.09-36L167.55,282.15Z"/><path id="Path_343" data-name="Path 343" class="cls-69" d="M0,170.66l239.09-36h0L161.35,0H121.59Z"/><path id="Path_344" data-name="Path 344" class="cls-36" d="M28.46,326.18l139.09-44L28,512.66Z"/><path id="Path_345" data-name="Path 345" class="cls-15" d="M246.09,529.66,148.55,652.15,28,512.66Z"/><path id="Path_346" data-name="Path 346" class="cls-70" d="M246.1,529.65h0L28,512.65h0L167.55,282.18h0Z"/></g></g></g></svg>