<svg xmlns="http://www.w3.org/2000/svg" viewBox="0 0 1920 683.15"><defs><style>.cls-1{fill:#0b4f4d;}.cls-2{fill:#073336;}.cls-3{fill:#083638;}.cls-4{fill:#083a3c;}.cls-5{fill:#073437;}.cls-6{fill:#083c3d;}.cls-7{fill:#02121b;}.cls-8{fill:#041e25;}.cls-9{fill:#11746b;}.cls-10{fill:#0c5250;}.cls-11{fill:#0d5956;}.cls-12{fill:#0c5452;}.cls-13{fill:#0e635e;}.cls-14{fill:#062b2f;}.cls-15{fill:#0f6661;}.cls-16{fill:#0a4948;}.cls-17{fill:#08393b;}.cls-18{fill:#14857a;}.cls-19{fill:#158e81;}.cls-20{fill:#18a393;}.cls-21{fill:#127e74;}.cls-22{fill:#179e8f;}.cls-23{fill:#14897d;}.cls-24{fill:#041c23;}.cls-25{fill:#0d5855;}.cls-26{fill:#0c5351;}.cls-27{fill:#1ab19e;}.cls-28{fill:#1dc0ab;}.cls-29{fill:#1aad9b;}.cls-30{fill:#19a998;}.cls-31{fill:#1fd0b8;}.cls-32{fill:#18a292;}.cls-33{fill:#0e5e5a;}.cls-34{fill:#127a70;}.cls-35{fill:#18a493;}.cls-36{fill:#1bb5a2;}.cls-37{fill:#158d80;}.cls-38{fill:#083739;}.cls-39{fill:#073538;}.cls-40{fill:#031921;}.cls-41{fill:#1bb4a1;}.cls-42{fill:#20d8be;}.cls-43{fill:#1bb9a5;}.cls-44{fill:#24f2d4;}.cls-45{fill:#23ebce;}.cls-46{fill:#21dbc1;}.cls-47{fill:#127b71;}.cls-48{fill:#05242a;}.cls-49{fill:#14887c;}.cls-50{fill:#0c514f;}.cls-51{fill:#1bb8a4;}.cls-52{fill:#1dc1ac;}.cls-53{fill:#1fd1b9;}.cls-54{fill:#1bb7a3;}.cls-55{fill:#1aae9c;}.cls-56{fill:#17998a;}.cls-57{fill:#1dc4ae;}.cls-58{fill:#1ec7b0;}.cls-59{fill:#158c80;}.cls-60{fill:#159184;}.cls-61{fill:#1aac9a;}.cls-62{fill:#179a8b;}.cls-63{fill:#0f645f;}.cls-64{fill:#073235;}.cls-65{fill:#0a4847;}.cls-66{fill:#127c72;}.cls-67{fill:#137f75;}.cls-68{fill:#0f6560;}.cls-69{fill:#107169;}.cls-70{fill:#0d5b57;}.cls-71{fill:#0e5f5b;}.cls-72{fill:#0f6963;}.cls-73{fill:#0c5552;}</style></defs><g id="Layer_2" data-name="Layer 2"><g id="Layer_343" data-name="Layer 343"><polygon class="cls-1" points="1680.73 431.5 1680.74 431.49 1833.83 486.49 1816.07 683.15 1798.81 683.15 1680.73 431.5"/><polygon class="cls-2" points="1813.29 383 1920 383 1920 434.2 1833.83 486.49 1813.29 383"/><polygon class="cls-3" points="1833.83 486.49 1920 434.2 1920 506.57 1833.83 486.49"/><polygon class="cls-4" points="1680.74 431.49 1833.83 486.49 1813.29 383 1813.28 383 1680.74 431.49"/><polygon class="cls-5" points="1833.83 486.49 1920 506.57 1920 601.43 1833.83 486.49"/><polygon class="cls-6" points="1816.07 683.15 1833.83 486.49 1920 601.43 1920 683.15 1816.07 683.15"/><polygon class="cls-7" points="1813.29 382.97 1833.83 264.49 1920 324.35 1920 382.97 1813.29 382.97"/><polygon class="cls-8" points="1585.74 286.49 1585.73 286.5 1813.27 382.98 1813.27 382.98 1813.29 382.98 1833.83 264.49 1833.83 264.49 1585.74 286.49"/><polygon class="cls-9" points="1448.86 683.15 1526.6 548.5 1526.61 548.51 1526.62 548.51 1681.16 630 1522.91 683.15 1448.86 683.15"/><polygon class="cls-10" points="1680.71 431.51 1680.72 431.51 1680.73 431.5 1798.8 683.15 1764.75 683.15 1681.16 630 1680.71 431.51"/><polygon class="cls-11" points="1522.91 683.15 1681.16 630 1648.24 683.15 1522.91 683.15"/><polygon class="cls-12" points="1648.24 683.15 1681.16 630 1688.95 683.15 1648.24 683.15"/><polygon class="cls-13" points="1526.62 548.51 1681.16 630 1681.16 630 1680.71 431.51 1526.62 548.51"/><polygon class="cls-1" points="1681.16 630 1764.75 683.15 1688.95 683.15 1681.16 630"/><polygon class="cls-11" points="1480.16 383 1526.62 548.49 1680.71 431.49 1480.16 383"/><polygon class="cls-14" points="1585.71 286.51 1532.62 129.51 1480.16 383 1480.16 383 1585.71 286.51"/><polygon class="cls-15" points="1526.62 548.49 1480.16 383 1480.16 383 1400.05 286 1526.59 548.49 1526.59 548.49 1526.6 548.5 1526.61 548.49 1526.62 548.49"/><polygon class="cls-1" points="1680.71 431.49 1680.71 431.49 1813.26 383 1480.16 383 1480.16 383 1680.71 431.49 1680.71 431.49"/><polygon class="cls-16" points="1585.73 286.51 1585.72 286.51 1585.71 286.51 1480.16 383 1813.26 383 1813.27 382.99 1585.73 286.51"/><polygon class="cls-17" points="1532.61 129.51 1532.6 129.5 1400.05 286 1400.05 286 1480.16 383 1532.62 129.51 1532.61 129.51"/><polygon class="cls-18" points="1371.48 507.49 1526.59 548.49 1448.85 683.15 1422.14 683.15 1371.48 507.49"/><polygon class="cls-19" points="1303.93 683.15 1371.48 507.49 1422.14 683.15 1303.93 683.15"/><polygon class="cls-20" points="1131.38 512.5 1131.38 512.49 1371.48 507.49 1303.93 683.15 1293.47 683.15 1131.38 512.5"/><polygon class="cls-21" points="1400.05 286 1400.04 285.99 1400.04 286 1400.02 286 1371.48 507.49 1526.59 548.49 1400.05 286 1400.05 286"/><polygon class="cls-22" points="1131.38 512.49 1371.48 507.49 1247.93 445 1247.93 445 1131.38 512.49"/><polygon class="cls-23" points="1247.93 445 1371.48 507.49 1371.48 507.49 1400.02 286 1247.93 445"/><polygon class="cls-24" points="1212.38 269.49 1328.48 154.49 1230.93 0 1230.93 0 1212.38 269.49"/><polygon class="cls-25" points="1212.38 269.49 1212.38 269.5 1247.92 444.98 1247.92 444.98 1247.93 444.98 1328.48 154.49 1328.48 154.49 1212.38 269.49"/><polygon class="cls-26" points="1400.02 285.98 1328.48 154.49 1247.93 444.98 1400.02 285.98"/><polygon class="cls-27" points="1104.81 652 1131.36 512.51 1131.37 512.51 1293.46 683.15 1261.45 683.15 1104.81 652"/><polygon class="cls-28" points="953.27 548.51 1104.81 652 1104.81 652 1131.36 512.51 953.27 548.51"/><polygon class="cls-29" points="1084.06 683.15 1104.81 652 1110.23 683.15 1084.06 683.15"/><polygon class="cls-27" points="980.66 683.15 1104.81 652 1084.06 683.15 980.66 683.15"/><polygon class="cls-30" points="1104.81 652 1261.45 683.15 1110.23 683.15 1104.81 652"/><polygon class="cls-31" points="875.52 683.15 953.26 548.51 953.27 548.51 1104.81 652 980.66 683.15 875.52 683.15"/><polygon class="cls-32" points="1064.81 315 881.73 401 953.27 548.49 1064.81 315 1064.81 315"/><polygon class="cls-33" points="1064.81 315 1064.81 315 1212.36 269.51 960.27 153.51 1064.81 315"/><polygon class="cls-34" points="1212.37 269.51 1212.37 269.51 1212.36 269.51 1064.81 315 1247.91 445 1247.91 444.99 1212.37 269.51"/><polygon class="cls-35" points="1064.81 315 1131.36 512.49 1131.36 512.49 1131.36 512.49 1247.91 445 1064.81 315 1064.81 315"/><polygon class="cls-36" points="953.27 548.49 953.27 548.49 953.27 548.49 1131.36 512.49 1064.81 315 953.27 548.49"/><polygon class="cls-37" points="960.27 153.51 960.26 153.51 881.72 400.99 881.73 401 1064.81 315 960.27 153.51"/><polygon class="cls-38" points="960.27 153.49 1212.36 269.49 1064.81 113 960.27 153.49 960.27 153.49 960.27 153.49"/><polygon class="cls-39" points="1212.36 269.49 1212.36 269.49 1212.36 269.49 1230.91 0 1064.81 113 1064.81 113 1212.36 269.49"/><polygon class="cls-40" points="1064.81 113 1064.81 113 862.73 31 960.27 153.49 1064.81 113"/><polygon class="cls-41" points="881.7 401 742.61 357 714.15 512.49 714.15 512.49 881.7 401 881.7 401"/><polygon class="cls-42" points="742.6 357 597.06 595.49 714.15 512.49 742.61 357 742.6 357"/><polygon class="cls-43" points="714.15 512.49 953.24 548.49 881.7 401 714.15 512.49"/><polygon class="cls-44" points="597.05 595.51 597.05 595.5 597.06 595.49 714.15 512.49 673.88 683.15 648.49 683.15 597.05 595.51"/><polygon class="cls-45" points="714.15 512.49 953.24 548.49 953.25 548.5 875.5 683.15 835.74 683.15 714.15 512.49"/><polygon class="cls-46" points="673.88 683.15 714.15 512.49 835.74 683.15 673.88 683.15"/><polygon class="cls-47" points="742.61 356.98 881.7 400.98 742.15 170.49 742.61 356.98"/><polygon class="cls-48" points="960.24 153.49 862.7 31 742.15 170.49 960.24 153.49"/><polygon class="cls-49" points="960.25 153.5 960.24 153.49 742.15 170.49 742.15 170.49 881.7 400.98 881.71 400.98 960.25 153.5"/><polygon class="cls-50" points="742.15 170.49 542.06 173.49 542.05 173.5 742.59 356.98 742.6 356.98 742.61 356.98 742.15 170.49 742.15 170.49"/><polygon class="cls-51" points="259.18 683.15 392.92 477.5 392.93 477.51 392.94 477.51 397.49 652 312.72 683.15 259.18 683.15"/><polygon class="cls-52" points="392.94 477.51 397.49 652 397.49 652 597.03 595.51 392.94 477.51"/><polygon class="cls-53" points="397.49 652 597.03 595.51 597.05 595.51 648.49 683.15 532.7 683.15 397.49 652"/><polygon class="cls-54" points="397.49 652 532.7 683.15 421.25 683.15 397.49 652"/><polygon class="cls-55" points="312.72 683.15 397.49 652 395.09 683.15 312.72 683.15"/><polygon class="cls-27" points="395.09 683.15 397.49 652 421.25 683.15 395.09 683.15"/><polygon class="cls-18" points="542.03 173.51 407.94 269.51 475.49 383 475.49 383 542.03 173.51"/><polygon class="cls-21" points="407.93 269.51 407.92 269.5 332.37 352 332.37 352 475.49 383 407.94 269.51 407.93 269.51"/><polygon class="cls-56" points="392.94 477.49 475.49 383 475.49 383 332.37 352 392.92 477.49 392.92 477.49 392.92 477.5 392.93 477.49 392.94 477.49"/><polygon class="cls-11" points="542.05 173.51 542.05 173.51 542.03 173.51 475.49 383 742.58 357 742.59 356.99 542.05 173.51"/><polygon class="cls-57" points="475.49 383 392.94 477.49 597.03 595.49 475.49 383"/><polygon class="cls-58" points="597.04 595.49 597.04 595.49 742.58 357 475.49 383 475.49 383 597.03 595.49 597.04 595.49"/><polygon class="cls-59" points="5.7 601.5 5.71 601.49 183.8 489.49 105.69 683.15 69.25 683.15 5.7 601.5"/><polygon class="cls-18" points="168.26 344 183.8 489.49 183.8 489.49 332.35 352 168.26 344"/><polygon class="cls-60" points="5.71 601.49 183.8 489.49 168.26 344 168.25 344 5.71 601.49"/><polygon class="cls-61" points="183.8 489.49 392.92 477.49 392.92 477.5 259.17 683.15 235.46 683.15 183.8 489.49"/><polygon class="cls-62" points="105.69 683.15 183.8 489.49 235.46 683.15 105.69 683.15"/><polygon class="cls-56" points="332.37 352 332.37 351.99 332.36 352 332.35 352 183.8 489.49 392.92 477.49 332.37 352 332.37 352"/><polygon class="cls-63" points="332.35 351.98 217.8 144.49 168.26 343.98 332.35 351.98"/><polygon class="cls-64" points="168.24 343.98 168.26 343.98 217.8 144.49 217.8 144.49 54.71 155.49 54.7 155.5 168.24 343.98 168.24 343.98"/><polygon class="cls-16" points="284.35 71 217.8 144.49 407.92 269.49 284.37 71 284.37 71 284.37 70.99 284.36 71 284.35 71"/><polygon class="cls-65" points="407.92 269.49 217.8 144.49 217.8 144.49 332.35 351.98 332.36 351.98 332.37 351.99 407.92 269.49 407.92 269.49"/><polygon class="cls-66" points="0 683.15 0 607.68 5.68 601.51 5.69 601.51 5.7 601.5 69.23 683.15 0 683.15"/><polygon class="cls-67" points="0 607.68 0 591.21 5.68 601.51 0 607.68"/><polygon class="cls-68" points="168.24 343.99 54.7 155.51 54.69 155.51 54.68 155.51 16.14 357 168.23 344 168.24 343.99"/><polygon class="cls-69" points="5.68 601.49 5.68 601.49 168.23 344 16.14 357 16.14 357 5.68 601.49 5.68 601.49"/><polygon class="cls-70" points="0 358.37 0 346.26 16.13 357 0 358.37"/><polygon class="cls-71" points="0 399.12 0 358.37 16.13 357 0 399.12"/><polygon class="cls-72" points="0 591.19 0 399.12 16.13 357 5.68 601.49 0 591.19"/><polygon class="cls-73" points="0 346.26 0 169.18 54.68 155.51 16.13 357 0 346.26"/></g></g></svg>