<svg xmlns="http://www.w3.org/2000/svg" viewBox="0 0 1212.38 775.85"><defs><style>.cls-1{fill:#010b15;}.cls-2{fill:#3d1314;}.cls-3{fill:#341214;}.cls-4{fill:#311114;}.cls-5{fill:#3e1314;}.cls-6{fill:#4c1514;}.cls-7{fill:#621813;}.cls-8{fill:#711a13;}.cls-9{fill:#661813;}.cls-10{fill:#9f2012;}.cls-11{fill:#931e12;}.cls-12{fill:#ae2212;}.cls-13{fill:#391214;}.cls-14{fill:#7e1b13;}.cls-15{fill:#271014;}.cls-16{fill:#b52211;}.cls-17{fill:#591613;}.cls-18{fill:#471414;}.cls-19{fill:#5c1713;}.cls-20{fill:#ff462d;}.cls-21{fill:#ff4f37;}.cls-22{fill:#c62511;}.cls-23{fill:#c32411;}.cls-24{fill:#f62b10;}.cls-25{fill:#db2711;}.cls-26{fill:#5f1713;}.cls-27{fill:#af2212;}.cls-28{fill:#c12411;}.cls-29{fill:#3c1314;}.cls-30{fill:#821c12;}.cls-31{fill:#ff6c58;}.cls-32{fill:#ff3116;}.cls-33{fill:#ab2112;}.cls-34{fill:#ec2a10;}.cls-35{fill:#9c1f12;}.cls-36{fill:#e02811;}.cls-37{fill:#ffa99e;}.cls-38{fill:#ff5741;}.cls-39{fill:#ffb4aa;}.cls-40{fill:#da2711;}.cls-41{fill:#ff725f;}.cls-42{fill:#3f1314;}.cls-43{fill:#401314;}.cls-44{fill:#351214;}.cls-45{fill:#2c1114;}.cls-46{fill:#7b1b13;}.cls-47{fill:#a72112;}.cls-48{fill:#5e1713;}.cls-49{fill:#701913;}.cls-50{fill:#e42811;}.cls-51{fill:#ffa195;}.cls-52{fill:#ff9587;}.cls-53{fill:#d22611;}.cls-54{fill:#a62012;}.cls-55{fill:#691913;}.cls-56{fill:#981f12;}.cls-57{fill:#b12212;}.cls-58{fill:#ee2a10;}</style></defs><g id="Layer_2" data-name="Layer 2"><g id="Layer_341" data-name="Layer 341"><line class="cls-1" y1="109.51" x2="0.01" y2="109.5"/><polyline class="cls-1" points="180.57 0 180.57 0 343.66 9"/><polygon class="cls-2" points="180.57 0 180.57 0 0.03 109.49 252.12 225.49 180.57 0"/><line class="cls-1" x1="180.57" x2="180.57"/><polygon class="cls-3" points="252.12 225.49 252.13 225.49 343.66 9.01 343.66 9 180.57 0 252.12 225.49"/><polygon class="cls-4" points="252.11 225.51 0.03 109.51 205.57 338 252.11 225.52 252.11 225.51 252.11 225.51"/><polygon class="cls-5" points="205.57 338 205.57 338 381.66 388 252.11 225.52 205.57 338"/><polygon class="cls-6" points="381.66 388.01 381.66 388 205.57 338 282.12 549.49 282.13 549.49 381.66 388.01"/><polyline class="cls-1" points="343.69 9 343.69 9 487.77 15"/><line class="cls-1" x1="487.77" y1="15" x2="487.78" y2="15"/><polygon class="cls-7" points="487.77 15.02 343.68 9.02 410.23 249.51 487.77 15.02"/><polygon class="cls-8" points="252.14 225.51 381.69 388 410.23 249.51 252.14 225.51"/><polygon class="cls-9" points="252.14 225.5 252.14 225.51 410.23 249.51 410.23 249.51 343.68 9.02 343.68 9.02 252.14 225.5"/><polygon class="cls-10" points="609.77 293 609.78 293 542.32 136.51 410.23 249.51 609.77 293"/><polygon class="cls-11" points="410.23 249.51 542.32 136.51 542.33 136.5 487.79 15.02 487.79 15.02 487.77 15.02 410.23 249.51 410.23 249.51"/><polygon class="cls-12" points="410.23 249.51 381.69 388 381.69 388 609.77 293 410.23 249.51 410.23 249.51"/><polygon class="cls-13" points="681.32 506.51 558.23 438.51 579.77 645 579.78 645 681.32 506.51"/><polygon class="cls-9" points="558.23 438.51 435.69 627 435.69 627 579.77 645 558.23 438.51 558.23 438.51"/><polygon class="cls-14" points="558.23 438.51 609.77 293.02 381.68 388.02 558.23 438.51"/><polygon class="cls-15" points="435.69 627 558.23 438.51 282.14 549.51 435.69 627"/><polygon class="cls-16" points="609.79 293.02 609.77 293.02 558.23 438.51 558.23 438.51 681.32 506.51 681.33 506.5 609.79 293.02 609.79 293.02"/><polygon class="cls-17" points="381.68 388.02 381.68 388.02 282.14 549.5 282.14 549.51 558.23 438.51 558.23 438.51 381.68 388.02"/><polyline class="cls-1" points="579.77 645.03 579.78 645.03 579.79 645.02"/><line class="cls-1" x1="435.67" y1="627.03" x2="435.68" y2="627.03"/><polygon class="cls-18" points="542.35 136.49 804.44 109.49 744.89 9 744.89 9 542.35 136.49"/><polygon class="cls-19" points="804.45 109.49 804.46 109.5 880.01 27 880.01 27 744.89 9 804.44 109.49 804.45 109.49"/><polygon class="cls-9" points="542.33 136.49 542.34 136.49 542.35 136.49 744.89 9 487.8 15 487.79 15.01 542.33 136.49"/><polygon class="cls-20" points="804.44 109.51 794.89 308 794.89 308 928.01 308 804.47 109.51 804.47 109.51 804.46 109.5 804.45 109.51 804.44 109.51"/><polygon class="cls-21" points="928.01 308 794.89 308 850.44 534.49 850.45 534.49 850.46 534.5 928.01 308 928.01 308"/><polygon class="cls-22" points="804.44 109.51 542.35 136.51 794.89 308 804.44 109.51"/><polygon class="cls-23" points="609.8 293 609.79 293.01 681.33 506.49 681.34 506.49 681.35 506.49 794.89 308 609.8 293"/><polygon class="cls-24" points="681.35 506.49 850.44 534.49 794.89 308 794.89 308 681.35 506.49"/><polygon class="cls-25" points="542.35 136.51 609.8 293 794.89 308 794.89 308 542.35 136.51 542.35 136.51 542.35 136.51"/><polygon class="cls-26" points="681.35 506.51 681.35 506.51 681.35 506.51 579.8 645 686.89 691 686.89 691 681.35 506.51"/><polygon class="cls-27" points="686.89 691 850.44 534.51 681.35 506.51 686.89 691"/><polygon class="cls-28" points="850.47 534.51 850.46 534.5 850.45 534.51 850.44 534.51 686.89 691 686.89 691 936.01 711 850.47 534.51 850.47 534.51"/><polygon class="cls-29" points="936.01 711 936.01 711.01 891.93 775.85 825.6 775.85 686.89 691 936.01 711"/><line class="cls-1" x1="880.04" y1="27" x2="1044.13" y2="35"/><line class="cls-1" x1="1044.13" y1="35" x2="1044.13" y2="35"/><polyline class="cls-1" points="880.01 27 880.01 27 880.02 27.01 880.02 27 880.04 27"/><polygon class="cls-30" points="880.04 27.02 994.58 234.51 1044.13 35.02 880.04 27.02"/><polygon class="cls-31" points="994.58 234.51 928.04 308 1135.13 379 994.58 234.51 994.58 234.51"/><polygon class="cls-32" points="1135.13 379 1135.13 379 1157.68 223.51 994.58 234.51 1135.13 379"/><polygon class="cls-33" points="1044.14 35.02 1044.13 35.02 994.58 234.51 994.58 234.51 1157.68 223.51 1157.68 223.5 1044.14 35.02 1044.14 35.02"/><polygon class="cls-34" points="928.04 308 994.58 234.51 804.47 109.51 928.01 308 928.01 308 928.02 308.01 928.02 308 928.04 308"/><polygon class="cls-35" points="804.47 109.51 994.58 234.51 994.58 234.51 880.04 27.02 880.02 27.02 880.02 27.01 804.47 109.51 804.47 109.51"/><polygon class="cls-36" points="936.04 711 969.58 478.51 850.47 534.51 936.01 711 936.01 711 936.02 711.01 936.02 711 936.04 711"/><polygon class="cls-37" points="928.04 308.02 969.58 478.51 1135.13 379.02 928.04 308.02"/><polygon class="cls-38" points="1075.68 490.51 969.58 478.51 1036.13 645 1036.13 645 1075.68 490.51"/><polygon class="cls-39" points="1075.68 490.5 1135.14 379.02 1135.14 379.02 1135.13 379.02 969.58 478.51 969.58 478.51 1075.68 490.51 1075.68 490.5"/><polygon class="cls-40" points="969.58 478.51 969.58 478.51 936.04 711 1036.13 645 969.58 478.51"/><polygon class="cls-41" points="928.04 308.02 928.02 308.02 928.02 308.01 850.47 534.51 850.47 534.51 969.58 478.51 969.58 478.51 928.04 308.02"/><polygon class="cls-42" points="1055.58 760.51 1047.02 775.85 991.74 775.85 1055.58 760.51"/><polygon class="cls-43" points="1094.32 775.85 1059.85 775.85 1055.58 760.51 1094.32 775.85"/><polygon class="cls-44" points="1059.85 775.85 1047.02 775.85 1055.58 760.51 1059.85 775.85"/><polygon class="cls-45" points="1055.58 760.51 991.74 775.85 891.94 775.85 936.01 711.01 936.02 711.03 936.03 711.03 1055.58 760.51"/><polygon class="cls-46" points="1055.58 760.51 1036.13 645.02 936.04 711.02 1055.58 760.51"/><polygon class="cls-47" points="1175.62 775.85 1094.32 775.85 1055.58 760.51 1036.12 645.03 1036.14 645.03 1175.62 775.85"/><polygon class="cls-48" points="1044.15 35.01 1157.69 223.49 1157.69 223.49 1157.7 223.49 1196.25 22 1044.15 35 1044.15 35.01"/><polygon class="cls-1" points="1212.38 20.63 1212.38 32.74 1196.25 22 1212.38 20.63"/><polygon class="cls-49" points="1212.38 32.74 1212.38 209.82 1157.7 223.49 1196.25 22 1212.38 32.74"/><polygon class="cls-50" points="1212.38 309.08 1212.38 355.55 1135.15 379 1157.69 223.51 1157.7 223.51 1212.38 309.08"/><polygon class="cls-51" points="1212.38 379.28 1212.38 509.03 1075.7 490.49 1212.38 379.28"/><polygon class="cls-52" points="1212.38 355.55 1212.38 379.28 1075.7 490.49 1075.69 490.49 1075.68 490.5 1135.14 379.03 1135.14 379.01 1135.15 379 1212.38 355.55"/><polygon class="cls-53" points="1212.38 209.84 1212.38 309.08 1157.7 223.51 1212.38 209.84"/><polygon class="cls-54" points="1212.38 695.89 1212.38 707.66 1196.25 698 1212.38 695.89"/><polygon class="cls-55" points="1212.38 707.66 1212.38 775.85 1207.69 775.85 1196.25 698 1212.38 707.66"/><polygon class="cls-56" points="1207.69 775.85 1175.62 775.85 1036.14 645.03 1036.14 645.01 1036.15 645 1196.25 698 1207.69 775.85"/><polygon class="cls-57" points="1212.38 682.18 1212.38 695.89 1196.25 698 1212.38 682.18"/><polygon class="cls-20" points="1212.38 509.05 1212.38 682.18 1196.25 698 1075.7 490.51 1212.38 509.05"/><polygon class="cls-58" points="1075.7 490.51 1075.7 490.51 1036.15 645 1196.25 698 1196.25 698 1075.7 490.51 1075.7 490.51"/></g></g></svg>