<?xml version="1.0" encoding="utf-8"?>
<svg viewBox="0 0 1928 1086.98" xmlns="http://www.w3.org/2000/svg">
  <defs>
    <style>.cls-1{fill:#010b15;}.cls-2{fill:#020c16;}.cls-3{fill:#030c16;}.cls-4{fill:#030d17;}.cls-5{fill:#040e17;}.cls-6{fill:#040e18;}.cls-7{fill:#050e18;}.cls-8{fill:#050f19;}.cls-9{fill:#061019;}.cls-10{fill:#06101a;}.cls-11{fill:#07101a;}.cls-12{fill:#07111a;}.cls-13{fill:#07111b;}.cls-14{fill:#08111b;}.cls-15{fill:#08121b;}.cls-16{fill:#08121c;}.cls-17{fill:#09121c;}.cls-18{fill:#09131c;}.cls-19{fill:#09131d;}.cls-20{fill:#0a131d;}.cls-21{fill:#0a141d;}.cls-22{fill:#0b141e;}.cls-23{fill:#0b151e;}.cls-24{fill:#0b151f;}.cls-25{fill:#0c151f;}.cls-26{fill:#0c161f;}.cls-27{fill:#0d1620;}.cls-28{fill:#0d1720;}.cls-29{fill:#0e1721;}.cls-30{fill:#0e1821;}.cls-31{fill:#0f1821;}.cls-32{fill:#0f1822;}.cls-33{fill:#101922;}.cls-34{fill:#101923;}.cls-35{fill:#111a23;}.cls-36{fill:#111a24;}.cls-37{fill:#121b24;}.cls-38{fill:#121b25;}.cls-39{fill:#131c25;}.cls-40{fill:#131c26;}.cls-41{fill:#141d26;}.cls-42{fill:#141d27;}.cls-43{fill:#151e27;}.cls-44{fill:#151f28;}.cls-45{fill:#161f28;}.cls-46{fill:#172029;}.cls-47{fill:#18212a;}.cls-48{fill:#18212b;}.cls-49{fill:#19222b;}.cls-50{fill:#1a232c;}.cls-51{fill:#1b242d;}.cls-52{fill:#1c252d;}.cls-53{fill:#1c252e;}.cls-54{fill:#1d262f;}.cls-55{fill:#1e262f;}.cls-56{fill:#1e2730;}.cls-57{fill:#1f2831;}.cls-58{fill:#202831;}.cls-59{fill:#202932;}.cls-60{fill:#212a33;}.cls-61{fill:#222a33;}.cls-62{fill:#222b34;}.cls-63{fill:#232c35;}.cls-64{fill:#242d35;}.cls-65{fill:#252d36;}.cls-66{fill:#252e37;}.cls-67{fill:#262f37;}.cls-68{fill:#273038;}.cls-69{fill:#283039;}.cls-70{fill:#293139;}.cls-71{fill:#29323a;}.cls-72{fill:#2a333b;}.cls-73{fill:#2b333c;}.cls-74{fill:#2c343c;}.cls-75{fill:#2d353d;}.cls-76{fill:#2d363e;}.cls-77{fill:#2e373f;}.cls-78{fill:#2f3740;}.cls-79{fill:#303840;}.cls-80{fill:#313941;}.cls-81{fill:#323a42;}.cls-82{fill:#333b43;}.cls-83{fill:#333b44;}.cls-84{fill:#343c44;}.cls-85{fill:#353d45;}.cls-86{fill:#363e46;}.cls-87{fill:#373f47;}.cls-88{fill:#384048;}.cls-89{fill:#394149;}.cls-90{fill:#3a4249;}.cls-91{fill:#3b434a;}.cls-92{fill:#3c434b;}.cls-93{fill:#3d444c;}.cls-94{fill:#3e454d;}.cls-95{fill:#3f464e;}.cls-96{fill:#40474f;}.cls-97{fill:#414850;}.cls-98{fill:#424951;}.cls-99{fill:#434a51;}.cls-100{fill:#444b52;}.cls-101{fill:#454c53;}.cls-102{fill:#464d54;}.cls-103{fill:#474e55;}.cls-104{fill:#484f56;}.cls-105{fill:#495057;}.cls-106{fill:#4a5158;}.cls-107{fill:#4b5259;}.cls-108{fill:#4c535a;}.cls-109{fill:#4d545b;}.cls-110{fill:#4e555c;}.cls-111{fill:#4f565d;}.cls-112{fill:#50575e;}.cls-113{fill:#51585f;}.cls-114{fill:#525960;}.cls-115{fill:#545a61;}.cls-116{fill:#555b62;}.cls-117{fill:#565d63;}.cls-118{fill:#575e64;}.cls-119{fill:#585f65;}.cls-120{fill:#596066;}.cls-121{fill:#5a6167;}.cls-122{fill:#5c6268;}.cls-123{fill:#5d636a;}.cls-124{fill:#5e646b;}.cls-125{fill:#5f656c;}.cls-126{fill:#60676d;}.cls-127{fill:#62686e;}.cls-128{fill:#63696f;}.cls-129{fill:#646a70;}.cls-130{fill:#656b71;}.cls-131{fill:#666c72;}.cls-132{fill:#686e74;}.cls-133{fill:#696f75;}.cls-134{fill:#6a7076;}.cls-135{fill:#6b7177;}.cls-136{fill:#6d7278;}.cls-137{fill:#6e7479;}.cls-138{fill:#6f757b;}.cls-139{fill:#71767c;}.cls-140{fill:#72777d;}.cls-141{fill:#73797e;}.cls-142{fill:#747a7f;}.cls-143{fill:#767b81;}.cls-144{fill:#777c82;}.cls-145{fill:#787e83;}.cls-146{fill:#7a7f84;}.cls-147{fill:#7b8085;}.cls-148{fill:#7c8287;}.cls-149{fill:#7e8388;}.cls-150{fill:#7f8489;}.cls-151{fill:#81868b;}.cls-152{fill:#82878c;}.cls-153{fill:#83888d;}.cls-154{fill:#858a8e;}.cls-155{fill:#868b90;}.cls-156{fill:#888c91;}.cls-157{fill:#898e92;}.cls-158{fill:#8a8f94;}.cls-159{fill:#8c9095;}.cls-160{fill:#8d9296;}.cls-161{fill:#8f9398;}.cls-162{fill:#909499;}.cls-163{fill:#92969a;}.cls-164{fill:#93979c;}.cls-165{fill:#94999d;}.cls-166{fill:#969a9e;}.cls-167{fill:#979ca0;}.cls-168{fill:#999da1;}.cls-169{fill:#9a9ea2;}.cls-170{fill:#9ca0a4;}.cls-171{fill:#9da1a5;}.cls-172{fill:#9fa3a7;}.cls-173{fill:#a1a4a8;}.cls-174{fill:#a2a6a9;}.cls-175{fill:#a4a7ab;}.cls-176{fill:#a5a9ac;}.cls-177{fill:#a7aaae;}.cls-178{fill:#a8acaf;}.cls-179{fill:#aaadb1;}.cls-180{fill:#abafb2;}.cls-181{fill:#adb0b3;}.cls-182{fill:#afb2b5;}.cls-183{fill:#b0b3b6;}.cls-184{fill:#b2b5b8;}.cls-185{fill:#b3b6b9;}.cls-186{fill:#b5b8bb;}.cls-187{fill:#b7b9bc;}.cls-188{fill:#b8bbbe;}.cls-189{fill:#babdbf;}.cls-190{fill:#bbbec1;}.cls-191{fill:#bdc0c2;}.cls-192{fill:#bfc1c4;}.cls-193{fill:#c0c3c5;}.cls-194{fill:#c2c5c7;}.cls-195{fill:#c4c6c8;}.cls-196{fill:#c5c8ca;}.cls-197{fill:#c7c9cc;}.cls-198{fill:#c9cbcd;}.cls-199{fill:#cbcdcf;}.cls-200{fill:#ccced0;}.cls-201{fill:#ced0d2;}.cls-202{fill:#d0d2d3;}.cls-203{fill:#d1d3d5;}.cls-204{fill:#d3d5d7;}.cls-205{fill:#d5d7d8;}.cls-206{fill:#d7d8da;}.cls-207{fill:#d8dadc;}.cls-208{fill:#dadcdd;}.cls-209{fill:#dcdddf;}.cls-210{fill:#dedfe0;}.cls-211{fill:#e0e1e2;}.cls-212{fill:#e1e3e4;}.cls-213{fill:#e3e4e5;}.cls-214{fill:#e5e6e7;}.cls-215{fill:#e7e8e9;}.cls-216{fill:#e9eaea;}.cls-217{fill:#eaebec;}.cls-218{fill:#ecedee;}.cls-219{fill:#eeefef;}.cls-220{fill:#f0f1f1;}.cls-221{fill:#f2f2f3;}.cls-222{fill:#f4f4f5;}.cls-223{fill:#f6f6f6;}.cls-224{fill:#f7f8f8;}.cls-225{fill:#f9fafa;}.cls-226{fill:#fbfbfc;}.cls-227{fill:#fdfdfd;}.cls-228{fill:#fff;}</style>
  </defs>
  <g id="Layer_2" data-name="Layer 2" style="" transform="matrix(1.003563, -0.000962, 0, 1.007955, -0.864742, -7.716576)">
    <g id="Layer_342" data-name="Layer 342">
      <g id="Layer_342-2" data-name="Layer 342">
        <g id="Group_15" data-name="Group 15">
          <rect id="Rectangle_47" data-name="Rectangle 47" class="cls-1" y="7.98" width="1920" height="1079"/>
          <path id="Path_625" data-name="Path 625" class="cls-1" d="M1921,7V859.05h.87l-6.51,1.86q-6.49,1.83-13,3.62-26,7.13-51.92,13.29-51.82,12.34-103.11,20.87a1450.53,1450.53,0,0,1-201.12,19.51c-131,3.36-254.78-12.24-364.79-44.86-220-65.25-385-198.59-442.87-384.58-28.92-93-28.31-190.34-2.44-286.75,12.94-48.21,32.19-96.18,57.22-143.26q9.39-17.65,19.85-35.13Q818.4,14.87,823.9,6.2V7Z"/>
          <path id="Path_626" data-name="Path 626" class="cls-1" d="M1921,7V854.51h6.66q-13,3.79-25.91,7.35-25.9,7.1-51.72,13.24-51.63,12.28-102.71,20.79A1442.2,1442.2,0,0,1,1547,915.31c-130.5,3.35-253.79-12.18-363.37-44.68-219.18-65-383.55-197.82-441.16-383.08C713.65,394.92,714.26,298,740,201.91c12.89-48,32.06-95.81,57-142.71q9.36-17.58,19.78-35,5.22-8.68,10.7-17.34V7Z"/>
          <path id="Path_627" data-name="Path 627" class="cls-1" d="M1921,7V851.87h6q-12.91,3.78-25.81,7.31-25.82,7.08-51.52,13.19-51.42,12.24-102.3,20.71a1439.06,1439.06,0,0,1-199.57,19.35c-130,3.34-252.79-12.14-362-44.51-218.32-64.74-382-197-439.43-381.59-28.69-92.27-28.08-188.86-2.41-284.52,12.82-47.83,31.92-95.44,56.76-142.15Q810,42.14,820.41,24.8q5.19-8.67,10.64-17.29c.91-1.43,1.82-2.87,2.74-4.3V7Z"/>
          <path id="Path_628" data-name="Path 628" class="cls-1" d="M1921,7V849.22h5.24q-12.87,3.76-25.72,7.29-25.69,7.05-51.31,13.14-51.23,12.18-101.9,20.62a1430.76,1430.76,0,0,1-198.78,19.28C1419,912.87,1296.72,897.46,1188,865.21,970.51,800.73,807.43,669,750.27,485.12c-28.58-91.91-28-188.12-2.41-283.42,12.79-47.64,31.81-95.06,56.55-141.59Q813.7,42.66,824,25.39q5.18-8.64,10.6-17.22Q836,6,837.36,3.88V7Z"/>
          <path id="Path_629" data-name="Path 629" class="cls-1" d="M1921,7v839.6h4.53q-12.83,3.75-25.62,7.26-25.59,7-51.11,13.08-51,12.15-101.5,20.55a1427.18,1427.18,0,0,1-198,19.2c-129,3.31-250.82-12-359.13-44.16C973.56,798.28,811.11,667,754.17,483.9c-28.47-91.54-27.86-187.38-2.39-282.3,12.73-47.46,31.68-94.69,56.33-141Q817.35,43.19,827.65,26q5.15-8.6,10.55-17.15,2.7-4.27,5.47-8.54V7Z"/>
          <path id="Path_630" data-name="Path 630" class="cls-1" d="M1921,7V844h3.82q-12.77,3.74-25.52,7.23-25.5,7-50.91,13-50.82,12.09-101.1,20.46a1420.55,1420.55,0,0,1-197.22,19.13c-128.46,3.29-249.83-12-357.71-44-215.76-64-377.57-194.74-434.28-377.11C729.72,391.5,730.33,296,755.69,201.5,768.38,154.23,787.26,107.19,811.8,61Q821,43.72,831.26,26.57,836.39,18,841.78,9.49q2.69-4.26,5.45-8.5V7Z"/>
          <path id="Path_631" data-name="Path 631" class="cls-1" d="M1921,7V841.29h3.1q-12.7,3.72-25.41,7.2-25.39,7-50.71,13-50.61,12-100.7,20.39a1415.67,1415.67,0,0,1-196.44,19c-127.95,3.31-248.84-11.9-356.29-43.79C979.64,793.37,818.47,663.13,762,481.47c-28.25-90.82-27.65-185.9-2.38-280.07,12.64-47.09,31.44-93.94,55.89-139.92q9.16-17.25,19.38-34.32,5.11-8.53,10.47-17Q848,5.9,850.78,1.68V7Z"/>
          <path id="Path_632" data-name="Path 632" class="cls-1" d="M1921,7V838.64h2.39q-12.66,3.71-25.31,7.18-25.29,6.93-50.51,12.93-50.41,12-100.3,20.3a1409.14,1409.14,0,0,1-195.66,19c-127.44,3.27-247.85-11.9-354.88-43.64-214.05-63.5-374.57-193.22-430.84-374.15-28.13-90.47-27.53-185.17-2.36-279,12.58-46.9,31.31-93.57,55.66-139.37q9.13-17.18,19.31-34.18,5.09-8.49,10.43-16.94,2.67-4.23,5.41-8.44V7Z"/>
          <path id="Path_633" data-name="Path 633" class="cls-1" d="M1921,7V836h1.68q-12.62,3.69-25.21,7.14-25.2,6.92-50.31,12.88-50.21,12-99.9,20.22a1404,1404,0,0,1-194.88,18.9c-126.93,3.26-246.86-11.85-353.46-43.46C985.72,788.46,825.84,659.25,769.8,479c-28-90.1-27.42-184.42-2.36-277.84C780,154.49,798.63,108,822.88,62.38q9.11-17.1,19.24-34,5.05-8.46,10.38-16.88,2.67-4.2,5.39-8.4V7Z"/>
          <path id="Path_634" data-name="Path 634" class="cls-1" d="M1921,7V833.35h1q-12.57,3.67-25.11,7.12-25.1,6.87-50.11,12.83-50,11.9-99.5,20.14a1398.74,1398.74,0,0,1-194.09,18.82c-126.43,3.24-245.88-11.81-352-43.29C988.8,786,829.55,657.32,773.74,477.83c-27.91-89.74-27.32-183.69-2.35-276.74,12.48-46.52,31.06-92.82,55.22-138.25q9.06-17,19.15-33.91,5.06-8.43,10.35-16.81,2.65-4.18,5.36-8.37V7Z"/>
          <path id="Path_635" data-name="Path 635" class="cls-2" d="M1921,7V830.71h.26q-12.51,3.66-25,7.08-25,6.86-49.91,12.78-49.8,11.85-99.1,20.06a1392.26,1392.26,0,0,1-193.31,18.75C1428,892.61,1309,877.62,1203.3,846.26,991.81,783.55,833.2,655.38,777.61,476.61c-27.79-89.38-27.2-182.95-2.33-275.62,12.43-46.33,30.93-92.45,55-137.7q9-17,19.08-33.76,5-8.4,10.31-16.75c1.74-2.8,3.53-5.56,5.33-8.33V7Z"/>
          <path id="Path_636" data-name="Path 636" class="cls-2" d="M1921,7V826.23h5.78l-6.24,1.83q-12.45,3.65-24.9,7.06-24.9,6.82-49.71,12.73-49.61,11.8-98.7,20a1385.62,1385.62,0,0,1-192.53,18.67c-125.41,3.22-243.9-11.71-349.22-42.94-210.63-62.46-368.59-190.11-424-368.15-27.68-89-27.09-182.21-2.33-274.51C791.58,154.74,810,108.82,834,63.75q9-16.9,19-33.63,5-8.37,10.26-16.68,2.63-4.15,5.32-8.3V7Z"/>
          <path id="Path_637" data-name="Path 637" class="cls-2" d="M1921,7V823.59h5l-6.21,1.83q-12.4,3.63-24.8,7-24.79,6.8-49.51,12.67-49.39,11.76-98.3,19.9a1380.66,1380.66,0,0,1-191.75,18.59c-124.9,3.21-242.91-11.66-347.8-42.77-209.78-62.2-367.1-189.34-422.24-366.66-27.57-88.66-27-181.47-2.32-273.39,12.33-46,30.69-91.7,54.55-136.59q9-16.83,18.92-33.49,5-8.34,10.23-16.61l5.33-8.24V7Z"/>
          <path id="Path_638" data-name="Path 638" class="cls-2" d="M1921,7V821h4.3c-2.06.62-4.12,1.22-6.18,1.82q-12.36,3.62-24.7,7-24.69,6.78-49.3,12.63-49.21,11.7-97.91,19.81a1376,1376,0,0,1-191,18.52c-124.39,3.19-241.92-11.62-346.38-42.59-208.9-62-365.58-188.6-420.5-365.19-27.45-88.3-26.87-180.73-2.3-272.28,12.28-45.78,30.56-91.33,54.32-136q8.92-16.77,18.85-33.36,5-8.3,10.18-16.54,2.61-4.12,5.28-8.24V7Z"/>
          <path id="Path_639" data-name="Path 639" class="cls-2" d="M1921,7V818.32h3.56l-6.15,1.81q-12.32,3.6-24.61,7-24.58,6.74-49.09,12.57-49,11.67-97.5,19.74A1369.31,1369.31,0,0,1,1557,877.85c-123.88,3.18-240.93-11.57-345-42.42-208-61.7-364.07-187.8-418.76-363.68-27.34-87.93-26.76-180-2.3-271.17,12.23-45.58,30.44-91,54.11-135.47q8.88-16.7,18.77-33.22,4.95-8.26,10.18-16.48,2.6-4.1,5.25-8.2l2.68-4.09V7Z"/>
          <path id="Path_640" data-name="Path 640" class="cls-2" d="M1921,7v808.7h2.83l-6.13,1.8q-12.27,3.6-24.51,7-24.48,6.71-48.89,12.52-48.81,11.61-97.1,19.65A1365.29,1365.29,0,0,1,1557.79,875c-123.38,3.16-240-11.53-343.56-42.25-207.23-61.45-362.61-187-417.08-362.19-27.24-87.56-26.66-179.26-2.29-270.06,12.18-45.4,30.31-90.58,53.88-134.92q8.85-16.58,18.7-33.08,4.92-8.23,10.09-16.41c1.73-2.72,3.47-5.45,5.24-8.16q1.32-2,2.66-4.08V7Z"/>
          <path id="Path_641" data-name="Path 641" class="cls-2" d="M1921,7V813h2.09l-6.1,1.8q-12.21,3.57-24.41,6.91-24.39,6.69-48.69,12.47-48.62,11.56-96.7,19.57a1355.65,1355.65,0,0,1-188.63,18.29c-122.87,3.16-239-11.47-342.14-42.07C1010.06,768.82,855.3,643.76,801.06,469.32c-27.13-87.21-26.55-178.51-2.29-268.94C810.91,155.17,829,110.17,852.44,66Q870.05,32.86,891.65.45V7Z"/>
          <path id="Path_642" data-name="Path 642" class="cls-3" d="M1921,7V810.4h1.35l-6.08,1.79q-12.15,3.57-24.3,6.89-24.29,6.66-48.49,12.42-48.4,11.5-96.3,19.49a1352.36,1352.36,0,0,1-187.85,18.21c-122.36,3.14-238-11.42-340.72-41.89C1013.1,766.37,859,641.82,805,468.11c-27-86.86-26.43-177.78-2.27-267.83,12.08-45,30.06-89.83,53.44-133.81A759.63,759.63,0,0,1,895.23,1.22V7Z"/>
          <path id="Path_643" data-name="Path 643" class="cls-4" d="M1921,7V806h6.67q-6.06,1.83-12.11,3.6-12.11,3.54-24.2,6.86-24.18,6.63-48.29,12.36-48.21,11.48-95.9,19.41a1345.74,1345.74,0,0,1-187.07,18.14c-121.85,3.13-237-11.38-339.3-41.72-204.66-60.72-358.14-184.75-411.93-357.74-26.9-86.49-26.33-177-2.26-266.71,12-44.84,29.93-89.46,53.22-133.25A755.66,755.66,0,0,1,898.72,2V7Z"/>
          <path id="Path_644" data-name="Path 644" class="cls-4" d="M1921,7V803.32h5.91q-6,1.83-12.06,3.58-12.06,3.54-24.1,6.83-24.09,6.6-48.09,12.31-48,11.43-95.5,19.33a1342.16,1342.16,0,0,1-186.29,18.07c-121.34,3.11-236-11.33-337.88-41.55C1019.18,761.46,866.35,638,812.78,465.68c-26.79-86.13-26.22-176.3-2.26-265.6,12-44.66,29.82-89.09,53-132.7q17.38-32.7,38.73-64.71V7Z"/>
          <path id="Path_645" data-name="Path 645" class="cls-4" d="M1921,7V800.69h5.15q-6,1.81-12,3.57-12,3.51-24,6.8-24,6.57-47.89,12.26-47.8,11.37-95.1,19.25a1337.07,1337.07,0,0,1-185.51,18c-120.83,3.1-235-11.29-336.47-41.38C1022.23,759,870,636,816.68,464.47,790,378.69,790.58,288.9,814.44,200c11.93-44.46,29.69-88.71,52.77-132.13q17.32-32.58,38.57-64.44V7Z"/>
          <path id="Path_646" data-name="Path 646" class="cls-4" d="M1921,7V798.06h4.38q-6,1.82-12,3.56-12,3.5-23.9,6.77-23.88,6.54-47.69,12.2-47.6,11.34-94.7,19.17a1332,1332,0,0,1-184.73,17.92c-120.32,3.08-234-11.24-335-41.21-202.09-59.92-353.65-182.4-406.77-353.22-26.56-85.41-26-174.82-2.23-263.38,11.88-44.27,29.56-88.34,52.55-131.58q17.24-32.43,38.4-64.17V7Z"/>
          <path id="Path_647" data-name="Path 647" class="cls-4" d="M1921,7V795.43h3.62q-6,1.8-11.91,3.54-11.89,3.48-23.79,6.74-23.79,6.52-47.49,12.16-47.4,11.28-94.3,19.09a1323.78,1323.78,0,0,1-183.94,17.83c-119.82,3.08-233-11.19-333.64-41-201.24-59.68-352.16-181.63-405-351.73C798.05,377,798.61,288,822.27,199.77c11.83-44.09,29.44-88,52.33-131q17.17-32.29,38.25-63.9V7Z"/>
          <path id="Path_648" data-name="Path 648" class="cls-5" d="M1921,7V792.8h2.86q-5.92,1.8-11.86,3.53-11.85,3.46-23.69,6.71-23.68,6.5-47.29,12.1-47.19,11.24-93.9,19A1319.65,1319.65,0,0,1,1564,851.91c-119.31,3.06-232-11.14-332.22-40.85C1031.35,751.64,881.07,630.2,828.4,460.82c-26.33-84.69-25.77-173.34-2.21-261.15C838,155.77,855.5,112.08,878.3,69.2Q895.39,37,916.38,5.57V7Z"/>
          <path id="Path_649" data-name="Path 649" class="cls-6" d="M1921,7V790.17h2.1q-5.91,1.79-11.81,3.51-11.8,3.45-23.59,6.68-23.58,6.46-47.09,12.06-47,11.18-93.5,18.92A1312.2,1312.2,0,0,1,1564.73,849c-118.8,3.05-231-11.1-330.81-40.68-199.53-59.16-349.16-180.09-401.61-348.74-26.22-84.33-25.67-172.61-2.2-260,11.73-43.72,29.18-87.22,51.88-129.92A735.73,735.73,0,0,1,919.91,6.34V7Z"/>
          <path id="Path_650" data-name="Path 650" class="cls-6" d="M1921,7V787.54h1.33q-5.88,1.79-11.75,3.5-11.76,3.44-23.5,6.65-23.47,6.43-46.88,12-46.79,11.14-93.09,18.85a1308.76,1308.76,0,0,1-181.61,17.61c-118.29,3-230-11-329.39-40.51-198.68-58.91-347.67-179.31-399.89-347.25-26.11-84-25.56-171.87-2.2-258.92C845.7,156,863.08,112.62,885.69,70.11Q902.64,38.22,923.44,7l2.61-3.89V7Z"/>
          <path id="Path_651" data-name="Path 651" class="cls-6" d="M1921,7V784.91h.57q-5.85,1.77-11.7,3.48-11.71,3.42-23.4,6.63-23.37,6.4-46.68,12-46.59,11.09-92.69,18.76a1305.34,1305.34,0,0,1-180.83,17.54c-117.78,3-229.06-11-328-40.33-197.79-58.71-346.15-178.6-398.15-345.81-26-83.61-25.44-171.13-2.18-257.82,11.63-43.34,28.94-86.47,51.44-128.8A731.31,731.31,0,0,1,927,7.75q2.6-3.88,5.23-7.75V7Z"/>
          <path id="Path_652" data-name="Path 652" class="cls-7" d="M1921,7V780.51h5.64c-1.94.6-3.89,1.19-5.83,1.77q-5.83,1.76-11.66,3.47-11.64,3.4-23.29,6.59-23.28,6.39-46.48,11.9-46.38,11-92.29,18.68a1294.93,1294.93,0,0,1-180,17.46c-117.27,3-228.07-11-326.55-40.15C1043.52,741.82,895.8,622.45,844,456c-25.89-83.24-25.34-170.39-2.18-256.7C853.4,156.13,870.64,113.18,893,71q16.85-31.64,37.47-62.57,2.57-3.86,5.2-7.71V7Z"/>
          <path id="Path_653" data-name="Path 653" class="cls-8" d="M1921,7V777.89h4.85l-5.8,1.76q-5.8,1.76-11.61,3.45-11.6,3.39-23.19,6.57Q1862.07,796,1839,801.52q-46.18,11-91.89,18.6a1292.06,1292.06,0,0,1-179.26,17.38c-116.77,3-227.09-10.9-325.15-40-196.11-58.15-343.18-177-394.73-342.77-25.78-82.89-25.23-169.66-2.17-255.59,11.53-43,28.69-85.73,51-127.69Q913.49,40,934,9.2q2.57-3.84,5.18-7.68V7Z"/>
          <path id="Path_654" data-name="Path 654" class="cls-8" d="M1921,7V775.27h4.06l-5.78,1.75q-5.77,1.74-11.55,3.44-11.55,3.38-23.09,6.54-23.07,6.32-46.07,11.79-46,11-91.5,18.52a1285.43,1285.43,0,0,1-178.48,17.31c-116.26,3-226.1-10.86-323.73-39.81-195.26-57.9-341.69-176.23-393-341.28C826.2,371,826.75,284.62,849.71,199.06c11.46-42.78,28.54-85.35,50.75-127.08q16.66-31.33,37.11-62,2.55-3.84,5.16-7.65V7Z"/>
          <path id="Path_655" data-name="Path 655" class="cls-8" d="M1921,7V772.64h3.28l-5.76,1.75q-5.74,1.74-11.5,3.42-11.51,3.36-23,6.51-23,6.3-45.87,11.75-45.8,10.89-91.1,18.44a1280.32,1280.32,0,0,1-177.7,17.23c-115.75,3-225.11-10.81-322.31-39.64-194.41-57.64-340.2-175.46-391.3-339.78-25.55-82.17-25-168.18-2.15-253.36C865,156.36,882,114,904.16,72.38q16.58-31.2,36.94-61.73,2.55-3.81,5.14-7.61V7Z"/>
          <path id="Path_656" data-name="Path 656" class="cls-9" d="M1921,7V770h2.49l-5.73,1.74q-5.73,1.72-11.45,3.41-11.46,3.35-22.89,6.48-22.87,6.27-45.67,11.69-45.59,10.85-90.7,18.36a1275.22,1275.22,0,0,1-176.92,17.16c-115.24,3-224.12-10.77-320.89-39.46-193.55-57.4-338.71-174.7-389.58-338.3-25.44-81.8-24.9-167.43-2.14-252.25,11.38-42.4,28.31-84.6,50.33-126q16.51-31,36.78-61.45,2.54-3.79,5.12-7.58V7Z"/>
          <path id="Path_657" data-name="Path 657" class="cls-10" d="M1921,7V767.4h1.7l-5.7,1.73q-5.7,1.73-11.41,3.39-11.4,3.33-22.78,6.46-22.77,6.24-45.47,11.64-45.39,10.8-90.3,18.27A1268.59,1268.59,0,0,1,1570.9,826c-114.73,3-223.13-10.71-319.47-39.28-192.7-57.14-337.21-173.92-387.86-336.8-25.33-81.44-24.79-166.7-2.13-251.14,11.32-42.22,28.18-84.23,50.1-125.46Q928,42.36,948.17,12.1q2.51-3.78,5.09-7.54V7Z"/>
          <path id="Path_658" data-name="Path 658" class="cls-10" d="M1921,7V763h6.59C1443,913.73,968.32,773,867.47,448.67c-25.21-81.08-24.68-166-2.12-250,11.28-42,28.07-83.86,49.89-124.91Q931.61,43,951.7,12.83q2.5-3.76,5.07-7.51V7Z"/>
          <path id="Path_659" data-name="Path 659" class="cls-11" d="M1921,7V760.41h5.78c-482.48,150-955,9.92-1055.4-312.95-25.1-80.72-24.57-165.22-2.11-248.91,11.23-41.84,27.94-83.49,49.66-124.35q16.3-30.66,36.3-60.65l5-7.47V7Z"/>
          <path id="Path_660" data-name="Path 660" class="cls-12" d="M1921,7V757.79h5c-480.33,149.37-950.73,9.88-1050.68-311.55-25-80.36-24.46-164.48-2.11-247.79,11.18-41.66,27.82-83.12,49.45-123.8q16.53-31.07,36.1-60.37,2.49-3.74,5-7.45V7Z"/>
          <path id="Path_661" data-name="Path 661" class="cls-13" d="M1921,7v748.2h4.15C1447,903.87,978.7,765,879.19,445c-24.87-80-24.35-163.74-2.09-246.68,11.13-41.47,27.69-82.74,49.22-123.24q16.15-30.37,36-60.11,5-7.41,10.12-14.79V7Z"/>
          <path id="Path_662" data-name="Path 662" class="cls-14" d="M1921,7V752.57h3.34c-476,148-942.18,9.78-1041.24-308.76-24.76-79.63-24.24-163-2.08-245.57C892.1,157,908.58,115.88,930,75.56q16.07-30.24,35.8-59.83,5-7.39,10.1-14.75V7Z"/>
          <path id="Path_663" data-name="Path 663" class="cls-15" d="M1921,7V750h2.53C1449.68,897.3,985.61,759.69,887,442.6c-24.65-79.28-24.13-162.27-2.08-244.46,11-41.09,27.44-82,48.78-122.13q16-30.09,35.65-59.55,4.9-7.36,10-14.67V7Z"/>
          <path id="Path_664" data-name="Path 664" class="cls-16" d="M1921,7V747.34h1.71C1451,894,989.07,757,890.91,441.38c-24.54-78.91-24-161.52-2.06-243.34,11-40.91,27.31-81.62,48.55-121.57q15.95-30,35.49-59.29,4.88-7.32,10-14.59V7Z"/>
          <path id="Path_665" data-name="Path 665" class="cls-17" d="M1921,7V744.72h.9c-469.53,146-929.37,9.66-1027.08-304.55-24.43-78.56-23.91-160.79-2.05-242.19C903.69,157.26,920,116.73,941.1,77Q957,47.16,976.42,18q4.86-7.29,9.94-14.53V7Z"/>
          <path id="Path_666" data-name="Path 666" class="cls-18" d="M1921,7V742.11h.09C1453.71,887.45,996,751.72,898.73,439c-24.32-78.19-23.8-160-2.05-241.11C907.56,157.3,923.75,117,944.79,77.38A684,684,0,0,1,980,18.63q4.85-7.24,9.89-14.46V7Z"/>
          <path id="Path_667" data-name="Path 667" class="cls-19" d="M1921,7V737.79h4.72l-5.45,1.7c-465.21,144.67-920.82,9.57-1017.64-301.75-24.2-77.83-23.68-159.31-2-240,10.83-40.35,26.94-80.5,47.89-119.91q15.71-29.55,35-58.47,4.79-7.23,9.81-14.38V7Z"/>
          <path id="Path_668" data-name="Path 668" class="cls-20" d="M1921,7v728.2h3.88l-5.42,1.7c-463.06,144-916.56,9.52-1012.92-300.36-24.09-77.47-23.58-158.57-2-238.89,10.77-40.16,26.81-80.12,47.66-119.34Q967.83,48.88,987,20.08q4.79-7.18,9.79-14.32V7Z"/>
          <path id="Path_669" data-name="Path 669" class="cls-21" d="M1921,7V732.57h3l-5.39,1.69c-460.9,143.33-912.29,9.48-1008.2-298.95-24-77.11-23.47-157.83-2-237.78,10.73-40,26.69-79.75,47.45-118.79a672.57,672.57,0,0,1,34.67-57.93q4.77-7.15,9.75-14.26V7Z"/>
          <path id="Path_670" data-name="Path 670" class="cls-22" d="M1921,7V730h2.2l-5.37,1.68c-458.74,142.65-908,9.43-1003.48-297.56-23.86-76.75-23.35-157.09-2-236.66,10.67-39.79,26.56-79.38,47.22-118.23q15.49-29.14,34.51-57.67,4.74-7.11,9.71-14.19,2.48-3.54,5-7.06V7Z"/>
          <path id="Path_671" data-name="Path 671" class="cls-23" d="M1921,7V725.67h6.69q-5.31,1.7-10.67,3.37c-456.58,142-903.74,9.38-998.76-296.16-23.75-76.39-23.25-156.35-2-235.55,10.63-39.6,26.44-79,47-117.68q15.42-29,34.35-57.39,4.73-7.1,9.66-14.13c1.65-2.34,3.31-4.69,5-7V7Z"/>
          <path id="Path_672" data-name="Path 672" class="cls-24" d="M1921,7V723.07h5.83q-5.3,1.7-10.62,3.35c-454.43,141.31-899.48,9.34-994-294.76-23.64-76-23.14-155.61-2-234.43C930.79,157.81,946.52,118.59,967,80.1Q982.31,51.24,1001.14,23q4.71-7.07,9.62-14.07,2.46-3.49,5-7V7Z"/>
          <path id="Path_673" data-name="Path 673" class="cls-25" d="M1921,7V720.47h5q-5.28,1.69-10.57,3.34c-452.27,140.64-895.21,9.3-989.32-293.36-23.53-75.67-23-154.88-2-233.33,10.52-39.22,26.19-78.25,46.55-116.56q15.29-28.73,34-56.85,4.68-7,9.57-14c1.63-2.33,3.27-4.65,4.94-7V7Z"/>
          <path id="Path_674" data-name="Path 674" class="cls-26" d="M1921,7V717.87h4.1q-5.24,1.68-10.52,3.32c-450.11,140-890.93,9.26-984.6-292C906.57,354,907.06,275.1,928,197c10.48-39,26.07-77.88,46.34-116q15.2-28.59,33.86-56.57,4.65-7,9.52-13.93,2.43-3.47,4.92-6.93V7Z"/>
          <path id="Path_675" data-name="Path 675" class="cls-27" d="M1921,7V715.27h3.24q-5.22,1.68-10.47,3.31c-447.95,139.3-886.66,9.21-979.88-290.6-23.31-74.94-22.81-153.4-2-231.1C942.31,158,957.83,119.37,978,81.43Q993.14,53,1011.7,25.12q4.63-6.95,9.48-13.86,2.42-3.45,4.89-6.89V7Z"/>
          <path id="Path_676" data-name="Path 676" class="cls-28" d="M1921,7V712.67h2.38q-5.2,1.67-10.42,3.29c-445.8,138.63-882.39,9.17-975.16-289.16-23.2-74.58-22.7-152.65-1.95-230,10.37-38.66,25.81-77.14,45.89-114.9a634.94,634.94,0,0,1,33.53-56q4.62-6.93,9.43-13.8c1.61-2.29,3.23-4.57,4.87-6.86V7Z"/>
          <path id="Path_677" data-name="Path 677" class="cls-29" d="M1921,7v703.1h1.51q-5.16,1.65-10.37,3.27c-443.64,138-878.12,9.12-970.44-287.76-23.08-74.22-22.59-151.92-1.94-228.87,10.33-38.48,25.69-76.74,45.67-114.34q15-28.18,33.37-55.77,4.59-6.88,9.39-13.72c1.6-2.28,3.21-4.56,4.85-6.83V7Z"/>
          <path id="Path_678" data-name="Path 678" class="cls-30" d="M1921,7v700.5h.65q-5.14,1.65-10.32,3.25C1469.85,848,1037.48,719.81,945.61,424.37c-23-73.86-22.48-151.18-1.93-227.75,10.27-38.29,25.56-76.4,45.44-113.79q14.91-28,33.22-55.49,9.14-13.71,19.08-27.22V7Z"/>
          <path id="Path_679" data-name="Path 679" class="cls-31" d="M1921,7V703.23h4.9l-5.11,1.65q-5.13,1.64-10.27,3.24c-439.33,136.61-869.58,9-961-285-22.86-73.5-22.37-150.44-1.93-226.65,10.23-38.1,25.44-76,45.23-113.23q14.83-27.9,33-55.22,9.18-13.59,19-27V7Z"/>
          <path id="Path_680" data-name="Path 680" class="cls-32" d="M1921,7V700.64h4l-5.09,1.64q-5.09,1.63-10.22,3.23c-437.16,135.94-865.3,9-956.28-283.57-22.74-73.13-22.26-149.7-1.91-225.53,10.18-37.91,25.32-75.64,45-112.67q14.79-27.76,32.9-54.95,9-13.57,18.9-27V7Z"/>
          <path id="Path_681" data-name="Path 681" class="cls-33" d="M1921,7V698.05h3.12l-5.06,1.63q-5.07,1.62-10.17,3.21c-435,135.27-861,9-951.56-282.16-22.63-72.78-22.15-149-1.9-224.42,10.12-37.73,25.19-75.27,44.78-112.12q14.68-27.63,32.72-54.67,9-13.51,18.81-26.83V7Z"/>
          <path id="Path_682" data-name="Path 682" class="cls-34" d="M1921,7V695.46h2.23l-5,1.62q-5.06,1.62-10.12,3.2c-432.85,134.6-856.77,8.9-946.84-280.77-22.52-72.41-22-148.22-1.9-223.3,10.08-37.54,25.07-74.9,44.56-111.56q14.63-27.5,32.56-54.41,9-13.44,18.72-26.69V7Z"/>
          <path id="Path_683" data-name="Path 683" class="cls-35" d="M1921,7V691.23h6.34q-10,3.3-20.07,6.43c-430.7,133.93-852.5,8.86-942.13-279.36-22.4-72.06-21.93-147.49-1.88-222.19,10-37.36,24.94-74.53,44.33-111A630.14,630.14,0,0,1,1040,31q8.93-13.38,18.63-26.56V7Z"/>
          <path id="Path_684" data-name="Path 684" class="cls-36" d="M1921,7V688.65h5.43q-9.93,3.27-20,6.4c-428.53,133.26-848.22,8.81-937.4-278-22.29-71.69-21.82-146.74-1.87-221.07a527.48,527.48,0,0,1,44.11-110.45q14.47-27.23,32.24-53.87,8.87-13.31,18.53-26.42V7Z"/>
          <path id="Path_685" data-name="Path 685" class="cls-37" d="M1921,7V686.07h4.51q-9.87,3.25-19.87,6.36C1479.26,825,1061.69,701.2,973,415.87c-22.18-71.33-21.71-146-1.87-220C981,158.92,995.78,122.12,1015,86q14.4-27.09,32.08-53.59,8.82-13.25,18.43-26.29V7Z"/>
          <path id="Path_686" data-name="Path 686" class="cls-38" d="M1921,7V683.49h3.6q-9.82,3.24-19.77,6.33c-424.22,131.92-839.69,8.72-928-275.17-22.07-71-21.61-145.26-1.86-218.85,9.87-36.79,24.56-73.4,43.67-109.33a615.22,615.22,0,0,1,31.91-53.33Q1059.37,20,1068.93,7q2.4-3.24,4.83-6.47V7Z"/>
          <path id="Path_687" data-name="Path 687" class="cls-39" d="M1921,7V680.9h2.69q-9.78,3.23-19.68,6.3c-422,131.25-835.41,8.68-923.24-273.76-22-70.61-21.49-144.53-1.84-217.74,9.82-36.6,24.44-73,43.44-108.78a617.1,617.1,0,0,1,31.75-53q8.75-13.11,18.25-26c1.59-2.15,3.19-4.29,4.8-6.44V7Z"/>
          <path id="Path_688" data-name="Path 688" class="cls-40" d="M1921,7V678.32h1.77q-9.72,3.21-19.57,6.27c-419.9,130.58-831.14,8.63-918.52-272.37C962.83,342,963.3,268.43,982.84,195.6c9.77-36.42,24.32-72.66,43.23-108.23q14.17-26.67,31.58-52.78,8.7-13,18.16-25.89,2.37-3.21,4.78-6.41V7Z"/>
          <path id="Path_689" data-name="Path 689" class="cls-41" d="M1921,7V675.74h.86q-9.67,3.19-19.47,6.23c-417.75,129.91-826.87,8.59-913.8-271-21.74-69.89-21.28-143-1.83-215.51,9.72-36.23,24.19-72.29,43-107.67q14.12-26.54,31.43-52.51,8.64-13,18.06-25.76c1.57-2.13,3.16-4.25,4.75-6.38V7Z"/>
          <path id="Path_690" data-name="Path 690" class="cls-42" d="M1921,7V671.56h4.75l-4.8,1.6q-9.63,3.17-19.38,6.2C1486,808.59,1079,687.91,992.49,409.79c-21.62-69.52-21.16-142.31-1.82-214.39a512.06,512.06,0,0,1,42.78-107.12,599.12,599.12,0,0,1,31.27-52.23q8.6-12.91,18-25.63c1.56-2.12,3.13-4.24,4.73-6.35V7Z"/>
          <path id="Path_691" data-name="Path 691" class="cls-43" d="M1921,7V669h3.82l-4.79,1.58q-9.57,3.16-19.27,6.18c-413.43,128.56-818.33,8.5-904.36-268.17-21.51-69.17-21-141.57-1.81-213.29,9.62-35.85,23.94-71.54,42.56-106.55q14-26.27,31.1-52,8.55-12.75,17.88-25.45c1.55-2.11,3.11-4.21,4.7-6.32V7Z"/>
          <path id="Path_692" data-name="Path 692" class="cls-44" d="M1921,7V666.41h2.88l-4.76,1.58q-9.54,3.15-19.17,6.14c-411.27,127.89-814.06,8.46-899.64-266.77-21.4-68.8-20.95-140.83-1.8-212.17,9.57-35.67,23.81-71.16,42.33-106q13.89-26.13,30.94-51.69,8.52-12.78,17.78-25.36c1.55-2.1,3.11-4.2,4.68-6.28V7Z"/>
          <path id="Path_693" data-name="Path 693" class="cls-45" d="M1921,7V662.25h6.66q-4.71,1.59-9.46,3.16-9.48,3.12-19.06,6.11C1490,798.74,1089.35,680,1004.21,406.15c-21.28-68.45-20.83-140.1-1.79-211.06,9.52-35.48,23.69-70.79,42.12-105.44q13.82-26,30.77-51.43Q1083.79,25.52,1093,13q4.62-6.27,9.41-12.48V7Z"/>
          <path id="Path_694" data-name="Path 694" class="cls-46" d="M1921,7v652.7h5.69q-4.68,1.59-9.4,3.15-9.43,3.1-19,6.07c-407,126.55-805.51,8.37-890.2-264-21.09-68-20.69-139.32-1.75-209.92,9.47-35.3,23.56-70.42,41.89-104.89Q1062,64.26,1078.85,39q8.42-12.64,17.59-25.1,4.59-6.22,9.36-12.4V7Z"/>
          <path id="Path_695" data-name="Path 695" class="cls-46" d="M1921,7V657.12h4.73q-4.67,1.57-9.35,3.12-9.39,3.1-18.87,6c-404.8,125.88-801.24,8.32-885.48-262.57-21-67.69-20.62-138.57-1.77-208.78,9.42-35.11,23.44-70,41.67-104.34q13.66-25.71,30.45-50.88,8.37-12.55,17.5-25,4.56-6.2,9.3-12.34V7Z"/>
          <path id="Path_696" data-name="Path 696" class="cls-47" d="M1921,7V654.55h3.77q-4.63,1.58-9.31,3.11-9.33,3.08-18.76,6c-402.65,125.21-797,8.28-880.77-261.17-20.94-67.36-20.5-137.87-1.76-207.72,9.37-34.92,23.32-69.67,41.45-103.77q13.61-25.57,30.29-50.61,8.33-12.49,17.41-24.83,4.53-6.17,9.25-12.27V7Z"/>
          <path id="Path_697" data-name="Path 697" class="cls-48" d="M1921,7V652h2.8q-4.6,1.56-9.25,3.09-9.29,3.06-18.67,6c-400.48,124.54-792.7,8.23-876-259.77-20.83-67-20.39-137.14-1.75-206.61a492.5,492.5,0,0,1,41.22-103.22q13.53-25.44,30.13-50.34,8.3-12.42,17.32-24.69,4.52-6.14,9.2-12.21V7Z"/>
          <path id="Path_698" data-name="Path 698" class="cls-49" d="M1921,7V649.42h1.84q-4.59,1.56-9.2,3.08-9.24,3-18.57,5.94c-398.33,123.87-788.43,8.19-871.32-258.37-20.73-66.64-20.29-136.4-1.74-205.49a489,489,0,0,1,41-102.66q13.74-25.77,30-50.07,8.25-12.36,17.23-24.56,4.48-6.1,9.15-12.15V7Z"/>
          <path id="Path_699" data-name="Path 699" class="cls-50" d="M1921,7V646.86h.88q-4.58,1.54-9.16,3.06-9.18,3-18.46,5.91c-396.17,123.2-784.16,8.15-866.61-257-20.61-66.28-20.17-135.66-1.73-204.38A487.23,487.23,0,0,1,1066.7,92.37q13.38-25.17,29.8-49.79,8.2-12.3,17.13-24.43,4.47-6.06,9.11-12.08V7Z"/>
          <path id="Path_700" data-name="Path 700" class="cls-50" d="M1921,7V642.74h4.45l-4.54,1.55q-4.53,1.55-9.1,3-9.13,3-18.37,5.89c-394,122.52-779.89,8.1-861.88-255.57-20.5-65.92-20.06-134.93-1.72-203.27A483.89,483.89,0,0,1,1070.4,92.83q13.3-25,29.64-49.53,8.14-12.22,17-24.29,4.44-6,9.06-12,2.31-3,4.66-6V7Z"/>
          <path id="Path_701" data-name="Path 701" class="cls-51" d="M1921,7V640.19h3.46l-4.51,1.53q-4.52,1.53-9,3-9.09,3-18.27,5.85c-391.85,121.85-775.62,8.06-857.16-254.17-20.39-65.56-20-134.18-1.72-202.15a481.37,481.37,0,0,1,40.34-101q13.23-24.89,29.48-49.25,8.12-12.16,16.94-24.17,4.41-6,9-11.94c1.53-2,3.07-4,4.63-5.94V7Z"/>
          <path id="Path_702" data-name="Path 702" class="cls-52" d="M1921,7v629.1h6.94q-17.85,6.23-36.12,11.91c-389.7,121.18-771.35,8-852.44-252.77-20.28-65.2-19.85-133.45-1.71-201a479.16,479.16,0,0,1,40.11-100.44q13.17-24.75,29.32-49,8.07-12.09,16.85-24,4.4-6,9-11.88,2.28-3,4.61-5.9V7Z"/>
          <path id="Path_703" data-name="Path 703" class="cls-53" d="M1921,7V633.53h5.92q-17.75,6.19-35.91,11.84c-387.54,120.51-767.08,8-847.73-251.37-20.16-64.83-19.73-132.71-1.69-199.93a475.91,475.91,0,0,1,39.89-99.88q13.08-24.61,29.15-48.71,8-12,16.76-23.9,4.36-5.92,8.91-11.81,2.27-2.94,4.58-5.87V7Z"/>
          <path id="Path_704" data-name="Path 704" class="cls-54" d="M1921,7V631h4.91q-17.65,6.16-35.72,11.78c-385.38,119.84-762.8,7.92-843-250-20-64.48-19.62-132-1.69-198.82a473.82,473.82,0,0,1,39.67-99.33,563,563,0,0,1,29-48.44q8-12,16.67-23.76,4.34-5.89,8.86-11.75c1.5-1.95,3-3.89,4.55-5.84V7Z"/>
          <path id="Path_705" data-name="Path 705" class="cls-55" d="M1921,7V628.44h3.9q-17.55,6.1-35.52,11.7C1506.16,759.31,1130.84,648,1051.1,391.57,1011.22,263.34,1052.79,123.11,1152.23,0V7Z"/>
          <path id="Path_706" data-name="Path 706" class="cls-56" d="M1921,7V625.89h2.89q-17.46,6.08-35.32,11.64C1507.5,756,1134.3,645.36,1055,390.36c-39.65-127.51,1.69-267,100.56-389.34V7Z"/>
          <path id="Path_707" data-name="Path 707" class="cls-57" d="M1921,7V623.34h1.87q-17.36,6-35.12,11.57c-378.9,117.83-750,7.8-828.84-245.77-39.43-126.78,1.67-265.44,100-387.13V7Z"/>
          <path id="Path_708" data-name="Path 708" class="cls-58" d="M1921,7V620.79h.86q-17.25,6-34.92,11.51c-376.75,117.16-745.72,7.75-824.12-244.37C1023.62,261.87,1064.48,124,1162.24,3V7Z"/>
          <path id="Path_709" data-name="Path 709" class="cls-59" d="M1921,7V616.74h4.13l-4.28,1.5q-17.16,6-34.72,11.45c-374.59,116.48-741.45,7.7-819.41-243-39-125.34,1.66-262.42,98.86-382.72V7Z"/>
          <path id="Path_710" data-name="Path 710" class="cls-60" d="M1921,7V614.2h3.09c-1.42.5-2.83,1-4.26,1.49q-17.05,6-34.52,11.38c-372.43,115.82-737.18,7.66-814.68-241.57-38.75-124.62,1.65-260.91,98.28-380.52V7Z"/>
          <path id="Path_711" data-name="Path 711" class="cls-61" d="M1921,7V610.16h6.28l-8.46,3q-17,5.91-34.32,11.32c-370.28,115.14-732.91,7.61-810-240.18C1036,260.39,1076.17,124.89,1172.25,6V7Z"/>
          <path id="Path_712" data-name="Path 712" class="cls-62" d="M1921,7V607.63h5.21l-8.4,3q-16.86,5.86-34.12,11.24c-368.12,114.47-728.64,7.57-805.25-238.77-38.3-123.18,1.63-257.89,97.15-376.11H1921Z"/>
          <path id="Path_713" data-name="Path 713" class="cls-63" d="M1921,7V605.09h4.15l-8.36,3q-16.76,5.83-33.91,11.18c-366,113.8-724.37,7.52-800.53-237.38C1044.27,259.4,1084,125.48,1178.93,8q2.22-2.74,4.49-5.49V7Z"/>
          <path id="Path_714" data-name="Path 714" class="cls-64" d="M1921,7V602.56h3.09q-4.14,1.49-8.31,2.94-16.66,5.81-33.72,11.11c-363.8,113.13-720.1,7.48-795.8-236-37.86-121.73,1.6-254.86,96-371.71q2.22-2.73,4.47-5.46V7Z"/>
          <path id="Path_715" data-name="Path 715" class="cls-65" d="M1921,7V600h2c-2.75,1-5.5,2-8.26,2.92q-16.56,5.77-33.52,11c-361.65,112.46-715.83,7.43-791.09-234.58-37.62-121,1.6-253.35,95.44-369.5q2.21-2.71,4.44-5.43V7Z"/>
          <path id="Path_716" data-name="Path 716" class="cls-66" d="M1921,7V597.5h1c-2.72,1-5.46,1.94-8.2,2.9q-16.47,5.75-33.32,11c-359.49,111.79-711.56,7.4-786.37-233.17-37.4-120.29,1.59-251.84,94.87-367.3q4.37-5.4,8.9-10.77V7Z"/>
          <path id="Path_717" data-name="Path 717" class="cls-67" d="M1921,7V593.51h4l-4.1,1.47q-4.07,1.46-8.16,2.88-16.37,5.71-33.12,10.92C1522.29,719.89,1172.34,616.12,1098,377c-37.18-119.56,1.58-250.32,94.3-365.09q4.34-5.37,8.85-10.71V7Z"/>
          <path id="Path_718" data-name="Path 718" class="cls-68" d="M1921,7V589.51h6.9q-8,3-16.17,5.79-16.27,5.67-32.92,10.85c-355.17,110.45-703,7.31-776.92-230.37-37-118.84,1.56-248.82,93.72-362.89q4.32-5.34,8.8-10.64V7Z"/>
          <path id="Path_719" data-name="Path 719" class="cls-69" d="M1921,7V587h5.79q-8,2.94-16.07,5.76-16.17,5.63-32.72,10.78c-353,109.78-698.75,7.26-772.21-229-36.73-118.12,1.56-247.3,93.16-360.68q4.29-5.31,8.74-10.58V7Z"/>
          <path id="Path_720" data-name="Path 720" class="cls-70" d="M1921,7V584.49h4.68q-7.93,2.91-16,5.72-16.07,5.6-32.52,10.72c-350.85,109.1-694.47,7.21-767.48-227.58-36.51-117.4,1.55-245.79,92.59-358.48q4.26-5.28,8.69-10.51V7Z"/>
          <path id="Path_721" data-name="Path 721" class="cls-71" d="M1921,7V582h3.57q-7.89,2.91-15.88,5.69-16,5.57-32.32,10.65c-348.7,108.44-690.2,7.17-762.76-226.18-36.29-116.67,1.54-244.28,92-356.27q4.23-5.25,8.63-10.45V7Z"/>
          <path id="Path_722" data-name="Path 722" class="cls-72" d="M1921,7V579.46h2.46q-7.85,2.88-15.78,5.65-15.87,5.53-32.12,10.59c-346.54,107.76-685.93,7.12-758-224.78-36-116,1.53-242.77,91.45-354.07q4.21-5.22,8.59-10.39V7Z"/>
          <path id="Path_723" data-name="Path 723" class="cls-73" d="M1921,7V577h1.34q-7.78,2.87-15.68,5.61-15.77,5.5-31.91,10.52c-344.39,107.09-681.66,7.08-753.33-223.38-35.83-115.23,1.52-241.25,90.88-351.86q4.18-5.19,8.53-10.32l4.38-5.16V7Z"/>
          <path id="Path_724" data-name="Path 724" class="cls-74" d="M1921,7V574.43h.23q-7.74,2.85-15.58,5.58-15.68,5.47-31.72,10.46c-342.22,106.42-677.39,7-748.6-222-35.61-114.51,1.51-239.75,90.31-349.66q4.15-5.14,8.47-10.26,2.16-2.55,4.35-5.09V7Z"/>
          <path id="Path_725" data-name="Path 725" class="cls-75" d="M1921,7V569.06h6.79c-2.55,1-5.1,1.92-7.67,2.86q-7.69,2.83-15.48,5.54-15.59,5.43-31.52,10.39c-340.07,105.75-673.12,7-743.89-220.58C1093.85,253.49,1130.74,129,1219,19.82q4.13-5.11,8.42-10.19,2.14-2.53,4.32-5.07V7Z"/>
          <path id="Path_726" data-name="Path 726" class="cls-76" d="M1921,7V566.57h5.63l-7.62,2.84q-7.65,2.8-15.38,5.51-15.48,5.39-31.32,10.32c-337.92,105.08-668.85,7-739.17-219.18C1098,253,1134.63,129.34,1222.31,20.81q8.22-10.17,17-20.16V7Z"/>
          <path id="Path_727" data-name="Path 727" class="cls-77" d="M1921,7V564.07h4.47c-2.51.95-5,1.89-7.57,2.82q-7.61,2.8-15.29,5.48-15.37,5.36-31.12,10.25c-335.75,104.41-664.57,6.91-734.44-217.78-34.94-112.34,1.48-235.21,88.6-343q8.17-10.11,16.93-20V7Z"/>
          <path id="Path_728" data-name="Path 728" class="cls-78" d="M1921,7v554.6h3.31l-7.52,2.8q-7.55,2.77-15.19,5.44-15.28,5.32-30.92,10.19c-333.6,103.74-660.3,6.86-729.73-216.38C1106.24,252,1142.43,130,1229,22.79q8.12-10,16.81-19.91V7Z"/>
          <path id="Path_729" data-name="Path 729" class="cls-79" d="M1921,7v552.1h2.15q-3.72,1.41-7.47,2.79-7.5,2.75-15.09,5.4-15.18,5.29-30.72,10.13c-331.44,103.06-656,6.81-725-215-34.48-110.9,1.47-232.18,87.47-338.63q8.06-10,16.7-19.78V7Z"/>
          <path id="Path_730" data-name="Path 730" class="cls-80" d="M1921,7V556.59h1c-2.47.93-5,1.85-7.42,2.76q-7.45,2.74-15,5.37-15.07,5.26-30.52,10.06c-329.28,102.4-651.76,6.77-720.28-213.58-34.26-110.18,1.45-230.68,86.89-336.43q8-9.91,16.6-19.65V7Z"/>
          <path id="Path_731" data-name="Path 731" class="cls-81" d="M1921,7V552.7h3.5l-3.67,1.39c-2.45.93-4.91,1.84-7.38,2.75q-7.4,2.71-14.89,5.33-15,5.22-30.32,10c-327.12,101.72-647.49,6.72-715.57-212.19-34-109.45,1.45-229.16,86.33-334.22q8-9.85,16.49-19.52V7Z"/>
          <path id="Path_732" data-name="Path 732" class="cls-82" d="M1921,7V548.81h6q-29.05,11.25-59.53,20.74c-325,101.06-643.22,6.68-710.85-210.78-33.81-108.74,1.44-227.65,85.76-332q7.9-9.78,16.38-19.39c1.41-1.61,2.83-3.2,4.27-4.79V7Z"/>
          <path id="Path_733" data-name="Path 733" class="cls-83" d="M1921,7V546.33h4.75q-28.86,11.17-59.14,20.61c-322.8,100.38-638.95,6.64-706.12-209.39-33.59-108,1.42-226.14,85.19-329.81Q1253.53,18,1262,8.47c1.4-1.59,2.81-3.18,4.24-4.75V7Z"/>
          <path id="Path_734" data-name="Path 734" class="cls-84" d="M1921,7V543.86h3.54q-28.66,11.08-58.74,20.46c-320.65,99.71-634.68,6.6-701.4-208-33.4-107.27,1.41-224.61,84.6-327.59q7.8-9.66,16.17-19.14c2.78-3.16,5.62-6.3,8.49-9.43V7Z"/>
          <path id="Path_735" data-name="Path 735" class="cls-85" d="M1921,7v534.4h2.33q-28.47,11-58.34,20.33c-318.49,99-630.41,6.55-696.69-206.59-33.14-106.56,1.41-223.11,84-325.4q7.76-9.6,16.06-19,4.14-4.71,8.44-9.37V7Z"/>
          <path id="Path_736" data-name="Path 736" class="cls-86" d="M1921,7V538.9h1.12q-28.26,11-57.94,20.19c-316.34,98.37-626.14,6.51-692-205.18-32.91-105.85,1.4-221.61,83.48-323.2q7.69-9.53,15.94-18.88,4.13-4.68,8.39-9.3V7Z"/>
          <path id="Path_737" data-name="Path 737" class="cls-87" d="M1921,7v526.7h6.91c-2.32.93-4.66,1.84-7,2.75q-28.07,10.86-57.55,20c-314.17,97.7-621.86,6.46-687.24-203.79-32.69-105.12,1.38-220.09,82.91-321q7.63-9.47,15.83-18.75,4.1-4.65,8.33-9.24V7Z"/>
          <path id="Path_738" data-name="Path 738" class="cls-88" d="M1921,7V531.23h5.66l-7,2.72q-27.89,10.8-57.16,19.92c-312,97-617.6,6.41-682.53-202.39-32.46-104.4,1.38-218.58,82.34-318.79q7.59-9.4,15.73-18.62,4.07-4.62,8.27-9.18V7Z"/>
          <path id="Path_739" data-name="Path 739" class="cls-89" d="M1921,7V528.77h4.4q-3.44,1.37-6.9,2.7-27.69,10.72-56.76,19.78c-309.86,96.36-613.33,6.37-677.81-201-32.24-103.68,1.37-217.07,81.77-316.58q7.54-9.33,15.62-18.5,4-4.58,8.21-9.11V7Z"/>
          <path id="Path_740" data-name="Path 740" class="cls-90" d="M1921,7V526.31h3.14l-6.85,2.69q-27.49,10.63-56.37,19.64c-307.7,95.68-609.05,6.32-673.08-199.59-32-103,1.36-215.56,81.2-314.38q7.49-9.27,15.51-18.37,4-4.55,8.15-9c1.38-1.5,2.78-3,4.18-4.49V7Z"/>
          <path id="Path_741" data-name="Path 741" class="cls-91" d="M1921,7V523.85h1.89q-3.39,1.35-6.81,2.67-27.3,10.58-56,19.5c-305.54,95-604.78,6.28-668.37-198.19-31.79-102.23,1.35-214,80.64-312.18q7.43-9.19,15.4-18.23,4-4.52,8.1-9C1297.24,7,1298.63,5.47,1300,4V7Z"/>
          <path id="Path_742" data-name="Path 742" class="cls-92" d="M1921,7V521.39h.63c-2.24.9-4.5,1.78-6.76,2.65q-27.11,10.5-55.57,19.37c-303.39,94.34-600.51,6.24-663.65-196.79-31.57-101.51,1.34-212.54,80.06-310q14.76-18.27,31.64-35.85V7Z"/>
          <path id="Path_743" data-name="Path 743" class="cls-93" d="M1921,7V516.26h6q-6.64,2.7-13.37,5.31-26.93,10.41-55.19,19.22c-301.23,93.68-596.24,6.2-658.92-195.39-31.35-100.79,1.33-211,79.49-307.77q14.65-18.14,31.41-35.6V7Z"/>
          <path id="Path_744" data-name="Path 744" class="cls-94" d="M1921,7.4V513.82h4.74q-6.6,2.68-13.28,5.27-26.73,10.35-54.79,19.09c-299.07,93-592,6.15-654.21-194-31.11-100.07,1.33-209.51,78.93-305.57q14.55-18,31.18-35.34V7H1921Z"/>
          <path id="Path_745" data-name="Path 745" class="cls-95" d="M1921,8.62V511.38h3.43q-6.54,2.67-13.18,5.23-26.54,10.27-54.39,19c-296.92,92.33-587.7,6.11-649.49-192.59-30.89-99.34,1.31-208,78.36-303.36q14.44-17.88,31-35.09V7H1921Z"/>
          <path id="Path_746" data-name="Path 746" class="cls-96" d="M1921,9.83V509h2.13q-6.51,2.65-13.09,5.2-26.34,10.2-54,18.81c-294.76,91.66-583.43,6.06-644.77-191.19-30.67-98.63,1.3-206.49,77.78-301.16q14.34-17.75,30.74-34.83V7H1921Z"/>
          <path id="Path_747" data-name="Path 747" class="cls-97" d="M1921,11.05V506.5h.82q-6.45,2.63-13,5.16-26.14,10.12-53.6,18.67c-292.6,91-579.16,6-640-189.79-30.45-97.9,1.29-205,77.21-299Q1306.64,24,1322.91,7c1.35-1.41,2.72-2.82,4.09-4.22V7h594Z"/>
          <path id="Path_748" data-name="Path 748" class="cls-98" d="M1921,12.26V501.44h5.9c-2.12.88-4.25,1.76-6.38,2.62q-6.4,2.61-12.9,5.12-25.95,10.05-53.2,18.54c-290.44,90.32-574.89,6-635.33-188.39-30.22-97.18,1.28-203.47,76.65-296.75Q1309.87,25.09,1326,8.26c1.34-1.41,2.7-2.8,4.06-4.2V7H1921Z"/>
          <path id="Path_749" data-name="Path 749" class="cls-99" d="M1921,13.48V499h4.55l-6.33,2.61q-6.36,2.58-12.8,5.08-25.77,10-52.81,18.4C1565.32,614.71,1283,531,1223,338.07c-30-96.46,1.27-201.95,76.08-294.54q14-17.35,30.05-34.07,4-4.17,8.13-8.3V7H1921Z"/>
          <path id="Path_750" data-name="Path 750" class="cls-100" d="M1921,14.69V496.6h3.2l-6.29,2.59q-6.32,2.56-12.7,5-25.57,9.9-52.42,18.26c-286.12,89-566.34,5.88-625.88-185.59-29.78-95.74,1.26-200.44,75.5-292.34q13.92-17.22,29.84-33.82,4-4.14,8.06-8.23V7H1921Z"/>
          <path id="Path_751" data-name="Path 751" class="cls-101" d="M1921,15.91V494.18h1.85q-3.11,1.29-6.24,2.57-6.27,2.55-12.61,5-25.38,9.83-52,18.13c-284,88.3-562.07,5.84-621.17-184.2-29.54-95,1.26-198.93,74.94-290.13q13.82-17.1,29.61-33.56,3.94-4.11,8-8.18V7H1921Z"/>
          <path id="Path_752" data-name="Path 752" class="cls-102" d="M1921,17.12v472h6.65q-12.27,5.24-24.86,10.12-25.18,9.75-51.62,18c-281.81,87.64-557.81,5.8-616.45-182.79C1205.4,240.16,1236,137,1309.09,46.52q13.71-17,29.38-33.31,3.91-4.08,8-8.11V7H1921Z"/>
          <path id="Path_753" data-name="Path 753" class="cls-103" d="M1921,18.34V486.76h5.25q-12.16,5.21-24.67,10-25,9.67-51.23,17.85c-279.65,87-553.53,5.75-611.72-181.4-29.1-93.57,1.23-195.9,73.8-285.72q13.6-16.85,29.15-33,3.89-4.05,7.89-8V7H1921Z"/>
          <path id="Path_754" data-name="Path 754" class="cls-104" d="M1921,19.55V484.36h3.85q-12.07,5.16-24.48,10-24.8,9.6-50.83,17.71c-277.49,86.3-549.26,5.71-607-180-28.87-92.85,1.23-194.4,73.23-283.52q13.5-16.71,28.94-32.8,3.84-4,7.82-8l4-4V7H1921Z"/>
          <path id="Path_755" data-name="Path 755" class="cls-105" d="M1921,20.77V482h2.46q-12,5.11-24.29,9.88-24.62,9.52-50.44,17.57c-275.34,85.62-545,5.66-602.29-178.59-28.65-92.13,1.22-192.89,72.66-281.32Q1332.5,33,1347.81,17q7.65-8,15.75-15.76V7H1921Z"/>
          <path id="Path_756" data-name="Path 756" class="cls-106" d="M1921,22V479.57h1.06q-11.89,5.07-24.1,9.8-24.42,9.45-50,17.43c-273.18,84.95-540.72,5.62-597.57-177.19-28.43-91.41,1.2-191.37,72.09-279.11Q1335.77,34,1351,18.21q7.59-7.91,15.63-15.63V7H1921Z"/>
          <path id="Path_757" data-name="Path 757" class="cls-107" d="M1921,23.19V474.63h5.54l-5.88,2.54q-11.81,5-23.91,9.72-24.23,9.38-49.65,17.3c-271,84.28-536.45,5.57-592.85-175.79-28.2-90.69,1.2-189.87,71.53-276.91q13.18-16.32,28.25-32,7.53-7.84,15.51-15.52V7H1921Z"/>
          <path id="Path_758" data-name="Path 758" class="cls-108" d="M1921,24.41V472.25h4.09c-1.94.85-3.88,1.68-5.83,2.52q-11.7,5-23.72,9.65-24,9.3-49.25,17.16c-268.86,83.6-532.18,5.52-588.13-174.4-28-90,1.19-188.35,70.95-274.7q13.08-16.18,28-31.78,7.46-7.78,15.38-15.39V7H1921Z"/>
          <path id="Path_759" data-name="Path 759" class="cls-109" d="M1921,25.62V469.87h2.65l-5.79,2.5q-11.61,5-23.53,9.57-23.83,9.22-48.85,17c-266.71,82.94-527.91,5.49-583.41-173-27.75-89.24,1.18-186.84,70.38-272.5q13-16.06,27.81-31.52,7.41-7.73,15.26-15.27V7H1921Z"/>
          <path id="Path_760" data-name="Path 760" class="cls-110" d="M1921,26.84V465h6.9q-5.69,2.53-11.44,5-11.51,4.9-23.34,9.49-23.64,9.15-48.46,16.89C1580.11,578.61,1321,501.79,1266,324.75c-27.52-88.52,1.17-185.33,69.82-270.29q12.87-15.93,27.58-31.27,7.35-7.65,15.14-15.14c2.59-2.5,5.22-5,7.89-7.44V7H1921Z"/>
          <path id="Path_761" data-name="Path 761" class="cls-111" d="M1921,28.05V462.61h5.41q-5.64,2.52-11.35,5-11.41,4.88-23.14,9.42-23.46,9.08-48.07,16.74c-262.39,81.6-519.37,5.4-574-170.19-27.3-87.8,1.16-183.82,69.25-268.09q12.76-15.81,27.35-31,7.29-7.6,15-15,3.85-3.72,7.83-7.38V7H1921Z"/>
          <path id="Path_762" data-name="Path 762" class="cls-112" d="M1921,29.27v431h3.92q-5.6,2.49-11.25,4.91-11.34,4.83-23,9.34-23.26,9-47.67,16.61c-260.24,80.92-515.1,5.35-569.25-168.8-27.08-87.07,1.15-182.3,68.67-265.88q12.66-15.68,27.14-30.76,7.21-7.53,14.88-14.9,3.84-3.67,7.77-7.31V7H1921Z"/>
          <path id="Path_763" data-name="Path 763" class="cls-113" d="M1921,30.48V457.9h2.42q-5.54,2.48-11.15,4.87-11.24,4.8-22.77,9.26-23.07,8.93-47.28,16.47c-258.07,80.26-510.82,5.31-564.52-167.39-26.86-86.36,1.14-180.8,68.1-263.68q12.56-15.54,26.91-30.5,7.17-7.48,14.76-14.78,3.81-3.64,7.7-7.25V7H1921Z"/>
          <path id="Path_764" data-name="Path 764" class="cls-114" d="M1921,31.7V455.54h.93q-5.49,2.46-11.06,4.83-11.14,4.75-22.58,9.18-22.87,8.86-46.88,16.34c-255.92,79.58-506.55,5.26-559.81-166-26.63-85.63,1.13-179.28,67.54-261.47q12.45-15.42,26.68-30.25,7.11-7.41,14.64-14.65,3.76-3.61,7.64-7.19V7H1921Z"/>
          <path id="Path_765" data-name="Path 765" class="cls-115" d="M1921,32.91V450.72h4.87l-5.43,2.46q-5.45,2.43-11,4.79-11,4.71-22.39,9.11-22.68,8.78-46.48,16.19c-253.76,78.92-502.28,5.22-555.09-164.59-26.4-84.91,1.12-177.77,67-259.27A493.56,493.56,0,0,1,1408.8.71V7H1921Z"/>
          <path id="Path_766" data-name="Path 766" class="cls-116" d="M1921,34.13V448.39h3.33c-1.79.81-3.58,1.63-5.38,2.43q-5.4,2.42-10.88,4.75-11,4.68-22.2,9-22.48,8.7-46.08,16.06c-251.61,78.24-498,5.17-550.37-163.2-26.18-84.19,1.11-176.26,66.39-257.06a489.12,489.12,0,0,1,55.85-58.2V7H1921Z"/>
          <path id="Path_767" data-name="Path 767" class="cls-117" d="M1921,35.34V446.05h1.79l-5.33,2.41q-5.36,2.4-10.79,4.71-10.86,4.63-22,8.95-22.31,8.64-45.7,15.93c-249.44,77.56-493.74,5.12-545.65-161.8-26-83.47,1.1-174.75,65.83-254.86a486.17,486.17,0,0,1,55.37-57.7V7H1921Z"/>
          <path id="Path_768" data-name="Path 768" class="cls-118" d="M1921,36.56V441.28h5.5a694.8,694.8,0,0,1-88.34,34.15c-247.29,76.9-489.47,5.09-540.93-160.4-25.73-82.74,1.09-173.23,65.26-252.65a480.12,480.12,0,0,1,54.89-57.2V7H1921Z"/>
          <path id="Path_769" data-name="Path 769" class="cls-119" d="M1921,37.77V439h3.92a692.88,692.88,0,0,1-87.57,33.85c-245.13,76.22-485.2,5-536.21-159-25.51-82,1.08-171.73,64.69-250.45a477.06,477.06,0,0,1,54.4-56.7V7H1921Z"/>
          <path id="Path_770" data-name="Path 770" class="cls-120" d="M1921,39V436.65h2.34a684.47,684.47,0,0,1-86.81,33.55c-243,75.56-480.92,5-531.49-157.6-25.28-81.3,1.08-170.21,64.12-248.25a473.33,473.33,0,0,1,53.93-56.19q3.78-3.35,7.64-6.65V7H1921Z"/>
          <path id="Path_771" data-name="Path 771" class="cls-121" d="M1921,40.2V434.33h.75a676.94,676.94,0,0,1-86,33.26c-240.81,74.88-476.66,5-526.77-156.2-25.06-80.58,1.06-168.7,63.55-246A469.43,469.43,0,0,1,1426,9.65c2.49-2.22,5-4.41,7.57-6.6V7H1921Z"/>
          <path id="Path_772" data-name="Path 772" class="cls-122" d="M1921,41.42V429.64h4.2l-5,2.38a672.24,672.24,0,0,1-85.29,33c-238.66,74.22-472.39,4.91-522.05-154.8-24.83-79.85,1.05-167.19,63-243.84a464.55,464.55,0,0,1,53-55.19q3.71-3.3,7.5-6.54V7H1921Z"/>
          <path id="Path_773" data-name="Path 773" class="cls-123" d="M1921,42.63V427.34h2.57l-5,2.36a663.88,663.88,0,0,1-84.49,32.66C1597.6,535.9,1366,467.22,1316.76,309c-24.6-79.14,1-165.68,62.42-241.64a459.89,459.89,0,0,1,52.49-54.7q3.67-3.25,7.43-6.47V7H1921Z"/>
          <path id="Path_774" data-name="Path 774" class="cls-124" d="M1921,43.85V422.67h5.85q-4.89,2.4-9.85,4.71a658.35,658.35,0,0,1-83.72,32.36c-234.34,72.88-463.84,4.82-512.61-152-24.38-78.41,1-164.16,61.84-239.43a457.63,457.63,0,0,1,52-54.2q7.27-6.45,14.92-12.74V7H1921Z"/>
          <path id="Path_775" data-name="Path 775" class="cls-125" d="M1921,45.06V420.4h4.17q-4.85,2.37-9.75,4.67a657.12,657.12,0,0,1-83,32.06c-232.18,72.2-459.58,4.77-507.89-150.6-24.16-77.69,1-162.66,61.27-237.23a451,451,0,0,1,51.54-53.7q7.2-6.4,14.78-12.62V7H1921Z"/>
          <path id="Path_776" data-name="Path 776" class="cls-126" d="M1921,46.28V418.13h2.5q-4.8,2.34-9.67,4.62a647.74,647.74,0,0,1-82.17,31.76c-230,71.54-455.31,4.73-503.18-149.2-23.93-77,1-161.14,60.71-235a448.27,448.27,0,0,1,51-53.2q7.15-6.34,14.65-12.5V7H1921Z"/>
          <path id="Path_777" data-name="Path 777" class="cls-127" d="M1921,47.49V415.85h.82q-4.75,2.32-9.57,4.58a642.41,642.41,0,0,1-81.41,31.47c-227.87,70.86-451,4.69-498.45-147.8-23.71-76.25,1-159.63,60.13-232.82a445,445,0,0,1,50.58-52.7q7.08-6.28,14.51-12.39V7H1921Z"/>
          <path id="Path_778" data-name="Path 778" class="cls-128" d="M1921,48.71V411.26h3.84l-4.69,2.32q-4.71,2.31-9.48,4.54A639.4,639.4,0,0,1,1830,449.29c-225.68,70.18-446.73,4.69-493.7-146.41-23.49-75.52,1-158.12,59.56-230.61a439,439,0,0,1,50.1-52.2q7-6.23,14.37-12.27,3.68-3,7.45-6V7H1921Z"/>
          <path id="Path_779" data-name="Path 779" class="cls-129" d="M1921,49.92V406.69h6.72q-9.18,4.68-18.64,9.11a630.29,630.29,0,0,1-79.86,30.87c-223.56,69.52-442.49,4.6-489-145-23.26-74.8,1-156.61,59-228.41a434.45,434.45,0,0,1,49.62-51.7q6.95-6.16,14.23-12.16,3.65-3,7.38-5.94V7H1921Z"/>
          <path id="Path_780" data-name="Path 780" class="cls-130" d="M1921,51.14V404.46h5q-9.09,4.64-18.46,9a625,625,0,0,1-79.1,30.58c-221.39,68.84-438.22,4.55-484.29-143.61-23-74.08,1-155.09,58.43-226.2A430.72,430.72,0,0,1,1451.72,23q6.87-6.1,14.09-12,3.62-3,7.31-5.89V7H1921Z"/>
          <path id="Path_781" data-name="Path 781" class="cls-131" d="M1921,52.35V402.23h3.2q-9,4.59-18.29,8.94a618.32,618.32,0,0,1-78.32,30.27C1608.35,509.62,1393.64,446,1348,299.24c-22.81-73.36,1-153.59,57.85-224a428,428,0,0,1,48.67-50.71q13.61-12.07,28.59-23.48V7H1921Z"/>
          <path id="Path_782" data-name="Path 782" class="cls-132" d="M1921,53.57V400h1.43q-8.91,4.54-18.1,8.85a613,613,0,0,1-77.55,30c-217.08,67.5-429.68,4.46-474.85-140.81-22.59-72.63,1-152.07,57.28-221.79A421.45,421.45,0,0,1,1457.4,26q13.47-12,28.31-23.25V7H1921Z"/>
          <path id="Path_783" data-name="Path 783" class="cls-133" d="M1921,54.78V395.5h4.06c-1.45.76-2.92,1.52-4.39,2.27q-8.84,4.51-17.92,8.76A605.4,605.4,0,0,1,1826,436.21c-214.92,66.84-425.4,4.42-470.13-139.4-22.36-71.92,1-150.56,56.72-219.59a418.84,418.84,0,0,1,47.7-49.71q13.35-11.85,28-23V7H1921Z"/>
          <path id="Path_784" data-name="Path 784" class="cls-134" d="M1921,56V391h6.57q-4.29,2.29-8.66,4.52-8.75,4.47-17.75,8.68a600.74,600.74,0,0,1-76,29.38c-212.76,66.16-421.13,4.37-465.41-138-22.14-71.19.94-149,56.15-217.38A414.93,414.93,0,0,1,1463.11,29q13.22-11.73,27.75-22.79V7H1921Z"/>
          <path id="Path_785" data-name="Path 785" class="cls-135" d="M1921,57.21V388.84h4.72c-2.83,1.51-5.7,3-8.58,4.47q-8.64,4.43-17.56,8.59A592.33,592.33,0,0,1,1824.34,431c-210.61,65.5-416.87,4.33-460.69-136.6-21.92-70.47.93-147.54,55.57-215.18A411.71,411.71,0,0,1,1466,30.49Q1479.05,18.88,1493.44,8c2.39-1.82,4.82-3.63,7.26-5.42V7H1921Z"/>
          <path id="Path_786" data-name="Path 786" class="cls-136" d="M1921,58.43V386.66h2.87q-4.21,2.23-8.49,4.43-8.57,4.37-17.39,8.49a585.35,585.35,0,0,1-74.47,28.79c-208.44,64.82-412.59,4.29-456-135.21-21.69-69.74.92-146,55-213A404.68,404.68,0,0,1,1468.83,32Q1481.78,20.49,1496,9.65c2.38-1.8,4.77-3.59,7.2-5.37V7H1921Z"/>
          <path id="Path_787" data-name="Path 787" class="cls-137" d="M1921,59.64V384.47h1q-4.17,2.23-8.41,4.39-8.46,4.32-17.2,8.41a580.41,580.41,0,0,1-73.7,28.49C1616.42,489.91,1414.39,430,1371.46,292c-21.46-69,.91-144.52,54.44-210.77a400.87,400.87,0,0,1,45.79-47.71q12.81-11.38,26.9-22.1Q1505.6,6,1513,.87V7h408Z"/>
          <path id="Path_788" data-name="Path 788" class="cls-138" d="M1921,60.86V380.08h3.28l-4.11,2.21q-4.12,2.2-8.32,4.34-8.38,4.28-17,8.32a574.88,574.88,0,0,1-72.93,28.19c-204.13,63.48-404.05,4.2-446.53-132.41-21.24-68.3.9-143,53.87-208.56A396.79,396.79,0,0,1,1474.55,35q12.67-11.25,26.62-21.86,7-5.29,14.24-10.42V7H1921Z"/>
          <path id="Path_789" data-name="Path 789" class="cls-139" d="M1921,62.07V375.71h5.41q-16.07,8.91-33.17,16.93a569.8,569.8,0,0,1-72.15,27.89c-202,62.8-399.78,4.15-441.82-131-21-67.58.9-141.49,53.3-206.36a394.37,394.37,0,0,1,44.84-46.72q12.54-11.13,26.34-21.63,6.88-5.25,14.08-10.31V7H1921Z"/>
          <path id="Path_790" data-name="Path 790" class="cls-140" d="M1921,63.29V373.57h3.48q-15.9,8.82-32.82,16.75a560.82,560.82,0,0,1-71.39,27.59c-199.81,62.14-395.51,4.11-437.09-129.61-20.79-66.86.88-140,52.73-204.15A388.55,388.55,0,0,1,1480.26,38q12.42-11,26.06-21.4,6.83-5.19,13.94-10.2V7H1921Z"/>
          <path id="Path_791" data-name="Path 791" class="cls-141" d="M1921,64.5V371.43h1.54q-15.72,8.73-32.47,16.57a557.3,557.3,0,0,1-70.61,27.3c-197.66,61.46-391.24,4.06-432.37-128.21-20.57-66.14.87-138.47,52.16-202a385.26,385.26,0,0,1,43.87-45.72q12.27-10.89,25.78-21.17,6.75-5.13,13.79-10.09,3.51-2.47,7.11-4.91V7H1921Z"/>
          <path id="Path_792" data-name="Path 792" class="cls-142" d="M1921,65.72V367.13h3.47c-1.28.73-2.57,1.46-3.87,2.17q-15.55,8.63-32.11,16.39a552.36,552.36,0,0,1-69.84,27c-195.51,60.8-387,4-427.66-126.81-20.34-65.41.87-136.95,51.6-199.74,25.36-31.4,58.11-60.6,96.73-85.76V7H1921Z"/>
          <path id="Path_793" data-name="Path 793" class="cls-143" d="M1921,67V362.84h5.29q-3.78,2.19-7.63,4.32-15.37,8.54-31.75,16.21a543.37,543.37,0,0,1-69.08,26.7c-193.34,60.12-382.69,4-422.93-125.41-20.12-64.69.86-135.45,51-197.54,25.09-31,57.47-59.93,95.67-84.81V7H1921Z"/>
          <path id="Path_794" data-name="Path 794" class="cls-144" d="M1921,68.15V360.76h3.26q-3.73,2.16-7.54,4.27-15.2,8.43-31.4,16a538.29,538.29,0,0,1-68.3,26.4c-191.19,59.46-378.43,3.94-418.21-124-19.89-64,.84-133.93,50.45-195.33,24.81-30.71,56.83-59.27,94.6-83.87V7H1921Z"/>
          <path id="Path_795" data-name="Path 795" class="cls-145" d="M1921,69.36V358.67h1.24c-2.46,1.42-5,2.83-7.45,4.22q-15,8.36-31,15.85a532.76,532.76,0,0,1-67.53,26.1c-189,58.78-374.16,3.89-413.49-122.61-19.67-63.25.83-132.42,49.88-193.13,24.52-30.36,56.18-58.6,93.53-82.92V7H1921Z"/>
          <path id="Path_796" data-name="Path 796" class="cls-146" d="M1921,70.58V352.31h6.46q-7.18,4.32-14.61,8.45Q1898,369,1882.16,376.42a526.5,526.5,0,0,1-66.77,25.81c-186.87,58.11-369.88,3.84-408.77-121.22-19.44-62.52.83-130.91,49.32-190.92,24.24-30,55.54-57.93,92.46-82q3.46-2.25,7-4.46V7H1921Z"/>
          <path id="Path_797" data-name="Path 797" class="cls-147" d="M1921,71.79V350.27h4.35q-7.1,4.28-14.44,8.35-14.7,8.16-30.34,15.48a519.47,519.47,0,0,1-66,25.51c-184.71,57.44-365.61,3.8-404-119.81-19.22-61.81.82-129.4,48.74-188.72,24-29.67,54.91-57.26,91.4-81q6.84-4.45,13.94-8.73V7H1921Z"/>
          <path id="Path_798" data-name="Path 798" class="cls-148" d="M1921,73V348.23h2.25q-7,4.23-14.28,8.26-14.52,8.06-30,15.3a515.52,515.52,0,0,1-65.2,25.19c-182.56,56.76-361.34,3.75-399.33-118.42-19-61.08.8-127.88,48.17-186.52,23.69-29.29,54.26-56.56,90.33-80.06q6.76-4.41,13.78-8.63V7H1921Z"/>
          <path id="Path_799" data-name="Path 799" class="cls-149" d="M1921,74.22v272h.14q-6.93,4.18-14.11,8.16-14.34,8-29.63,15.12a508,508,0,0,1-64.4,24.88c-180.4,56.1-357.08,3.71-394.62-117-18.81-60.4.76-126.4,47.62-184.33,23.4-29,53.62-55.91,89.26-79.13q6.67-4.35,13.61-8.52V7H1921Z"/>
          <path id="Path_800" data-name="Path 800" class="cls-150" d="M1921,75.44V340h4.82q-3.36,2.1-6.79,4.17-6.84,4.11-13.94,8.05-14.17,7.88-29.27,14.94a501.89,501.89,0,0,1-63.68,24.62c-178.24,55.42-352.8,3.66-389.89-115.62-18.55-59.64.79-124.86,47-182.11,23.12-28.62,53-55.25,88.19-78.18q6.6-4.3,13.45-8.43c2.28-1.37,4.59-2.73,6.91-4.07V7H1921Z"/>
          <path id="Path_801" data-name="Path 801" class="cls-151" d="M1921,76.65V338h2.63c-2.21,1.39-4.45,2.76-6.7,4.12q-6.77,4.06-13.77,8-14,7.77-28.92,14.76a496.31,496.31,0,0,1-62.91,24.31c-176.08,54.76-348.53,3.62-385.17-114.21-18.32-58.92.77-123.35,46.46-179.91,22.85-28.27,52.34-54.58,87.13-77.23q13-8.5,27.06-16.29V7H1921Z"/>
          <path id="Path_802" data-name="Path 802" class="cls-152" d="M1921,77.87v254h7a472.58,472.58,0,0,1-117.43,54.68c-173.93,54.08-344.26,3.57-380.46-112.82C1412,215.53,1430.83,151.88,1476,96c22.57-27.93,51.7-53.91,86.06-76.29q12.89-8.39,26.73-16.08V7H1921Z"/>
          <path id="Path_803" data-name="Path 803" class="cls-153" d="M1921,79.08V329.92h4.68a466.72,466.72,0,0,1-116,54c-171.76,53.42-340,3.54-375.73-111.41-17.87-57.47.76-120.33,45.33-175.5,22.28-27.58,51-53.24,85-75.34q12.72-8.3,26.41-15.89V7H1921Z"/>
          <path id="Path_804" data-name="Path 804" class="cls-154" d="M1921,80.3V328h2.41a461.41,461.41,0,0,1-114.52,53.32c-169.61,52.74-335.72,3.49-371-110-17.65-56.75.75-118.81,44.76-173.29,22-27.23,50.41-52.57,83.92-74.4q12.56-8.17,26.06-15.68,6.75-3.75,13.72-7.3V7H1921Z"/>
          <path id="Path_805" data-name="Path 805" class="cls-155" d="M1921,81.51V326.05h.14a454.47,454.47,0,0,1-113.06,52.64c-167.45,52.08-331.45,3.45-366.3-108.61-17.42-56,.74-117.31,44.19-171.09,21.73-26.89,49.78-51.9,82.86-73.45q12.4-8.09,25.73-15.49,6.66-3.69,13.54-7.2V7H1921Z"/>
          <path id="Path_806" data-name="Path 806" class="cls-156" d="M1921,82.73V320.09h3.93c-2,1.33-4,2.67-6.06,4a449.48,449.48,0,0,1-111.61,52c-165.29,51.4-327.17,3.4-361.57-107.22-17.2-55.3.73-115.79,43.62-168.88,21.45-26.54,49.13-51.23,81.79-72.5q12.24-8,25.4-15.29,6.57-3.64,13.36-7.12V7H1921Z"/>
          <path id="Path_807" data-name="Path 807" class="cls-157" d="M1921,84V318.2h1.58l-6,4a443.33,443.33,0,0,1-110.15,51.29c-163.13,50.73-322.9,3.35-356.85-105.82-17-54.59.72-114.28,43.05-166.68,21.16-26.2,48.49-50.57,80.72-71.56A426.36,426.36,0,0,1,1625.21.67V7H1921Z"/>
          <path id="Path_808" data-name="Path 808" class="cls-158" d="M1921,85.16V312.32h5q-5.73,4-11.69,7.92a437.27,437.27,0,0,1-108.69,50.61c-161,50.06-318.64,3.31-352.13-104.42-16.75-53.86.71-112.77,42.48-164.47,20.88-25.85,47.84-49.9,79.65-70.61A418.08,418.08,0,0,1,1626.82,3V7H1921Z"/>
          <path id="Path_809" data-name="Path 809" class="cls-159" d="M1921,86.37V310.49h2.6q-5.65,4-11.54,7.82a432.25,432.25,0,0,1-107.23,49.93c-158.83,49.38-314.37,3.26-347.42-103-16.52-53.14.7-111.26,41.91-162.27,20.61-25.5,47.21-49.23,78.59-69.67a414.22,414.22,0,0,1,50.49-28V7H1921Z"/>
          <path id="Path_810" data-name="Path 810" class="cls-160" d="M1921,87.59V308.66h.17q-5.58,3.93-11.38,7.71A425.8,425.8,0,0,1,1804,365.62c-156.66,48.72-310.09,3.22-342.69-101.62-16.31-52.41.69-109.74,41.35-160,20.33-25.16,46.57-48.56,77.52-68.72A408.24,408.24,0,0,1,1630,7.6q6.63-3.1,13.45-6V7H1921Z"/>
          <path id="Path_811" data-name="Path 811" class="cls-161" d="M1921,88.8V302.92h3.19c-1.8,1.32-3.61,2.62-5.45,3.91q-5.49,3.87-11.22,7.6A420,420,0,0,1,1803.2,363c-154.51,48-305.82,3.17-338-100.22-16.08-51.7.68-108.24,40.77-157.86,20-24.81,45.92-47.89,76.45-67.77a403.42,403.42,0,0,1,49.12-27.24q6.54-3.06,13.26-5.93V7H1921Z"/>
          <path id="Path_812" data-name="Path 812" class="cls-162" d="M1921,90V297.23h5.94q-10.39,7.9-21.69,15.27a414.14,414.14,0,0,1-102.86,47.89c-152.35,47.38-301.55,3.14-333.26-98.81-15.85-51,.68-106.73,40.21-155.66,19.76-24.46,45.28-47.22,75.38-66.83a397.66,397.66,0,0,1,48.43-26.86q12.9-6,26.52-11.31V7H1921Z"/>
          <path id="Path_813" data-name="Path 813" class="cls-163" d="M1921,91.23V295.51h3.37q-10.26,7.78-21.39,15.05a408.18,408.18,0,0,1-101.41,47.22c-150.19,46.7-297.28,3.09-328.53-97.42-15.63-50.25.66-105.21,39.63-153.45C1532.16,82.79,1557.32,60.35,1587,41a390.69,390.69,0,0,1,47.75-26.48q12.71-5.94,26.14-11.15V7H1921Z"/>
          <path id="Path_814" data-name="Path 814" class="cls-164" d="M1921,92.44V293.79h.79q-10.11,7.68-21.08,14.84a402.41,402.41,0,0,1-100,46.53c-148,46-293,3-323.81-96-15.41-49.54.65-103.71,39.06-151.25,19.26-23.78,44-45.93,73.3-64.93a385.45,385.45,0,0,1,47.06-26.09q12.53-5.86,25.77-11V7H1921Z"/>
          <path id="Path_815" data-name="Path 815" class="cls-165" d="M1921,93.66V288.25h3.14c-1.63,1.28-3.28,2.55-4.93,3.82q-10,7.56-20.77,14.62A396.44,396.44,0,0,1,1800,352.55c-145.88,45.36-288.74,3-319.1-94.62-15.17-48.81.65-102.19,38.5-149,18.92-23.43,43.36-45.22,72.18-64a382.8,382.8,0,0,1,46.32-25.75q12.35-5.77,25.4-10.83,6.51-2.52,13.2-4.85V7H1921Z"/>
          <path id="Path_816" data-name="Path 816" class="cls-166" d="M1921,94.87V282.76h5.23q-4.7,3.86-9.59,7.59-9.81,7.45-20.47,14.4a390.71,390.71,0,0,1-97,45.19c-143.71,44.69-284.46,3-314.37-93.22s62.31-210.37,206-255.07V7H1921Z"/>
          <path id="Path_817" data-name="Path 817" class="cls-167" d="M1921,96.09V281.16h2.51q-4.62,3.79-9.45,7.47-9.66,7.35-20.16,14.19a384.88,384.88,0,0,1-95.58,44.5c-141.56,44-280.19,2.91-309.65-91.82s61.41-207.21,203-251.23V7h217.2V5.18q9.81,3.93,18.86,8.62H1921Z"/>
          <path id="Path_818" data-name="Path 818" class="cls-168" d="M1921,97.3V275.79h4.28c-1.48,1.26-3,2.52-4.49,3.76q-4.55,3.74-9.31,7.36-9.51,7.23-19.85,14a378.69,378.69,0,0,1-94.12,43.83c-139.4,43.35-275.93,2.86-304.94-90.42S1553.06,50.23,1692.46,6.88V7h193.86V.86a218.71,218.71,0,0,1,38.6,15.41H1921Z"/>
          <path id="Path_819" data-name="Path 819" class="cls-169" d="M1921,98.52v172h5.8A317.38,317.38,0,0,1,1889.36,299a372.79,372.79,0,0,1-92.66,43.15c-137.25,42.68-271.66,2.82-300.22-89S1556,52.18,1693.27,9.5q12.87-4,25.67-7V7h165.19V3.56a214.57,214.57,0,0,1,38,15.18H1921Z"/>
          <path id="Path_820" data-name="Path 820" class="cls-170" d="M1921,99.73V269h2.94a312.2,312.2,0,0,1-36.85,28,367.51,367.51,0,0,1-91.21,42.47c-135.08,42-267.38,2.78-295.49-87.62S1559,54.12,1694.08,12.11a379.72,379.72,0,0,1,50.33-12V7H1882V6.27a211.46,211.46,0,0,1,37.4,14.94q4.3,2.23,8.42,4.66H1921Z"/>
          <path id="Path_821" data-name="Path 821" class="cls-171" d="M1921,101V267.51h.09a307.28,307.28,0,0,1-36.27,27.56,360.9,360.9,0,0,1-89.75,41.79c-132.93,41.34-263.11,2.74-290.78-86.22S1562,56.06,1694.9,14.73a372.23,372.23,0,0,1,49.52-11.81V7H1838V.39A258.54,258.54,0,0,1,1879.76,9a208,208,0,0,1,36.8,14.7q4.25,2.2,8.29,4.59H1921Z"/>
          <path id="Path_822" data-name="Path 822" class="cls-172" d="M1921,102.16V258.71h5.14q-3.86,3.71-7.91,7.31a303.08,303.08,0,0,1-35.68,27.12,355.56,355.56,0,0,1-88.29,41.11c-130.77,40.66-258.85,2.69-286.06-84.82S1564.94,58,1695.71,17.34a355.74,355.74,0,0,1,96-16.21c30.82-.79,59.94,2.88,85.82,10.56a204.27,204.27,0,0,1,36.21,14.46q4.17,2.16,8.15,4.51H1921Z"/>
          <path id="Path_823" data-name="Path 823" class="cls-173" d="M1921,103.38v154h2.15q-3.8,3.63-7.78,7.18a296.89,296.89,0,0,1-35.09,26.67,349,349,0,0,1-86.84,40.43c-128.61,40-254.57,2.65-281.33-83.42S1567.91,60,1696.52,20A349.72,349.72,0,0,1,1791,4c30.31-.77,59,2.84,84.4,10.38A202,202,0,0,1,1911,28.62a169.48,169.48,0,0,1,15.66,9.22H1921Z"/>
          <path id="Path_824" data-name="Path 824" class="cls-174" d="M1921,104.59V248.74h6.39q-7,7.32-14.88,14.3a289.9,289.9,0,0,1-34.5,26.22A343.41,343.41,0,0,1,1792.63,329c-126.45,39.32-250.3,2.6-276.61-82s54.86-185.11,181.31-224.43c63.23-19.66,125.81-20.31,175.86-5.47a198,198,0,0,1,35,14,166,166,0,0,1,15.39,9.07H1921Z"/>
          <path id="Path_825" data-name="Path 825" class="cls-175" d="M1921,105.81V247.5h3.28c-4.6,4.79-9.48,9.49-14.63,14a286.77,286.77,0,0,1-33.91,25.78,338.36,338.36,0,0,1-83.92,39.08c-124.3,38.65-246,2.55-271.9-80.63s53.93-181.94,178.23-220.6c62.15-19.32,123.65-20,172.86-5.37a195.4,195.4,0,0,1,34.41,13.74,164.1,164.1,0,0,1,15.14,8.92c2.39,1.59,4.73,3.23,7,4.94H1921Z"/>
          <path id="Path_826" data-name="Path 826" class="cls-176" d="M1921,107V246.25h.17q-6.78,7.08-14.38,13.81a280.59,280.59,0,0,1-33.32,25.33,331.65,331.65,0,0,1-82.47,38.4c-122.14,38-241.75,2.51-267.17-79.22S1576.82,65.78,1699,27.8c61-19,121.47-19.62,169.82-5.28A191.16,191.16,0,0,1,1902.64,36a161.82,161.82,0,0,1,14.87,8.76q3.52,2.35,6.87,4.86H1921Z"/>
          <path id="Path_827" data-name="Path 827" class="cls-177" d="M1921,108.24V238h3.52q-3.13,3.54-6.46,7-6.68,6.95-14.13,13.57a277.38,277.38,0,0,1-32.73,24.88,326.23,326.23,0,0,1-81,37.72c-120,37.31-237.49,2.46-262.45-77.83s52-175.63,172-212.94c60-18.65,119.37-19.27,166.86-5.18,23.75,7,44.53,17.75,60.93,31.73H1921Z"/>
          <path id="Path_828" data-name="Path 828" class="cls-178" d="M1921,109.45V229.84h6.23c-30.57,37.84-78.94,70.4-137.85,88.72-117.83,36.64-233.22,2.42-257.74-76.42S1582.76,69.67,1700.59,33C1759.5,14.71,1817.8,14.1,1864.44,28c23.32,6.92,43.73,17.44,59.84,31.17H1921Z"/>
          <path id="Path_829" data-name="Path 829" class="cls-179" d="M1921,110.67V228.85h2.89c-30,37.14-77.49,69.11-135.32,87.1-115.67,36-229,2.38-253-75S1585.73,71.61,1701.4,35.64c57.83-18,115.07-18.58,160.86-5,22.89,6.79,42.92,17.12,58.73,30.59q3,2.54,5.73,5.2H1921Z"/>
          <path id="Path_830" data-name="Path 830" class="cls-180" d="M1921,111.88V221h4.87q-2.55,3.48-5.32,6.9c-29.45,36.45-76,67.82-132.8,85.47-113.51,35.3-224.67,2.34-248.29-73.62S1588.7,73.55,1702.21,38.26C1759,20.61,1815.14,20,1860.07,33.35c22.47,6.66,42.12,16.8,57.64,30q2.91,2.48,5.62,5.1H1921Z"/>
          <path id="Path_831" data-name="Path 831" class="cls-181" d="M1921,113.1V213.24h6.25q-4.61,6.91-10,13.63c-28.9,35.76-74.61,66.54-130.28,83.85-111.35,34.62-220.4,2.29-243.58-72.23s48.31-163,159.67-197.62C1758.7,23.56,1813.8,23,1857.88,36.06c22,6.53,41.32,16.48,56.55,29.45a115.94,115.94,0,0,1,10.63,10.28H1921Z"/>
          <path id="Path_832" data-name="Path 832" class="cls-182" d="M1921,114.31v98.2h2.72q-4.53,6.78-9.84,13.37c-28.33,35.07-73.16,65.25-127.75,82.22-109.2,34-216.14,2.25-238.86-70.82s47.38-159.84,156.57-193.79c54.6-17,108.63-17.54,151.85-4.73,21.62,6.41,40.53,16.17,55.45,28.88a114.22,114.22,0,0,1,10.43,10.09H1921Z"/>
          <path id="Path_833" data-name="Path 833" class="cls-183" d="M1921,115.53V205.1h3.42q-2,3.36-4.23,6.69-4.44,6.65-9.65,13.1c-27.77,34.37-71.71,64-125.23,80.6-107,33.28-211.86,2.2-234.13-69.43s46.44-156.67,153.47-190c53.52-16.64,106.49-17.19,148.86-4.63,21.18,6.28,39.72,15.84,54.35,28.31a104.89,104.89,0,0,1,18.86,20.83H1921Z"/>
          <path id="Path_834" data-name="Path 834" class="cls-184" d="M1921,116.74v81.14h3.54a163.4,163.4,0,0,1-17.34,26c-27.21,33.68-70.26,62.67-122.7,79-104.88,32.62-207.59,2.16-229.42-68s45.51-153.52,150.39-186.13c52.43-16.31,104.33-16.85,145.85-4.54,20.76,6.16,38.92,15.52,53.26,27.74a103.92,103.92,0,0,1,18.48,20.41H1921Z"/>
          <path id="Path_835" data-name="Path 835" class="cls-185" d="M1921,118v66.31h6a133.08,133.08,0,0,1-6.12,13.16,162.14,162.14,0,0,1-17,25.48c-26.66,33-68.82,61.38-120.18,77.35-102.72,31.94-203.32,2.11-224.7-66.63s44.57-150.36,147.29-182.3c51.36-16,102.19-16.5,142.85-4.44,20.33,6,38.12,15.2,52.16,27.17a101.55,101.55,0,0,1,18.11,20,92.39,92.39,0,0,1,6.66,11.48H1921Z"/>
          <path id="Path_836" data-name="Path 836" class="cls-186" d="M1921,119.17v51.88h6.51c-4.68,17.45-13.93,34.72-27,50.87-26.09,32.3-67.37,60.09-117.66,75.73-100.56,31.27-199,2.06-220-65.23S1606.53,85.22,1707.09,54s199.05-2.06,220,65.23Z"/>
          <path id="Path_837" data-name="Path 837" class="cls-187" d="M1921,120.39v50.76h2.59c-4.58,17.07-13.63,34-26.4,49.78-25.53,31.6-65.93,58.8-115.13,74.1-98.4,30.6-194.78,2-215.26-63.83s42.7-144,141.1-174.64,194.78-2,215.26,63.83Z"/>
          <path id="Path_838" data-name="Path 838" class="cls-188" d="M1919.25,121.6c5,16.1,4.9,33,.42,49.66s-13.33,33.22-25.82,48.68c-25,30.91-64.48,57.51-112.6,72.48-96.25,29.93-190.51,2-210.54-62.43s41.76-140.89,138-170.82S1899.22,57.19,1919.25,121.6Z"/>
          <path id="Path_839" data-name="Path 839" class="cls-189" d="M1915.35,122.82c9.79,31.48-.42,65.91-24.83,96.13s-63,56.22-110.08,70.85c-94.09,29.26-186.24,1.94-205.82-61s40.82-137.72,134.91-167S1895.77,59.85,1915.35,122.82Z"/>
          <path id="Path_840" data-name="Path 840" class="cls-190" d="M1911.44,124c9.57,30.76-.41,64.4-24.26,93.93s-61.59,54.93-107.56,69.23c-91.93,28.59-182,1.89-201.09-59.63S1618.41,93,1710.34,64.4,1892.31,62.51,1911.44,124Z"/>
          <ellipse id="Ellipse_8" data-name="Ellipse 8" class="cls-191" cx="1745.01" cy="175.92" rx="170.23" ry="113.92" transform="translate(26.44 525.98) rotate(-17.27)"/>
          <ellipse id="Ellipse_9" data-name="Ellipse 9" class="cls-192" cx="1745.01" cy="175.92" rx="166.14" ry="111.18" transform="translate(26.44 525.98) rotate(-17.27)"/>
          <ellipse id="Ellipse_10" data-name="Ellipse 10" class="cls-193" cx="1745.01" cy="175.92" rx="162.05" ry="108.44" transform="translate(26.44 525.98) rotate(-17.27)"/>
          <ellipse id="Ellipse_11" data-name="Ellipse 11" class="cls-194" cx="1745.01" cy="175.92" rx="157.95" ry="105.7" transform="translate(26.44 525.98) rotate(-17.27)"/>
          <ellipse id="Ellipse_12" data-name="Ellipse 12" class="cls-195" cx="1736.95" cy="169.63" rx="153.28" ry="102.57" transform="translate(29.55 530.94) rotate(-17.53)"/>
          <ellipse id="Ellipse_13" data-name="Ellipse 13" class="cls-196" cx="1745.01" cy="175.92" rx="149.77" ry="100.23" transform="matrix(0.95, -0.3, 0.3, 0.95, 26.44, 525.98)"/>
          <ellipse id="Ellipse_14" data-name="Ellipse 14" class="cls-197" cx="1745.01" cy="175.92" rx="145.68" ry="97.49" transform="translate(26.44 525.98) rotate(-17.27)"/>
          <ellipse id="Ellipse_15" data-name="Ellipse 15" class="cls-198" cx="1745.01" cy="175.92" rx="141.59" ry="94.75" transform="translate(26.44 525.98) rotate(-17.27)"/>
          <ellipse id="Ellipse_16" data-name="Ellipse 16" class="cls-199" cx="1745.01" cy="175.92" rx="137.5" ry="92.01" transform="translate(26.44 525.98) rotate(-17.27)"/>
          <ellipse id="Ellipse_17" data-name="Ellipse 17" class="cls-200" cx="1745.01" cy="175.92" rx="133.41" ry="89.27" transform="translate(26.44 525.98) rotate(-17.27)"/>
          <ellipse id="Ellipse_18" data-name="Ellipse 18" class="cls-201" cx="1745.01" cy="175.92" rx="129.31" ry="86.54" transform="matrix(0.95, -0.3, 0.3, 0.95, 26.44, 525.98)"/>
          <ellipse id="Ellipse_19" data-name="Ellipse 19" class="cls-202" cx="1745.01" cy="175.92" rx="125.22" ry="83.8" transform="translate(26.44 525.98) rotate(-17.27)"/>
          <ellipse id="Ellipse_20" data-name="Ellipse 20" class="cls-203" cx="1745.01" cy="175.92" rx="121.13" ry="81.06" transform="translate(26.44 525.98) rotate(-17.27)"/>
          <ellipse id="Ellipse_21" data-name="Ellipse 21" class="cls-204" cx="1745.01" cy="175.92" rx="117.04" ry="78.32" transform="matrix(0.95, -0.3, 0.3, 0.95, 26.44, 525.98)"/>
          <ellipse id="Ellipse_22" data-name="Ellipse 22" class="cls-205" cx="1745.01" cy="175.92" rx="112.95" ry="75.58" transform="translate(26.44 525.98) rotate(-17.27)"/>
          <ellipse id="Ellipse_23" data-name="Ellipse 23" class="cls-206" cx="1745.01" cy="175.92" rx="108.86" ry="72.85" transform="translate(26.44 525.98) rotate(-17.27)"/>
          <ellipse id="Ellipse_24" data-name="Ellipse 24" class="cls-207" cx="1736.95" cy="169.64" rx="104.38" ry="69.85" transform="translate(29.54 530.94) rotate(-17.53)"/>
          <ellipse id="Ellipse_25" data-name="Ellipse 25" class="cls-208" cx="1745.01" cy="175.92" rx="100.67" ry="67.37" transform="translate(26.44 525.98) rotate(-17.27)"/>
          <ellipse id="Ellipse_26" data-name="Ellipse 26" class="cls-209" cx="1745.01" cy="175.92" rx="96.58" ry="64.63" transform="translate(26.44 525.98) rotate(-17.27)"/>
          <ellipse id="Ellipse_27" data-name="Ellipse 27" class="cls-210" cx="1745.01" cy="175.92" rx="92.49" ry="61.89" transform="translate(26.44 525.98) rotate(-17.27)"/>
          <ellipse id="Ellipse_28" data-name="Ellipse 28" class="cls-211" cx="1745.01" cy="175.92" rx="88.4" ry="59.16" transform="translate(26.44 525.98) rotate(-17.27)"/>
          <ellipse id="Ellipse_29" data-name="Ellipse 29" class="cls-212" cx="1745.01" cy="175.92" rx="84.31" ry="56.42" transform="translate(26.44 525.98) rotate(-17.27)"/>
          <ellipse id="Ellipse_30" data-name="Ellipse 30" class="cls-213" cx="1745.01" cy="175.92" rx="80.22" ry="53.68" transform="translate(26.44 525.98) rotate(-17.27)"/>
          <ellipse id="Ellipse_31" data-name="Ellipse 31" class="cls-214" cx="1745.01" cy="175.92" rx="76.13" ry="50.94" transform="translate(26.44 525.98) rotate(-17.27)"/>
          <ellipse id="Ellipse_32" data-name="Ellipse 32" class="cls-215" cx="1745.01" cy="175.92" rx="72.03" ry="48.21" transform="translate(26.44 525.98) rotate(-17.27)"/>
          <ellipse id="Ellipse_33" data-name="Ellipse 33" class="cls-216" cx="1745.01" cy="175.92" rx="67.94" ry="45.47" transform="translate(26.44 525.98) rotate(-17.27)"/>
          <ellipse id="Ellipse_34" data-name="Ellipse 34" class="cls-217" cx="1745.01" cy="175.92" rx="63.85" ry="42.73" transform="translate(26.44 525.98) rotate(-17.27)"/>
          <ellipse id="Ellipse_35" data-name="Ellipse 35" class="cls-218" cx="1745.01" cy="175.92" rx="59.76" ry="39.99" transform="translate(26.44 525.98) rotate(-17.27)"/>
          <ellipse id="Ellipse_36" data-name="Ellipse 36" class="cls-219" cx="1736.95" cy="169.63" rx="55.46" ry="37.11" transform="translate(29.54 530.94) rotate(-17.53)"/>
          <ellipse id="Ellipse_37" data-name="Ellipse 37" class="cls-220" cx="1745.01" cy="175.92" rx="51.58" ry="34.52" transform="translate(26.44 525.98) rotate(-17.27)"/>
          <ellipse id="Ellipse_38" data-name="Ellipse 38" class="cls-221" cx="1745.01" cy="175.92" rx="47.49" ry="31.78" transform="translate(26.44 525.98) rotate(-17.27)"/>
          <ellipse id="Ellipse_39" data-name="Ellipse 39" class="cls-222" cx="1745.01" cy="175.92" rx="43.39" ry="29.04" transform="translate(26.44 525.98) rotate(-17.27)"/>
          <ellipse id="Ellipse_40" data-name="Ellipse 40" class="cls-223" cx="1745.01" cy="175.92" rx="39.3" ry="26.3" transform="translate(26.44 525.98) rotate(-17.27)"/>
          <ellipse id="Ellipse_41" data-name="Ellipse 41" class="cls-224" cx="1745.01" cy="175.92" rx="35.21" ry="23.56" transform="translate(26.44 525.98) rotate(-17.27)"/>
          <ellipse id="Ellipse_42" data-name="Ellipse 42" class="cls-225" cx="1745.01" cy="175.92" rx="31.12" ry="20.83" transform="translate(26.44 525.98) rotate(-17.27)"/>
          <ellipse id="Ellipse_43" data-name="Ellipse 43" class="cls-226" cx="1745.01" cy="175.92" rx="27.03" ry="18.09" transform="translate(26.44 525.98) rotate(-17.27)"/>
          <ellipse id="Ellipse_44" data-name="Ellipse 44" class="cls-227" cx="1745.01" cy="175.92" rx="22.94" ry="15.35" transform="translate(26.44 525.98) rotate(-17.27)"/>
          <ellipse id="Ellipse_45" data-name="Ellipse 45" class="cls-228" cx="1745.01" cy="175.92" rx="18.85" ry="12.61" transform="translate(26.44 525.98) rotate(-17.27)"/>
        </g>
      </g>
    </g>
  </g>
</svg>