<svg xmlns="http://www.w3.org/2000/svg" viewBox="0 0 686.17 570.36"><defs><style>.cls-1{fill:#230f14;}.cls-2{fill:#541613;}.cls-3{fill:#491414;}.cls-4{fill:#561613;}.cls-5{fill:#341214;}.cls-6{fill:#4c1514;}.cls-7{fill:#2f1114;}.cls-8{fill:#5d1713;}.cls-9{fill:#b72311;}.cls-10{fill:#c62511;}.cls-11{fill:#551613;}.cls-12{fill:#6c1913;}.cls-13{fill:#941e12;}.cls-14{fill:#281014;}</style></defs><g id="Layer_2" data-name="Layer 2"><g id="Layer_346" data-name="Layer 346"><polygon class="cls-1" points="458.66 191.37 493.23 8.74 331.9 0 458.66 191.37"/><polygon class="cls-2" points="331.9 0 248.33 260.63 458.66 191.37 331.9 0"/><polygon class="cls-3" points="118.57 38.26 248.33 260.63 331.9 0 118.57 38.26"/><polygon class="cls-4" points="458.66 191.37 596.42 324.73 563.99 230.1 458.66 191.37"/><polygon class="cls-5" points="493.23 8.74 458.66 191.37 563.99 230.1 493.23 8.74"/><polygon class="cls-6" points="118.76 324.26 248.33 260.63 0 153.89 118.76 324.26"/><polygon class="cls-7" points="248.33 260.63 118.57 38.26 0 153.89 248.33 260.63"/><polygon class="cls-8" points="425.85 570.36 596.42 324.73 347.09 405 425.85 570.36"/><polygon class="cls-9" points="596.42 324.73 458.66 191.37 347.09 405 596.42 324.73"/><polygon class="cls-10" points="458.66 191.37 248.33 260.63 347.09 405 458.66 191.37"/><polygon class="cls-11" points="347.09 405 248.52 500.62 425.85 570.36 347.09 405"/><polygon class="cls-12" points="118.76 324.26 248.52 500.62 347.09 405 118.76 324.26"/><polygon class="cls-13" points="248.33 260.63 118.76 324.26 347.09 405 248.33 260.63"/><polygon class="cls-14" points="596.42 324.74 425.85 570.36 686.17 482.1 596.42 324.74"/></g></g></svg>