<svg xmlns="http://www.w3.org/2000/svg" viewBox="0 0 1881.49 829"><defs><style>.cls-1{fill:#fff;}.cls-2{fill:#ffc201;}</style></defs><g id="Layer_2" data-name="Layer 2"><g id="Layer_1-2" data-name="Layer 1"><polygon class="cls-1" points="8.66 28.5 0.58 14.5 8.66 0.5 24.83 0.5 32.91 14.5 24.83 28.5 8.66 28.5"/><path class="cls-2" d="M24.54,1l7.79,13.5L24.54,28H9L1.15,14.5,9,1H24.54m.57-1H8.37L0,14.5,8.37,29H25.11l8.38-14.5L25.11,0Z"/><polygon class="cls-1" points="50.66 28.5 42.58 14.5 50.66 0.5 66.83 0.5 74.91 14.5 66.83 28.5 50.66 28.5"/><path class="cls-2" d="M66.54,1l7.79,13.5L66.54,28H51l-7.8-13.5L51,1H66.54m.57-1H50.37L42,14.5,50.37,29H67.11l8.38-14.5L67.11,0Z"/><polygon class="cls-1" points="92.66 28.5 84.58 14.5 92.66 0.5 108.83 0.5 116.91 14.5 108.83 28.5 92.66 28.5"/><path class="cls-2" d="M108.54,1l7.79,13.5L108.54,28H93l-7.8-13.5L93,1h15.59m.57-1H92.37L84,14.5,92.37,29h16.74l8.38-14.5L109.11,0Z"/><polygon class="cls-1" points="134.66 28.5 126.58 14.5 134.66 0.5 150.83 0.5 158.91 14.5 150.83 28.5 134.66 28.5"/><path class="cls-2" d="M150.54,1l7.79,13.5L150.54,28H135l-7.8-13.5L135,1h15.59m.57-1H134.37L126,14.5,134.37,29h16.74l8.38-14.5L151.11,0Z"/><polygon class="cls-1" points="176.66 28.5 168.58 14.5 176.66 0.5 192.83 0.5 200.91 14.5 192.83 28.5 176.66 28.5"/><path class="cls-2" d="M192.54,1l7.79,13.5L192.54,28H177l-7.8-13.5L177,1h15.59m.57-1H176.37L168,14.5,176.37,29h16.74l8.38-14.5L193.11,0Z"/><polygon class="cls-1" points="218.66 28.5 210.58 14.5 218.66 0.5 234.83 0.5 242.91 14.5 234.83 28.5 218.66 28.5"/><path class="cls-2" d="M234.54,1l7.79,13.5L234.54,28H219l-7.8-13.5L219,1h15.59m.57-1H218.37L210,14.5,218.37,29h16.74l8.38-14.5L235.11,0Z"/><polygon class="cls-1" points="260.66 28.5 252.58 14.5 260.66 0.5 276.83 0.5 284.91 14.5 276.83 28.5 260.66 28.5"/><path class="cls-2" d="M276.54,1l7.79,13.5L276.54,28H261l-7.8-13.5L261,1h15.59m.57-1H260.37L252,14.5,260.37,29h16.74l8.38-14.5L277.11,0Z"/><polygon class="cls-1" points="302.66 28.5 294.58 14.5 302.66 0.5 318.83 0.5 326.91 14.5 318.83 28.5 302.66 28.5"/><path class="cls-2" d="M318.54,1l7.79,13.5L318.54,28H303l-7.8-13.5L303,1h15.59m.57-1H302.37L294,14.5,302.37,29h16.74l8.38-14.5L319.11,0Z"/><polygon class="cls-1" points="344.66 28.5 336.58 14.5 344.66 0.5 360.83 0.5 368.91 14.5 360.83 28.5 344.66 28.5"/><path class="cls-2" d="M360.54,1l7.79,13.5L360.54,28H345l-7.8-13.5L345,1h15.59m.57-1H344.37L336,14.5,344.37,29h16.74l8.38-14.5L361.11,0Z"/><polygon class="cls-1" points="386.66 28.5 378.58 14.5 386.66 0.5 402.83 0.5 410.91 14.5 402.83 28.5 386.66 28.5"/><path class="cls-2" d="M402.54,1l7.79,13.5L402.54,28H387l-7.8-13.5L387,1h15.59m.57-1H386.37L378,14.5,386.37,29h16.74l8.38-14.5L403.11,0Z"/><polygon class="cls-1" points="428.66 28.5 420.58 14.5 428.66 0.5 444.83 0.5 452.91 14.5 444.83 28.5 428.66 28.5"/><path class="cls-2" d="M444.54,1l7.79,13.5L444.54,28H429l-7.8-13.5L429,1h15.59m.57-1H428.37L420,14.5,428.37,29h16.74l8.38-14.5L445.11,0Z"/><polygon class="cls-1" points="470.66 28.5 462.58 14.5 470.66 0.5 486.83 0.5 494.91 14.5 486.83 28.5 470.66 28.5"/><path class="cls-2" d="M486.54,1l7.79,13.5L486.54,28H471l-7.8-13.5L471,1h15.59m.57-1H470.37L462,14.5,470.37,29h16.74l8.38-14.5L487.11,0Z"/><polygon class="cls-1" points="512.66 28.5 504.58 14.5 512.66 0.5 528.83 0.5 536.91 14.5 528.83 28.5 512.66 28.5"/><path class="cls-2" d="M528.54,1l7.79,13.5L528.54,28H513l-7.8-13.5L513,1h15.59m.57-1H512.37L504,14.5,512.37,29h16.74l8.38-14.5L529.11,0Z"/><polygon class="cls-1" points="554.66 28.5 546.58 14.5 554.66 0.5 570.83 0.5 578.91 14.5 570.83 28.5 554.66 28.5"/><path class="cls-2" d="M570.54,1l7.79,13.5L570.54,28H555l-7.8-13.5L555,1h15.59m.57-1H554.37L546,14.5,554.37,29h16.74l8.38-14.5L571.11,0Z"/><polygon class="cls-1" points="596.66 28.5 588.58 14.5 596.66 0.5 612.83 0.5 620.91 14.5 612.83 28.5 596.66 28.5"/><path class="cls-2" d="M612.54,1l7.79,13.5L612.54,28H597l-7.8-13.5L597,1h15.59m.57-1H596.37L588,14.5,596.37,29h16.74l8.38-14.5L613.11,0Z"/><polygon class="cls-1" points="638.66 28.5 630.58 14.5 638.66 0.5 654.83 0.5 662.91 14.5 654.83 28.5 638.66 28.5"/><path class="cls-2" d="M654.54,1l7.79,13.5L654.54,28H639l-7.8-13.5L639,1h15.59m.57-1H638.37L630,14.5,638.37,29h16.74l8.38-14.5L655.11,0Z"/><polygon class="cls-1" points="680.66 28.5 672.58 14.5 680.66 0.5 696.83 0.5 704.91 14.5 696.83 28.5 680.66 28.5"/><path class="cls-2" d="M696.54,1l7.79,13.5L696.54,28H681l-7.8-13.5L681,1h15.59m.57-1H680.37L672,14.5,680.37,29h16.74l8.38-14.5L697.11,0Z"/><polygon class="cls-1" points="722.66 28.5 714.58 14.5 722.66 0.5 738.83 0.5 746.91 14.5 738.83 28.5 722.66 28.5"/><path class="cls-2" d="M738.54,1l7.79,13.5L738.54,28H723l-7.8-13.5L723,1h15.59m.57-1H722.37L714,14.5,722.37,29h16.74l8.38-14.5L739.11,0Z"/><polygon class="cls-1" points="764.66 28.5 756.58 14.5 764.66 0.5 780.83 0.5 788.91 14.5 780.83 28.5 764.66 28.5"/><path class="cls-2" d="M780.54,1l7.79,13.5L780.54,28H765l-7.8-13.5L765,1h15.59m.57-1H764.37L756,14.5,764.37,29h16.74l8.38-14.5L781.11,0Z"/><polygon class="cls-1" points="806.66 28.5 798.58 14.5 806.66 0.5 822.83 0.5 830.91 14.5 822.83 28.5 806.66 28.5"/><path class="cls-2" d="M822.54,1l7.79,13.5L822.54,28H807l-7.8-13.5L807,1h15.59m.57-1H806.37L798,14.5,806.37,29h16.74l8.38-14.5L823.11,0Z"/><polygon class="cls-1" points="848.66 28.5 840.58 14.5 848.66 0.5 864.83 0.5 872.91 14.5 864.83 28.5 848.66 28.5"/><path class="cls-2" d="M864.54,1l7.79,13.5L864.54,28H849l-7.8-13.5L849,1h15.59m.57-1H848.37L840,14.5,848.37,29h16.74l8.38-14.5L865.11,0Z"/><polygon class="cls-1" points="890.66 28.5 882.58 14.5 890.66 0.5 906.83 0.5 914.91 14.5 906.83 28.5 890.66 28.5"/><path class="cls-2" d="M906.54,1l7.79,13.5L906.54,28H891l-7.8-13.5L891,1h15.59m.57-1H890.37L882,14.5,890.37,29h16.74l8.38-14.5L907.11,0Z"/><polygon class="cls-1" points="932.66 28.5 924.58 14.5 932.66 0.5 948.83 0.5 956.91 14.5 948.83 28.5 932.66 28.5"/><path class="cls-2" d="M948.54,1l7.79,13.5L948.54,28H933l-7.8-13.5L933,1h15.59m.57-1H932.37L924,14.5,932.37,29h16.74l8.38-14.5L949.11,0Z"/><polygon class="cls-1" points="974.66 28.5 966.58 14.5 974.66 0.5 990.83 0.5 998.91 14.5 990.83 28.5 974.66 28.5"/><path class="cls-2" d="M990.54,1l7.79,13.5L990.54,28H975l-7.8-13.5L975,1h15.59m.57-1H974.37L966,14.5,974.37,29h16.74l8.38-14.5L991.11,0Z"/><polygon class="cls-1" points="1016.66 28.5 1008.58 14.5 1016.66 0.5 1032.83 0.5 1040.91 14.5 1032.83 28.5 1016.66 28.5"/><path class="cls-2" d="M1032.54,1l7.79,13.5L1032.54,28H1017l-7.8-13.5L1017,1h15.59m.57-1h-16.74L1008,14.5l8.37,14.5h16.74l8.38-14.5L1033.11,0Z"/><polygon class="cls-1" points="1058.66 28.5 1050.58 14.5 1058.66 0.5 1074.83 0.5 1082.91 14.5 1074.83 28.5 1058.66 28.5"/><path class="cls-2" d="M1074.54,1l7.79,13.5L1074.54,28H1059l-7.8-13.5L1059,1h15.59m.57-1h-16.74L1050,14.5l8.37,14.5h16.74l8.38-14.5L1075.11,0Z"/><polygon class="cls-1" points="1100.66 28.5 1092.58 14.5 1100.66 0.5 1116.83 0.5 1124.91 14.5 1116.83 28.5 1100.66 28.5"/><path class="cls-2" d="M1116.54,1l7.79,13.5L1116.54,28H1101l-7.8-13.5L1101,1h15.59m.57-1h-16.74L1092,14.5l8.37,14.5h16.74l8.38-14.5L1117.11,0Z"/><polygon class="cls-1" points="1142.66 28.5 1134.58 14.5 1142.66 0.5 1158.83 0.5 1166.91 14.5 1158.83 28.5 1142.66 28.5"/><path class="cls-2" d="M1158.54,1l7.79,13.5L1158.54,28H1143l-7.8-13.5L1143,1h15.59m.57-1h-16.74L1134,14.5l8.37,14.5h16.74l8.38-14.5L1159.11,0Z"/><polygon class="cls-1" points="1184.66 28.5 1176.58 14.5 1184.66 0.5 1200.83 0.5 1208.91 14.5 1200.83 28.5 1184.66 28.5"/><path class="cls-2" d="M1200.54,1l7.79,13.5L1200.54,28H1185l-7.8-13.5L1185,1h15.59m.57-1h-16.74L1176,14.5l8.37,14.5h16.74l8.38-14.5L1201.11,0Z"/><polygon class="cls-1" points="1226.66 28.5 1218.58 14.5 1226.66 0.5 1242.83 0.5 1250.91 14.5 1242.83 28.5 1226.66 28.5"/><path class="cls-2" d="M1242.54,1l7.79,13.5L1242.54,28H1227l-7.8-13.5L1227,1h15.59m.57-1h-16.74L1218,14.5l8.37,14.5h16.74l8.38-14.5L1243.11,0Z"/><polygon class="cls-1" points="1268.66 28.5 1260.58 14.5 1268.66 0.5 1284.83 0.5 1292.91 14.5 1284.83 28.5 1268.66 28.5"/><path class="cls-2" d="M1284.54,1l7.79,13.5L1284.54,28H1269l-7.8-13.5L1269,1h15.59m.57-1h-16.74L1260,14.5l8.37,14.5h16.74l8.38-14.5L1285.11,0Z"/><polygon class="cls-1" points="1310.66 28.5 1302.58 14.5 1310.66 0.5 1326.83 0.5 1334.91 14.5 1326.83 28.5 1310.66 28.5"/><path class="cls-2" d="M1326.54,1l7.79,13.5L1326.54,28H1311l-7.8-13.5L1311,1h15.59m.57-1h-16.74L1302,14.5l8.37,14.5h16.74l8.38-14.5L1327.11,0Z"/><polygon class="cls-1" points="1352.66 28.5 1344.58 14.5 1352.66 0.5 1368.83 0.5 1376.91 14.5 1368.83 28.5 1352.66 28.5"/><path class="cls-2" d="M1368.54,1l7.79,13.5L1368.54,28H1353l-7.8-13.5L1353,1h15.59m.57-1h-16.74L1344,14.5l8.37,14.5h16.74l8.38-14.5L1369.11,0Z"/><polygon class="cls-1" points="1394.66 28.5 1386.58 14.5 1394.66 0.5 1410.83 0.5 1418.91 14.5 1410.83 28.5 1394.66 28.5"/><path class="cls-2" d="M1410.54,1l7.79,13.5L1410.54,28H1395l-7.8-13.5L1395,1h15.59m.57-1h-16.74L1386,14.5l8.37,14.5h16.74l8.38-14.5L1411.11,0Z"/><polygon class="cls-1" points="1436.66 28.5 1428.58 14.5 1436.66 0.5 1452.83 0.5 1460.91 14.5 1452.83 28.5 1436.66 28.5"/><path class="cls-2" d="M1452.54,1l7.79,13.5L1452.54,28H1437l-7.8-13.5L1437,1h15.59m.57-1h-16.74L1428,14.5l8.37,14.5h16.74l8.38-14.5L1453.11,0Z"/><polygon class="cls-1" points="1478.66 28.5 1470.58 14.5 1478.66 0.5 1494.83 0.5 1502.91 14.5 1494.83 28.5 1478.66 28.5"/><path class="cls-2" d="M1494.54,1l7.79,13.5L1494.54,28H1479l-7.8-13.5L1479,1h15.59m.57-1h-16.74L1470,14.5l8.37,14.5h16.74l8.38-14.5L1495.11,0Z"/><polygon class="cls-1" points="1520.66 28.5 1512.58 14.5 1520.66 0.5 1536.83 0.5 1544.91 14.5 1536.83 28.5 1520.66 28.5"/><path class="cls-2" d="M1536.54,1l7.79,13.5L1536.54,28H1521l-7.8-13.5L1521,1h15.59m.57-1h-16.74L1512,14.5l8.37,14.5h16.74l8.38-14.5L1537.11,0Z"/><polygon class="cls-1" points="1562.66 28.5 1554.58 14.5 1562.66 0.5 1578.83 0.5 1586.91 14.5 1578.83 28.5 1562.66 28.5"/><path class="cls-2" d="M1578.54,1l7.79,13.5L1578.54,28H1563l-7.8-13.5L1563,1h15.59m.57-1h-16.74L1554,14.5l8.37,14.5h16.74l8.38-14.5L1579.11,0Z"/><polygon class="cls-1" points="1604.66 28.5 1596.58 14.5 1604.66 0.5 1620.83 0.5 1628.91 14.5 1620.83 28.5 1604.66 28.5"/><path class="cls-2" d="M1620.54,1l7.79,13.5L1620.54,28H1605l-7.8-13.5L1605,1h15.59m.57-1h-16.74L1596,14.5l8.37,14.5h16.74l8.38-14.5L1621.11,0Z"/><polygon class="cls-1" points="1646.66 28.5 1638.58 14.5 1646.66 0.5 1662.83 0.5 1670.91 14.5 1662.83 28.5 1646.66 28.5"/><path class="cls-2" d="M1662.54,1l7.79,13.5L1662.54,28H1647l-7.8-13.5L1647,1h15.59m.57-1h-16.74L1638,14.5l8.37,14.5h16.74l8.38-14.5L1663.11,0Z"/><polygon class="cls-1" points="1688.66 28.5 1680.58 14.5 1688.66 0.5 1704.83 0.5 1712.91 14.5 1704.83 28.5 1688.66 28.5"/><path class="cls-2" d="M1704.54,1l7.79,13.5L1704.54,28H1689l-7.8-13.5L1689,1h15.59m.57-1h-16.74L1680,14.5l8.37,14.5h16.74l8.38-14.5L1705.11,0Z"/><polygon class="cls-1" points="1730.66 28.5 1722.58 14.5 1730.66 0.5 1746.83 0.5 1754.91 14.5 1746.83 28.5 1730.66 28.5"/><path class="cls-2" d="M1746.54,1l7.79,13.5L1746.54,28H1731l-7.8-13.5L1731,1h15.59m.57-1h-16.74L1722,14.5l8.37,14.5h16.74l8.38-14.5L1747.11,0Z"/><polygon class="cls-1" points="1772.66 28.5 1764.58 14.5 1772.66 0.5 1788.83 0.5 1796.91 14.5 1788.83 28.5 1772.66 28.5"/><path class="cls-2" d="M1788.54,1l7.79,13.5L1788.54,28H1773l-7.8-13.5L1773,1h15.59m.57-1h-16.74L1764,14.5l8.37,14.5h16.74l8.38-14.5L1789.11,0Z"/><polygon class="cls-1" points="1814.66 28.5 1806.58 14.5 1814.66 0.5 1830.83 0.5 1838.91 14.5 1830.83 28.5 1814.66 28.5"/><path class="cls-2" d="M1830.54,1l7.79,13.5L1830.54,28H1815l-7.8-13.5L1815,1h15.59m.57-1h-16.74L1806,14.5l8.37,14.5h16.74l8.38-14.5L1831.11,0Z"/><polygon class="cls-1" points="1856.66 28.5 1848.58 14.5 1856.66 0.5 1872.83 0.5 1880.91 14.5 1872.83 28.5 1856.66 28.5"/><path class="cls-2" d="M1872.54,1l7.79,13.5L1872.54,28H1857l-7.8-13.5L1857,1h15.59m.57-1h-16.74L1848,14.5l8.37,14.5h16.74l8.38-14.5L1873.11,0Z"/><polygon class="cls-1" points="8.66 68.5 0.58 54.5 8.66 40.5 24.83 40.5 32.91 54.5 24.83 68.5 8.66 68.5"/><path class="cls-2" d="M24.54,41l7.79,13.5L24.54,68H9L1.15,54.5,9,41H24.54m.57-1H8.37L0,54.5,8.37,69H25.11l8.38-14.5L25.11,40Z"/><polygon class="cls-1" points="50.66 68.5 42.58 54.5 50.66 40.5 66.83 40.5 74.91 54.5 66.83 68.5 50.66 68.5"/><path class="cls-2" d="M66.54,41l7.79,13.5L66.54,68H51l-7.8-13.5L51,41H66.54m.57-1H50.37L42,54.5,50.37,69H67.11l8.38-14.5L67.11,40Z"/><polygon class="cls-1" points="92.66 68.5 84.58 54.5 92.66 40.5 108.83 40.5 116.91 54.5 108.83 68.5 92.66 68.5"/><path class="cls-2" d="M108.54,41l7.79,13.5L108.54,68H93l-7.8-13.5L93,41h15.59m.57-1H92.37L84,54.5,92.37,69h16.74l8.38-14.5L109.11,40Z"/><polygon class="cls-1" points="134.66 68.5 126.58 54.5 134.66 40.5 150.83 40.5 158.91 54.5 150.83 68.5 134.66 68.5"/><path class="cls-2" d="M150.54,41l7.79,13.5L150.54,68H135l-7.8-13.5L135,41h15.59m.57-1H134.37L126,54.5,134.37,69h16.74l8.38-14.5L151.11,40Z"/><polygon class="cls-1" points="176.66 68.5 168.58 54.5 176.66 40.5 192.83 40.5 200.91 54.5 192.83 68.5 176.66 68.5"/><path class="cls-2" d="M192.54,41l7.79,13.5L192.54,68H177l-7.8-13.5L177,41h15.59m.57-1H176.37L168,54.5,176.37,69h16.74l8.38-14.5L193.11,40Z"/><polygon class="cls-1" points="218.66 68.5 210.58 54.5 218.66 40.5 234.83 40.5 242.91 54.5 234.83 68.5 218.66 68.5"/><path class="cls-2" d="M234.54,41l7.79,13.5L234.54,68H219l-7.8-13.5L219,41h15.59m.57-1H218.37L210,54.5,218.37,69h16.74l8.38-14.5L235.11,40Z"/><polygon class="cls-1" points="260.66 68.5 252.58 54.5 260.66 40.5 276.83 40.5 284.91 54.5 276.83 68.5 260.66 68.5"/><path class="cls-2" d="M276.54,41l7.79,13.5L276.54,68H261l-7.8-13.5L261,41h15.59m.57-1H260.37L252,54.5,260.37,69h16.74l8.38-14.5L277.11,40Z"/><polygon class="cls-1" points="302.66 68.5 294.58 54.5 302.66 40.5 318.83 40.5 326.91 54.5 318.83 68.5 302.66 68.5"/><path class="cls-2" d="M318.54,41l7.79,13.5L318.54,68H303l-7.8-13.5L303,41h15.59m.57-1H302.37L294,54.5,302.37,69h16.74l8.38-14.5L319.11,40Z"/><polygon class="cls-1" points="344.66 68.5 336.58 54.5 344.66 40.5 360.83 40.5 368.91 54.5 360.83 68.5 344.66 68.5"/><path class="cls-2" d="M360.54,41l7.79,13.5L360.54,68H345l-7.8-13.5L345,41h15.59m.57-1H344.37L336,54.5,344.37,69h16.74l8.38-14.5L361.11,40Z"/><polygon class="cls-1" points="386.66 68.5 378.58 54.5 386.66 40.5 402.83 40.5 410.91 54.5 402.83 68.5 386.66 68.5"/><path class="cls-2" d="M402.54,41l7.79,13.5L402.54,68H387l-7.8-13.5L387,41h15.59m.57-1H386.37L378,54.5,386.37,69h16.74l8.38-14.5L403.11,40Z"/><polygon class="cls-1" points="428.66 68.5 420.58 54.5 428.66 40.5 444.83 40.5 452.91 54.5 444.83 68.5 428.66 68.5"/><path class="cls-2" d="M444.54,41l7.79,13.5L444.54,68H429l-7.8-13.5L429,41h15.59m.57-1H428.37L420,54.5,428.37,69h16.74l8.38-14.5L445.11,40Z"/><polygon class="cls-1" points="470.66 68.5 462.58 54.5 470.66 40.5 486.83 40.5 494.91 54.5 486.83 68.5 470.66 68.5"/><path class="cls-2" d="M486.54,41l7.79,13.5L486.54,68H471l-7.8-13.5L471,41h15.59m.57-1H470.37L462,54.5,470.37,69h16.74l8.38-14.5L487.11,40Z"/><polygon class="cls-1" points="512.66 68.5 504.58 54.5 512.66 40.5 528.83 40.5 536.91 54.5 528.83 68.5 512.66 68.5"/><path class="cls-2" d="M528.54,41l7.79,13.5L528.54,68H513l-7.8-13.5L513,41h15.59m.57-1H512.37L504,54.5,512.37,69h16.74l8.38-14.5L529.11,40Z"/><polygon class="cls-1" points="554.66 68.5 546.58 54.5 554.66 40.5 570.83 40.5 578.91 54.5 570.83 68.5 554.66 68.5"/><path class="cls-2" d="M570.54,41l7.79,13.5L570.54,68H555l-7.8-13.5L555,41h15.59m.57-1H554.37L546,54.5,554.37,69h16.74l8.38-14.5L571.11,40Z"/><polygon class="cls-1" points="596.66 68.5 588.58 54.5 596.66 40.5 612.83 40.5 620.91 54.5 612.83 68.5 596.66 68.5"/><path class="cls-2" d="M612.54,41l7.79,13.5L612.54,68H597l-7.8-13.5L597,41h15.59m.57-1H596.37L588,54.5,596.37,69h16.74l8.38-14.5L613.11,40Z"/><polygon class="cls-1" points="638.66 68.5 630.58 54.5 638.66 40.5 654.83 40.5 662.91 54.5 654.83 68.5 638.66 68.5"/><path class="cls-2" d="M654.54,41l7.79,13.5L654.54,68H639l-7.8-13.5L639,41h15.59m.57-1H638.37L630,54.5,638.37,69h16.74l8.38-14.5L655.11,40Z"/><polygon class="cls-1" points="680.66 68.5 672.58 54.5 680.66 40.5 696.83 40.5 704.91 54.5 696.83 68.5 680.66 68.5"/><path class="cls-2" d="M696.54,41l7.79,13.5L696.54,68H681l-7.8-13.5L681,41h15.59m.57-1H680.37L672,54.5,680.37,69h16.74l8.38-14.5L697.11,40Z"/><polygon class="cls-1" points="722.66 68.5 714.58 54.5 722.66 40.5 738.83 40.5 746.91 54.5 738.83 68.5 722.66 68.5"/><path class="cls-2" d="M738.54,41l7.79,13.5L738.54,68H723l-7.8-13.5L723,41h15.59m.57-1H722.37L714,54.5,722.37,69h16.74l8.38-14.5L739.11,40Z"/><polygon class="cls-1" points="764.66 68.5 756.58 54.5 764.66 40.5 780.83 40.5 788.91 54.5 780.83 68.5 764.66 68.5"/><path class="cls-2" d="M780.54,41l7.79,13.5L780.54,68H765l-7.8-13.5L765,41h15.59m.57-1H764.37L756,54.5,764.37,69h16.74l8.38-14.5L781.11,40Z"/><polygon class="cls-1" points="806.66 68.5 798.58 54.5 806.66 40.5 822.83 40.5 830.91 54.5 822.83 68.5 806.66 68.5"/><path class="cls-2" d="M822.54,41l7.79,13.5L822.54,68H807l-7.8-13.5L807,41h15.59m.57-1H806.37L798,54.5,806.37,69h16.74l8.38-14.5L823.11,40Z"/><polygon class="cls-1" points="848.66 68.5 840.58 54.5 848.66 40.5 864.83 40.5 872.91 54.5 864.83 68.5 848.66 68.5"/><path class="cls-2" d="M864.54,41l7.79,13.5L864.54,68H849l-7.8-13.5L849,41h15.59m.57-1H848.37L840,54.5,848.37,69h16.74l8.38-14.5L865.11,40Z"/><polygon class="cls-1" points="890.66 68.5 882.58 54.5 890.66 40.5 906.83 40.5 914.91 54.5 906.83 68.5 890.66 68.5"/><path class="cls-2" d="M906.54,41l7.79,13.5L906.54,68H891l-7.8-13.5L891,41h15.59m.57-1H890.37L882,54.5,890.37,69h16.74l8.38-14.5L907.11,40Z"/><polygon class="cls-1" points="932.66 68.5 924.58 54.5 932.66 40.5 948.83 40.5 956.91 54.5 948.83 68.5 932.66 68.5"/><path class="cls-2" d="M948.54,41l7.79,13.5L948.54,68H933l-7.8-13.5L933,41h15.59m.57-1H932.37L924,54.5,932.37,69h16.74l8.38-14.5L949.11,40Z"/><polygon class="cls-1" points="974.66 68.5 966.58 54.5 974.66 40.5 990.83 40.5 998.91 54.5 990.83 68.5 974.66 68.5"/><path class="cls-2" d="M990.54,41l7.79,13.5L990.54,68H975l-7.8-13.5L975,41h15.59m.57-1H974.37L966,54.5,974.37,69h16.74l8.38-14.5L991.11,40Z"/><polygon class="cls-1" points="1016.66 68.5 1008.58 54.5 1016.66 40.5 1032.83 40.5 1040.91 54.5 1032.83 68.5 1016.66 68.5"/><path class="cls-2" d="M1032.54,41l7.79,13.5L1032.54,68H1017l-7.8-13.5L1017,41h15.59m.57-1h-16.74L1008,54.5l8.37,14.5h16.74l8.38-14.5L1033.11,40Z"/><polygon class="cls-1" points="1058.66 68.5 1050.58 54.5 1058.66 40.5 1074.83 40.5 1082.91 54.5 1074.83 68.5 1058.66 68.5"/><path class="cls-2" d="M1074.54,41l7.79,13.5L1074.54,68H1059l-7.8-13.5L1059,41h15.59m.57-1h-16.74L1050,54.5l8.37,14.5h16.74l8.38-14.5L1075.11,40Z"/><polygon class="cls-1" points="1100.66 68.5 1092.58 54.5 1100.66 40.5 1116.83 40.5 1124.91 54.5 1116.83 68.5 1100.66 68.5"/><path class="cls-2" d="M1116.54,41l7.79,13.5L1116.54,68H1101l-7.8-13.5L1101,41h15.59m.57-1h-16.74L1092,54.5l8.37,14.5h16.74l8.38-14.5L1117.11,40Z"/><polygon class="cls-1" points="1142.66 68.5 1134.58 54.5 1142.66 40.5 1158.83 40.5 1166.91 54.5 1158.83 68.5 1142.66 68.5"/><path class="cls-2" d="M1158.54,41l7.79,13.5L1158.54,68H1143l-7.8-13.5L1143,41h15.59m.57-1h-16.74L1134,54.5l8.37,14.5h16.74l8.38-14.5L1159.11,40Z"/><polygon class="cls-1" points="1184.66 68.5 1176.58 54.5 1184.66 40.5 1200.83 40.5 1208.91 54.5 1200.83 68.5 1184.66 68.5"/><path class="cls-2" d="M1200.54,41l7.79,13.5L1200.54,68H1185l-7.8-13.5L1185,41h15.59m.57-1h-16.74L1176,54.5l8.37,14.5h16.74l8.38-14.5L1201.11,40Z"/><polygon class="cls-1" points="1226.66 68.5 1218.58 54.5 1226.66 40.5 1242.83 40.5 1250.91 54.5 1242.83 68.5 1226.66 68.5"/><path class="cls-2" d="M1242.54,41l7.79,13.5L1242.54,68H1227l-7.8-13.5L1227,41h15.59m.57-1h-16.74L1218,54.5l8.37,14.5h16.74l8.38-14.5L1243.11,40Z"/><polygon class="cls-1" points="1268.66 68.5 1260.58 54.5 1268.66 40.5 1284.83 40.5 1292.91 54.5 1284.83 68.5 1268.66 68.5"/><path class="cls-2" d="M1284.54,41l7.79,13.5L1284.54,68H1269l-7.8-13.5L1269,41h15.59m.57-1h-16.74L1260,54.5l8.37,14.5h16.74l8.38-14.5L1285.11,40Z"/><polygon class="cls-1" points="1310.66 68.5 1302.58 54.5 1310.66 40.5 1326.83 40.5 1334.91 54.5 1326.83 68.5 1310.66 68.5"/><path class="cls-2" d="M1326.54,41l7.79,13.5L1326.54,68H1311l-7.8-13.5L1311,41h15.59m.57-1h-16.74L1302,54.5l8.37,14.5h16.74l8.38-14.5L1327.11,40Z"/><polygon class="cls-1" points="1352.66 68.5 1344.58 54.5 1352.66 40.5 1368.83 40.5 1376.91 54.5 1368.83 68.5 1352.66 68.5"/><path class="cls-2" d="M1368.54,41l7.79,13.5L1368.54,68H1353l-7.8-13.5L1353,41h15.59m.57-1h-16.74L1344,54.5l8.37,14.5h16.74l8.38-14.5L1369.11,40Z"/><polygon class="cls-1" points="1394.66 68.5 1386.58 54.5 1394.66 40.5 1410.83 40.5 1418.91 54.5 1410.83 68.5 1394.66 68.5"/><path class="cls-2" d="M1410.54,41l7.79,13.5L1410.54,68H1395l-7.8-13.5L1395,41h15.59m.57-1h-16.74L1386,54.5l8.37,14.5h16.74l8.38-14.5L1411.11,40Z"/><polygon class="cls-1" points="1436.66 68.5 1428.58 54.5 1436.66 40.5 1452.83 40.5 1460.91 54.5 1452.83 68.5 1436.66 68.5"/><path class="cls-2" d="M1452.54,41l7.79,13.5L1452.54,68H1437l-7.8-13.5L1437,41h15.59m.57-1h-16.74L1428,54.5l8.37,14.5h16.74l8.38-14.5L1453.11,40Z"/><polygon class="cls-1" points="1478.66 68.5 1470.58 54.5 1478.66 40.5 1494.83 40.5 1502.91 54.5 1494.83 68.5 1478.66 68.5"/><path class="cls-2" d="M1494.54,41l7.79,13.5L1494.54,68H1479l-7.8-13.5L1479,41h15.59m.57-1h-16.74L1470,54.5l8.37,14.5h16.74l8.38-14.5L1495.11,40Z"/><polygon class="cls-1" points="1520.66 68.5 1512.58 54.5 1520.66 40.5 1536.83 40.5 1544.91 54.5 1536.83 68.5 1520.66 68.5"/><path class="cls-2" d="M1536.54,41l7.79,13.5L1536.54,68H1521l-7.8-13.5L1521,41h15.59m.57-1h-16.74L1512,54.5l8.37,14.5h16.74l8.38-14.5L1537.11,40Z"/><polygon class="cls-1" points="1562.66 68.5 1554.58 54.5 1562.66 40.5 1578.83 40.5 1586.91 54.5 1578.83 68.5 1562.66 68.5"/><path class="cls-2" d="M1578.54,41l7.79,13.5L1578.54,68H1563l-7.8-13.5L1563,41h15.59m.57-1h-16.74L1554,54.5l8.37,14.5h16.74l8.38-14.5L1579.11,40Z"/><polygon class="cls-1" points="1604.66 68.5 1596.58 54.5 1604.66 40.5 1620.83 40.5 1628.91 54.5 1620.83 68.5 1604.66 68.5"/><path class="cls-2" d="M1620.54,41l7.79,13.5L1620.54,68H1605l-7.8-13.5L1605,41h15.59m.57-1h-16.74L1596,54.5l8.37,14.5h16.74l8.38-14.5L1621.11,40Z"/><polygon class="cls-1" points="1646.66 68.5 1638.58 54.5 1646.66 40.5 1662.83 40.5 1670.91 54.5 1662.83 68.5 1646.66 68.5"/><path class="cls-2" d="M1662.54,41l7.79,13.5L1662.54,68H1647l-7.8-13.5L1647,41h15.59m.57-1h-16.74L1638,54.5l8.37,14.5h16.74l8.38-14.5L1663.11,40Z"/><polygon class="cls-1" points="1688.66 68.5 1680.58 54.5 1688.66 40.5 1704.83 40.5 1712.91 54.5 1704.83 68.5 1688.66 68.5"/><path class="cls-2" d="M1704.54,41l7.79,13.5L1704.54,68H1689l-7.8-13.5L1689,41h15.59m.57-1h-16.74L1680,54.5l8.37,14.5h16.74l8.38-14.5L1705.11,40Z"/><polygon class="cls-1" points="1730.66 68.5 1722.58 54.5 1730.66 40.5 1746.83 40.5 1754.91 54.5 1746.83 68.5 1730.66 68.5"/><path class="cls-2" d="M1746.54,41l7.79,13.5L1746.54,68H1731l-7.8-13.5L1731,41h15.59m.57-1h-16.74L1722,54.5l8.37,14.5h16.74l8.38-14.5L1747.11,40Z"/><polygon class="cls-1" points="1772.66 68.5 1764.58 54.5 1772.66 40.5 1788.83 40.5 1796.91 54.5 1788.83 68.5 1772.66 68.5"/><path class="cls-2" d="M1788.54,41l7.79,13.5L1788.54,68H1773l-7.8-13.5L1773,41h15.59m.57-1h-16.74L1764,54.5l8.37,14.5h16.74l8.38-14.5L1789.11,40Z"/><polygon class="cls-1" points="1814.66 68.5 1806.58 54.5 1814.66 40.5 1830.83 40.5 1838.91 54.5 1830.83 68.5 1814.66 68.5"/><path class="cls-2" d="M1830.54,41l7.79,13.5L1830.54,68H1815l-7.8-13.5L1815,41h15.59m.57-1h-16.74L1806,54.5l8.37,14.5h16.74l8.38-14.5L1831.11,40Z"/><polygon class="cls-1" points="1856.66 68.5 1848.58 54.5 1856.66 40.5 1872.83 40.5 1880.91 54.5 1872.83 68.5 1856.66 68.5"/><path class="cls-2" d="M1872.54,41l7.79,13.5L1872.54,68H1857l-7.8-13.5L1857,41h15.59m.57-1h-16.74L1848,54.5l8.37,14.5h16.74l8.38-14.5L1873.11,40Z"/><polygon class="cls-1" points="8.66 108.5 0.58 94.5 8.66 80.5 24.83 80.5 32.91 94.5 24.83 108.5 8.66 108.5"/><path class="cls-2" d="M24.54,81l7.79,13.5L24.54,108H9L1.15,94.5,9,81H24.54m.57-1H8.37L0,94.5,8.37,109H25.11l8.38-14.5L25.11,80Z"/><polygon class="cls-1" points="50.66 108.5 42.58 94.5 50.66 80.5 66.83 80.5 74.91 94.5 66.83 108.5 50.66 108.5"/><path class="cls-2" d="M66.54,81l7.79,13.5L66.54,108H51l-7.8-13.5L51,81H66.54m.57-1H50.37L42,94.5,50.37,109H67.11l8.38-14.5L67.11,80Z"/><polygon class="cls-1" points="92.66 108.5 84.58 94.5 92.66 80.5 108.83 80.5 116.91 94.5 108.83 108.5 92.66 108.5"/><path class="cls-2" d="M108.54,81l7.79,13.5L108.54,108H93l-7.8-13.5L93,81h15.59m.57-1H92.37L84,94.5,92.37,109h16.74l8.38-14.5L109.11,80Z"/><polygon class="cls-1" points="134.66 108.5 126.58 94.5 134.66 80.5 150.83 80.5 158.91 94.5 150.83 108.5 134.66 108.5"/><path class="cls-2" d="M150.54,81l7.79,13.5L150.54,108H135l-7.8-13.5L135,81h15.59m.57-1H134.37L126,94.5l8.37,14.5h16.74l8.38-14.5L151.11,80Z"/><polygon class="cls-1" points="176.66 108.5 168.58 94.5 176.66 80.5 192.83 80.5 200.91 94.5 192.83 108.5 176.66 108.5"/><path class="cls-2" d="M192.54,81l7.79,13.5L192.54,108H177l-7.8-13.5L177,81h15.59m.57-1H176.37L168,94.5l8.37,14.5h16.74l8.38-14.5L193.11,80Z"/><polygon class="cls-1" points="218.66 108.5 210.58 94.5 218.66 80.5 234.83 80.5 242.91 94.5 234.83 108.5 218.66 108.5"/><path class="cls-2" d="M234.54,81l7.79,13.5L234.54,108H219l-7.8-13.5L219,81h15.59m.57-1H218.37L210,94.5l8.37,14.5h16.74l8.38-14.5L235.11,80Z"/><polygon class="cls-1" points="260.66 108.5 252.58 94.5 260.66 80.5 276.83 80.5 284.91 94.5 276.83 108.5 260.66 108.5"/><path class="cls-2" d="M276.54,81l7.79,13.5L276.54,108H261l-7.8-13.5L261,81h15.59m.57-1H260.37L252,94.5l8.37,14.5h16.74l8.38-14.5L277.11,80Z"/><polygon class="cls-1" points="302.66 108.5 294.58 94.5 302.66 80.5 318.83 80.5 326.91 94.5 318.83 108.5 302.66 108.5"/><path class="cls-2" d="M318.54,81l7.79,13.5L318.54,108H303l-7.8-13.5L303,81h15.59m.57-1H302.37L294,94.5l8.37,14.5h16.74l8.38-14.5L319.11,80Z"/><polygon class="cls-1" points="344.66 108.5 336.58 94.5 344.66 80.5 360.83 80.5 368.91 94.5 360.83 108.5 344.66 108.5"/><path class="cls-2" d="M360.54,81l7.79,13.5L360.54,108H345l-7.8-13.5L345,81h15.59m.57-1H344.37L336,94.5l8.37,14.5h16.74l8.38-14.5L361.11,80Z"/><polygon class="cls-1" points="386.66 108.5 378.58 94.5 386.66 80.5 402.83 80.5 410.91 94.5 402.83 108.5 386.66 108.5"/><path class="cls-2" d="M402.54,81l7.79,13.5L402.54,108H387l-7.8-13.5L387,81h15.59m.57-1H386.37L378,94.5l8.37,14.5h16.74l8.38-14.5L403.11,80Z"/><polygon class="cls-1" points="428.66 108.5 420.58 94.5 428.66 80.5 444.83 80.5 452.91 94.5 444.83 108.5 428.66 108.5"/><path class="cls-2" d="M444.54,81l7.79,13.5L444.54,108H429l-7.8-13.5L429,81h15.59m.57-1H428.37L420,94.5l8.37,14.5h16.74l8.38-14.5L445.11,80Z"/><polygon class="cls-1" points="470.66 108.5 462.58 94.5 470.66 80.5 486.83 80.5 494.91 94.5 486.83 108.5 470.66 108.5"/><path class="cls-2" d="M486.54,81l7.79,13.5L486.54,108H471l-7.8-13.5L471,81h15.59m.57-1H470.37L462,94.5l8.37,14.5h16.74l8.38-14.5L487.11,80Z"/><polygon class="cls-1" points="512.66 108.5 504.58 94.5 512.66 80.5 528.83 80.5 536.91 94.5 528.83 108.5 512.66 108.5"/><path class="cls-2" d="M528.54,81l7.79,13.5L528.54,108H513l-7.8-13.5L513,81h15.59m.57-1H512.37L504,94.5l8.37,14.5h16.74l8.38-14.5L529.11,80Z"/><polygon class="cls-1" points="554.66 108.5 546.58 94.5 554.66 80.5 570.83 80.5 578.91 94.5 570.83 108.5 554.66 108.5"/><path class="cls-2" d="M570.54,81l7.79,13.5L570.54,108H555l-7.8-13.5L555,81h15.59m.57-1H554.37L546,94.5l8.37,14.5h16.74l8.38-14.5L571.11,80Z"/><polygon class="cls-1" points="596.66 108.5 588.58 94.5 596.66 80.5 612.83 80.5 620.91 94.5 612.83 108.5 596.66 108.5"/><path class="cls-2" d="M612.54,81l7.79,13.5L612.54,108H597l-7.8-13.5L597,81h15.59m.57-1H596.37L588,94.5l8.37,14.5h16.74l8.38-14.5L613.11,80Z"/><polygon class="cls-1" points="638.66 108.5 630.58 94.5 638.66 80.5 654.83 80.5 662.91 94.5 654.83 108.5 638.66 108.5"/><path class="cls-2" d="M654.54,81l7.79,13.5L654.54,108H639l-7.8-13.5L639,81h15.59m.57-1H638.37L630,94.5l8.37,14.5h16.74l8.38-14.5L655.11,80Z"/><polygon class="cls-1" points="680.66 108.5 672.58 94.5 680.66 80.5 696.83 80.5 704.91 94.5 696.83 108.5 680.66 108.5"/><path class="cls-2" d="M696.54,81l7.79,13.5L696.54,108H681l-7.8-13.5L681,81h15.59m.57-1H680.37L672,94.5l8.37,14.5h16.74l8.38-14.5L697.11,80Z"/><polygon class="cls-1" points="722.66 108.5 714.58 94.5 722.66 80.5 738.83 80.5 746.91 94.5 738.83 108.5 722.66 108.5"/><path class="cls-2" d="M738.54,81l7.79,13.5L738.54,108H723l-7.8-13.5L723,81h15.59m.57-1H722.37L714,94.5l8.37,14.5h16.74l8.38-14.5L739.11,80Z"/><polygon class="cls-1" points="764.66 108.5 756.58 94.5 764.66 80.5 780.83 80.5 788.91 94.5 780.83 108.5 764.66 108.5"/><path class="cls-2" d="M780.54,81l7.79,13.5L780.54,108H765l-7.8-13.5L765,81h15.59m.57-1H764.37L756,94.5l8.37,14.5h16.74l8.38-14.5L781.11,80Z"/><polygon class="cls-1" points="806.66 108.5 798.58 94.5 806.66 80.5 822.83 80.5 830.91 94.5 822.83 108.5 806.66 108.5"/><path class="cls-2" d="M822.54,81l7.79,13.5L822.54,108H807l-7.8-13.5L807,81h15.59m.57-1H806.37L798,94.5l8.37,14.5h16.74l8.38-14.5L823.11,80Z"/><polygon class="cls-1" points="848.66 108.5 840.58 94.5 848.66 80.5 864.83 80.5 872.91 94.5 864.83 108.5 848.66 108.5"/><path class="cls-2" d="M864.54,81l7.79,13.5L864.54,108H849l-7.8-13.5L849,81h15.59m.57-1H848.37L840,94.5l8.37,14.5h16.74l8.38-14.5L865.11,80Z"/><polygon class="cls-1" points="890.66 108.5 882.58 94.5 890.66 80.5 906.83 80.5 914.91 94.5 906.83 108.5 890.66 108.5"/><path class="cls-2" d="M906.54,81l7.79,13.5L906.54,108H891l-7.8-13.5L891,81h15.59m.57-1H890.37L882,94.5l8.37,14.5h16.74l8.38-14.5L907.11,80Z"/><polygon class="cls-1" points="932.66 108.5 924.58 94.5 932.66 80.5 948.83 80.5 956.91 94.5 948.83 108.5 932.66 108.5"/><path class="cls-2" d="M948.54,81l7.79,13.5L948.54,108H933l-7.8-13.5L933,81h15.59m.57-1H932.37L924,94.5l8.37,14.5h16.74l8.38-14.5L949.11,80Z"/><polygon class="cls-1" points="974.66 108.5 966.58 94.5 974.66 80.5 990.83 80.5 998.91 94.5 990.83 108.5 974.66 108.5"/><path class="cls-2" d="M990.54,81l7.79,13.5L990.54,108H975l-7.8-13.5L975,81h15.59m.57-1H974.37L966,94.5l8.37,14.5h16.74l8.38-14.5L991.11,80Z"/><polygon class="cls-1" points="1016.66 108.5 1008.58 94.5 1016.66 80.5 1032.83 80.5 1040.91 94.5 1032.83 108.5 1016.66 108.5"/><path class="cls-2" d="M1032.54,81l7.79,13.5-7.79,13.5H1017l-7.8-13.5L1017,81h15.59m.57-1h-16.74L1008,94.5l8.37,14.5h16.74l8.38-14.5L1033.11,80Z"/><polygon class="cls-1" points="1058.66 108.5 1050.58 94.5 1058.66 80.5 1074.83 80.5 1082.91 94.5 1074.83 108.5 1058.66 108.5"/><path class="cls-2" d="M1074.54,81l7.79,13.5-7.79,13.5H1059l-7.8-13.5L1059,81h15.59m.57-1h-16.74L1050,94.5l8.37,14.5h16.74l8.38-14.5L1075.11,80Z"/><polygon class="cls-1" points="1100.66 108.5 1092.58 94.5 1100.66 80.5 1116.83 80.5 1124.91 94.5 1116.83 108.5 1100.66 108.5"/><path class="cls-2" d="M1116.54,81l7.79,13.5-7.79,13.5H1101l-7.8-13.5L1101,81h15.59m.57-1h-16.74L1092,94.5l8.37,14.5h16.74l8.38-14.5L1117.11,80Z"/><polygon class="cls-1" points="1142.66 108.5 1134.58 94.5 1142.66 80.5 1158.83 80.5 1166.91 94.5 1158.83 108.5 1142.66 108.5"/><path class="cls-2" d="M1158.54,81l7.79,13.5-7.79,13.5H1143l-7.8-13.5L1143,81h15.59m.57-1h-16.74L1134,94.5l8.37,14.5h16.74l8.38-14.5L1159.11,80Z"/><polygon class="cls-1" points="1184.66 108.5 1176.58 94.5 1184.66 80.5 1200.83 80.5 1208.91 94.5 1200.83 108.5 1184.66 108.5"/><path class="cls-2" d="M1200.54,81l7.79,13.5-7.79,13.5H1185l-7.8-13.5L1185,81h15.59m.57-1h-16.74L1176,94.5l8.37,14.5h16.74l8.38-14.5L1201.11,80Z"/><polygon class="cls-1" points="1226.66 108.5 1218.58 94.5 1226.66 80.5 1242.83 80.5 1250.91 94.5 1242.83 108.5 1226.66 108.5"/><path class="cls-2" d="M1242.54,81l7.79,13.5-7.79,13.5H1227l-7.8-13.5L1227,81h15.59m.57-1h-16.74L1218,94.5l8.37,14.5h16.74l8.38-14.5L1243.11,80Z"/><polygon class="cls-1" points="1268.66 108.5 1260.58 94.5 1268.66 80.5 1284.83 80.5 1292.91 94.5 1284.83 108.5 1268.66 108.5"/><path class="cls-2" d="M1284.54,81l7.79,13.5-7.79,13.5H1269l-7.8-13.5L1269,81h15.59m.57-1h-16.74L1260,94.5l8.37,14.5h16.74l8.38-14.5L1285.11,80Z"/><polygon class="cls-1" points="1310.66 108.5 1302.58 94.5 1310.66 80.5 1326.83 80.5 1334.91 94.5 1326.83 108.5 1310.66 108.5"/><path class="cls-2" d="M1326.54,81l7.79,13.5-7.79,13.5H1311l-7.8-13.5L1311,81h15.59m.57-1h-16.74L1302,94.5l8.37,14.5h16.74l8.38-14.5L1327.11,80Z"/><polygon class="cls-1" points="1352.66 108.5 1344.58 94.5 1352.66 80.5 1368.83 80.5 1376.91 94.5 1368.83 108.5 1352.66 108.5"/><path class="cls-2" d="M1368.54,81l7.79,13.5-7.79,13.5H1353l-7.8-13.5L1353,81h15.59m.57-1h-16.74L1344,94.5l8.37,14.5h16.74l8.38-14.5L1369.11,80Z"/><polygon class="cls-1" points="1394.66 108.5 1386.58 94.5 1394.66 80.5 1410.83 80.5 1418.91 94.5 1410.83 108.5 1394.66 108.5"/><path class="cls-2" d="M1410.54,81l7.79,13.5-7.79,13.5H1395l-7.8-13.5L1395,81h15.59m.57-1h-16.74L1386,94.5l8.37,14.5h16.74l8.38-14.5L1411.11,80Z"/><polygon class="cls-1" points="1436.66 108.5 1428.58 94.5 1436.66 80.5 1452.83 80.5 1460.91 94.5 1452.83 108.5 1436.66 108.5"/><path class="cls-2" d="M1452.54,81l7.79,13.5-7.79,13.5H1437l-7.8-13.5L1437,81h15.59m.57-1h-16.74L1428,94.5l8.37,14.5h16.74l8.38-14.5L1453.11,80Z"/><polygon class="cls-1" points="1478.66 108.5 1470.58 94.5 1478.66 80.5 1494.83 80.5 1502.91 94.5 1494.83 108.5 1478.66 108.5"/><path class="cls-2" d="M1494.54,81l7.79,13.5-7.79,13.5H1479l-7.8-13.5L1479,81h15.59m.57-1h-16.74L1470,94.5l8.37,14.5h16.74l8.38-14.5L1495.11,80Z"/><polygon class="cls-1" points="1520.66 108.5 1512.58 94.5 1520.66 80.5 1536.83 80.5 1544.91 94.5 1536.83 108.5 1520.66 108.5"/><path class="cls-2" d="M1536.54,81l7.79,13.5-7.79,13.5H1521l-7.8-13.5L1521,81h15.59m.57-1h-16.74L1512,94.5l8.37,14.5h16.74l8.38-14.5L1537.11,80Z"/><polygon class="cls-1" points="1562.66 108.5 1554.58 94.5 1562.66 80.5 1578.83 80.5 1586.91 94.5 1578.83 108.5 1562.66 108.5"/><path class="cls-2" d="M1578.54,81l7.79,13.5-7.79,13.5H1563l-7.8-13.5L1563,81h15.59m.57-1h-16.74L1554,94.5l8.37,14.5h16.74l8.38-14.5L1579.11,80Z"/><polygon class="cls-1" points="8.66 148.5 0.58 134.5 8.66 120.5 24.83 120.5 32.91 134.5 24.83 148.5 8.66 148.5"/><path class="cls-2" d="M24.54,121l7.79,13.5L24.54,148H9l-7.8-13.5L9,121H24.54m.57-1H8.37L0,134.5,8.37,149H25.11l8.38-14.5L25.11,120Z"/><polygon class="cls-1" points="50.66 148.5 42.58 134.5 50.66 120.5 66.83 120.5 74.91 134.5 66.83 148.5 50.66 148.5"/><path class="cls-2" d="M66.54,121l7.79,13.5L66.54,148H51l-7.8-13.5L51,121H66.54m.57-1H50.37L42,134.5,50.37,149H67.11l8.38-14.5L67.11,120Z"/><polygon class="cls-1" points="92.66 148.5 84.58 134.5 92.66 120.5 108.83 120.5 116.91 134.5 108.83 148.5 92.66 148.5"/><path class="cls-2" d="M108.54,121l7.79,13.5L108.54,148H93l-7.8-13.5L93,121h15.59m.57-1H92.37L84,134.5,92.37,149h16.74l8.38-14.5L109.11,120Z"/><polygon class="cls-1" points="134.66 148.5 126.58 134.5 134.66 120.5 150.83 120.5 158.91 134.5 150.83 148.5 134.66 148.5"/><path class="cls-2" d="M150.54,121l7.79,13.5L150.54,148H135l-7.8-13.5L135,121h15.59m.57-1H134.37L126,134.5l8.37,14.5h16.74l8.38-14.5L151.11,120Z"/><polygon class="cls-1" points="176.66 148.5 168.58 134.5 176.66 120.5 192.83 120.5 200.91 134.5 192.83 148.5 176.66 148.5"/><path class="cls-2" d="M192.54,121l7.79,13.5L192.54,148H177l-7.8-13.5L177,121h15.59m.57-1H176.37L168,134.5l8.37,14.5h16.74l8.38-14.5L193.11,120Z"/><polygon class="cls-1" points="218.66 148.5 210.58 134.5 218.66 120.5 234.83 120.5 242.91 134.5 234.83 148.5 218.66 148.5"/><path class="cls-2" d="M234.54,121l7.79,13.5L234.54,148H219l-7.8-13.5L219,121h15.59m.57-1H218.37L210,134.5l8.37,14.5h16.74l8.38-14.5L235.11,120Z"/><polygon class="cls-1" points="260.66 148.5 252.58 134.5 260.66 120.5 276.83 120.5 284.91 134.5 276.83 148.5 260.66 148.5"/><path class="cls-2" d="M276.54,121l7.79,13.5L276.54,148H261l-7.8-13.5L261,121h15.59m.57-1H260.37L252,134.5l8.37,14.5h16.74l8.38-14.5L277.11,120Z"/><polygon class="cls-1" points="302.66 148.5 294.58 134.5 302.66 120.5 318.83 120.5 326.91 134.5 318.83 148.5 302.66 148.5"/><path class="cls-2" d="M318.54,121l7.79,13.5L318.54,148H303l-7.8-13.5L303,121h15.59m.57-1H302.37L294,134.5l8.37,14.5h16.74l8.38-14.5L319.11,120Z"/><polygon class="cls-1" points="344.66 148.5 336.58 134.5 344.66 120.5 360.83 120.5 368.91 134.5 360.83 148.5 344.66 148.5"/><path class="cls-2" d="M360.54,121l7.79,13.5L360.54,148H345l-7.8-13.5L345,121h15.59m.57-1H344.37L336,134.5l8.37,14.5h16.74l8.38-14.5L361.11,120Z"/><polygon class="cls-1" points="386.66 148.5 378.58 134.5 386.66 120.5 402.83 120.5 410.91 134.5 402.83 148.5 386.66 148.5"/><path class="cls-2" d="M402.54,121l7.79,13.5L402.54,148H387l-7.8-13.5L387,121h15.59m.57-1H386.37L378,134.5l8.37,14.5h16.74l8.38-14.5L403.11,120Z"/><polygon class="cls-1" points="428.66 148.5 420.58 134.5 428.66 120.5 444.83 120.5 452.91 134.5 444.83 148.5 428.66 148.5"/><path class="cls-2" d="M444.54,121l7.79,13.5L444.54,148H429l-7.8-13.5L429,121h15.59m.57-1H428.37L420,134.5l8.37,14.5h16.74l8.38-14.5L445.11,120Z"/><polygon class="cls-1" points="470.66 148.5 462.58 134.5 470.66 120.5 486.83 120.5 494.91 134.5 486.83 148.5 470.66 148.5"/><path class="cls-2" d="M486.54,121l7.79,13.5L486.54,148H471l-7.8-13.5L471,121h15.59m.57-1H470.37L462,134.5l8.37,14.5h16.74l8.38-14.5L487.11,120Z"/><polygon class="cls-1" points="512.66 148.5 504.58 134.5 512.66 120.5 528.83 120.5 536.91 134.5 528.83 148.5 512.66 148.5"/><path class="cls-2" d="M528.54,121l7.79,13.5L528.54,148H513l-7.8-13.5L513,121h15.59m.57-1H512.37L504,134.5l8.37,14.5h16.74l8.38-14.5L529.11,120Z"/><polygon class="cls-1" points="554.66 148.5 546.58 134.5 554.66 120.5 570.83 120.5 578.91 134.5 570.83 148.5 554.66 148.5"/><path class="cls-2" d="M570.54,121l7.79,13.5L570.54,148H555l-7.8-13.5L555,121h15.59m.57-1H554.37L546,134.5l8.37,14.5h16.74l8.38-14.5L571.11,120Z"/><polygon class="cls-1" points="596.66 148.5 588.58 134.5 596.66 120.5 612.83 120.5 620.91 134.5 612.83 148.5 596.66 148.5"/><path class="cls-2" d="M612.54,121l7.79,13.5L612.54,148H597l-7.8-13.5L597,121h15.59m.57-1H596.37L588,134.5l8.37,14.5h16.74l8.38-14.5L613.11,120Z"/><polygon class="cls-1" points="638.66 148.5 630.58 134.5 638.66 120.5 654.83 120.5 662.91 134.5 654.83 148.5 638.66 148.5"/><path class="cls-2" d="M654.54,121l7.79,13.5L654.54,148H639l-7.8-13.5L639,121h15.59m.57-1H638.37L630,134.5l8.37,14.5h16.74l8.38-14.5L655.11,120Z"/><polygon class="cls-1" points="680.66 148.5 672.58 134.5 680.66 120.5 696.83 120.5 704.91 134.5 696.83 148.5 680.66 148.5"/><path class="cls-2" d="M696.54,121l7.79,13.5L696.54,148H681l-7.8-13.5L681,121h15.59m.57-1H680.37L672,134.5l8.37,14.5h16.74l8.38-14.5L697.11,120Z"/><polygon class="cls-1" points="722.66 148.5 714.58 134.5 722.66 120.5 738.83 120.5 746.91 134.5 738.83 148.5 722.66 148.5"/><path class="cls-2" d="M738.54,121l7.79,13.5L738.54,148H723l-7.8-13.5L723,121h15.59m.57-1H722.37L714,134.5l8.37,14.5h16.74l8.38-14.5L739.11,120Z"/><polygon class="cls-1" points="764.66 148.5 756.58 134.5 764.66 120.5 780.83 120.5 788.91 134.5 780.83 148.5 764.66 148.5"/><path class="cls-2" d="M780.54,121l7.79,13.5L780.54,148H765l-7.8-13.5L765,121h15.59m.57-1H764.37L756,134.5l8.37,14.5h16.74l8.38-14.5L781.11,120Z"/><polygon class="cls-1" points="806.66 148.5 798.58 134.5 806.66 120.5 822.83 120.5 830.91 134.5 822.83 148.5 806.66 148.5"/><path class="cls-2" d="M822.54,121l7.79,13.5L822.54,148H807l-7.8-13.5L807,121h15.59m.57-1H806.37L798,134.5l8.37,14.5h16.74l8.38-14.5L823.11,120Z"/><polygon class="cls-1" points="848.66 148.5 840.58 134.5 848.66 120.5 864.83 120.5 872.91 134.5 864.83 148.5 848.66 148.5"/><path class="cls-2" d="M864.54,121l7.79,13.5L864.54,148H849l-7.8-13.5L849,121h15.59m.57-1H848.37L840,134.5l8.37,14.5h16.74l8.38-14.5L865.11,120Z"/><polygon class="cls-1" points="890.66 148.5 882.58 134.5 890.66 120.5 906.83 120.5 914.91 134.5 906.83 148.5 890.66 148.5"/><path class="cls-2" d="M906.54,121l7.79,13.5L906.54,148H891l-7.8-13.5L891,121h15.59m.57-1H890.37L882,134.5l8.37,14.5h16.74l8.38-14.5L907.11,120Z"/><polygon class="cls-1" points="932.66 148.5 924.58 134.5 932.66 120.5 948.83 120.5 956.91 134.5 948.83 148.5 932.66 148.5"/><path class="cls-2" d="M948.54,121l7.79,13.5L948.54,148H933l-7.8-13.5L933,121h15.59m.57-1H932.37L924,134.5l8.37,14.5h16.74l8.38-14.5L949.11,120Z"/><polygon class="cls-1" points="974.66 148.5 966.58 134.5 974.66 120.5 990.83 120.5 998.91 134.5 990.83 148.5 974.66 148.5"/><path class="cls-2" d="M990.54,121l7.79,13.5L990.54,148H975l-7.8-13.5L975,121h15.59m.57-1H974.37L966,134.5l8.37,14.5h16.74l8.38-14.5L991.11,120Z"/><polygon class="cls-1" points="1016.66 148.5 1008.58 134.5 1016.66 120.5 1032.83 120.5 1040.91 134.5 1032.83 148.5 1016.66 148.5"/><path class="cls-2" d="M1032.54,121l7.79,13.5-7.79,13.5H1017l-7.8-13.5L1017,121h15.59m.57-1h-16.74L1008,134.5l8.37,14.5h16.74l8.38-14.5-8.38-14.5Z"/><polygon class="cls-1" points="1058.66 148.5 1050.58 134.5 1058.66 120.5 1074.83 120.5 1082.91 134.5 1074.83 148.5 1058.66 148.5"/><path class="cls-2" d="M1074.54,121l7.79,13.5-7.79,13.5H1059l-7.8-13.5L1059,121h15.59m.57-1h-16.74L1050,134.5l8.37,14.5h16.74l8.38-14.5-8.38-14.5Z"/><polygon class="cls-1" points="1100.66 148.5 1092.58 134.5 1100.66 120.5 1116.83 120.5 1124.91 134.5 1116.83 148.5 1100.66 148.5"/><path class="cls-2" d="M1116.54,121l7.79,13.5-7.79,13.5H1101l-7.8-13.5L1101,121h15.59m.57-1h-16.74L1092,134.5l8.37,14.5h16.74l8.38-14.5-8.38-14.5Z"/><polygon class="cls-1" points="1142.66 148.5 1134.58 134.5 1142.66 120.5 1158.83 120.5 1166.91 134.5 1158.83 148.5 1142.66 148.5"/><path class="cls-2" d="M1158.54,121l7.79,13.5-7.79,13.5H1143l-7.8-13.5L1143,121h15.59m.57-1h-16.74L1134,134.5l8.37,14.5h16.74l8.38-14.5-8.38-14.5Z"/><polygon class="cls-1" points="1184.66 148.5 1176.58 134.5 1184.66 120.5 1200.83 120.5 1208.91 134.5 1200.83 148.5 1184.66 148.5"/><path class="cls-2" d="M1200.54,121l7.79,13.5-7.79,13.5H1185l-7.8-13.5L1185,121h15.59m.57-1h-16.74L1176,134.5l8.37,14.5h16.74l8.38-14.5-8.38-14.5Z"/><polygon class="cls-1" points="1226.66 148.5 1218.58 134.5 1226.66 120.5 1242.83 120.5 1250.91 134.5 1242.83 148.5 1226.66 148.5"/><path class="cls-2" d="M1242.54,121l7.79,13.5-7.79,13.5H1227l-7.8-13.5L1227,121h15.59m.57-1h-16.74L1218,134.5l8.37,14.5h16.74l8.38-14.5-8.38-14.5Z"/><polygon class="cls-1" points="1268.66 148.5 1260.58 134.5 1268.66 120.5 1284.83 120.5 1292.91 134.5 1284.83 148.5 1268.66 148.5"/><path class="cls-2" d="M1284.54,121l7.79,13.5-7.79,13.5H1269l-7.8-13.5L1269,121h15.59m.57-1h-16.74L1260,134.5l8.37,14.5h16.74l8.38-14.5-8.38-14.5Z"/><polygon class="cls-1" points="1310.66 148.5 1302.58 134.5 1310.66 120.5 1326.83 120.5 1334.91 134.5 1326.83 148.5 1310.66 148.5"/><path class="cls-2" d="M1326.54,121l7.79,13.5-7.79,13.5H1311l-7.8-13.5L1311,121h15.59m.57-1h-16.74L1302,134.5l8.37,14.5h16.74l8.38-14.5-8.38-14.5Z"/><polygon class="cls-1" points="1352.66 148.5 1344.58 134.5 1352.66 120.5 1368.83 120.5 1376.91 134.5 1368.83 148.5 1352.66 148.5"/><path class="cls-2" d="M1368.54,121l7.79,13.5-7.79,13.5H1353l-7.8-13.5L1353,121h15.59m.57-1h-16.74L1344,134.5l8.37,14.5h16.74l8.38-14.5-8.38-14.5Z"/><polygon class="cls-1" points="8.66 188.5 0.58 174.5 8.66 160.5 24.83 160.5 32.91 174.5 24.83 188.5 8.66 188.5"/><path class="cls-2" d="M24.54,161l7.79,13.5L24.54,188H9l-7.8-13.5L9,161H24.54m.57-1H8.37L0,174.5,8.37,189H25.11l8.38-14.5L25.11,160Z"/><polygon class="cls-1" points="50.66 188.5 42.58 174.5 50.66 160.5 66.83 160.5 74.91 174.5 66.83 188.5 50.66 188.5"/><path class="cls-2" d="M66.54,161l7.79,13.5L66.54,188H51l-7.8-13.5L51,161H66.54m.57-1H50.37L42,174.5,50.37,189H67.11l8.38-14.5L67.11,160Z"/><polygon class="cls-1" points="92.66 188.5 84.58 174.5 92.66 160.5 108.83 160.5 116.91 174.5 108.83 188.5 92.66 188.5"/><path class="cls-2" d="M108.54,161l7.79,13.5L108.54,188H93l-7.8-13.5L93,161h15.59m.57-1H92.37L84,174.5,92.37,189h16.74l8.38-14.5L109.11,160Z"/><polygon class="cls-1" points="134.66 188.5 126.58 174.5 134.66 160.5 150.83 160.5 158.91 174.5 150.83 188.5 134.66 188.5"/><path class="cls-2" d="M150.54,161l7.79,13.5L150.54,188H135l-7.8-13.5L135,161h15.59m.57-1H134.37L126,174.5l8.37,14.5h16.74l8.38-14.5L151.11,160Z"/><polygon class="cls-1" points="176.66 188.5 168.58 174.5 176.66 160.5 192.83 160.5 200.91 174.5 192.83 188.5 176.66 188.5"/><path class="cls-2" d="M192.54,161l7.79,13.5L192.54,188H177l-7.8-13.5L177,161h15.59m.57-1H176.37L168,174.5l8.37,14.5h16.74l8.38-14.5L193.11,160Z"/><polygon class="cls-1" points="218.66 188.5 210.58 174.5 218.66 160.5 234.83 160.5 242.91 174.5 234.83 188.5 218.66 188.5"/><path class="cls-2" d="M234.54,161l7.79,13.5L234.54,188H219l-7.8-13.5L219,161h15.59m.57-1H218.37L210,174.5l8.37,14.5h16.74l8.38-14.5L235.11,160Z"/><polygon class="cls-1" points="260.66 188.5 252.58 174.5 260.66 160.5 276.83 160.5 284.91 174.5 276.83 188.5 260.66 188.5"/><path class="cls-2" d="M276.54,161l7.79,13.5L276.54,188H261l-7.8-13.5L261,161h15.59m.57-1H260.37L252,174.5l8.37,14.5h16.74l8.38-14.5L277.11,160Z"/><polygon class="cls-1" points="302.66 188.5 294.58 174.5 302.66 160.5 318.83 160.5 326.91 174.5 318.83 188.5 302.66 188.5"/><path class="cls-2" d="M318.54,161l7.79,13.5L318.54,188H303l-7.8-13.5L303,161h15.59m.57-1H302.37L294,174.5l8.37,14.5h16.74l8.38-14.5L319.11,160Z"/><polygon class="cls-1" points="344.66 188.5 336.58 174.5 344.66 160.5 360.83 160.5 368.91 174.5 360.83 188.5 344.66 188.5"/><path class="cls-2" d="M360.54,161l7.79,13.5L360.54,188H345l-7.8-13.5L345,161h15.59m.57-1H344.37L336,174.5l8.37,14.5h16.74l8.38-14.5L361.11,160Z"/><polygon class="cls-1" points="386.66 188.5 378.58 174.5 386.66 160.5 402.83 160.5 410.91 174.5 402.83 188.5 386.66 188.5"/><path class="cls-2" d="M402.54,161l7.79,13.5L402.54,188H387l-7.8-13.5L387,161h15.59m.57-1H386.37L378,174.5l8.37,14.5h16.74l8.38-14.5L403.11,160Z"/><polygon class="cls-1" points="428.66 188.5 420.58 174.5 428.66 160.5 444.83 160.5 452.91 174.5 444.83 188.5 428.66 188.5"/><path class="cls-2" d="M444.54,161l7.79,13.5L444.54,188H429l-7.8-13.5L429,161h15.59m.57-1H428.37L420,174.5l8.37,14.5h16.74l8.38-14.5L445.11,160Z"/><polygon class="cls-1" points="470.66 188.5 462.58 174.5 470.66 160.5 486.83 160.5 494.91 174.5 486.83 188.5 470.66 188.5"/><path class="cls-2" d="M486.54,161l7.79,13.5L486.54,188H471l-7.8-13.5L471,161h15.59m.57-1H470.37L462,174.5l8.37,14.5h16.74l8.38-14.5L487.11,160Z"/><polygon class="cls-1" points="512.66 188.5 504.58 174.5 512.66 160.5 528.83 160.5 536.91 174.5 528.83 188.5 512.66 188.5"/><path class="cls-2" d="M528.54,161l7.79,13.5L528.54,188H513l-7.8-13.5L513,161h15.59m.57-1H512.37L504,174.5l8.37,14.5h16.74l8.38-14.5L529.11,160Z"/><polygon class="cls-1" points="554.66 188.5 546.58 174.5 554.66 160.5 570.83 160.5 578.91 174.5 570.83 188.5 554.66 188.5"/><path class="cls-2" d="M570.54,161l7.79,13.5L570.54,188H555l-7.8-13.5L555,161h15.59m.57-1H554.37L546,174.5l8.37,14.5h16.74l8.38-14.5L571.11,160Z"/><polygon class="cls-1" points="596.66 188.5 588.58 174.5 596.66 160.5 612.83 160.5 620.91 174.5 612.83 188.5 596.66 188.5"/><path class="cls-2" d="M612.54,161l7.79,13.5L612.54,188H597l-7.8-13.5L597,161h15.59m.57-1H596.37L588,174.5l8.37,14.5h16.74l8.38-14.5L613.11,160Z"/><polygon class="cls-1" points="638.66 188.5 630.58 174.5 638.66 160.5 654.83 160.5 662.91 174.5 654.83 188.5 638.66 188.5"/><path class="cls-2" d="M654.54,161l7.79,13.5L654.54,188H639l-7.8-13.5L639,161h15.59m.57-1H638.37L630,174.5l8.37,14.5h16.74l8.38-14.5L655.11,160Z"/><polygon class="cls-1" points="680.66 188.5 672.58 174.5 680.66 160.5 696.83 160.5 704.91 174.5 696.83 188.5 680.66 188.5"/><path class="cls-2" d="M696.54,161l7.79,13.5L696.54,188H681l-7.8-13.5L681,161h15.59m.57-1H680.37L672,174.5l8.37,14.5h16.74l8.38-14.5L697.11,160Z"/><polygon class="cls-1" points="722.66 188.5 714.58 174.5 722.66 160.5 738.83 160.5 746.91 174.5 738.83 188.5 722.66 188.5"/><path class="cls-2" d="M738.54,161l7.79,13.5L738.54,188H723l-7.8-13.5L723,161h15.59m.57-1H722.37L714,174.5l8.37,14.5h16.74l8.38-14.5L739.11,160Z"/><polygon class="cls-1" points="764.66 188.5 756.58 174.5 764.66 160.5 780.83 160.5 788.91 174.5 780.83 188.5 764.66 188.5"/><path class="cls-2" d="M780.54,161l7.79,13.5L780.54,188H765l-7.8-13.5L765,161h15.59m.57-1H764.37L756,174.5l8.37,14.5h16.74l8.38-14.5L781.11,160Z"/><polygon class="cls-1" points="806.66 188.5 798.58 174.5 806.66 160.5 822.83 160.5 830.91 174.5 822.83 188.5 806.66 188.5"/><path class="cls-2" d="M822.54,161l7.79,13.5L822.54,188H807l-7.8-13.5L807,161h15.59m.57-1H806.37L798,174.5l8.37,14.5h16.74l8.38-14.5L823.11,160Z"/><polygon class="cls-1" points="848.66 188.5 840.58 174.5 848.66 160.5 864.83 160.5 872.91 174.5 864.83 188.5 848.66 188.5"/><path class="cls-2" d="M864.54,161l7.79,13.5L864.54,188H849l-7.8-13.5L849,161h15.59m.57-1H848.37L840,174.5l8.37,14.5h16.74l8.38-14.5L865.11,160Z"/><polygon class="cls-1" points="890.66 188.5 882.58 174.5 890.66 160.5 906.83 160.5 914.91 174.5 906.83 188.5 890.66 188.5"/><path class="cls-2" d="M906.54,161l7.79,13.5L906.54,188H891l-7.8-13.5L891,161h15.59m.57-1H890.37L882,174.5l8.37,14.5h16.74l8.38-14.5L907.11,160Z"/><polygon class="cls-1" points="932.66 188.5 924.58 174.5 932.66 160.5 948.83 160.5 956.91 174.5 948.83 188.5 932.66 188.5"/><path class="cls-2" d="M948.54,161l7.79,13.5L948.54,188H933l-7.8-13.5L933,161h15.59m.57-1H932.37L924,174.5l8.37,14.5h16.74l8.38-14.5L949.11,160Z"/><polygon class="cls-1" points="974.66 188.5 966.58 174.5 974.66 160.5 990.83 160.5 998.91 174.5 990.83 188.5 974.66 188.5"/><path class="cls-2" d="M990.54,161l7.79,13.5L990.54,188H975l-7.8-13.5L975,161h15.59m.57-1H974.37L966,174.5l8.37,14.5h16.74l8.38-14.5L991.11,160Z"/><polygon class="cls-1" points="1016.66 188.5 1008.58 174.5 1016.66 160.5 1032.83 160.5 1040.91 174.5 1032.83 188.5 1016.66 188.5"/><path class="cls-2" d="M1032.54,161l7.79,13.5-7.79,13.5H1017l-7.8-13.5L1017,161h15.59m.57-1h-16.74L1008,174.5l8.37,14.5h16.74l8.38-14.5-8.38-14.5Z"/><polygon class="cls-1" points="1058.66 188.5 1050.58 174.5 1058.66 160.5 1074.83 160.5 1082.91 174.5 1074.83 188.5 1058.66 188.5"/><path class="cls-2" d="M1074.54,161l7.79,13.5-7.79,13.5H1059l-7.8-13.5L1059,161h15.59m.57-1h-16.74L1050,174.5l8.37,14.5h16.74l8.38-14.5-8.38-14.5Z"/><polygon class="cls-1" points="1100.66 188.5 1092.58 174.5 1100.66 160.5 1116.83 160.5 1124.91 174.5 1116.83 188.5 1100.66 188.5"/><path class="cls-2" d="M1116.54,161l7.79,13.5-7.79,13.5H1101l-7.8-13.5L1101,161h15.59m.57-1h-16.74L1092,174.5l8.37,14.5h16.74l8.38-14.5-8.38-14.5Z"/><polygon class="cls-1" points="1142.66 188.5 1134.58 174.5 1142.66 160.5 1158.83 160.5 1166.91 174.5 1158.83 188.5 1142.66 188.5"/><path class="cls-2" d="M1158.54,161l7.79,13.5-7.79,13.5H1143l-7.8-13.5L1143,161h15.59m.57-1h-16.74L1134,174.5l8.37,14.5h16.74l8.38-14.5-8.38-14.5Z"/><polygon class="cls-1" points="8.66 228.5 0.58 214.5 8.66 200.5 24.83 200.5 32.91 214.5 24.83 228.5 8.66 228.5"/><path class="cls-2" d="M24.54,201l7.79,13.5L24.54,228H9l-7.8-13.5L9,201H24.54m.57-1H8.37L0,214.5,8.37,229H25.11l8.38-14.5L25.11,200Z"/><polygon class="cls-1" points="50.66 228.5 42.58 214.5 50.66 200.5 66.83 200.5 74.91 214.5 66.83 228.5 50.66 228.5"/><path class="cls-2" d="M66.54,201l7.79,13.5L66.54,228H51l-7.8-13.5L51,201H66.54m.57-1H50.37L42,214.5,50.37,229H67.11l8.38-14.5L67.11,200Z"/><polygon class="cls-1" points="92.66 228.5 84.58 214.5 92.66 200.5 108.83 200.5 116.91 214.5 108.83 228.5 92.66 228.5"/><path class="cls-2" d="M108.54,201l7.79,13.5L108.54,228H93l-7.8-13.5L93,201h15.59m.57-1H92.37L84,214.5,92.37,229h16.74l8.38-14.5L109.11,200Z"/><polygon class="cls-1" points="134.66 228.5 126.58 214.5 134.66 200.5 150.83 200.5 158.91 214.5 150.83 228.5 134.66 228.5"/><path class="cls-2" d="M150.54,201l7.79,13.5L150.54,228H135l-7.8-13.5L135,201h15.59m.57-1H134.37L126,214.5l8.37,14.5h16.74l8.38-14.5L151.11,200Z"/><polygon class="cls-1" points="176.66 228.5 168.58 214.5 176.66 200.5 192.83 200.5 200.91 214.5 192.83 228.5 176.66 228.5"/><path class="cls-2" d="M192.54,201l7.79,13.5L192.54,228H177l-7.8-13.5L177,201h15.59m.57-1H176.37L168,214.5l8.37,14.5h16.74l8.38-14.5L193.11,200Z"/><polygon class="cls-1" points="218.66 228.5 210.58 214.5 218.66 200.5 234.83 200.5 242.91 214.5 234.83 228.5 218.66 228.5"/><path class="cls-2" d="M234.54,201l7.79,13.5L234.54,228H219l-7.8-13.5L219,201h15.59m.57-1H218.37L210,214.5l8.37,14.5h16.74l8.38-14.5L235.11,200Z"/><polygon class="cls-1" points="260.66 228.5 252.58 214.5 260.66 200.5 276.83 200.5 284.91 214.5 276.83 228.5 260.66 228.5"/><path class="cls-2" d="M276.54,201l7.79,13.5L276.54,228H261l-7.8-13.5L261,201h15.59m.57-1H260.37L252,214.5l8.37,14.5h16.74l8.38-14.5L277.11,200Z"/><polygon class="cls-1" points="302.66 228.5 294.58 214.5 302.66 200.5 318.83 200.5 326.91 214.5 318.83 228.5 302.66 228.5"/><path class="cls-2" d="M318.54,201l7.79,13.5L318.54,228H303l-7.8-13.5L303,201h15.59m.57-1H302.37L294,214.5l8.37,14.5h16.74l8.38-14.5L319.11,200Z"/><polygon class="cls-1" points="344.66 228.5 336.58 214.5 344.66 200.5 360.83 200.5 368.91 214.5 360.83 228.5 344.66 228.5"/><path class="cls-2" d="M360.54,201l7.79,13.5L360.54,228H345l-7.8-13.5L345,201h15.59m.57-1H344.37L336,214.5l8.37,14.5h16.74l8.38-14.5L361.11,200Z"/><polygon class="cls-1" points="386.66 228.5 378.58 214.5 386.66 200.5 402.83 200.5 410.91 214.5 402.83 228.5 386.66 228.5"/><path class="cls-2" d="M402.54,201l7.79,13.5L402.54,228H387l-7.8-13.5L387,201h15.59m.57-1H386.37L378,214.5l8.37,14.5h16.74l8.38-14.5L403.11,200Z"/><polygon class="cls-1" points="428.66 228.5 420.58 214.5 428.66 200.5 444.83 200.5 452.91 214.5 444.83 228.5 428.66 228.5"/><path class="cls-2" d="M444.54,201l7.79,13.5L444.54,228H429l-7.8-13.5L429,201h15.59m.57-1H428.37L420,214.5l8.37,14.5h16.74l8.38-14.5L445.11,200Z"/><polygon class="cls-1" points="470.66 228.5 462.58 214.5 470.66 200.5 486.83 200.5 494.91 214.5 486.83 228.5 470.66 228.5"/><path class="cls-2" d="M486.54,201l7.79,13.5L486.54,228H471l-7.8-13.5L471,201h15.59m.57-1H470.37L462,214.5l8.37,14.5h16.74l8.38-14.5L487.11,200Z"/><polygon class="cls-1" points="512.66 228.5 504.58 214.5 512.66 200.5 528.83 200.5 536.91 214.5 528.83 228.5 512.66 228.5"/><path class="cls-2" d="M528.54,201l7.79,13.5L528.54,228H513l-7.8-13.5L513,201h15.59m.57-1H512.37L504,214.5l8.37,14.5h16.74l8.38-14.5L529.11,200Z"/><polygon class="cls-1" points="554.66 228.5 546.58 214.5 554.66 200.5 570.83 200.5 578.91 214.5 570.83 228.5 554.66 228.5"/><path class="cls-2" d="M570.54,201l7.79,13.5L570.54,228H555l-7.8-13.5L555,201h15.59m.57-1H554.37L546,214.5l8.37,14.5h16.74l8.38-14.5L571.11,200Z"/><polygon class="cls-1" points="596.66 228.5 588.58 214.5 596.66 200.5 612.83 200.5 620.91 214.5 612.83 228.5 596.66 228.5"/><path class="cls-2" d="M612.54,201l7.79,13.5L612.54,228H597l-7.8-13.5L597,201h15.59m.57-1H596.37L588,214.5l8.37,14.5h16.74l8.38-14.5L613.11,200Z"/><polygon class="cls-1" points="638.66 228.5 630.58 214.5 638.66 200.5 654.83 200.5 662.91 214.5 654.83 228.5 638.66 228.5"/><path class="cls-2" d="M654.54,201l7.79,13.5L654.54,228H639l-7.8-13.5L639,201h15.59m.57-1H638.37L630,214.5l8.37,14.5h16.74l8.38-14.5L655.11,200Z"/><polygon class="cls-1" points="680.66 228.5 672.58 214.5 680.66 200.5 696.83 200.5 704.91 214.5 696.83 228.5 680.66 228.5"/><path class="cls-2" d="M696.54,201l7.79,13.5L696.54,228H681l-7.8-13.5L681,201h15.59m.57-1H680.37L672,214.5l8.37,14.5h16.74l8.38-14.5L697.11,200Z"/><polygon class="cls-1" points="722.66 228.5 714.58 214.5 722.66 200.5 738.83 200.5 746.91 214.5 738.83 228.5 722.66 228.5"/><path class="cls-2" d="M738.54,201l7.79,13.5L738.54,228H723l-7.8-13.5L723,201h15.59m.57-1H722.37L714,214.5l8.37,14.5h16.74l8.38-14.5L739.11,200Z"/><polygon class="cls-1" points="764.66 228.5 756.58 214.5 764.66 200.5 780.83 200.5 788.91 214.5 780.83 228.5 764.66 228.5"/><path class="cls-2" d="M780.54,201l7.79,13.5L780.54,228H765l-7.8-13.5L765,201h15.59m.57-1H764.37L756,214.5l8.37,14.5h16.74l8.38-14.5L781.11,200Z"/><polygon class="cls-1" points="806.66 228.5 798.58 214.5 806.66 200.5 822.83 200.5 830.91 214.5 822.83 228.5 806.66 228.5"/><path class="cls-2" d="M822.54,201l7.79,13.5L822.54,228H807l-7.8-13.5L807,201h15.59m.57-1H806.37L798,214.5l8.37,14.5h16.74l8.38-14.5L823.11,200Z"/><polygon class="cls-1" points="848.66 228.5 840.58 214.5 848.66 200.5 864.83 200.5 872.91 214.5 864.83 228.5 848.66 228.5"/><path class="cls-2" d="M864.54,201l7.79,13.5L864.54,228H849l-7.8-13.5L849,201h15.59m.57-1H848.37L840,214.5l8.37,14.5h16.74l8.38-14.5L865.11,200Z"/><polygon class="cls-1" points="890.66 228.5 882.58 214.5 890.66 200.5 906.83 200.5 914.91 214.5 906.83 228.5 890.66 228.5"/><path class="cls-2" d="M906.54,201l7.79,13.5L906.54,228H891l-7.8-13.5L891,201h15.59m.57-1H890.37L882,214.5l8.37,14.5h16.74l8.38-14.5L907.11,200Z"/><polygon class="cls-1" points="932.66 228.5 924.58 214.5 932.66 200.5 948.83 200.5 956.91 214.5 948.83 228.5 932.66 228.5"/><path class="cls-2" d="M948.54,201l7.79,13.5L948.54,228H933l-7.8-13.5L933,201h15.59m.57-1H932.37L924,214.5l8.37,14.5h16.74l8.38-14.5L949.11,200Z"/><polygon class="cls-1" points="8.66 268.5 0.58 254.5 8.66 240.5 24.83 240.5 32.91 254.5 24.83 268.5 8.66 268.5"/><path class="cls-2" d="M24.54,241l7.79,13.5L24.54,268H9l-7.8-13.5L9,241H24.54m.57-1H8.37L0,254.5,8.37,269H25.11l8.38-14.5L25.11,240Z"/><polygon class="cls-1" points="50.66 268.5 42.58 254.5 50.66 240.5 66.83 240.5 74.91 254.5 66.83 268.5 50.66 268.5"/><path class="cls-2" d="M66.54,241l7.79,13.5L66.54,268H51l-7.8-13.5L51,241H66.54m.57-1H50.37L42,254.5,50.37,269H67.11l8.38-14.5L67.11,240Z"/><polygon class="cls-1" points="92.66 268.5 84.58 254.5 92.66 240.5 108.83 240.5 116.91 254.5 108.83 268.5 92.66 268.5"/><path class="cls-2" d="M108.54,241l7.79,13.5L108.54,268H93l-7.8-13.5L93,241h15.59m.57-1H92.37L84,254.5,92.37,269h16.74l8.38-14.5L109.11,240Z"/><polygon class="cls-1" points="134.66 268.5 126.58 254.5 134.66 240.5 150.83 240.5 158.91 254.5 150.83 268.5 134.66 268.5"/><path class="cls-2" d="M150.54,241l7.79,13.5L150.54,268H135l-7.8-13.5L135,241h15.59m.57-1H134.37L126,254.5l8.37,14.5h16.74l8.38-14.5L151.11,240Z"/><polygon class="cls-1" points="176.66 268.5 168.58 254.5 176.66 240.5 192.83 240.5 200.91 254.5 192.83 268.5 176.66 268.5"/><path class="cls-2" d="M192.54,241l7.79,13.5L192.54,268H177l-7.8-13.5L177,241h15.59m.57-1H176.37L168,254.5l8.37,14.5h16.74l8.38-14.5L193.11,240Z"/><polygon class="cls-1" points="218.66 268.5 210.58 254.5 218.66 240.5 234.83 240.5 242.91 254.5 234.83 268.5 218.66 268.5"/><path class="cls-2" d="M234.54,241l7.79,13.5L234.54,268H219l-7.8-13.5L219,241h15.59m.57-1H218.37L210,254.5l8.37,14.5h16.74l8.38-14.5L235.11,240Z"/><polygon class="cls-1" points="260.66 268.5 252.58 254.5 260.66 240.5 276.83 240.5 284.91 254.5 276.83 268.5 260.66 268.5"/><path class="cls-2" d="M276.54,241l7.79,13.5L276.54,268H261l-7.8-13.5L261,241h15.59m.57-1H260.37L252,254.5l8.37,14.5h16.74l8.38-14.5L277.11,240Z"/><polygon class="cls-1" points="302.66 268.5 294.58 254.5 302.66 240.5 318.83 240.5 326.91 254.5 318.83 268.5 302.66 268.5"/><path class="cls-2" d="M318.54,241l7.79,13.5L318.54,268H303l-7.8-13.5L303,241h15.59m.57-1H302.37L294,254.5l8.37,14.5h16.74l8.38-14.5L319.11,240Z"/><polygon class="cls-1" points="344.66 268.5 336.58 254.5 344.66 240.5 360.83 240.5 368.91 254.5 360.83 268.5 344.66 268.5"/><path class="cls-2" d="M360.54,241l7.79,13.5L360.54,268H345l-7.8-13.5L345,241h15.59m.57-1H344.37L336,254.5l8.37,14.5h16.74l8.38-14.5L361.11,240Z"/><polygon class="cls-1" points="386.66 268.5 378.58 254.5 386.66 240.5 402.83 240.5 410.91 254.5 402.83 268.5 386.66 268.5"/><path class="cls-2" d="M402.54,241l7.79,13.5L402.54,268H387l-7.8-13.5L387,241h15.59m.57-1H386.37L378,254.5l8.37,14.5h16.74l8.38-14.5L403.11,240Z"/><polygon class="cls-1" points="428.66 268.5 420.58 254.5 428.66 240.5 444.83 240.5 452.91 254.5 444.83 268.5 428.66 268.5"/><path class="cls-2" d="M444.54,241l7.79,13.5L444.54,268H429l-7.8-13.5L429,241h15.59m.57-1H428.37L420,254.5l8.37,14.5h16.74l8.38-14.5L445.11,240Z"/><polygon class="cls-1" points="470.66 268.5 462.58 254.5 470.66 240.5 486.83 240.5 494.91 254.5 486.83 268.5 470.66 268.5"/><path class="cls-2" d="M486.54,241l7.79,13.5L486.54,268H471l-7.8-13.5L471,241h15.59m.57-1H470.37L462,254.5l8.37,14.5h16.74l8.38-14.5L487.11,240Z"/><polygon class="cls-1" points="512.66 268.5 504.58 254.5 512.66 240.5 528.83 240.5 536.91 254.5 528.83 268.5 512.66 268.5"/><path class="cls-2" d="M528.54,241l7.79,13.5L528.54,268H513l-7.8-13.5L513,241h15.59m.57-1H512.37L504,254.5l8.37,14.5h16.74l8.38-14.5L529.11,240Z"/><polygon class="cls-1" points="554.66 268.5 546.58 254.5 554.66 240.5 570.83 240.5 578.91 254.5 570.83 268.5 554.66 268.5"/><path class="cls-2" d="M570.54,241l7.79,13.5L570.54,268H555l-7.8-13.5L555,241h15.59m.57-1H554.37L546,254.5l8.37,14.5h16.74l8.38-14.5L571.11,240Z"/><polygon class="cls-1" points="596.66 268.5 588.58 254.5 596.66 240.5 612.83 240.5 620.91 254.5 612.83 268.5 596.66 268.5"/><path class="cls-2" d="M612.54,241l7.79,13.5L612.54,268H597l-7.8-13.5L597,241h15.59m.57-1H596.37L588,254.5l8.37,14.5h16.74l8.38-14.5L613.11,240Z"/><polygon class="cls-1" points="638.66 268.5 630.58 254.5 638.66 240.5 654.83 240.5 662.91 254.5 654.83 268.5 638.66 268.5"/><path class="cls-2" d="M654.54,241l7.79,13.5L654.54,268H639l-7.8-13.5L639,241h15.59m.57-1H638.37L630,254.5l8.37,14.5h16.74l8.38-14.5L655.11,240Z"/><polygon class="cls-1" points="680.66 268.5 672.58 254.5 680.66 240.5 696.83 240.5 704.91 254.5 696.83 268.5 680.66 268.5"/><path class="cls-2" d="M696.54,241l7.79,13.5L696.54,268H681l-7.8-13.5L681,241h15.59m.57-1H680.37L672,254.5l8.37,14.5h16.74l8.38-14.5L697.11,240Z"/><polygon class="cls-1" points="722.66 268.5 714.58 254.5 722.66 240.5 738.83 240.5 746.91 254.5 738.83 268.5 722.66 268.5"/><path class="cls-2" d="M738.54,241l7.79,13.5L738.54,268H723l-7.8-13.5L723,241h15.59m.57-1H722.37L714,254.5l8.37,14.5h16.74l8.38-14.5L739.11,240Z"/><polygon class="cls-1" points="764.66 268.5 756.58 254.5 764.66 240.5 780.83 240.5 788.91 254.5 780.83 268.5 764.66 268.5"/><path class="cls-2" d="M780.54,241l7.79,13.5L780.54,268H765l-7.8-13.5L765,241h15.59m.57-1H764.37L756,254.5l8.37,14.5h16.74l8.38-14.5L781.11,240Z"/><polygon class="cls-1" points="806.66 268.5 798.58 254.5 806.66 240.5 822.83 240.5 830.91 254.5 822.83 268.5 806.66 268.5"/><path class="cls-2" d="M822.54,241l7.79,13.5L822.54,268H807l-7.8-13.5L807,241h15.59m.57-1H806.37L798,254.5l8.37,14.5h16.74l8.38-14.5L823.11,240Z"/><polygon class="cls-1" points="8.66 308.5 0.58 294.5 8.66 280.5 24.83 280.5 32.91 294.5 24.83 308.5 8.66 308.5"/><path class="cls-2" d="M24.54,281l7.79,13.5L24.54,308H9l-7.8-13.5L9,281H24.54m.57-1H8.37L0,294.5,8.37,309H25.11l8.38-14.5L25.11,280Z"/><polygon class="cls-1" points="50.66 308.5 42.58 294.5 50.66 280.5 66.83 280.5 74.91 294.5 66.83 308.5 50.66 308.5"/><path class="cls-2" d="M66.54,281l7.79,13.5L66.54,308H51l-7.8-13.5L51,281H66.54m.57-1H50.37L42,294.5,50.37,309H67.11l8.38-14.5L67.11,280Z"/><polygon class="cls-1" points="92.66 308.5 84.58 294.5 92.66 280.5 108.83 280.5 116.91 294.5 108.83 308.5 92.66 308.5"/><path class="cls-2" d="M108.54,281l7.79,13.5L108.54,308H93l-7.8-13.5L93,281h15.59m.57-1H92.37L84,294.5,92.37,309h16.74l8.38-14.5L109.11,280Z"/><polygon class="cls-1" points="134.66 308.5 126.58 294.5 134.66 280.5 150.83 280.5 158.91 294.5 150.83 308.5 134.66 308.5"/><path class="cls-2" d="M150.54,281l7.79,13.5L150.54,308H135l-7.8-13.5L135,281h15.59m.57-1H134.37L126,294.5l8.37,14.5h16.74l8.38-14.5L151.11,280Z"/><polygon class="cls-1" points="176.66 308.5 168.58 294.5 176.66 280.5 192.83 280.5 200.91 294.5 192.83 308.5 176.66 308.5"/><path class="cls-2" d="M192.54,281l7.79,13.5L192.54,308H177l-7.8-13.5L177,281h15.59m.57-1H176.37L168,294.5l8.37,14.5h16.74l8.38-14.5L193.11,280Z"/><polygon class="cls-1" points="218.66 308.5 210.58 294.5 218.66 280.5 234.83 280.5 242.91 294.5 234.83 308.5 218.66 308.5"/><path class="cls-2" d="M234.54,281l7.79,13.5L234.54,308H219l-7.8-13.5L219,281h15.59m.57-1H218.37L210,294.5l8.37,14.5h16.74l8.38-14.5L235.11,280Z"/><polygon class="cls-1" points="260.66 308.5 252.58 294.5 260.66 280.5 276.83 280.5 284.91 294.5 276.83 308.5 260.66 308.5"/><path class="cls-2" d="M276.54,281l7.79,13.5L276.54,308H261l-7.8-13.5L261,281h15.59m.57-1H260.37L252,294.5l8.37,14.5h16.74l8.38-14.5L277.11,280Z"/><polygon class="cls-1" points="302.66 308.5 294.58 294.5 302.66 280.5 318.83 280.5 326.91 294.5 318.83 308.5 302.66 308.5"/><path class="cls-2" d="M318.54,281l7.79,13.5L318.54,308H303l-7.8-13.5L303,281h15.59m.57-1H302.37L294,294.5l8.37,14.5h16.74l8.38-14.5L319.11,280Z"/><polygon class="cls-1" points="344.66 308.5 336.58 294.5 344.66 280.5 360.83 280.5 368.91 294.5 360.83 308.5 344.66 308.5"/><path class="cls-2" d="M360.54,281l7.79,13.5L360.54,308H345l-7.8-13.5L345,281h15.59m.57-1H344.37L336,294.5l8.37,14.5h16.74l8.38-14.5L361.11,280Z"/><polygon class="cls-1" points="386.66 308.5 378.58 294.5 386.66 280.5 402.83 280.5 410.91 294.5 402.83 308.5 386.66 308.5"/><path class="cls-2" d="M402.54,281l7.79,13.5L402.54,308H387l-7.8-13.5L387,281h15.59m.57-1H386.37L378,294.5l8.37,14.5h16.74l8.38-14.5L403.11,280Z"/><polygon class="cls-1" points="428.66 308.5 420.58 294.5 428.66 280.5 444.83 280.5 452.91 294.5 444.83 308.5 428.66 308.5"/><path class="cls-2" d="M444.54,281l7.79,13.5L444.54,308H429l-7.8-13.5L429,281h15.59m.57-1H428.37L420,294.5l8.37,14.5h16.74l8.38-14.5L445.11,280Z"/><polygon class="cls-1" points="470.66 308.5 462.58 294.5 470.66 280.5 486.83 280.5 494.91 294.5 486.83 308.5 470.66 308.5"/><path class="cls-2" d="M486.54,281l7.79,13.5L486.54,308H471l-7.8-13.5L471,281h15.59m.57-1H470.37L462,294.5l8.37,14.5h16.74l8.38-14.5L487.11,280Z"/><polygon class="cls-1" points="512.66 308.5 504.58 294.5 512.66 280.5 528.83 280.5 536.91 294.5 528.83 308.5 512.66 308.5"/><path class="cls-2" d="M528.54,281l7.79,13.5L528.54,308H513l-7.8-13.5L513,281h15.59m.57-1H512.37L504,294.5l8.37,14.5h16.74l8.38-14.5L529.11,280Z"/><polygon class="cls-1" points="554.66 308.5 546.58 294.5 554.66 280.5 570.83 280.5 578.91 294.5 570.83 308.5 554.66 308.5"/><path class="cls-2" d="M570.54,281l7.79,13.5L570.54,308H555l-7.8-13.5L555,281h15.59m.57-1H554.37L546,294.5l8.37,14.5h16.74l8.38-14.5L571.11,280Z"/><polygon class="cls-1" points="596.66 308.5 588.58 294.5 596.66 280.5 612.83 280.5 620.91 294.5 612.83 308.5 596.66 308.5"/><path class="cls-2" d="M612.54,281l7.79,13.5L612.54,308H597l-7.8-13.5L597,281h15.59m.57-1H596.37L588,294.5l8.37,14.5h16.74l8.38-14.5L613.11,280Z"/><polygon class="cls-1" points="638.66 308.5 630.58 294.5 638.66 280.5 654.83 280.5 662.91 294.5 654.83 308.5 638.66 308.5"/><path class="cls-2" d="M654.54,281l7.79,13.5L654.54,308H639l-7.8-13.5L639,281h15.59m.57-1H638.37L630,294.5l8.37,14.5h16.74l8.38-14.5L655.11,280Z"/><polygon class="cls-1" points="680.66 308.5 672.58 294.5 680.66 280.5 696.83 280.5 704.91 294.5 696.83 308.5 680.66 308.5"/><path class="cls-2" d="M696.54,281l7.79,13.5L696.54,308H681l-7.8-13.5L681,281h15.59m.57-1H680.37L672,294.5l8.37,14.5h16.74l8.38-14.5L697.11,280Z"/><polygon class="cls-1" points="8.66 348.5 0.58 334.5 8.66 320.5 24.83 320.5 32.91 334.5 24.83 348.5 8.66 348.5"/><path class="cls-2" d="M24.54,321l7.79,13.5L24.54,348H9l-7.8-13.5L9,321H24.54m.57-1H8.37L0,334.5,8.37,349H25.11l8.38-14.5L25.11,320Z"/><polygon class="cls-1" points="50.66 348.5 42.58 334.5 50.66 320.5 66.83 320.5 74.91 334.5 66.83 348.5 50.66 348.5"/><path class="cls-2" d="M66.54,321l7.79,13.5L66.54,348H51l-7.8-13.5L51,321H66.54m.57-1H50.37L42,334.5,50.37,349H67.11l8.38-14.5L67.11,320Z"/><polygon class="cls-1" points="92.66 348.5 84.58 334.5 92.66 320.5 108.83 320.5 116.91 334.5 108.83 348.5 92.66 348.5"/><path class="cls-2" d="M108.54,321l7.79,13.5L108.54,348H93l-7.8-13.5L93,321h15.59m.57-1H92.37L84,334.5,92.37,349h16.74l8.38-14.5L109.11,320Z"/><polygon class="cls-1" points="134.66 348.5 126.58 334.5 134.66 320.5 150.83 320.5 158.91 334.5 150.83 348.5 134.66 348.5"/><path class="cls-2" d="M150.54,321l7.79,13.5L150.54,348H135l-7.8-13.5L135,321h15.59m.57-1H134.37L126,334.5l8.37,14.5h16.74l8.38-14.5L151.11,320Z"/><polygon class="cls-1" points="176.66 348.5 168.58 334.5 176.66 320.5 192.83 320.5 200.91 334.5 192.83 348.5 176.66 348.5"/><path class="cls-2" d="M192.54,321l7.79,13.5L192.54,348H177l-7.8-13.5L177,321h15.59m.57-1H176.37L168,334.5l8.37,14.5h16.74l8.38-14.5L193.11,320Z"/><polygon class="cls-1" points="218.66 348.5 210.58 334.5 218.66 320.5 234.83 320.5 242.91 334.5 234.83 348.5 218.66 348.5"/><path class="cls-2" d="M234.54,321l7.79,13.5L234.54,348H219l-7.8-13.5L219,321h15.59m.57-1H218.37L210,334.5l8.37,14.5h16.74l8.38-14.5L235.11,320Z"/><polygon class="cls-1" points="260.66 348.5 252.58 334.5 260.66 320.5 276.83 320.5 284.91 334.5 276.83 348.5 260.66 348.5"/><path class="cls-2" d="M276.54,321l7.79,13.5L276.54,348H261l-7.8-13.5L261,321h15.59m.57-1H260.37L252,334.5l8.37,14.5h16.74l8.38-14.5L277.11,320Z"/><polygon class="cls-1" points="302.66 348.5 294.58 334.5 302.66 320.5 318.83 320.5 326.91 334.5 318.83 348.5 302.66 348.5"/><path class="cls-2" d="M318.54,321l7.79,13.5L318.54,348H303l-7.8-13.5L303,321h15.59m.57-1H302.37L294,334.5l8.37,14.5h16.74l8.38-14.5L319.11,320Z"/><polygon class="cls-1" points="344.66 348.5 336.58 334.5 344.66 320.5 360.83 320.5 368.91 334.5 360.83 348.5 344.66 348.5"/><path class="cls-2" d="M360.54,321l7.79,13.5L360.54,348H345l-7.8-13.5L345,321h15.59m.57-1H344.37L336,334.5l8.37,14.5h16.74l8.38-14.5L361.11,320Z"/><polygon class="cls-1" points="386.66 348.5 378.58 334.5 386.66 320.5 402.83 320.5 410.91 334.5 402.83 348.5 386.66 348.5"/><path class="cls-2" d="M402.54,321l7.79,13.5L402.54,348H387l-7.8-13.5L387,321h15.59m.57-1H386.37L378,334.5l8.37,14.5h16.74l8.38-14.5L403.11,320Z"/><polygon class="cls-1" points="428.66 348.5 420.58 334.5 428.66 320.5 444.83 320.5 452.91 334.5 444.83 348.5 428.66 348.5"/><path class="cls-2" d="M444.54,321l7.79,13.5L444.54,348H429l-7.8-13.5L429,321h15.59m.57-1H428.37L420,334.5l8.37,14.5h16.74l8.38-14.5L445.11,320Z"/><polygon class="cls-1" points="470.66 348.5 462.58 334.5 470.66 320.5 486.83 320.5 494.91 334.5 486.83 348.5 470.66 348.5"/><path class="cls-2" d="M486.54,321l7.79,13.5L486.54,348H471l-7.8-13.5L471,321h15.59m.57-1H470.37L462,334.5l8.37,14.5h16.74l8.38-14.5L487.11,320Z"/><polygon class="cls-1" points="512.66 348.5 504.58 334.5 512.66 320.5 528.83 320.5 536.91 334.5 528.83 348.5 512.66 348.5"/><path class="cls-2" d="M528.54,321l7.79,13.5L528.54,348H513l-7.8-13.5L513,321h15.59m.57-1H512.37L504,334.5l8.37,14.5h16.74l8.38-14.5L529.11,320Z"/><polygon class="cls-1" points="554.66 348.5 546.58 334.5 554.66 320.5 570.83 320.5 578.91 334.5 570.83 348.5 554.66 348.5"/><path class="cls-2" d="M570.54,321l7.79,13.5L570.54,348H555l-7.8-13.5L555,321h15.59m.57-1H554.37L546,334.5l8.37,14.5h16.74l8.38-14.5L571.11,320Z"/><polygon class="cls-1" points="596.66 348.5 588.58 334.5 596.66 320.5 612.83 320.5 620.91 334.5 612.83 348.5 596.66 348.5"/><path class="cls-2" d="M612.54,321l7.79,13.5L612.54,348H597l-7.8-13.5L597,321h15.59m.57-1H596.37L588,334.5l8.37,14.5h16.74l8.38-14.5L613.11,320Z"/><polygon class="cls-1" points="8.66 388.5 0.58 374.5 8.66 360.5 24.83 360.5 32.91 374.5 24.83 388.5 8.66 388.5"/><path class="cls-2" d="M24.54,361l7.79,13.5L24.54,388H9l-7.8-13.5L9,361H24.54m.57-1H8.37L0,374.5,8.37,389H25.11l8.38-14.5L25.11,360Z"/><polygon class="cls-1" points="50.66 388.5 42.58 374.5 50.66 360.5 66.83 360.5 74.91 374.5 66.83 388.5 50.66 388.5"/><path class="cls-2" d="M66.54,361l7.79,13.5L66.54,388H51l-7.8-13.5L51,361H66.54m.57-1H50.37L42,374.5,50.37,389H67.11l8.38-14.5L67.11,360Z"/><polygon class="cls-1" points="92.66 388.5 84.58 374.5 92.66 360.5 108.83 360.5 116.91 374.5 108.83 388.5 92.66 388.5"/><path class="cls-2" d="M108.54,361l7.79,13.5L108.54,388H93l-7.8-13.5L93,361h15.59m.57-1H92.37L84,374.5,92.37,389h16.74l8.38-14.5L109.11,360Z"/><polygon class="cls-1" points="134.66 388.5 126.58 374.5 134.66 360.5 150.83 360.5 158.91 374.5 150.83 388.5 134.66 388.5"/><path class="cls-2" d="M150.54,361l7.79,13.5L150.54,388H135l-7.8-13.5L135,361h15.59m.57-1H134.37L126,374.5l8.37,14.5h16.74l8.38-14.5L151.11,360Z"/><polygon class="cls-1" points="176.66 388.5 168.58 374.5 176.66 360.5 192.83 360.5 200.91 374.5 192.83 388.5 176.66 388.5"/><path class="cls-2" d="M192.54,361l7.79,13.5L192.54,388H177l-7.8-13.5L177,361h15.59m.57-1H176.37L168,374.5l8.37,14.5h16.74l8.38-14.5L193.11,360Z"/><polygon class="cls-1" points="218.66 388.5 210.58 374.5 218.66 360.5 234.83 360.5 242.91 374.5 234.83 388.5 218.66 388.5"/><path class="cls-2" d="M234.54,361l7.79,13.5L234.54,388H219l-7.8-13.5L219,361h15.59m.57-1H218.37L210,374.5l8.37,14.5h16.74l8.38-14.5L235.11,360Z"/><polygon class="cls-1" points="260.66 388.5 252.58 374.5 260.66 360.5 276.83 360.5 284.91 374.5 276.83 388.5 260.66 388.5"/><path class="cls-2" d="M276.54,361l7.79,13.5L276.54,388H261l-7.8-13.5L261,361h15.59m.57-1H260.37L252,374.5l8.37,14.5h16.74l8.38-14.5L277.11,360Z"/><polygon class="cls-1" points="302.66 388.5 294.58 374.5 302.66 360.5 318.83 360.5 326.91 374.5 318.83 388.5 302.66 388.5"/><path class="cls-2" d="M318.54,361l7.79,13.5L318.54,388H303l-7.8-13.5L303,361h15.59m.57-1H302.37L294,374.5l8.37,14.5h16.74l8.38-14.5L319.11,360Z"/><polygon class="cls-1" points="344.66 388.5 336.58 374.5 344.66 360.5 360.83 360.5 368.91 374.5 360.83 388.5 344.66 388.5"/><path class="cls-2" d="M360.54,361l7.79,13.5L360.54,388H345l-7.8-13.5L345,361h15.59m.57-1H344.37L336,374.5l8.37,14.5h16.74l8.38-14.5L361.11,360Z"/><polygon class="cls-1" points="386.66 388.5 378.58 374.5 386.66 360.5 402.83 360.5 410.91 374.5 402.83 388.5 386.66 388.5"/><path class="cls-2" d="M402.54,361l7.79,13.5L402.54,388H387l-7.8-13.5L387,361h15.59m.57-1H386.37L378,374.5l8.37,14.5h16.74l8.38-14.5L403.11,360Z"/><polygon class="cls-1" points="428.66 388.5 420.58 374.5 428.66 360.5 444.83 360.5 452.91 374.5 444.83 388.5 428.66 388.5"/><path class="cls-2" d="M444.54,361l7.79,13.5L444.54,388H429l-7.8-13.5L429,361h15.59m.57-1H428.37L420,374.5l8.37,14.5h16.74l8.38-14.5L445.11,360Z"/><polygon class="cls-1" points="470.66 388.5 462.58 374.5 470.66 360.5 486.83 360.5 494.91 374.5 486.83 388.5 470.66 388.5"/><path class="cls-2" d="M486.54,361l7.79,13.5L486.54,388H471l-7.8-13.5L471,361h15.59m.57-1H470.37L462,374.5l8.37,14.5h16.74l8.38-14.5L487.11,360Z"/><polygon class="cls-1" points="512.66 388.5 504.58 374.5 512.66 360.5 528.83 360.5 536.91 374.5 528.83 388.5 512.66 388.5"/><path class="cls-2" d="M528.54,361l7.79,13.5L528.54,388H513l-7.8-13.5L513,361h15.59m.57-1H512.37L504,374.5l8.37,14.5h16.74l8.38-14.5L529.11,360Z"/><polygon class="cls-1" points="554.66 388.5 546.58 374.5 554.66 360.5 570.83 360.5 578.91 374.5 570.83 388.5 554.66 388.5"/><path class="cls-2" d="M570.54,361l7.79,13.5L570.54,388H555l-7.8-13.5L555,361h15.59m.57-1H554.37L546,374.5l8.37,14.5h16.74l8.38-14.5L571.11,360Z"/><polygon class="cls-1" points="8.66 428.5 0.58 414.5 8.66 400.5 24.83 400.5 32.91 414.5 24.83 428.5 8.66 428.5"/><path class="cls-2" d="M24.54,401l7.79,13.5L24.54,428H9l-7.8-13.5L9,401H24.54m.57-1H8.37L0,414.5,8.37,429H25.11l8.38-14.5L25.11,400Z"/><polygon class="cls-1" points="50.66 428.5 42.58 414.5 50.66 400.5 66.83 400.5 74.91 414.5 66.83 428.5 50.66 428.5"/><path class="cls-2" d="M66.54,401l7.79,13.5L66.54,428H51l-7.8-13.5L51,401H66.54m.57-1H50.37L42,414.5,50.37,429H67.11l8.38-14.5L67.11,400Z"/><polygon class="cls-1" points="92.66 428.5 84.58 414.5 92.66 400.5 108.83 400.5 116.91 414.5 108.83 428.5 92.66 428.5"/><path class="cls-2" d="M108.54,401l7.79,13.5L108.54,428H93l-7.8-13.5L93,401h15.59m.57-1H92.37L84,414.5,92.37,429h16.74l8.38-14.5L109.11,400Z"/><polygon class="cls-1" points="134.66 428.5 126.58 414.5 134.66 400.5 150.83 400.5 158.91 414.5 150.83 428.5 134.66 428.5"/><path class="cls-2" d="M150.54,401l7.79,13.5L150.54,428H135l-7.8-13.5L135,401h15.59m.57-1H134.37L126,414.5l8.37,14.5h16.74l8.38-14.5L151.11,400Z"/><polygon class="cls-1" points="176.66 428.5 168.58 414.5 176.66 400.5 192.83 400.5 200.91 414.5 192.83 428.5 176.66 428.5"/><path class="cls-2" d="M192.54,401l7.79,13.5L192.54,428H177l-7.8-13.5L177,401h15.59m.57-1H176.37L168,414.5l8.37,14.5h16.74l8.38-14.5L193.11,400Z"/><polygon class="cls-1" points="218.66 428.5 210.58 414.5 218.66 400.5 234.83 400.5 242.91 414.5 234.83 428.5 218.66 428.5"/><path class="cls-2" d="M234.54,401l7.79,13.5L234.54,428H219l-7.8-13.5L219,401h15.59m.57-1H218.37L210,414.5l8.37,14.5h16.74l8.38-14.5L235.11,400Z"/><polygon class="cls-1" points="260.66 428.5 252.58 414.5 260.66 400.5 276.83 400.5 284.91 414.5 276.83 428.5 260.66 428.5"/><path class="cls-2" d="M276.54,401l7.79,13.5L276.54,428H261l-7.8-13.5L261,401h15.59m.57-1H260.37L252,414.5l8.37,14.5h16.74l8.38-14.5L277.11,400Z"/><polygon class="cls-1" points="302.66 428.5 294.58 414.5 302.66 400.5 318.83 400.5 326.91 414.5 318.83 428.5 302.66 428.5"/><path class="cls-2" d="M318.54,401l7.79,13.5L318.54,428H303l-7.8-13.5L303,401h15.59m.57-1H302.37L294,414.5l8.37,14.5h16.74l8.38-14.5L319.11,400Z"/><polygon class="cls-1" points="344.66 428.5 336.58 414.5 344.66 400.5 360.83 400.5 368.91 414.5 360.83 428.5 344.66 428.5"/><path class="cls-2" d="M360.54,401l7.79,13.5L360.54,428H345l-7.8-13.5L345,401h15.59m.57-1H344.37L336,414.5l8.37,14.5h16.74l8.38-14.5L361.11,400Z"/><polygon class="cls-1" points="386.66 428.5 378.58 414.5 386.66 400.5 402.83 400.5 410.91 414.5 402.83 428.5 386.66 428.5"/><path class="cls-2" d="M402.54,401l7.79,13.5L402.54,428H387l-7.8-13.5L387,401h15.59m.57-1H386.37L378,414.5l8.37,14.5h16.74l8.38-14.5L403.11,400Z"/><polygon class="cls-1" points="428.66 428.5 420.58 414.5 428.66 400.5 444.83 400.5 452.91 414.5 444.83 428.5 428.66 428.5"/><path class="cls-2" d="M444.54,401l7.79,13.5L444.54,428H429l-7.8-13.5L429,401h15.59m.57-1H428.37L420,414.5l8.37,14.5h16.74l8.38-14.5L445.11,400Z"/><polygon class="cls-1" points="470.66 428.5 462.58 414.5 470.66 400.5 486.83 400.5 494.91 414.5 486.83 428.5 470.66 428.5"/><path class="cls-2" d="M486.54,401l7.79,13.5L486.54,428H471l-7.8-13.5L471,401h15.59m.57-1H470.37L462,414.5l8.37,14.5h16.74l8.38-14.5L487.11,400Z"/><polygon class="cls-1" points="8.66 468.5 0.58 454.5 8.66 440.5 24.83 440.5 32.91 454.5 24.83 468.5 8.66 468.5"/><path class="cls-2" d="M24.54,441l7.79,13.5L24.54,468H9l-7.8-13.5L9,441H24.54m.57-1H8.37L0,454.5,8.37,469H25.11l8.38-14.5L25.11,440Z"/><polygon class="cls-1" points="50.66 468.5 42.58 454.5 50.66 440.5 66.83 440.5 74.91 454.5 66.83 468.5 50.66 468.5"/><path class="cls-2" d="M66.54,441l7.79,13.5L66.54,468H51l-7.8-13.5L51,441H66.54m.57-1H50.37L42,454.5,50.37,469H67.11l8.38-14.5L67.11,440Z"/><polygon class="cls-1" points="92.66 468.5 84.58 454.5 92.66 440.5 108.83 440.5 116.91 454.5 108.83 468.5 92.66 468.5"/><path class="cls-2" d="M108.54,441l7.79,13.5L108.54,468H93l-7.8-13.5L93,441h15.59m.57-1H92.37L84,454.5,92.37,469h16.74l8.38-14.5L109.11,440Z"/><polygon class="cls-1" points="134.66 468.5 126.58 454.5 134.66 440.5 150.83 440.5 158.91 454.5 150.83 468.5 134.66 468.5"/><path class="cls-2" d="M150.54,441l7.79,13.5L150.54,468H135l-7.8-13.5L135,441h15.59m.57-1H134.37L126,454.5l8.37,14.5h16.74l8.38-14.5L151.11,440Z"/><polygon class="cls-1" points="176.66 468.5 168.58 454.5 176.66 440.5 192.83 440.5 200.91 454.5 192.83 468.5 176.66 468.5"/><path class="cls-2" d="M192.54,441l7.79,13.5L192.54,468H177l-7.8-13.5L177,441h15.59m.57-1H176.37L168,454.5l8.37,14.5h16.74l8.38-14.5L193.11,440Z"/><polygon class="cls-1" points="218.66 468.5 210.58 454.5 218.66 440.5 234.83 440.5 242.91 454.5 234.83 468.5 218.66 468.5"/><path class="cls-2" d="M234.54,441l7.79,13.5L234.54,468H219l-7.8-13.5L219,441h15.59m.57-1H218.37L210,454.5l8.37,14.5h16.74l8.38-14.5L235.11,440Z"/><polygon class="cls-1" points="260.66 468.5 252.58 454.5 260.66 440.5 276.83 440.5 284.91 454.5 276.83 468.5 260.66 468.5"/><path class="cls-2" d="M276.54,441l7.79,13.5L276.54,468H261l-7.8-13.5L261,441h15.59m.57-1H260.37L252,454.5l8.37,14.5h16.74l8.38-14.5L277.11,440Z"/><polygon class="cls-1" points="302.66 468.5 294.58 454.5 302.66 440.5 318.83 440.5 326.91 454.5 318.83 468.5 302.66 468.5"/><path class="cls-2" d="M318.54,441l7.79,13.5L318.54,468H303l-7.8-13.5L303,441h15.59m.57-1H302.37L294,454.5l8.37,14.5h16.74l8.38-14.5L319.11,440Z"/><polygon class="cls-1" points="344.66 468.5 336.58 454.5 344.66 440.5 360.83 440.5 368.91 454.5 360.83 468.5 344.66 468.5"/><path class="cls-2" d="M360.54,441l7.79,13.5L360.54,468H345l-7.8-13.5L345,441h15.59m.57-1H344.37L336,454.5l8.37,14.5h16.74l8.38-14.5L361.11,440Z"/><polygon class="cls-1" points="386.66 468.5 378.58 454.5 386.66 440.5 402.83 440.5 410.91 454.5 402.83 468.5 386.66 468.5"/><path class="cls-2" d="M402.54,441l7.79,13.5L402.54,468H387l-7.8-13.5L387,441h15.59m.57-1H386.37L378,454.5l8.37,14.5h16.74l8.38-14.5L403.11,440Z"/><polygon class="cls-1" points="428.66 468.5 420.58 454.5 428.66 440.5 444.83 440.5 452.91 454.5 444.83 468.5 428.66 468.5"/><path class="cls-2" d="M444.54,441l7.79,13.5L444.54,468H429l-7.8-13.5L429,441h15.59m.57-1H428.37L420,454.5l8.37,14.5h16.74l8.38-14.5L445.11,440Z"/><polygon class="cls-1" points="8.66 508.5 0.58 494.5 8.66 480.5 24.83 480.5 32.91 494.5 24.83 508.5 8.66 508.5"/><path class="cls-2" d="M24.54,481l7.79,13.5L24.54,508H9l-7.8-13.5L9,481H24.54m.57-1H8.37L0,494.5,8.37,509H25.11l8.38-14.5L25.11,480Z"/><polygon class="cls-1" points="50.66 508.5 42.58 494.5 50.66 480.5 66.83 480.5 74.91 494.5 66.83 508.5 50.66 508.5"/><path class="cls-2" d="M66.54,481l7.79,13.5L66.54,508H51l-7.8-13.5L51,481H66.54m.57-1H50.37L42,494.5,50.37,509H67.11l8.38-14.5L67.11,480Z"/><polygon class="cls-1" points="92.66 508.5 84.58 494.5 92.66 480.5 108.83 480.5 116.91 494.5 108.83 508.5 92.66 508.5"/><path class="cls-2" d="M108.54,481l7.79,13.5L108.54,508H93l-7.8-13.5L93,481h15.59m.57-1H92.37L84,494.5,92.37,509h16.74l8.38-14.5L109.11,480Z"/><polygon class="cls-1" points="134.66 508.5 126.58 494.5 134.66 480.5 150.83 480.5 158.91 494.5 150.83 508.5 134.66 508.5"/><path class="cls-2" d="M150.54,481l7.79,13.5L150.54,508H135l-7.8-13.5L135,481h15.59m.57-1H134.37L126,494.5l8.37,14.5h16.74l8.38-14.5L151.11,480Z"/><polygon class="cls-1" points="176.66 508.5 168.58 494.5 176.66 480.5 192.83 480.5 200.91 494.5 192.83 508.5 176.66 508.5"/><path class="cls-2" d="M192.54,481l7.79,13.5L192.54,508H177l-7.8-13.5L177,481h15.59m.57-1H176.37L168,494.5l8.37,14.5h16.74l8.38-14.5L193.11,480Z"/><polygon class="cls-1" points="218.66 508.5 210.58 494.5 218.66 480.5 234.83 480.5 242.91 494.5 234.83 508.5 218.66 508.5"/><path class="cls-2" d="M234.54,481l7.79,13.5L234.54,508H219l-7.8-13.5L219,481h15.59m.57-1H218.37L210,494.5l8.37,14.5h16.74l8.38-14.5L235.11,480Z"/><polygon class="cls-1" points="260.66 508.5 252.58 494.5 260.66 480.5 276.83 480.5 284.91 494.5 276.83 508.5 260.66 508.5"/><path class="cls-2" d="M276.54,481l7.79,13.5L276.54,508H261l-7.8-13.5L261,481h15.59m.57-1H260.37L252,494.5l8.37,14.5h16.74l8.38-14.5L277.11,480Z"/><polygon class="cls-1" points="302.66 508.5 294.58 494.5 302.66 480.5 318.83 480.5 326.91 494.5 318.83 508.5 302.66 508.5"/><path class="cls-2" d="M318.54,481l7.79,13.5L318.54,508H303l-7.8-13.5L303,481h15.59m.57-1H302.37L294,494.5l8.37,14.5h16.74l8.38-14.5L319.11,480Z"/><polygon class="cls-1" points="344.66 508.5 336.58 494.5 344.66 480.5 360.83 480.5 368.91 494.5 360.83 508.5 344.66 508.5"/><path class="cls-2" d="M360.54,481l7.79,13.5L360.54,508H345l-7.8-13.5L345,481h15.59m.57-1H344.37L336,494.5l8.37,14.5h16.74l8.38-14.5L361.11,480Z"/><polygon class="cls-1" points="386.66 508.5 378.58 494.5 386.66 480.5 402.83 480.5 410.91 494.5 402.83 508.5 386.66 508.5"/><path class="cls-2" d="M402.54,481l7.79,13.5L402.54,508H387l-7.8-13.5L387,481h15.59m.57-1H386.37L378,494.5l8.37,14.5h16.74l8.38-14.5L403.11,480Z"/><polygon class="cls-1" points="8.66 548.5 0.58 534.5 8.66 520.5 24.83 520.5 32.91 534.5 24.83 548.5 8.66 548.5"/><path class="cls-2" d="M24.54,521l7.79,13.5L24.54,548H9l-7.8-13.5L9,521H24.54m.57-1H8.37L0,534.5,8.37,549H25.11l8.38-14.5L25.11,520Z"/><polygon class="cls-1" points="50.66 548.5 42.58 534.5 50.66 520.5 66.83 520.5 74.91 534.5 66.83 548.5 50.66 548.5"/><path class="cls-2" d="M66.54,521l7.79,13.5L66.54,548H51l-7.8-13.5L51,521H66.54m.57-1H50.37L42,534.5,50.37,549H67.11l8.38-14.5L67.11,520Z"/><polygon class="cls-1" points="92.66 548.5 84.58 534.5 92.66 520.5 108.83 520.5 116.91 534.5 108.83 548.5 92.66 548.5"/><path class="cls-2" d="M108.54,521l7.79,13.5L108.54,548H93l-7.8-13.5L93,521h15.59m.57-1H92.37L84,534.5,92.37,549h16.74l8.38-14.5L109.11,520Z"/><polygon class="cls-1" points="134.66 548.5 126.58 534.5 134.66 520.5 150.83 520.5 158.91 534.5 150.83 548.5 134.66 548.5"/><path class="cls-2" d="M150.54,521l7.79,13.5L150.54,548H135l-7.8-13.5L135,521h15.59m.57-1H134.37L126,534.5l8.37,14.5h16.74l8.38-14.5L151.11,520Z"/><polygon class="cls-1" points="176.66 548.5 168.58 534.5 176.66 520.5 192.83 520.5 200.91 534.5 192.83 548.5 176.66 548.5"/><path class="cls-2" d="M192.54,521l7.79,13.5L192.54,548H177l-7.8-13.5L177,521h15.59m.57-1H176.37L168,534.5l8.37,14.5h16.74l8.38-14.5L193.11,520Z"/><polygon class="cls-1" points="218.66 548.5 210.58 534.5 218.66 520.5 234.83 520.5 242.91 534.5 234.83 548.5 218.66 548.5"/><path class="cls-2" d="M234.54,521l7.79,13.5L234.54,548H219l-7.8-13.5L219,521h15.59m.57-1H218.37L210,534.5l8.37,14.5h16.74l8.38-14.5L235.11,520Z"/><polygon class="cls-1" points="260.66 548.5 252.58 534.5 260.66 520.5 276.83 520.5 284.91 534.5 276.83 548.5 260.66 548.5"/><path class="cls-2" d="M276.54,521l7.79,13.5L276.54,548H261l-7.8-13.5L261,521h15.59m.57-1H260.37L252,534.5l8.37,14.5h16.74l8.38-14.5L277.11,520Z"/><polygon class="cls-1" points="302.66 548.5 294.58 534.5 302.66 520.5 318.83 520.5 326.91 534.5 318.83 548.5 302.66 548.5"/><path class="cls-2" d="M318.54,521l7.79,13.5L318.54,548H303l-7.8-13.5L303,521h15.59m.57-1H302.37L294,534.5l8.37,14.5h16.74l8.38-14.5L319.11,520Z"/><polygon class="cls-1" points="344.66 548.5 336.58 534.5 344.66 520.5 360.83 520.5 368.91 534.5 360.83 548.5 344.66 548.5"/><path class="cls-2" d="M360.54,521l7.79,13.5L360.54,548H345l-7.8-13.5L345,521h15.59m.57-1H344.37L336,534.5l8.37,14.5h16.74l8.38-14.5L361.11,520Z"/><polygon class="cls-1" points="8.66 588.5 0.58 574.5 8.66 560.5 24.83 560.5 32.91 574.5 24.83 588.5 8.66 588.5"/><path class="cls-2" d="M24.54,561l7.79,13.5L24.54,588H9l-7.8-13.5L9,561H24.54m.57-1H8.37L0,574.5,8.37,589H25.11l8.38-14.5L25.11,560Z"/><polygon class="cls-1" points="50.66 588.5 42.58 574.5 50.66 560.5 66.83 560.5 74.91 574.5 66.83 588.5 50.66 588.5"/><path class="cls-2" d="M66.54,561l7.79,13.5L66.54,588H51l-7.8-13.5L51,561H66.54m.57-1H50.37L42,574.5,50.37,589H67.11l8.38-14.5L67.11,560Z"/><polygon class="cls-1" points="92.66 588.5 84.58 574.5 92.66 560.5 108.83 560.5 116.91 574.5 108.83 588.5 92.66 588.5"/><path class="cls-2" d="M108.54,561l7.79,13.5L108.54,588H93l-7.8-13.5L93,561h15.59m.57-1H92.37L84,574.5,92.37,589h16.74l8.38-14.5L109.11,560Z"/><polygon class="cls-1" points="134.66 588.5 126.58 574.5 134.66 560.5 150.83 560.5 158.91 574.5 150.83 588.5 134.66 588.5"/><path class="cls-2" d="M150.54,561l7.79,13.5L150.54,588H135l-7.8-13.5L135,561h15.59m.57-1H134.37L126,574.5l8.37,14.5h16.74l8.38-14.5L151.11,560Z"/><polygon class="cls-1" points="176.66 588.5 168.58 574.5 176.66 560.5 192.83 560.5 200.91 574.5 192.83 588.5 176.66 588.5"/><path class="cls-2" d="M192.54,561l7.79,13.5L192.54,588H177l-7.8-13.5L177,561h15.59m.57-1H176.37L168,574.5l8.37,14.5h16.74l8.38-14.5L193.11,560Z"/><polygon class="cls-1" points="218.66 588.5 210.58 574.5 218.66 560.5 234.83 560.5 242.91 574.5 234.83 588.5 218.66 588.5"/><path class="cls-2" d="M234.54,561l7.79,13.5L234.54,588H219l-7.8-13.5L219,561h15.59m.57-1H218.37L210,574.5l8.37,14.5h16.74l8.38-14.5L235.11,560Z"/><polygon class="cls-1" points="260.66 588.5 252.58 574.5 260.66 560.5 276.83 560.5 284.91 574.5 276.83 588.5 260.66 588.5"/><path class="cls-2" d="M276.54,561l7.79,13.5L276.54,588H261l-7.8-13.5L261,561h15.59m.57-1H260.37L252,574.5l8.37,14.5h16.74l8.38-14.5L277.11,560Z"/><polygon class="cls-1" points="302.66 588.5 294.58 574.5 302.66 560.5 318.83 560.5 326.91 574.5 318.83 588.5 302.66 588.5"/><path class="cls-2" d="M318.54,561l7.79,13.5L318.54,588H303l-7.8-13.5L303,561h15.59m.57-1H302.37L294,574.5l8.37,14.5h16.74l8.38-14.5L319.11,560Z"/><polygon class="cls-1" points="344.66 588.5 336.58 574.5 344.66 560.5 360.83 560.5 368.91 574.5 360.83 588.5 344.66 588.5"/><path class="cls-2" d="M360.54,561l7.79,13.5L360.54,588H345l-7.8-13.5L345,561h15.59m.57-1H344.37L336,574.5l8.37,14.5h16.74l8.38-14.5L361.11,560Z"/><polygon class="cls-1" points="8.66 628.5 0.58 614.5 8.66 600.5 24.83 600.5 32.91 614.5 24.83 628.5 8.66 628.5"/><path class="cls-2" d="M24.54,601l7.79,13.5L24.54,628H9l-7.8-13.5L9,601H24.54m.57-1H8.37L0,614.5,8.37,629H25.11l8.38-14.5L25.11,600Z"/><polygon class="cls-1" points="50.66 628.5 42.58 614.5 50.66 600.5 66.83 600.5 74.91 614.5 66.83 628.5 50.66 628.5"/><path class="cls-2" d="M66.54,601l7.79,13.5L66.54,628H51l-7.8-13.5L51,601H66.54m.57-1H50.37L42,614.5,50.37,629H67.11l8.38-14.5L67.11,600Z"/><polygon class="cls-1" points="92.66 628.5 84.58 614.5 92.66 600.5 108.83 600.5 116.91 614.5 108.83 628.5 92.66 628.5"/><path class="cls-2" d="M108.54,601l7.79,13.5L108.54,628H93l-7.8-13.5L93,601h15.59m.57-1H92.37L84,614.5,92.37,629h16.74l8.38-14.5L109.11,600Z"/><polygon class="cls-1" points="134.66 628.5 126.58 614.5 134.66 600.5 150.83 600.5 158.91 614.5 150.83 628.5 134.66 628.5"/><path class="cls-2" d="M150.54,601l7.79,13.5L150.54,628H135l-7.8-13.5L135,601h15.59m.57-1H134.37L126,614.5l8.37,14.5h16.74l8.38-14.5L151.11,600Z"/><polygon class="cls-1" points="176.66 628.5 168.58 614.5 176.66 600.5 192.83 600.5 200.91 614.5 192.83 628.5 176.66 628.5"/><path class="cls-2" d="M192.54,601l7.79,13.5L192.54,628H177l-7.8-13.5L177,601h15.59m.57-1H176.37L168,614.5l8.37,14.5h16.74l8.38-14.5L193.11,600Z"/><polygon class="cls-1" points="218.66 628.5 210.58 614.5 218.66 600.5 234.83 600.5 242.91 614.5 234.83 628.5 218.66 628.5"/><path class="cls-2" d="M234.54,601l7.79,13.5L234.54,628H219l-7.8-13.5L219,601h15.59m.57-1H218.37L210,614.5l8.37,14.5h16.74l8.38-14.5L235.11,600Z"/><polygon class="cls-1" points="260.66 628.5 252.58 614.5 260.66 600.5 276.83 600.5 284.91 614.5 276.83 628.5 260.66 628.5"/><path class="cls-2" d="M276.54,601l7.79,13.5L276.54,628H261l-7.8-13.5L261,601h15.59m.57-1H260.37L252,614.5l8.37,14.5h16.74l8.38-14.5L277.11,600Z"/><polygon class="cls-1" points="302.66 628.5 294.58 614.5 302.66 600.5 318.83 600.5 326.91 614.5 318.83 628.5 302.66 628.5"/><path class="cls-2" d="M318.54,601l7.79,13.5L318.54,628H303l-7.8-13.5L303,601h15.59m.57-1H302.37L294,614.5l8.37,14.5h16.74l8.38-14.5L319.11,600Z"/><polygon class="cls-1" points="8.66 668.5 0.58 654.5 8.66 640.5 24.83 640.5 32.91 654.5 24.83 668.5 8.66 668.5"/><path class="cls-2" d="M24.54,641l7.79,13.5L24.54,668H9l-7.8-13.5L9,641H24.54m.57-1H8.37L0,654.5,8.37,669H25.11l8.38-14.5L25.11,640Z"/><polygon class="cls-1" points="50.66 668.5 42.58 654.5 50.66 640.5 66.83 640.5 74.91 654.5 66.83 668.5 50.66 668.5"/><path class="cls-2" d="M66.54,641l7.79,13.5L66.54,668H51l-7.8-13.5L51,641H66.54m.57-1H50.37L42,654.5,50.37,669H67.11l8.38-14.5L67.11,640Z"/><polygon class="cls-1" points="92.66 668.5 84.58 654.5 92.66 640.5 108.83 640.5 116.91 654.5 108.83 668.5 92.66 668.5"/><path class="cls-2" d="M108.54,641l7.79,13.5L108.54,668H93l-7.8-13.5L93,641h15.59m.57-1H92.37L84,654.5,92.37,669h16.74l8.38-14.5L109.11,640Z"/><polygon class="cls-1" points="134.66 668.5 126.58 654.5 134.66 640.5 150.83 640.5 158.91 654.5 150.83 668.5 134.66 668.5"/><path class="cls-2" d="M150.54,641l7.79,13.5L150.54,668H135l-7.8-13.5L135,641h15.59m.57-1H134.37L126,654.5l8.37,14.5h16.74l8.38-14.5L151.11,640Z"/><polygon class="cls-1" points="176.66 668.5 168.58 654.5 176.66 640.5 192.83 640.5 200.91 654.5 192.83 668.5 176.66 668.5"/><path class="cls-2" d="M192.54,641l7.79,13.5L192.54,668H177l-7.8-13.5L177,641h15.59m.57-1H176.37L168,654.5l8.37,14.5h16.74l8.38-14.5L193.11,640Z"/><polygon class="cls-1" points="218.66 668.5 210.58 654.5 218.66 640.5 234.83 640.5 242.91 654.5 234.83 668.5 218.66 668.5"/><path class="cls-2" d="M234.54,641l7.79,13.5L234.54,668H219l-7.8-13.5L219,641h15.59m.57-1H218.37L210,654.5l8.37,14.5h16.74l8.38-14.5L235.11,640Z"/><polygon class="cls-1" points="260.66 668.5 252.58 654.5 260.66 640.5 276.83 640.5 284.91 654.5 276.83 668.5 260.66 668.5"/><path class="cls-2" d="M276.54,641l7.79,13.5L276.54,668H261l-7.8-13.5L261,641h15.59m.57-1H260.37L252,654.5l8.37,14.5h16.74l8.38-14.5L277.11,640Z"/><polygon class="cls-1" points="8.66 708.5 0.58 694.5 8.66 680.5 24.83 680.5 32.91 694.5 24.83 708.5 8.66 708.5"/><path class="cls-2" d="M24.54,681l7.79,13.5L24.54,708H9l-7.8-13.5L9,681H24.54m.57-1H8.37L0,694.5,8.37,709H25.11l8.38-14.5L25.11,680Z"/><polygon class="cls-1" points="50.66 708.5 42.58 694.5 50.66 680.5 66.83 680.5 74.91 694.5 66.83 708.5 50.66 708.5"/><path class="cls-2" d="M66.54,681l7.79,13.5L66.54,708H51l-7.8-13.5L51,681H66.54m.57-1H50.37L42,694.5,50.37,709H67.11l8.38-14.5L67.11,680Z"/><polygon class="cls-1" points="92.66 708.5 84.58 694.5 92.66 680.5 108.83 680.5 116.91 694.5 108.83 708.5 92.66 708.5"/><path class="cls-2" d="M108.54,681l7.79,13.5L108.54,708H93l-7.8-13.5L93,681h15.59m.57-1H92.37L84,694.5,92.37,709h16.74l8.38-14.5L109.11,680Z"/><polygon class="cls-1" points="134.66 708.5 126.58 694.5 134.66 680.5 150.83 680.5 158.91 694.5 150.83 708.5 134.66 708.5"/><path class="cls-2" d="M150.54,681l7.79,13.5L150.54,708H135l-7.8-13.5L135,681h15.59m.57-1H134.37L126,694.5l8.37,14.5h16.74l8.38-14.5L151.11,680Z"/><polygon class="cls-1" points="176.66 708.5 168.58 694.5 176.66 680.5 192.83 680.5 200.91 694.5 192.83 708.5 176.66 708.5"/><path class="cls-2" d="M192.54,681l7.79,13.5L192.54,708H177l-7.8-13.5L177,681h15.59m.57-1H176.37L168,694.5l8.37,14.5h16.74l8.38-14.5L193.11,680Z"/><polygon class="cls-1" points="218.66 708.5 210.58 694.5 218.66 680.5 234.83 680.5 242.91 694.5 234.83 708.5 218.66 708.5"/><path class="cls-2" d="M234.54,681l7.79,13.5L234.54,708H219l-7.8-13.5L219,681h15.59m.57-1H218.37L210,694.5l8.37,14.5h16.74l8.38-14.5L235.11,680Z"/><polygon class="cls-1" points="260.66 708.5 252.58 694.5 260.66 680.5 276.83 680.5 284.91 694.5 276.83 708.5 260.66 708.5"/><path class="cls-2" d="M276.54,681l7.79,13.5L276.54,708H261l-7.8-13.5L261,681h15.59m.57-1H260.37L252,694.5l8.37,14.5h16.74l8.38-14.5L277.11,680Z"/><polygon class="cls-1" points="8.66 748.5 0.58 734.5 8.66 720.5 24.83 720.5 32.91 734.5 24.83 748.5 8.66 748.5"/><path class="cls-2" d="M24.54,721l7.79,13.5L24.54,748H9l-7.8-13.5L9,721H24.54m.57-1H8.37L0,734.5,8.37,749H25.11l8.38-14.5L25.11,720Z"/><polygon class="cls-1" points="50.66 748.5 42.58 734.5 50.66 720.5 66.83 720.5 74.91 734.5 66.83 748.5 50.66 748.5"/><path class="cls-2" d="M66.54,721l7.79,13.5L66.54,748H51l-7.8-13.5L51,721H66.54m.57-1H50.37L42,734.5,50.37,749H67.11l8.38-14.5L67.11,720Z"/><polygon class="cls-1" points="92.66 748.5 84.58 734.5 92.66 720.5 108.83 720.5 116.91 734.5 108.83 748.5 92.66 748.5"/><path class="cls-2" d="M108.54,721l7.79,13.5L108.54,748H93l-7.8-13.5L93,721h15.59m.57-1H92.37L84,734.5,92.37,749h16.74l8.38-14.5L109.11,720Z"/><polygon class="cls-1" points="134.66 748.5 126.58 734.5 134.66 720.5 150.83 720.5 158.91 734.5 150.83 748.5 134.66 748.5"/><path class="cls-2" d="M150.54,721l7.79,13.5L150.54,748H135l-7.8-13.5L135,721h15.59m.57-1H134.37L126,734.5l8.37,14.5h16.74l8.38-14.5L151.11,720Z"/><polygon class="cls-1" points="176.66 748.5 168.58 734.5 176.66 720.5 192.83 720.5 200.91 734.5 192.83 748.5 176.66 748.5"/><path class="cls-2" d="M192.54,721l7.79,13.5L192.54,748H177l-7.8-13.5L177,721h15.59m.57-1H176.37L168,734.5l8.37,14.5h16.74l8.38-14.5L193.11,720Z"/><polygon class="cls-1" points="218.66 748.5 210.58 734.5 218.66 720.5 234.83 720.5 242.91 734.5 234.83 748.5 218.66 748.5"/><path class="cls-2" d="M234.54,721l7.79,13.5L234.54,748H219l-7.8-13.5L219,721h15.59m.57-1H218.37L210,734.5l8.37,14.5h16.74l8.38-14.5L235.11,720Z"/><polygon class="cls-1" points="8.66 788.5 0.58 774.5 8.66 760.5 24.83 760.5 32.91 774.5 24.83 788.5 8.66 788.5"/><path class="cls-2" d="M24.54,761l7.79,13.5L24.54,788H9l-7.8-13.5L9,761H24.54m.57-1H8.37L0,774.5,8.37,789H25.11l8.38-14.5L25.11,760Z"/><polygon class="cls-1" points="50.66 788.5 42.58 774.5 50.66 760.5 66.83 760.5 74.91 774.5 66.83 788.5 50.66 788.5"/><path class="cls-2" d="M66.54,761l7.79,13.5L66.54,788H51l-7.8-13.5L51,761H66.54m.57-1H50.37L42,774.5,50.37,789H67.11l8.38-14.5L67.11,760Z"/><polygon class="cls-1" points="92.66 788.5 84.58 774.5 92.66 760.5 108.83 760.5 116.91 774.5 108.83 788.5 92.66 788.5"/><path class="cls-2" d="M108.54,761l7.79,13.5L108.54,788H93l-7.8-13.5L93,761h15.59m.57-1H92.37L84,774.5,92.37,789h16.74l8.38-14.5L109.11,760Z"/><polygon class="cls-1" points="134.66 788.5 126.58 774.5 134.66 760.5 150.83 760.5 158.91 774.5 150.83 788.5 134.66 788.5"/><path class="cls-2" d="M150.54,761l7.79,13.5L150.54,788H135l-7.8-13.5L135,761h15.59m.57-1H134.37L126,774.5l8.37,14.5h16.74l8.38-14.5L151.11,760Z"/><polygon class="cls-1" points="176.66 788.5 168.58 774.5 176.66 760.5 192.83 760.5 200.91 774.5 192.83 788.5 176.66 788.5"/><path class="cls-2" d="M192.54,761l7.79,13.5L192.54,788H177l-7.8-13.5L177,761h15.59m.57-1H176.37L168,774.5l8.37,14.5h16.74l8.38-14.5L193.11,760Z"/><polygon class="cls-1" points="218.66 788.5 210.58 774.5 218.66 760.5 234.83 760.5 242.91 774.5 234.83 788.5 218.66 788.5"/><path class="cls-2" d="M234.54,761l7.79,13.5L234.54,788H219l-7.8-13.5L219,761h15.59m.57-1H218.37L210,774.5l8.37,14.5h16.74l8.38-14.5L235.11,760Z"/><polygon class="cls-1" points="8.66 828.5 0.58 814.5 8.66 800.5 24.83 800.5 32.91 814.5 24.83 828.5 8.66 828.5"/><path class="cls-2" d="M24.54,801l7.79,13.5L24.54,828H9l-7.8-13.5L9,801H24.54m.57-1H8.37L0,814.5,8.37,829H25.11l8.38-14.5L25.11,800Z"/><polygon class="cls-1" points="50.66 828.5 42.58 814.5 50.66 800.5 66.83 800.5 74.91 814.5 66.83 828.5 50.66 828.5"/><path class="cls-2" d="M66.54,801l7.79,13.5L66.54,828H51l-7.8-13.5L51,801H66.54m.57-1H50.37L42,814.5,50.37,829H67.11l8.38-14.5L67.11,800Z"/><polygon class="cls-1" points="92.66 828.5 84.58 814.5 92.66 800.5 108.83 800.5 116.91 814.5 108.83 828.5 92.66 828.5"/><path class="cls-2" d="M108.54,801l7.79,13.5L108.54,828H93l-7.8-13.5L93,801h15.59m.57-1H92.37L84,814.5,92.37,829h16.74l8.38-14.5L109.11,800Z"/><polygon class="cls-1" points="134.66 828.5 126.58 814.5 134.66 800.5 150.83 800.5 158.91 814.5 150.83 828.5 134.66 828.5"/><path class="cls-2" d="M150.54,801l7.79,13.5L150.54,828H135l-7.8-13.5L135,801h15.59m.57-1H134.37L126,814.5l8.37,14.5h16.74l8.38-14.5L151.11,800Z"/><polygon class="cls-1" points="176.66 828.5 168.58 814.5 176.66 800.5 192.83 800.5 200.91 814.5 192.83 828.5 176.66 828.5"/><path class="cls-2" d="M192.54,801l7.79,13.5L192.54,828H177l-7.8-13.5L177,801h15.59m.57-1H176.37L168,814.5l8.37,14.5h16.74l8.38-14.5L193.11,800Z"/></g></g></svg>