<svg xmlns="http://www.w3.org/2000/svg" viewBox="0 0 377.9 668.14"><defs><style>.cls-1{fill:#27b09b;}.cls-2{fill:#27c8b0;}.cls-3{fill:#293a36;}.cls-4{fill:#294843;}.cls-5{fill:#287367;}.cls-6{fill:#284f49;}.cls-7{fill:#28766a;}.cls-8{fill:#288a7b;}.cls-9{fill:#292c2b;}.cls-10{fill:#293431;}.cls-11{fill:#27c1aa;}.cls-12{fill:#27af9a;}.cls-13{fill:#26dec3;}.cls-14{fill:#26e1c5;}.cls-15{fill:#26f5d7;}.cls-16{fill:#26f6d8;}.cls-17{fill:#28675d;}.cls-18{fill:#294a44;}.cls-19{fill:#28645b;}.cls-20{fill:#288879;}.cls-21{fill:#27a391;}.cls-22{fill:#289383;}.cls-23{fill:#27b5a0;}.cls-24{fill:#279484;}.cls-25{fill:#28786c;}.cls-26{fill:#27d2b9;}.cls-27{fill:#27c9b1;}.cls-28{fill:#26dfc4;}.cls-29{fill:#27aa96;}.cls-30{fill:#27a492;}.cls-31{fill:#27c6ae;}</style></defs><g id="Layer_2" data-name="Layer 2"><g id="Layer_340" data-name="Layer 340"><polygon class="cls-1" points="203.06 101.45 123.51 0 181.13 0 203.06 101.45"/><polygon class="cls-2" points="203.06 101.45 22.87 0 123.51 0 203.06 101.45"/><polygon class="cls-3" points="375 44.05 375 53.6 341.15 77.55 285.39 66.19 375 44.05"/><polygon class="cls-4" points="375 3.35 375 44.05 285.39 66.19 300.52 0 373.05 0 375 3.35"/><polygon class="cls-5" points="300.52 0 285.39 66.19 198.8 0 300.52 0"/><polygon class="cls-6" points="285.39 66.19 282.82 199.82 341.15 77.55 285.39 66.19"/><polygon class="cls-7" points="203.06 101.45 282.82 199.82 285.39 66.19 203.06 101.45"/><polygon class="cls-8" points="285.39 66.19 203.06 101.45 181.13 0 198.8 0 285.39 66.19"/><polygon class="cls-9" points="375 85.33 375 251.06 341.15 77.56 375 85.33"/><polygon class="cls-10" points="375 53.6 375 85.33 341.15 77.56 375 53.6"/><polygon class="cls-11" points="101.25 243.44 282.82 199.82 39.49 89.08 101.25 243.44"/><polygon class="cls-12" points="282.82 199.82 203.06 101.45 39.49 89.08 282.82 199.82"/><polygon class="cls-13" points="203.06 101.45 39.49 89.08 0 14.16 0 0 22.87 0 203.06 101.45"/><polygon class="cls-14" points="39.49 89.08 21.92 311.71 101.25 243.44 39.49 89.08"/><polygon class="cls-15" points="39.49 89.08 21.92 311.71 0 266.71 0 101.45 39.49 89.08"/><polygon class="cls-16" points="39.49 89.08 0 101.45 0 14.16 39.49 89.08"/><polygon class="cls-17" points="377.9 265.92 375 271.49 321.33 374.55 280.57 256.18 375 265.63 377.9 265.92"/><polygon class="cls-18" points="377.9 265.92 375 265.63 280.57 256.18 341.15 77.56 375 251.06 377.9 265.92"/><polygon class="cls-19" points="341.15 77.56 282.82 199.82 280.57 256.18 341.15 77.56"/><polygon class="cls-20" points="280.57 256.18 224 373.81 321.33 374.55 280.57 256.18"/><polygon class="cls-21" points="101.25 243.45 224 373.81 280.57 256.18 101.25 243.45"/><polygon class="cls-22" points="282.82 199.82 101.25 243.45 280.57 256.18 282.82 199.82"/><polygon class="cls-23" points="375 478.04 375 668.14 329.09 621.92 375 478.04"/><polygon class="cls-24" points="375 402.52 375 478.04 329.09 621.92 321.33 374.55 375 402.52"/><polygon class="cls-25" points="375 271.49 375 402.52 321.33 374.55 375 271.49"/><polygon class="cls-26" points="164.43 531.44 224 373.81 65.67 495.07 164.43 531.44"/><polygon class="cls-27" points="224 373.81 101.25 243.45 65.67 495.07 224 373.81"/><polygon class="cls-28" points="101.25 243.45 21.92 311.71 65.67 495.07 101.25 243.45"/><polygon class="cls-29" points="329.09 621.92 321.33 374.55 231.76 616.18 329.09 621.92"/><polygon class="cls-30" points="321.33 374.55 224 373.81 231.76 616.18 321.33 374.55"/><polygon class="cls-31" points="224 373.81 164.43 531.44 231.76 616.18 224 373.81"/></g></g></svg>