<svg xmlns="http://www.w3.org/2000/svg" viewBox="0 0 1534 464.99"><defs><style>.cls-1{fill:#02111a;}.cls-2{fill:#010e17;}.cls-3{fill:#021019;}.cls-4{fill:#0b4d4c;}.cls-5{fill:#083c3e;}.cls-6{fill:#010c16;}.cls-7{fill:#05262b;}.cls-8{fill:#138278;}.cls-9{fill:#062f33;}.cls-10{fill:#08383a;}.cls-11{fill:#06292e;}.cls-12{fill:#093f40;}.cls-13{fill:#094142;}.cls-14{fill:#158e81;}.cls-15{fill:#0f6661;}.cls-16{fill:#1aaf9c;}.cls-17{fill:#0f645f;}.cls-18{fill:#18a191;}.cls-19{fill:#127b72;}.cls-20{fill:#041d24;}.cls-21{fill:#093d3f;}.cls-22{fill:#062a2f;}.cls-23{fill:#062e32;}.cls-24{fill:#0c5351;}.cls-25{fill:#0a4646;}.cls-26{fill:#179e8e;}.cls-27{fill:#1bb7a3;}.cls-28{fill:#19a796;}.cls-29{fill:#25fbdc;}.cls-30{fill:#169486;}.cls-31{fill:#179f8f;}.cls-32{fill:#0b4b4a;}.cls-33{fill:#05252b;}.cls-34{fill:#03151d;}.cls-35{fill:#0a4444;}.cls-36{fill:#148c7f;}.cls-37{fill:#0f6862;}.cls-38{fill:#03171f;}</style></defs><g id="Layer_2" data-name="Layer 2"><g id="Layer_344" data-name="Layer 344"><polygon class="cls-1" points="1310.46 328.14 1310.25 328.26 1396.03 390.09 1396.03 390.09 1414.03 278.8 1310.78 328.32 1310.46 328.14"/><polygon class="cls-2" points="1310.25 328.26 1310.36 328.33 1243.36 464.86 1396.03 390.09 1310.25 328.26 1310.25 328.26"/><polygon class="cls-3" points="1396.03 390.09 1534 359.74 1414.35 278.61 1414.03 278.8 1396.03 390.09"/><polygon class="cls-4" points="1045.89 256.68 1045.57 256.86 1090.57 429.16 1090.57 429.16 1310.25 328.39 1310.25 328.26 1045.89 256.68"/><polygon class="cls-5" points="987.79 337.33 922.79 464.98 1090.57 429.16 1090.57 429.16 987.79 337.33"/><polygon class="cls-6" points="1310.25 328.39 1090.57 429.16 1243.36 464.99 1243.36 464.99 1243.25 464.92 1310.25 328.39"/><polygon class="cls-7" points="988 337.2 987.78 337.33 987.79 337.33 987.79 337.33 1090.57 429.16 1045.57 256.86 988.32 337.39 988 337.2"/><polygon class="cls-8" points="1189.78 167.66 1067.1 142.9 1046.1 256.43 1189.78 167.66"/><polygon class="cls-9" points="1414.56 92.83 1253.78 0 1189.78 167.66 1414.56 92.83"/><polygon class="cls-10" points="1067.1 142.9 1189.78 167.66 1189.78 167.66 1253.78 0 1066.99 142.83 1067.1 142.9 1067.1 142.9"/><polygon class="cls-11" points="1189.78 167.66 1310.78 327.95 1414.03 278.43 1414.35 278.61 1414.56 278.49 1189.78 167.66"/><polygon class="cls-12" points="1046.1 256.43 1046.1 256.56 1046.1 256.56 1310.46 328.14 1310.78 327.95 1189.78 167.66 1189.78 167.66 1046.1 256.43"/><polygon class="cls-13" points="1189.78 167.66 1414.56 278.49 1414.56 92.83 1189.78 167.66 1189.78 167.66"/><polygon class="cls-14" points="1066.99 142.96 1066.99 142.83 1066.99 142.83 932.32 0.07 969.32 176.73 1066.99 142.96"/><polygon class="cls-15" points="1045.99 256.49 969.32 176.73 988.32 337.02 1045.57 256.5 1045.89 256.68 1046.1 256.56 1045.99 256.49 1045.99 256.49"/><polygon class="cls-16" points="969.32 176.73 810.54 142.9 857.54 273.55 969.32 176.73"/><polygon class="cls-17" points="857.54 273.56 857.54 273.56 988 337.2 988.32 337.02 969.32 176.73 969.32 176.73 857.54 273.55 857.54 273.56"/><polygon class="cls-18" points="1045.99 256.49 1066.99 142.96 969.32 176.73 969.32 176.73 1045.99 256.49"/><polygon class="cls-19" points="810.54 142.9 969.32 176.73 969.32 176.73 932.32 0.07 810.53 142.9 810.54 142.9 810.54 142.9"/><polygon class="cls-20" points="987.78 337.33 987.78 337.33 857.33 273.69 857.01 273.87 797.01 429.16 797.01 429.16 987.78 337.34 987.78 337.33"/><polygon class="cls-21" points="597.43 328.21 597.22 328.33 797.01 429.16 857.01 273.87 597.75 328.39 597.43 328.21"/><polygon class="cls-22" points="797.01 429.16 922.78 464.99 987.78 337.34 797.01 429.16"/><polygon class="cls-11" points="597.22 328.33 597.22 328.33 597.33 328.4 648.33 442.93 797.01 429.16 797.01 429.16 597.22 328.33"/><polygon class="cls-23" points="597.22 328.46 468.55 376.23 648.33 443.06 648.33 443.06 648.22 442.99 597.22 328.46"/><polygon class="cls-24" points="408.87 221.75 408.55 221.93 468.55 376.23 597.22 328.46 597.22 328.33 408.87 221.75"/><polygon class="cls-25" points="408.55 221.93 370.29 406.46 369.97 406.27 369.76 406.4 468.55 376.23 408.55 221.93"/><polygon class="cls-26" points="444.08 132.97 582.75 116.73 582.75 15.07 443.97 132.9 444.08 132.97 444.08 132.97"/><polygon class="cls-27" points="582.75 116.73 810.53 142.91 810.53 142.9 810.53 142.9 582.75 15.07 582.75 116.73 582.75 116.73"/><polygon class="cls-28" points="597.75 328.02 857.01 273.5 857.33 273.69 857.54 273.56 857.53 273.56 857.53 273.56 582.75 116.73 582.75 116.73 597.75 328.02"/><polygon class="cls-29" points="810.53 142.91 582.75 116.73 857.53 273.56 810.53 142.91"/><polygon class="cls-30" points="582.75 116.73 582.75 116.73 444.08 132.97 409.08 221.5 582.75 116.73"/><polygon class="cls-31" points="597.75 328.02 582.75 116.73 409.08 221.5 409.08 221.63 409.08 221.63 597.43 328.21 597.75 328.02"/><polygon class="cls-32" points="289.29 185.8 128.5 92.97 128.5 278.63 289.29 185.8 289.29 185.8"/><polygon class="cls-33" points="289.29 185.8 128.5 278.63 369.97 406.27 370.29 406.09 289.29 185.8"/><polygon class="cls-34" points="128 277.8 0 351.74 200.68 429.27 201 429.09 128 277.8"/><polygon class="cls-15" points="289.29 185.8 443.97 133.03 443.97 132.9 443.97 132.9 289.29 0.14 289.29 185.8 289.29 185.8"/><polygon class="cls-35" points="289.29 0.14 128.5 92.97 289.29 185.8 289.29 0.14"/><polygon class="cls-36" points="443.97 133.03 289.29 185.8 408.97 221.56 443.97 133.03"/><polygon class="cls-37" points="408.87 221.75 409.08 221.63 408.97 221.56 408.97 221.56 289.29 185.8 289.29 185.8 370.29 406.09 408.55 221.57 408.87 221.75"/><polygon class="cls-38" points="369.57 406.75 369.79 406.63 369.67 406.56 369.67 406.56 128 278.8 128 278.8 201 430.09 369.25 406.57 369.57 406.75"/></g></g></svg>