<svg xmlns="http://www.w3.org/2000/svg" viewBox="0 0 750.45 675.48"><defs><style>.cls-1{fill:#fff;}</style></defs><g id="Layer_2" data-name="Layer 2"><g id="Layer_2-2" data-name="Layer 2"><g id="_1st_Animation_Template" data-name=" 1st Animation Template"><path id="Path_1297" data-name="Path 1297" class="cls-1" d="M532.51,263l-5.2,8.87-.88,1.52-3.93-6.8-2.13-3.67-.32-.55-16.71-29-.62-1.07h0l-12.29-21.29-8.72-15.19-6.38-11L471,177.24l1.67-3,3-5.28,1.28-2.23,1.88,3.26,1.9,3.27,6.36,11,1.26,2.17,12.29,21.3,3.8,6.58,1.24,2.16,3,5.2,9.3,16.11,8.44,14.65,1.48,2.56Z"/><path id="Path_1298" data-name="Path 1298" class="cls-1" d="M586.49,598.92h-79l-17.88-10.46h90.89Z"/><path id="Path_1299" data-name="Path 1299" class="cls-1" d="M485.12,514.3v10.44L458,524.6h-.7l-51.8-.26h0l-22.72-.13h-1.43l.09-.05L362,524h-1.45l.11,0,1.36-.77L378.16,514l.43-.24h7.54l13.32.08h.37l64.52.37,10.91,0Z"/><path id="Path_1300" data-name="Path 1300" class="cls-1" d="M510.1,588.47H489.42l-1-.58L468.1,576l5.22-9L500,582.52h0l3.85,2.24.13.07Z"/><path id="Path_1301" data-name="Path 1301" class="cls-1" d="M189.1,431.13l-9.38,16.25-2.7,4.67-9.38,16.25-18.95,32.83-6.05,10.46-.47.84-.84,1.42H129.28l.83-1.47.44-.76,6-10.46,14.2-24.54,9.4-16.27,2.69-4.66,9.4-16.26Z"/><path id="Path_1302" data-name="Path 1302" class="cls-1" d="M429.16,305.39l55.35,95.89-.35.19-7.23-4.18-4.18-2.39-4.18-2.4-1-.58-.84-.51-46.63-80.79Z"/><path id="Path_1303" data-name="Path 1303" class="cls-1" d="M466.56,253.5h-.2l.2.4v25.75H456.1V232.18l1.28,2.18v.12l4.9,8.47,4.22,7.32Z"/><path id="Path_1304" data-name="Path 1304" class="cls-1" d="M466.56,229.36v20.88l-4.18-7.32-4.9-8.47v-.11l-1.28-2.19-.15-.24-2.44-4.18-5.84-10.2-6-10.46-4.79-8.35-.63-1.06h0L424,176.37l-.4-.7h0l-.11-.19,6-10.46,1.5,2.58,1.25,2.18,3,5.18,5.49,9.52,3.82,6.61,2.23,3.85,2.41,4.18,5.3,9.19,5.16,9v.07l1.81,3.14Z"/><path id="Path_1305" data-name="Path 1305" class="cls-1" d="M744.51,658.12h-6l-6.06,0h12.09Z"/><path id="Path_1306" data-name="Path 1306" class="cls-1" d="M744.47,658h-12.1l-2-3.46L655.19,524.27l-1.55-2.7-1-1.74-2-3.49-1.45-2.5-1.58-2.74L522.77,294.9l-4.24-7.34-.17-.32-2-3.45-3-5.21-.83-1.48,6-10.46.84,1.52,3,5.23,2,3.46h0l.14.25L659.65,511l1.59,2.74,1.43,2.51,2,3.48,2.58,4.45.45.78,74.82,129.58Z"/><path id="Path_1307" data-name="Path 1307" class="cls-1" d="M744.48,658.12h-6l-6.07,0h12Z"/><path id="Path_1308" data-name="Path 1308" class="cls-1" d="M750.45,668.44H594.76l-1.36-2.37-4.08-7.1-.56-1H732.39l6.07,0h6Z"/><path id="Path_1309" data-name="Path 1309" class="cls-1" d="M744.51,658.12h-6l-6.06,0h12.09Z"/><path id="Path_1310" data-name="Path 1310" class="cls-1" d="M594.75,668.44H582.68l-.57-1-.84-1.45-4-7.06-.53-.93h-.05L576,657l-4-7.06-6-10.48h0l-23.26-40.48h12.07L560,608l18.1,31.48,6,10.47,4.07,7.1.58,1h0l.56,1,4.08,7.1Z"/><path id="Path_1311" data-name="Path 1311" class="cls-1" d="M554.52,649.83v0l-91.67-.26H450.62l-6.11-10.48h12.2v0l109.26.32h0l6,10.47Z"/><path id="Path_1312" data-name="Path 1312" class="cls-1" d="M448,624.12H12.08l6-10.46H441.83l5.7,9.76v.05Z"/><path id="Path_1313" data-name="Path 1313" class="cls-1" d="M148.68,480.21l-6,10.46H77l6-10.46Z"/><path id="Path_1314" data-name="Path 1314" class="cls-1" d="M89.12,490.67l-71,123-6,10.44H0l3-5.23,3-5.23,71-123Z"/><path id="Path_1315" data-name="Path 1315" class="cls-1" d="M486.63,150l-6,10.44-1.86,3.25-1.76,3L475.68,169l-3,5.28-1.67,3h0l-3.44,5.95-1.86,3.24-1.76,3-1.29,2.23-3,5.28-1.67,3-1.73,3-1.08,1.83-1.33,2.32-2.23-3.85-3.82-6.61,4.14-7.17,1.67-2.89.12-.21,3.05-5.28,1.21-2.07,1.84-3.19,1.77-3.09,3.45-5.92,2.59-4.5,2.25-3.88,1.21-2.07,1.84-3.19,1.76-3.09,6.05-10.44Z"/><path id="Path_1316" data-name="Path 1316" class="cls-1" d="M480.59,139.58l-6,10.44L400,20.89l-3-5.23-3-5.23L400,0l6,10.46Z"/><path id="Path_1317" data-name="Path 1317" class="cls-1" d="M400,20.92l-66.84,115.8-1.05,1.82-3,5.23-2,3.43-1,1.8L195.75,374.81l-.17.29-5.85,10.13H177.6l5.84-10.13.18-.29L320,138.54l1-1.73,2-3.5h0l3-5.22,1-1.74L393.93,10.48l3,5.23Z"/><path id="Path_1318" data-name="Path 1318" class="cls-1" d="M173.75,385.58l.19-.34-.17.34Z"/><path id="Path_1319" data-name="Path 1319" class="cls-1" d="M180,374.82l-6,10.42h0l-.19.34-44.57,77.2-10,17.44H107.05l10-17.44,16.11-27.9,10-17.43,18.59-32.21,6-10.42Z"/><path id="Path_1320" data-name="Path 1320" class="cls-1" d="M598.56,598.94H586.48l-6.05-10.46-37.07-64.19L539.19,517l-6.05-10.46-37.07-64.19-6-10.43-23.52-40.73-4.45-7.7h0l-.15-.28h0v-.05l-2.39-4.13-2.41-4.18h9.38v-4.59h0l1.35,2.34,5.47,9.48,28.78,49.83,6,10.43,37.06,64.19,6,10.46,4.18,7.27,36.05,62.46,1,1.74Z"/><path id="Path_1321" data-name="Path 1321" class="cls-1" d="M429.44,165l-6,10.46L370.77,266.6l-3,5.23-3,5.23L308.3,374.82H296.22L358.69,266.6l3-5.23h0l3-5.21L417.38,165l6.05-10.46,3.73,6.48Z"/><path id="Path_1322" data-name="Path 1322" class="cls-1" d="M388,517l-.83-.48h0Z"/><path id="Path_1323" data-name="Path 1323" class="cls-1" d="M388,517l-.83-.48h0Z"/><path id="Path_1324" data-name="Path 1324" class="cls-1" d="M207.6,422.08l4.59,9.4-32.46,15.93,9.38-16.25Z"/><path id="Path_1325" data-name="Path 1325" class="cls-1" d="M311.37,369.27l-1.86,3.14-.3.51h0l-1.09,1.88-.19.34-.26.45h0l-.84,1.43h0l-3.67,6.27-1,1.67h0l-.07.11-.88,1.49L299.8,389l-1.75,3h0l-39,66.31-9-5.31,21.6-36.72v-.05l23.57-40.11.62-1.08,4.75-8.07.16-.26h0l.06-.1,6.89-11.69,2.35-4,.09-.16,1,13.93.26,3.82Z"/><path id="Path_1326" data-name="Path 1326" class="cls-1" d="M399.48,524.28H123.23l6-10.46H381.35Z"/><path id="Path_1327" data-name="Path 1327" class="cls-1" d="M450.05,385.24h12.08L387.88,513.85h-4.4l-3.87-6.61Z"/><path id="Path_1328" data-name="Path 1328" class="cls-1" d="M471.87,665H459.66L456.1,659l-5.45-9.37-6.12-10.48-.14-.24L440,631.41l-.84-1.33-3.48-6-.4-.68-5.72-9.78H441.8l5.7,9.76v.05l.38.65,8.62,14.74.14.23v0l6.1,10.43v0Z"/><path id="Path_1329" data-name="Path 1329" class="cls-1" d="M477.94,675.44H131l5.89-10.2.13-.23h334.8Z"/><path id="Path_1330" data-name="Path 1330" class="cls-1" d="M166.72,613.66l-6.05,10.46-23.6,40.94-.13.22-5.89,10.2H119l6-10.42,23.6-40.94,6-10.46Z"/><path id="Path_1331" data-name="Path 1331" class="cls-1" d="M457.14,374.83l2.41,4.18,2.39,4.14h0l1.2,2.09H308.29l-1.44-2.44h0l-1.61-2.7-.83-1.38h0l-1.05-1.8-1.2-2.07Z"/><path id="Path_1332" data-name="Path 1332" class="cls-1" d="M466.56,374.82V375h0l-1.62,2.88L462.58,382l-.59,1h0l.15.28h0l-.15-.28h0V383l-2.39-4.13-2.41-4.18h.05Z"/><path id="Path_1333" data-name="Path 1333" class="cls-1" d="M524.55,277.13l-6,10.44-.18-.31-2-3.45-3-5.22-.84-1.48,6-10.46.84,1.52,3,5.23,2,3.47h0Z"/><path id="Path_1334" data-name="Path 1334" class="cls-1" d="M543,245l-9.57,16.37-1,1.6-5.2,8.87-.88,1.53-2,3.46-2-3.46-3-5.24-.84-1.52,18.45-32Z"/><path id="Path_1335" data-name="Path 1335" class="cls-1" d="M712.39,513.84H700.18L543,245l-6.1-10.43,6.1-10.42,6.1,10.42Z"/><path id="Path_1336" data-name="Path 1336" class="cls-1" d="M718.47,524.26H655.16l-1.55-2.69-1-1.75-2-3.48-1.44-2.51H712.4Z"/><path id="Path_1337" data-name="Path 1337" class="cls-1" d="M378.63,505.57l1,1.67-6.05,10.47-1-1.72-1.26-2.15-68.6-117.36-1.8-3.06h0l-2.5-4.27h0l-1-1.75,1.22-2.11h9.73l6.57,11.24,40.89,70Z"/><path id="Path_1338" data-name="Path 1338" class="cls-1" d="M389.56,524.27h-7.7l3.84-6.69Z"/><path id="Path_1339" data-name="Path 1339" class="cls-1" d="M464.89,375.14,379.67,522.68l-78.54-136-6-10.43.63-1.08Z"/><path id="Path_1340" data-name="Path 1340" class="cls-1" d="M195.68,374.82l-.17.29-5.85,10.13H139.34l6-10.43Z"/><path id="Path_1341" data-name="Path 1341" class="cls-1" d="M301.78,103.9l-44.62,77.26-6,10.46L145.37,374.81l-6,10.43H127.26l6-10.43L245.08,181.16l3-5.23h0l3-5.21,44.56-77.2,6.07,10.33Z"/><path id="Path_1342" data-name="Path 1342" class="cls-1" d="M333.14,136.72l-1,1.82-3,5.23-2,3.43L321,136.81l-13.11-22.43-6.14-10.49h0l-6.07-10.34,5-8.7,1.07-1.79,6.06,10.39h0l19.22,32.9Z"/><path id="Path_1343" data-name="Path 1343" class="cls-1" d="M289,231.78l42.3-24.41-45.12,78.18V397L282.64,403l-7.84,13.37v.05l-13.08,22.25V279l24.41-42.27Z"/><path id="Path_1344" data-name="Path 1344" class="cls-1" d="M425.52,65.08H413.37l-57.74,100-42.27,24.41L385.21,65.08,399.3,40.67h12.15l4.95,8.62,5.79,10Z"/><path id="Path_1345" data-name="Path 1345" class="cls-1" d="M199.64,583l42.27,24.41H35.31l-6.79-11.77L35.79,583,39,577.51l3.61-6.24L49.4,583Z"/><path id="Path_1346" data-name="Path 1346" class="cls-1" d="M472.09,524.23h0L370.26,583,328,607.41H290.72L248.45,583h73l101.8-58.77.47-.27h7.67l26,.14H458Z"/><path id="Path_1347" data-name="Path 1347" class="cls-1" d="M592.84,433.92l12.32,21.32V504l-54.58-94.54-92-53.09-.84-1.44L436.85,318.7l-2.61-4.56,92,53.09h0l42.26,24.39Z"/><path id="Path_1348" data-name="Path 1348" class="cls-1" d="M714.74,645.05l-7.46,13H679.09l7.52-13-57-98.74V497.52l71.1,123.15Z"/></g></g></g></svg>